<svg width="1440" height="593" viewBox="0 0 1440 593" fill="none" xmlns="http://www.w3.org/2000/svg">
<rect x="1078" y="99.6113" width="349.829" height="148.98" rx="74.4902" transform="rotate(-27.6993 1078 99.6113)" fill="#DCD5F6" fill-opacity="0.5"/>
<rect x="-97" y="170.611" width="349.829" height="148.98" rx="74.4902" transform="rotate(-27.6993 -97 170.611)" fill="#DCD5F6"/>
<rect x="1170" y="126.611" width="349.829" height="148.98" rx="74.4902" transform="rotate(-27.6993 1170 126.611)" fill="#DCD5F6"/>
<rect x="1112.37" y="122.811" width="328.998" height="57.8246" rx="28.9123" transform="rotate(-30 1112.37 122.811)" stroke="#B7B6F5" stroke-width="2"/>
<rect x="-201" y="178.469" width="399" height="93.09" rx="46.545" transform="rotate(-27.6993 -201 178.469)" fill="#DCE8FA"/>
<circle cx="328" cy="34" r="50" fill="#DCD5F6" fill-opacity="0.5"/>
<circle cx="-1" cy="321" r="8" fill="#BDB8F8"/>
<circle cx="23" cy="321" r="8" fill="#BDB8F8"/>
<circle cx="47" cy="321" r="8" fill="#BDB8F8"/>
<circle cx="71" cy="321" r="8" fill="#BDB8F8"/>
<circle cx="-1" cy="345" r="8" fill="#BDB8F8"/>
<circle cx="23" cy="345" r="8" fill="#BDB8F8"/>
<circle cx="47" cy="345" r="8" fill="#BDB8F8"/>
<circle cx="71" cy="345" r="8" fill="#BDB8F8"/>
<circle cx="-1" cy="369" r="8" fill="#BDB8F8"/>
<circle cx="23" cy="369" r="8" fill="#BDB8F8"/>
<circle cx="47" cy="369" r="8" fill="#BDB8F8"/>
<circle cx="71" cy="369" r="8" fill="#BDB8F8"/>
<circle cx="-1" cy="393" r="8" fill="#BDB8F8"/>
<circle cx="23" cy="393" r="8" fill="#BDB8F8"/>
<circle cx="47" cy="393" r="8" fill="#BDB8F8"/>
<circle cx="71" cy="393" r="8" fill="#BDB8F8"/>
<circle cx="-1" cy="417" r="8" fill="#BDB8F8"/>
<circle cx="23" cy="417" r="8" fill="#BDB8F8"/>
<circle cx="47" cy="417" r="8" fill="#BDB8F8"/>
<circle cx="71" cy="417" r="8" fill="#BDB8F8"/>
<circle cx="-1" cy="393" r="8" fill="#BDB8F8"/>
<circle cx="23" cy="393" r="8" fill="#BDB8F8"/>
<circle cx="47" cy="393" r="8" fill="#BDB8F8"/>
<circle cx="71" cy="393" r="8" fill="#BDB8F8"/>
<circle cx="1007" cy="119" r="8" fill="#BDB8F8"/>
<circle cx="1031" cy="119" r="8" fill="#BDB8F8"/>
<circle cx="1055" cy="119" r="8" fill="#BDB8F8"/>
<circle cx="1079" cy="119" r="8" fill="#BDB8F8"/>
<circle cx="1103" cy="119" r="8" fill="#BDB8F8"/>
<circle cx="1007" cy="143" r="8" fill="#BDB8F8"/>
<circle cx="1031" cy="143" r="8" fill="#BDB8F8"/>
<circle cx="1055" cy="143" r="8" fill="#BDB8F8"/>
<circle cx="1079" cy="143" r="8" fill="#BDB8F8"/>
<circle cx="1103" cy="143" r="8" fill="#BDB8F8"/>
<circle cx="1007" cy="167" r="8" fill="#BDB8F8"/>
<circle cx="1031" cy="167" r="8" fill="#BDB8F8"/>
<circle cx="1055" cy="167" r="8" fill="#BDB8F8"/>
<circle cx="1079" cy="167" r="8" fill="#BDB8F8"/>
<circle cx="1103" cy="167" r="8" fill="#BDB8F8"/>
<circle cx="1007" cy="191" r="8" fill="#BDB8F8"/>
<circle cx="1031" cy="191" r="8" fill="#BDB8F8"/>
<circle cx="1055" cy="191" r="8" fill="#BDB8F8"/>
<circle cx="1079" cy="191" r="8" fill="#BDB8F8"/>
<circle cx="1103" cy="191" r="8" fill="#BDB8F8"/>
<circle cx="1007" cy="215" r="8" fill="#BDB8F8"/>
<circle cx="1031" cy="215" r="8" fill="#BDB8F8"/>
<circle cx="1055" cy="215" r="8" fill="#BDB8F8"/>
<circle cx="1079" cy="215" r="8" fill="#BDB8F8"/>
<circle cx="1103" cy="215" r="8" fill="#BDB8F8"/>
<circle cx="1007" cy="191" r="8" fill="#BDB8F8"/>
<circle cx="1031" cy="191" r="8" fill="#BDB8F8"/>
<circle cx="1055" cy="191" r="8" fill="#BDB8F8"/>
<circle cx="1079" cy="191" r="8" fill="#BDB8F8"/>
<circle cx="1103" cy="191" r="8" fill="#BDB8F8"/>
<rect x="1156" y="484.469" width="399" height="122.284" rx="61.1422" transform="rotate(-27.6993 1156 484.469)" fill="#DCE8FA"/>
<rect x="1098.69" y="378.688" width="238.892" height="148.98" rx="74.4902" transform="rotate(-30 1098.69 378.688)" fill="#DCD5F6"/>
<rect x="1200.63" y="438.19" width="236.89" height="57.8246" rx="28.9123" transform="rotate(-30 1200.63 438.19)" stroke="#B7B6F5" stroke-width="2"/>
<circle cx="1106" cy="425" r="50" fill="#DCE8FA"/>
</svg>
