<svg width="15" height="15" viewBox="0 0 15 15" fill="none" xmlns="http://www.w3.org/2000/svg">
<path d="M9 1.5C8.58516 1.5 8.25 1.83516 8.25 2.25C8.25 2.66484 8.58516 3 9 3H10.9383L6.21797 7.72031C5.925 8.01328 5.925 8.48906 6.21797 8.78203C6.51094 9.075 6.98672 9.075 7.27969 8.78203L12 4.06172V6C12 6.41484 12.3352 6.75 12.75 6.75C13.1648 6.75 13.5 6.41484 13.5 6V2.25C13.5 1.83516 13.1648 1.5 12.75 1.5H9ZM3.375 3.75C2.33906 3.75 1.5 4.58906 1.5 5.625V11.625C1.5 12.6609 2.33906 13.5 3.375 13.5H9.375C10.4109 13.5 11.25 12.6609 11.25 11.625V9.75C11.25 9.33516 10.9148 9 10.5 9C10.0852 9 9.75 9.33516 9.75 9.75V11.625C9.75 11.8312 9.58125 12 9.375 12H3.375C3.16875 12 3 11.8312 3 11.625V5.625C3 5.41875 3.16875 5.25 3.375 5.25H5.25C5.66484 5.25 6 4.91484 6 4.5C6 4.08516 5.66484 3.75 5.25 3.75H3.375Z" fill="white"/>
</svg>
