<?xml version="1.0" encoding="UTF-8"?>
<svg xmlns="http://www.w3.org/2000/svg" viewBox="0 0 686.47 470.9">
  <defs>
    <style>
      .cls-1 {
        fill: #d6d6eb;
      }

      .cls-1, .cls-2, .cls-3, .cls-4 {
        mix-blend-mode: multiply;
      }

      .cls-5 {
        fill: #ff8762;
      }

      .cls-6 {
        fill: #7279a1;
      }

      .cls-7 {
        fill: #2b1710;
      }

      .cls-8 {
        fill: #ccdff0;
      }

      .cls-9 {
        fill: #b0d4f8;
      }

      .cls-10 {
        fill: #734333;
      }

      .cls-11 {
        fill: #f77754;
      }

      .cls-12 {
        fill: #5b628c;
      }

      .cls-13 {
        fill: #8dd485;
      }

      .cls-14 {
        fill: #686e8f;
      }

      .cls-15 {
        fill: #f7a790;
      }

      .cls-16 {
        fill: #b6cfe6;
      }

      .cls-17 {
        fill: #f0734d;
      }

      .cls-2 {
        fill: #bfbfbf;
      }

      .cls-18 {
        isolation: isolate;
      }

      .cls-19 {
        fill: #a7e8a0;
      }

      .cls-20 {
        fill: #848bb5;
      }

      .cls-21 {
        fill: #fff;
      }

      .cls-3 {
        fill: #ccc;
      }

      .cls-22 {
        fill: #bbd1e6;
      }

      .cls-23 {
        fill: #491710;
      }

      .cls-24 {
        fill: #7bb576;
      }

      .cls-25 {
        fill: #929bcf;
      }

      .cls-26 {
        fill: #dae8f5;
      }

      .cls-27 {
        fill: #f1f8ff;
      }

      .cls-28 {
        fill: #f7f7f9;
      }

      .cls-4 {
        fill: #e0b3a8;
      }

      .cls-29 {
        fill: #671710;
      }

      .cls-30 {
        fill: #6cb3f6;
      }
    </style>
  </defs>
  <g class="cls-18">
    <g id="_レイヤー_2" data-name="レイヤー 2">
      <g id="Layer_1" data-name="Layer 1">
        <g>
          <path class="cls-27" d="M614.08,110.41C547.65-9.16,326.22-27.76,233.22,36.01c-93.88,64.37-92.11,183.34-162.97,211.68C-.61,276.04-29.83,382.33,44.57,456.73l571.28-1.77c40.74-64.66,64.66-224.97-1.77-344.54Z"/>
          <g>
            <path class="cls-16" d="M305.67,92.18h-9.57c-.16,0-.29-.13-.29-.29v-9.57c0-.16.13-.29.29-.29h9.57c.16,0,.29.13.29.29v9.57c0,.16-.13.29-.29.29ZM296.38,91.6h9v-9h-9v9Z"/>
            <path class="cls-16" d="M305.67,115.68h-9.57c-.16,0-.29-.13-.29-.29v-9.57c0-.16.13-.29.29-.29h9.57c.16,0,.29.13.29.29v9.57c0,.16-.13.29-.29.29ZM296.38,115.11h9v-9h-9v9Z"/>
            <path class="cls-16" d="M287.89,115.68h-9.57c-.16,0-.29-.13-.29-.29v-9.57c0-.16.13-.29.29-.29h9.57c.16,0,.29.13.29.29v9.57c0,.16-.13.29-.29.29ZM278.61,115.11h9v-9h-9v9Z"/>
            <path class="cls-16" d="M323.44,115.68h-9.57c-.16,0-.29-.13-.29-.29v-9.57c0-.16.13-.29.29-.29h9.57c.16,0,.29.13.29.29v9.57c0,.16-.13.29-.29.29ZM314.15,115.11h9v-9h-9v9Z"/>
            <path class="cls-16" d="M300.73,106.09c-.16,0-.29-.13-.29-.29v-13.91c0-.16.13-.29.29-.29s.29.13.29.29v13.91c0,.16-.13.29-.29.29Z"/>
            <path class="cls-16" d="M318.75,106.24c-.16,0-.29-.13-.29-.29v-7.19h-35.17v7.04c0,.16-.13.29-.29.29s-.29-.13-.29-.29v-7.33c0-.16.13-.29.29-.29h35.75c.16,0,.29.13.29.29v7.48c0,.16-.13.29-.29.29Z"/>
          </g>
          <g>
            <path class="cls-16" d="M312.97,42.67c-.08,0-.15-.03-.21-.09l-5.2-5.57h-18c-1.24,0-2.25-1.01-2.25-2.25v-11.55c0-1.24,1.01-2.25,2.25-2.25h21.45c1.24,0,2.25,1.01,2.25,2.25v19.18c0,.12-.07.22-.18.27-.03.01-.07.02-.1.02ZM289.56,21.52c-.92,0-1.68.75-1.68,1.68v11.55c0,.92.75,1.68,1.68,1.68h18.13c.08,0,.16.03.21.09l4.79,5.13v-18.45c0-.92-.75-1.68-1.68-1.68h-21.45Z"/>
            <path class="cls-16" d="M294.19,30.55c-.99,0-1.8-.81-1.8-1.8s.81-1.8,1.8-1.8,1.8.81,1.8,1.8-.81,1.8-1.8,1.8ZM294.19,27.53c-.68,0-1.23.55-1.23,1.23s.55,1.23,1.23,1.23,1.23-.55,1.23-1.23-.55-1.23-1.23-1.23Z"/>
            <path class="cls-16" d="M300.5,30.55c-.99,0-1.8-.81-1.8-1.8s.81-1.8,1.8-1.8,1.8.81,1.8,1.8-.81,1.8-1.8,1.8ZM300.5,27.53c-.68,0-1.23.55-1.23,1.23s.55,1.23,1.23,1.23,1.23-.55,1.23-1.23-.55-1.23-1.23-1.23Z"/>
            <path class="cls-16" d="M306.81,30.55c-.99,0-1.8-.81-1.8-1.8s.81-1.8,1.8-1.8,1.8.81,1.8,1.8-.81,1.8-1.8,1.8ZM306.81,27.53c-.68,0-1.23.55-1.23,1.23s.55,1.23,1.23,1.23,1.23-.55,1.23-1.23-.55-1.23-1.23-1.23Z"/>
          </g>
          <g>
            <path class="cls-16" d="M409.28,71.97c-8.57,0-15.54-6.97-15.54-15.54s6.97-15.54,15.54-15.54,15.54,6.97,15.54,15.54-6.97,15.54-15.54,15.54ZM409.28,41.46c-8.25,0-14.97,6.72-14.97,14.97s6.72,14.97,14.97,14.97,14.97-6.72,14.97-14.97-6.72-14.97-14.97-14.97Z"/>
            <path class="cls-16" d="M409.28,71.97c-3.77,0-6.72-6.83-6.72-15.54s2.95-15.54,6.72-15.54,6.72,6.83,6.72,15.54-2.95,15.54-6.72,15.54ZM409.28,41.46c-3.39,0-6.14,6.72-6.14,14.97s2.76,14.97,6.14,14.97,6.14-6.72,6.14-14.97-2.76-14.97-6.14-14.97Z"/>
            <path class="cls-16" d="M409.28,49.96c-4.83,0-9.29-.93-12.25-2.56-.07-.04-.13-.11-.14-.19-.02-.08,0-.17.05-.23,2.97-3.87,7.47-6.09,12.34-6.09s9.37,2.22,12.34,6.09c.05.07.07.15.05.23-.02.08-.07.15-.14.19-2.96,1.62-7.42,2.56-12.25,2.56ZM397.61,47.06c2.87,1.48,7.1,2.33,11.67,2.33s8.8-.85,11.67-2.33c-2.86-3.56-7.1-5.6-11.67-5.6s-8.81,2.04-11.67,5.6Z"/>
            <path class="cls-16" d="M409.28,71.97c-4.67,0-9.05-2.07-12.01-5.68-.06-.07-.08-.16-.06-.24.02-.09.07-.16.15-.2,2.95-1.51,7.3-2.38,11.92-2.38s8.97.87,11.92,2.38c.08.04.13.11.15.2.02.08,0,.17-.06.24-2.97,3.61-7.35,5.68-12.01,5.68ZM397.95,66.2c2.85,3.31,6.96,5.2,11.34,5.2s8.49-1.89,11.34-5.2c-2.86-1.37-6.97-2.16-11.34-2.16s-8.47.78-11.34,2.16Z"/>
            <path class="cls-16" d="M409.28,71.97c-.16,0-.29-.13-.29-.29v-30.51c0-.16.13-.29.29-.29s.29.13.29.29v30.51c0,.16-.13.29-.29.29Z"/>
            <path class="cls-16" d="M424.54,56.71h-30.51c-.16,0-.29-.13-.29-.29s.13-.29.29-.29h30.51c.16,0,.29.13.29.29s-.13.29-.29.29Z"/>
          </g>
          <g>
            <path class="cls-16" d="M90.96,209.25h-22.73c-.16,0-.29-.13-.29-.29v-29.32c0-.16.13-.29.29-.29h17.76c.07,0,.14.03.19.08l4.97,4.6c.06.05.09.13.09.21v24.72c0,.16-.13.29-.29.29ZM68.51,208.67h22.16v-24.3l-4.8-4.44h-17.36v28.74Z"/>
            <path class="cls-16" d="M90.96,184.53h0l-4.92-.06c-.16,0-.28-.13-.28-.28l-.06-4.54c0-.16.12-.29.28-.29.17,0,.29.12.29.28l.05,4.26,4.64.05c.16,0,.28.13.28.29,0,.16-.13.28-.29.28Z"/>
            <path class="cls-16" d="M78.86,184.2h-8.64c-.16,0-.29-.13-.29-.29s.13-.29.29-.29h8.64c.16,0,.29.13.29.29s-.13.29-.29.29Z"/>
            <path class="cls-16" d="M88.03,188.21h-17.81c-.16,0-.29-.13-.29-.29s.13-.29.29-.29h17.81c.16,0,.29.13.29.29s-.13.29-.29.29Z"/>
            <path class="cls-16" d="M88.03,194.52h-17.81c-.16,0-.29-.13-.29-.29s.13-.29.29-.29h17.81c.16,0,.29.13.29.29s-.13.29-.29.29Z"/>
            <path class="cls-16" d="M88.03,200.82h-17.81c-.16,0-.29-.13-.29-.29s.13-.29.29-.29h17.81c.16,0,.29.13.29.29s-.13.29-.29.29Z"/>
          </g>
          <g>
            <path class="cls-16" d="M184.89,439.26h-3.19c-.13,0-.24-.11-.24-.24v-1.87c-1.14-.27-2.2-.75-3.16-1.43l-1.41,1.41c-.1.1-.25.1-.35,0l-2.25-2.25c-.1-.1-.1-.25,0-.35l1.48-1.48c-.59-.95-1-1.98-1.21-3.08h-2.16c-.14,0-.24-.11-.24-.24v-3.19c0-.13.11-.24.24-.24h2.18c.23-1.08.64-2.1,1.23-3.04l-1.52-1.52c-.1-.1-.1-.25,0-.35l2.25-2.25c.09-.09.25-.09.35,0l1.47,1.47c.94-.65,1.98-1.12,3.09-1.38v-1.98c0-.13.11-.24.24-.24h3.19c.14,0,.24.11.24.24v1.85c1.19.2,2.32.62,3.35,1.26l1.22-1.22c.09-.09.25-.09.35,0l2.25,2.25s.07.11.07.17-.03.13-.07.17l-1.14,1.14c.72,1.02,1.23,2.2,1.49,3.42h1.54c.13,0,.24.11.24.24v3.19c0,.13-.11.24-.24.24h-1.52c-.24,1.24-.75,2.43-1.47,3.46l1.1,1.1s.07.11.07.17-.03.13-.07.17l-2.25,2.25c-.09.09-.25.09-.35,0l-1.15-1.15c-1.05.66-2.19,1.1-3.41,1.3v1.74c0,.13-.11.24-.24.24ZM181.94,438.77h2.7v-1.71c0-.12.09-.22.21-.24,1.29-.18,2.5-.64,3.59-1.37.1-.06.23-.05.31.03l1.12,1.12,1.91-1.91-1.07-1.07c-.08-.08-.1-.22-.02-.32.78-1.07,1.31-2.33,1.54-3.63.02-.12.12-.2.24-.2h1.48v-2.7h-1.5c-.12,0-.22-.08-.24-.2-.24-1.29-.78-2.53-1.56-3.59-.07-.1-.06-.23.02-.32l1.12-1.12-1.91-1.91-1.18,1.18c-.08.08-.21.09-.31.03-1.07-.7-2.26-1.15-3.52-1.33-.12-.02-.21-.12-.21-.24v-1.81h-2.7v1.93c0,.11-.08.21-.19.24-1.19.26-2.29.75-3.27,1.47-.1.07-.23.06-.32-.02l-1.44-1.44-1.91,1.91,1.49,1.49c.08.08.1.21.03.31-.65.98-1.09,2.07-1.31,3.23-.02.12-.12.2-.24.2h-2.14v2.7h2.12c.12,0,.22.09.24.2.2,1.17.63,2.27,1.29,3.27.06.1.05.22-.03.31l-1.45,1.45,1.91,1.91,1.38-1.38c.09-.09.22-.1.32-.02,1,.74,2.12,1.25,3.33,1.51.11.02.19.12.19.24v1.82ZM183.61,433.69c-3.04,0-5.52-2.48-5.52-5.52s2.48-5.52,5.52-5.52c2.72,0,5.02,1.95,5.45,4.64v1.72c-.16,1.06-.62,2.02-1.31,2.8l-.48.48s0,0-.01.01c-1.01.89-2.3,1.38-3.65,1.38ZM183.61,423.15c-2.77,0-5.03,2.26-5.03,5.03s2.26,5.03,5.03,5.03c1.22,0,2.4-.44,3.32-1.25l.47-.47c.62-.7,1.03-1.57,1.18-2.51v-1.64c-.39-2.41-2.48-4.19-4.96-4.19ZM187.1,432.13h0,0Z"/>
            <path class="cls-16" d="M168.01,439.25s-.08,0-.11-.03c-.06-.03-.1-.08-.12-.14l-.48-1.55c-.36,0-.72-.05-1.08-.14l-.78,1.47c-.03.06-.08.1-.14.12-.06.02-.13.01-.19-.02l-1.46-.77c-.12-.06-.17-.21-.1-.33l.81-1.54c-.24-.24-.45-.5-.63-.78l-1.68.52c-.06.02-.13.01-.19-.02-.06-.03-.1-.08-.12-.14l-.49-1.58c-.04-.13.03-.27.16-.31l1.69-.53c-.01-.33.02-.66.08-.98l-1.56-.82c-.12-.06-.17-.21-.1-.33l.77-1.46c.03-.06.08-.1.14-.12.06-.02.13-.01.19.02l1.52.8c.23-.26.49-.5.78-.7l-.5-1.6c-.02-.06-.01-.13.02-.19.03-.06.08-.1.14-.12l1.58-.49c.06-.02.13-.01.19.02.06.03.1.08.12.14l.47,1.52c.38-.03.77-.01,1.14.06l.72-1.37c.03-.06.08-.1.14-.12.06-.02.13-.01.19.02l1.46.77c.12.06.17.21.1.33l-.68,1.3c.31.27.58.58.8.93l1.38-.43c.06-.02.13-.01.19.02.06.03.1.08.12.14l.49,1.58c.04.13-.03.27-.16.31l-1.36.42c.02.42-.02.83-.12,1.24l1.28.67c.12.06.17.21.1.33l-.77,1.46c-.06.12-.21.17-.33.1l-1.32-.69c-.28.29-.59.53-.94.73l.46,1.47c.04.13-.03.27-.16.31l-1.58.49s-.05.01-.07.01ZM167.48,437.03c.11,0,.2.07.23.17l.46,1.49,1.11-.35-.44-1.42c-.04-.11.02-.24.12-.29.42-.21.79-.5,1.1-.85.07-.09.2-.11.3-.06l1.27.67.54-1.03-1.23-.65c-.1-.05-.15-.18-.12-.29.15-.47.19-.96.15-1.44-.01-.12.06-.22.17-.26l1.32-.41-.35-1.11-1.33.41c-.11.03-.23-.01-.28-.11-.24-.42-.56-.78-.94-1.08-.09-.07-.12-.2-.07-.31l.66-1.26-1.03-.54-.69,1.31c-.05.1-.16.15-.27.12-.44-.11-.9-.13-1.36-.07-.12.02-.23-.06-.27-.17l-.46-1.48-1.11.35.48,1.54c.03.11-.01.22-.1.28-.36.22-.68.51-.95.84-.07.09-.2.12-.31.06l-1.48-.78-.54,1.03,1.51.8c.1.05.15.17.12.28-.1.39-.13.8-.1,1.21,0,.11-.06.22-.17.25l-1.64.51.35,1.11,1.63-.51c.11-.03.23.01.29.12.2.36.46.68.77.96.08.07.11.2.05.3l-.78,1.49,1.03.54.76-1.44c.06-.1.18-.16.29-.12.42.13.86.19,1.29.17,0,0,0,0,.01,0ZM167.29,435.03c-.27,0-.54-.07-.78-.19-.4-.21-.69-.56-.83-.99-.13-.43-.09-.89.12-1.28s.56-.69.99-.83c.89-.28,1.83.22,2.11,1.11.13.43.09.89-.12,1.28-.21.4-.56.69-.99.83h0c-.17.05-.33.08-.5.08ZM167.29,432.15c-.12,0-.24.02-.35.05-.31.09-.56.3-.7.59-.15.28-.18.61-.08.91.09.31.3.56.59.7.28.15.61.18.91.08h0c.31-.09.56-.3.7-.59.15-.28.18-.61.08-.91-.16-.51-.63-.84-1.14-.84Z"/>
          </g>
          <g>
            <path class="cls-16" d="M595.9,155.45h-3.19c-.13,0-.24-.11-.24-.24v-1.87c-1.14-.27-2.2-.75-3.16-1.43l-1.41,1.41c-.1.1-.25.1-.35,0l-2.25-2.25c-.1-.1-.1-.25,0-.35l1.48-1.48c-.59-.95-1-1.98-1.21-3.08h-2.16c-.13,0-.24-.11-.24-.24v-3.19c0-.13.11-.24.24-.24h2.18c.23-1.08.64-2.1,1.23-3.04l-1.52-1.52c-.1-.1-.1-.25,0-.35l2.25-2.25c.09-.09.25-.09.35,0l1.47,1.47c.94-.65,1.98-1.12,3.09-1.39v-1.98c0-.13.11-.24.24-.24h3.19c.13,0,.24.11.24.24v1.85c1.19.2,2.32.62,3.35,1.26l1.22-1.22c.09-.09.25-.09.35,0l2.25,2.25s.07.11.07.17-.03.13-.07.17l-1.14,1.14c.72,1.02,1.23,2.2,1.49,3.42h1.54c.13,0,.24.11.24.24v3.19c0,.13-.11.24-.24.24h-1.52c-.24,1.24-.75,2.43-1.47,3.46l1.1,1.1s.07.11.07.17-.03.13-.07.17l-2.25,2.25c-.09.09-.25.09-.35,0l-1.15-1.15c-1.05.66-2.19,1.1-3.41,1.3v1.74c0,.13-.11.24-.24.24ZM592.95,154.96h2.7v-1.71c0-.12.09-.22.21-.24,1.29-.18,2.5-.64,3.59-1.37.1-.06.23-.05.31.03l1.12,1.12,1.91-1.91-1.07-1.07c-.08-.09-.1-.22-.02-.32.78-1.07,1.31-2.33,1.54-3.63.02-.12.12-.2.24-.2h1.48v-2.7h-1.5c-.12,0-.22-.08-.24-.2-.24-1.29-.78-2.53-1.56-3.59-.07-.1-.06-.23.02-.32l1.12-1.12-1.91-1.91-1.18,1.18c-.08.08-.21.09-.31.03-1.07-.7-2.26-1.15-3.52-1.33-.12-.02-.21-.12-.21-.24v-1.81h-2.7v1.93c0,.11-.08.21-.19.24-1.19.26-2.29.75-3.27,1.47-.1.07-.23.06-.32-.02l-1.44-1.44-1.91,1.91,1.49,1.49c.08.08.1.21.03.31-.65.98-1.09,2.07-1.31,3.22-.02.12-.12.2-.24.2h-2.14v2.7h2.12c.12,0,.22.09.24.2.2,1.17.63,2.27,1.29,3.27.06.1.05.22-.03.31l-1.45,1.45,1.91,1.91,1.38-1.38c.09-.09.22-.1.32-.02,1,.74,2.12,1.25,3.33,1.51.11.02.19.12.19.24v1.82ZM594.62,149.89c-3.04,0-5.52-2.47-5.52-5.52s2.48-5.52,5.52-5.52c2.72,0,5.02,1.95,5.45,4.64v1.72c-.16,1.06-.62,2.02-1.31,2.8l-.48.48s0,0-.01.01c-1.01.89-2.3,1.38-3.65,1.38ZM594.62,139.34c-2.77,0-5.03,2.26-5.03,5.03s2.26,5.03,5.03,5.03c1.22,0,2.4-.44,3.32-1.25l.47-.47c.62-.7,1.03-1.57,1.18-2.51v-1.64c-.39-2.41-2.48-4.19-4.96-4.19ZM598.1,148.32h0,0Z"/>
            <path class="cls-16" d="M579.02,155.44s-.08,0-.11-.03c-.06-.03-.1-.08-.12-.14l-.48-1.55c-.36,0-.72-.05-1.08-.14l-.78,1.47c-.03.06-.08.1-.14.12-.06.02-.13.01-.19-.02l-1.46-.77c-.12-.06-.17-.21-.1-.33l.81-1.54c-.24-.24-.45-.5-.63-.78l-1.68.52c-.06.02-.13.01-.19-.02-.06-.03-.1-.08-.12-.14l-.49-1.58c-.04-.13.03-.27.16-.31l1.69-.53c-.01-.33.02-.66.08-.98l-1.56-.82c-.12-.06-.17-.21-.1-.33l.77-1.46c.03-.06.08-.1.14-.12.06-.02.13-.01.19.02l1.52.8c.23-.26.49-.5.78-.7l-.5-1.6c-.02-.06-.01-.13.02-.19.03-.06.08-.1.14-.12l1.58-.49c.06-.02.13-.01.19.02.06.03.1.08.12.14l.47,1.52c.38-.03.77-.01,1.14.06l.72-1.37c.03-.06.08-.1.14-.12.06-.02.13-.01.19.02l1.46.77c.12.06.17.21.1.33l-.68,1.3c.31.27.58.58.8.93l1.38-.43c.06-.02.13-.01.19.02.06.03.1.08.12.14l.49,1.58c.04.13-.03.27-.16.31l-1.36.42c.02.42-.02.83-.12,1.24l1.28.67c.12.06.17.21.1.33l-.77,1.46c-.06.12-.21.17-.33.1l-1.32-.69c-.28.29-.59.53-.94.73l.46,1.47c.04.13-.03.27-.16.31l-1.58.49s-.05.01-.07.01ZM578.49,153.23c.11,0,.2.07.23.17l.46,1.49,1.11-.35-.44-1.42c-.04-.11.02-.24.12-.29.42-.21.79-.5,1.1-.85.07-.09.2-.11.3-.06l1.27.67.54-1.03-1.23-.65c-.1-.05-.15-.18-.12-.29.14-.47.19-.96.15-1.44-.01-.12.06-.22.17-.26l1.32-.41-.35-1.11-1.33.41c-.11.03-.23-.01-.28-.11-.24-.42-.56-.78-.94-1.08-.09-.07-.12-.2-.07-.31l.66-1.26-1.03-.54-.69,1.31c-.05.1-.16.15-.27.12-.44-.11-.9-.13-1.36-.07-.12.02-.23-.06-.27-.17l-.46-1.48-1.11.35.48,1.54c.03.11-.01.22-.1.28-.36.22-.68.51-.95.84-.07.09-.2.12-.31.06l-1.48-.78-.54,1.03,1.51.8c.1.05.15.17.12.28-.1.39-.13.8-.1,1.21,0,.11-.06.22-.17.25l-1.64.51.35,1.11,1.63-.51c.11-.03.23.01.29.12.2.36.46.68.77.96.08.07.11.2.05.3l-.78,1.49,1.03.54.76-1.44c.06-.1.18-.16.29-.12.42.13.86.19,1.29.17,0,0,0,0,.01,0ZM578.3,151.22c-.27,0-.54-.07-.78-.19-.4-.21-.69-.56-.83-.99-.13-.43-.09-.89.12-1.28.21-.4.56-.69.99-.83.89-.28,1.83.22,2.11,1.11.13.43.09.89-.12,1.28-.21.4-.56.69-.99.83h0c-.17.05-.33.08-.5.08ZM578.3,148.34c-.12,0-.24.02-.35.05-.31.09-.56.3-.7.59-.15.28-.18.61-.08.91.09.31.3.56.59.7.28.15.61.18.91.08h0c.31-.09.56-.3.7-.59.15-.28.18-.61.08-.91-.16-.51-.63-.84-1.14-.84Z"/>
          </g>
          <g>
            <path class="cls-16" d="M198.89,93.68h-22.5c-1.47,0-2.67-1.2-2.67-2.67v-14.45c0-1.47,1.2-2.67,2.67-2.67h22.5c1.47,0,2.67,1.2,2.67,2.67v14.45c0,1.47-1.2,2.67-2.67,2.67ZM176.39,74.69c-1.03,0-1.88.84-1.88,1.88v14.45c0,1.03.84,1.87,1.88,1.87h22.5c1.03,0,1.88-.84,1.88-1.87v-14.45c0-1.03-.84-1.88-1.88-1.88h-22.5Z"/>
            <path class="cls-16" d="M198.89,92.1h-22.5c-.6,0-1.08-.49-1.08-1.08v-14.45c0-.6.49-1.08,1.08-1.08h22.5c.6,0,1.08.49,1.08,1.08v14.45c0,.6-.49,1.08-1.08,1.08ZM176.39,76.28c-.16,0-.29.13-.29.29v14.45c0,.16.13.29.29.29h22.5c.16,0,.29-.13.29-.29v-14.45c0-.16-.13-.29-.29-.29h-22.5Z"/>
            <path class="cls-16" d="M200.28,97.4h-25.7c-1.04,0-1.89-.85-1.89-1.89s.85-1.89,1.89-1.89h25.7c1.04,0,1.89.85,1.89,1.89s-.85,1.89-1.89,1.89ZM174.58,94.41c-.61,0-1.1.49-1.1,1.1s.49,1.1,1.1,1.1h25.7c.61,0,1.1-.49,1.1-1.1s-.49-1.1-1.1-1.1h-25.7Z"/>
          </g>
          <g>
            <path class="cls-16" d="M683.03,172.37h-24.36c-.22,0-.4-.18-.4-.4v-19.61c0-.22.18-.4.4-.4h5.06c.16,0,.31.1.37.26l1.38,3.67h17.55c.22,0,.4.18.4.4v15.69c0,.22-.18.4-.4.4ZM659.07,171.58h23.57v-14.9h-17.43c-.16,0-.31-.1-.37-.26l-1.38-3.67h-4.39v18.82Z"/>
            <path class="cls-16" d="M683.03,172.37s-.04,0-.06,0c-.22-.03-.36-.24-.33-.45l2.97-18.27h-21.52c-.22,0-.4-.18-.4-.4s.18-.4.4-.4h21.98c.12,0,.23.05.3.14.08.09.11.21.09.32l-3.04,18.73c-.03.19-.2.33-.39.33Z"/>
          </g>
          <g>
            <path class="cls-16" d="M369.53,114.3h-1.65c-2.84,0-5.14-2.31-5.14-5.14v-5.78c0-.22.18-.4.4-.4h11.15c.22,0,.4.18.4.4v5.78c0,2.84-2.31,5.14-5.14,5.14ZM363.53,103.77v5.38c0,2.4,1.95,4.35,4.35,4.35h1.65c2.4,0,4.35-1.95,4.35-4.35v-5.38h-10.36Z"/>
            <path class="cls-16" d="M373.17,103.77h-8.93c-.22,0-.4-.18-.4-.4v-3.59c0-2.68,2.18-4.86,4.86-4.86s4.86,2.18,4.86,4.86v3.59c0,.22-.18.4-.4.4ZM364.64,102.98h8.14v-3.19c0-2.24-1.83-4.07-4.07-4.07s-4.07,1.83-4.07,4.07v3.19Z"/>
            <path class="cls-16" d="M368.71,108.69c-.79,0-1.44-.65-1.44-1.44s.65-1.44,1.44-1.44,1.44.65,1.44,1.44-.65,1.44-1.44,1.44ZM368.71,106.6c-.36,0-.65.29-.65.65s.29.65.65.65.65-.29.65-.65-.29-.65-.65-.65Z"/>
            <path class="cls-16" d="M368.7,110.7h0c-.22,0-.39-.18-.39-.4l.02-2.01c0-.22.18-.39.4-.39h0c.22,0,.39.18.39.4l-.02,2.01c0,.22-.18.39-.4.39Z"/>
          </g>
          <g>
            <path class="cls-16" d="M491.42,38.38h-3.72c-.22,0-.4-.18-.4-.4v-11.77c0-.22.18-.4.4-.4h3.72c.22,0,.4.18.4.4v11.77c0,.22-.18.4-.4.4ZM488.1,37.59h2.92v-10.97h-2.92v10.97Z"/>
            <path class="cls-16" d="M500.13,38.38h-3.72c-.22,0-.4-.18-.4-.4v-8.57c0-.22.18-.4.4-.4h3.72c.22,0,.4.18.4.4v8.57c0,.22-.18.4-.4.4ZM496.81,37.59h2.92v-7.78h-2.92v7.78Z"/>
            <path class="cls-16" d="M508.83,38.38h-3.72c-.22,0-.4-.18-.4-.4v-16.72c0-.22.18-.4.4-.4h3.72c.22,0,.4.18.4.4v16.72c0,.22-.18.4-.4.4ZM505.51,37.59h2.92v-15.93h-2.92v15.93Z"/>
            <g>
              <path class="cls-16" d="M497.92,27.24c-.1,0-.2-.04-.27-.11l-6.39-6.08h-5.26c-.22,0-.4-.18-.4-.4s.18-.4.4-.4h5.42c.1,0,.2.04.27.11l6.12,5.83,4.95-9.74c.07-.13.2-.22.35-.22h3.42c.22,0,.4.18.4.4s-.18.4-.4.4h-3.18l-5.08,10c-.06.11-.16.19-.29.21-.02,0-.04,0-.07,0Z"/>
              <polygon class="cls-16" points="509.38 16.62 505.37 18.27 506.32 16.62 505.37 14.98 509.38 16.62"/>
            </g>
          </g>
          <path class="cls-16" d="M210.28,194.88c-1.79,1.37-3.67,2.62-5.61,3.74-.27.16-.62.06-.77-.21-.16-.27-.06-.62.21-.77,1.89-1.09,3.73-2.32,5.48-3.66.25-.19.62-.16.81.09.19.25.16.59-.09.78l-.34-.45.3.48ZM215.38,190.44c-.22.17-.54.15-.74-.05-.22-.22-.22-.58,0-.8,1.57-1.56,3.04-3.24,4.39-4.98.19-.25.55-.29.79-.1.25.19.29.55.1.79-1.38,1.79-2.89,3.5-4.49,5.09-.02.02-.04.03-.06.05ZM198.72,201.56s-.08.05-.13.07c-2.09.86-4.25,1.6-6.44,2.18-.3.08-.61-.1-.69-.4-.08-.3.1-.61.4-.69,2.14-.57,4.25-1.29,6.3-2.13.29-.12.62.02.74.31.1.24.02.51-.18.67ZM223.56,179.82c-.18.13-.42.16-.63.04-.27-.16-.36-.5-.21-.77,1.1-1.91,2.09-3.91,2.94-5.95.12-.29.45-.43.74-.31.29.12.43.45.31.74-.87,2.09-1.88,4.13-3.01,6.08-.04.07-.09.12-.15.17ZM185.76,205.01c-.08.06-.17.1-.27.11-2.24.29-4.52.44-6.78.43-.31,0-.57-.25-.57-.57,0-.31.25-.57.57-.57,2.21,0,4.44-.14,6.63-.42.31-.04.59.18.63.49.03.21-.06.4-.22.52ZM228.69,167.44c-.13.1-.31.14-.49.1-.3-.08-.48-.39-.4-.69.57-2.13,1.01-4.32,1.3-6.51.04-.31.33-.53.64-.49s.53.33.49.64c-.3,2.24-.75,4.48-1.33,6.66-.03.13-.11.23-.2.3ZM172.35,204.99c-.12.09-.26.13-.42.11-2.24-.3-4.48-.74-6.66-1.33-.3-.08-.48-.39-.4-.69.08-.3.39-.48.69-.4,2.13.57,4.32,1.01,6.51,1.3.31.04.53.33.49.64-.02.16-.1.29-.22.38ZM230.46,154.16c-.1.07-.22.12-.34.12-.31,0-.57-.25-.56-.57,0-2.21-.14-4.44-.42-6.63-.04-.31.18-.59.49-.63.31-.04.59.18.63.49.29,2.24.43,4.52.43,6.78,0,.18-.09.35-.22.45ZM159.41,201.53c-.15.12-.37.15-.56.07-2.09-.86-4.13-1.87-6.09-3-.27-.16-.36-.5-.21-.77.16-.27.5-.36.77-.21,1.91,1.1,3.91,2.09,5.95,2.93.29.12.43.45.31.74-.04.1-.1.17-.18.23ZM228.75,140.86c-.06.04-.12.08-.2.1-.3.08-.61-.1-.69-.4-.57-2.14-1.28-4.25-2.12-6.3-.12-.29.02-.62.31-.74.29-.12.62.02.74.31.86,2.09,1.59,4.25,2.17,6.44.06.23-.03.46-.2.6ZM147.8,194.83c-.2.15-.48.16-.69,0-1.79-1.38-3.5-2.88-5.1-4.48-.22-.22-.22-.58,0-.8.22-.22.58-.22.8,0,1.56,1.56,3.24,3.04,4.99,4.38.25.19.29.55.1.79-.03.04-.07.08-.11.11ZM223.64,128.47s-.04.03-.06.04c-.27.16-.62.06-.77-.21-1.1-1.91-2.34-3.77-3.68-5.53l-.13-.17c-.19-.25-.15-.6.1-.79.24-.18.6-.15.79.1l.13.17c1.37,1.8,2.64,3.7,3.76,5.65.14.25.08.56-.15.73ZM138.3,185.3c-.25.19-.57.18-.76-.06l-.07-.09c-1.35-1.77-2.6-3.64-3.71-5.55-.16-.27-.06-.62.21-.77.27-.16.62-.06.77.21,1.08,1.87,2.31,3.7,3.63,5.44.19.25.18.65-.07.84ZM215.35,117.67c-.22.17-.54.15-.74-.05-1.56-1.56-3.25-3.03-5-4.37-.25-.19-.3-.55-.11-.79.19-.25.54-.3.79-.11,1.79,1.37,3.51,2.87,5.11,4.47.22.22.22.58,0,.8-.02.02-.04.03-.06.05ZM131.62,173.74s-.08.05-.13.07c-.29.12-.62-.02-.74-.31-.87-2.09-1.6-4.25-2.19-6.43-.08-.3.1-.61.4-.69.3-.08.61.1.69.4.57,2.13,1.29,4.25,2.14,6.29.1.24.02.51-.18.67ZM204.7,109.52c-.18.13-.42.16-.63.04-1.91-1.1-3.92-2.08-5.96-2.92-.29-.12-.43-.45-.31-.74.12-.29.45-.43.74-.31,2.09.86,4.14,1.86,6.09,2.99.27.16.36.5.21.77-.04.07-.09.12-.15.17ZM128.15,160.79c-.08.06-.17.1-.27.11-.31.04-.59-.18-.63-.49-.29-2.24-.44-4.52-.44-6.78,0-.31.25-.57.57-.57.31,0,.57.25.57.57,0,2.21.14,4.44.43,6.63.03.21-.06.41-.22.52ZM192.31,104.42c-.13.1-.31.14-.49.1-2.13-.57-4.33-1-6.52-1.28-.31-.04-.53-.32-.49-.63.04-.31.32-.53.63-.49,2.24.29,4.48.73,6.66,1.31.3.08.48.39.4.69-.03.13-.11.23-.2.3ZM128.16,147.38c-.11.09-.26.13-.42.11-.31-.04-.53-.32-.49-.63.29-2.24.74-4.48,1.32-6.66.08-.3.39-.48.69-.4.3.08.48.39.4.69-.57,2.14-1,4.33-1.29,6.51-.02.16-.1.29-.22.38ZM131.61,134.43c-.15.12-.37.15-.56.07-.29-.12-.43-.45-.31-.74.86-2.09,1.87-4.14,2.99-6.09.16-.27.5-.36.77-.21.27.16.36.5.21.77-1.1,1.91-2.08,3.91-2.93,5.96-.04.1-.1.17-.18.23ZM138.3,122.82c-.2.15-.48.16-.69,0-.25-.19-.29-.55-.1-.79,1.37-1.79,2.88-3.51,4.48-5.1.22-.22.58-.22.8,0s.22.58,0,.8c-1.56,1.56-3.04,3.24-4.38,4.99-.03.04-.07.08-.11.11ZM153.35,109.6s-.04.03-.06.04c-1.86,1.08-3.67,2.29-5.39,3.6l-.13.1s0,0,0,0c-.25.19-.6.14-.79-.1-.19-.25-.14-.6.1-.79l.13-.1c1.76-1.34,3.61-2.58,5.51-3.68.27-.16.62-.07.77.21.14.25.08.56-.15.73Z"/>
          <path class="cls-16" d="M631.4,269.49c-2.25-.1-4.5-.35-6.7-.74-.31-.05-.51-.35-.46-.66.05-.31.35-.51.66-.46,2.15.38,4.35.62,6.55.73.31.01.58.28.57.59-.01.31-.25.55-.56.54l.03-.57-.08.56ZM638.17,269.36c-.28-.01-.51-.23-.54-.52-.03-.31.2-.59.52-.61,2.2-.19,4.41-.52,6.57-.99.31-.07.61.13.67.43.07.31-.13.61-.43.67-2.2.48-4.46.82-6.71,1.01-.02,0-.05,0-.07,0ZM618.26,267.15s-.1-.01-.14-.03c-2.15-.68-4.28-1.51-6.33-2.47-.28-.13-.4-.47-.27-.75.13-.28.47-.4.75-.27,2,.94,4.08,1.75,6.19,2.42.3.09.46.41.37.71-.08.25-.32.41-.57.39ZM651.26,266.49c-.22-.01-.43-.15-.51-.37-.11-.29.05-.62.34-.72,2.07-.75,4.12-1.65,6.08-2.66.28-.14.62-.04.76.24.14.28.04.62-.24.76-2,1.04-4.09,1.96-6.21,2.72-.07.03-.15.04-.22.03ZM606.11,261.46c-.1,0-.19-.03-.28-.09-1.9-1.22-3.74-2.57-5.47-4.03-.24-.2-.27-.56-.07-.8.2-.24.56-.27.8-.07,1.69,1.42,3.49,2.75,5.35,3.94.26.17.34.52.17.78-.11.18-.31.27-.5.26ZM663.15,260.32c-.17,0-.33-.09-.44-.24-.18-.26-.12-.61.14-.79,1.81-1.26,3.56-2.66,5.19-4.15.23-.21.59-.19.8.04.21.23.19.59-.04.8-1.67,1.52-3.45,2.95-5.3,4.24-.11.07-.23.11-.35.1ZM595.86,252.82c-.14,0-.29-.07-.39-.18-1.52-1.67-2.95-3.45-4.24-5.3-.18-.26-.12-.61.14-.79.26-.18.61-.12.79.14,1.26,1.81,2.66,3.55,4.15,5.18.21.23.19.59-.04.8-.12.11-.26.15-.41.15ZM673.05,251.29c-.12,0-.24-.05-.34-.13-.24-.2-.27-.56-.07-.8,1.43-1.69,2.75-3.49,3.95-5.34.17-.26.52-.34.78-.17.26.17.34.52.17.78-1.22,1.9-2.58,3.74-4.03,5.46-.12.14-.29.21-.46.2ZM588.18,241.84c-.19,0-.38-.12-.48-.3-1.04-2-1.96-4.09-2.73-6.21-.11-.29.04-.62.34-.73.29-.11.62.04.73.34.75,2.07,1.65,4.12,2.67,6.08.14.28.04.62-.24.76-.09.05-.19.07-.29.06ZM680.3,240.01c-.07,0-.15-.02-.21-.05-.28-.13-.4-.47-.27-.75.94-2,1.76-4.08,2.42-6.19.1-.3.42-.46.71-.37.3.09.46.41.37.71-.68,2.15-1.52,4.28-2.48,6.33-.1.21-.32.33-.54.32ZM583.61,229.25c-.25-.01-.47-.19-.53-.44-.48-2.2-.83-4.46-1.02-6.71-.03-.31.2-.59.52-.61.31-.03.59.2.61.52.19,2.2.52,4.41,1,6.57.07.31-.13.61-.43.67-.05.01-.1.01-.15.01ZM684.36,227.23s-.05,0-.07,0c-.31-.05-.51-.35-.46-.66.38-2.17.63-4.39.74-6.6v-.21c.02-.31.28-.56.6-.54.3.01.56.27.54.59v.22c-.11,2.26-.37,4.53-.76,6.75-.05.28-.3.48-.58.47ZM582.46,215.84c-.31-.01-.56-.23-.54-.54v-.11c.11-2.23.35-4.46.74-6.64.05-.31.35-.51.66-.46.31.05.51.35.46.66-.37,2.13-.62,4.32-.72,6.5-.01.31-.28.61-.59.59ZM684.96,213.63c-.28-.01-.51-.23-.54-.52-.19-2.2-.53-4.41-1.01-6.56-.07-.31.12-.61.43-.68.3-.07.61.12.67.43.49,2.2.84,4.46,1.03,6.71.03.31-.2.59-.51.61-.03,0-.05,0-.08,0ZM584.79,202.69s-.1-.01-.14-.03c-.3-.09-.46-.41-.37-.71.68-2.16,1.51-4.29,2.47-6.33.13-.28.47-.4.75-.27.28.13.41.47.27.75-.94,2-1.75,4.09-2.41,6.19-.08.25-.32.41-.57.4ZM682.05,200.54c-.22-.01-.42-.15-.51-.37-.76-2.07-1.66-4.11-2.68-6.07-.14-.28-.04-.62.24-.76.28-.14.62-.04.76.24,1.05,2,1.97,4.09,2.74,6.21.11.29-.04.62-.34.73-.07.03-.15.04-.22.03ZM590.46,190.54c-.1,0-.19-.03-.28-.09-.26-.17-.34-.52-.17-.78,1.21-1.9,2.57-3.74,4.02-5.47.2-.24.56-.27.8-.07.24.2.27.56.07.8-1.42,1.69-2.75,3.49-3.94,5.35-.11.18-.31.27-.5.26ZM675.84,188.67c-.17,0-.33-.09-.44-.24-1.27-1.81-2.67-3.55-4.16-5.18-.21-.23-.2-.59.03-.8.23-.21.59-.2.8.03,1.53,1.66,2.96,3.44,4.26,5.29.18.26.12.61-.14.79-.11.08-.23.11-.35.1ZM599.09,180.28c-.14,0-.29-.07-.39-.18-.21-.23-.2-.59.03-.8,1.66-1.52,3.44-2.95,5.29-4.25.26-.18.61-.12.79.14.18.26.12.61-.14.79-1.81,1.27-3.55,2.67-5.18,4.16-.12.11-.26.15-.41.15ZM610.07,172.59c-.19,0-.38-.12-.48-.3-.14-.28-.04-.62.24-.76,2-1.04,4.09-1.97,6.21-2.74.29-.11.62.04.73.34.11.29-.04.62-.34.73-2.07.76-4.11,1.66-6.07,2.68-.09.05-.19.07-.29.06ZM622.65,168.01c-.25-.01-.47-.19-.53-.44-.07-.31.12-.61.43-.67,2.2-.49,4.46-.83,6.71-1.03.31-.03.59.2.61.52.03.31-.2.59-.51.61-2.2.19-4.41.53-6.57,1-.05.01-.1.02-.15.01ZM642.68,167.57s-.05,0-.07,0c-2.12-.37-4.28-.61-6.45-.71h-.16s0,0,0,0c-.31-.01-.55-.28-.54-.59.01-.31.28-.55.59-.54h.16c2.21.11,4.42.35,6.59.73.31.05.51.35.46.65-.05.28-.3.48-.58.47Z"/>
          <g>
            <path class="cls-13" d="M657.77,185.3c26.41,90.72-43.95,237-127.38,278.29l-38.46-9.02c.53-103.57,39.97-248.78,165.83-269.27Z"/>
            <path class="cls-24" d="M531.42,323.39c-.13-.83.44-1.62,1.27-1.75.83-.13,1.62.44,1.75,1.27l7.32,46.15c16.13-33.7,38.17-75.03,65.9-116.53,0-.06-.03-.11-.03-.17l.23-32.56c0-.85.7-1.53,1.54-1.52.85,0,1.53.7,1.52,1.54l-.2,28.15c11.7-17.24,24.37-34.47,38.01-51.13.54-.65,1.5-.75,2.15-.22.65.54.75,1.5.21,2.15-27.81,33.98-51.59,70.27-71.21,104.32l36.14-1.72c.85-.04,1.56.61,1.6,1.46.04.84-.61,1.56-1.46,1.6l-38.1,1.81c-43.15,75.53-65.62,139.15-65.94,140.07-.26.75-1.04,1.16-1.79.99-.05-.01-.11-.03-.16-.05-.8-.28-1.22-1.15-.94-1.95.22-.62,10.44-29.58,30.22-71.45-.04-.1-.08-.21-.1-.32l-7.96-50.16Z"/>
          </g>
          <g>
            <path class="cls-19" d="M684.28,346.94c-4.77,53.74-72.55,116.95-125.49,121.61l-18.58-12.78c21.77-54.99,72.88-124.05,144.08-108.83Z"/>
            <path class="cls-13" d="M588.41,394.19c.1-.47.57-.77,1.04-.67.47.1.77.57.67,1.04l-5.68,26.07c15.57-14.58,35.87-31.99,59.23-48.32,0-.03,0-.06.02-.09l6.88-17.27c.18-.45.69-.67,1.14-.49.45.18.67.69.49,1.14l-5.95,14.93c9.8-6.75,20.11-13.28,30.83-19.32.42-.24.95-.09,1.19.33.24.42.09.95-.33,1.19-21.84,12.3-42.02,26.68-59.52,40.72l19.58,6.59c.46.15.7.65.55,1.11-.15.46-.65.7-1.11.55l-20.64-6.94c-38.62,31.23-63.77,60.41-64.14,60.83-.29.34-.79.4-1.16.15-.03-.02-.05-.04-.07-.06-.37-.31-.41-.87-.1-1.23.25-.29,11.69-13.57,30.9-31.74,0-.06,0-.13.01-.19l6.17-28.33Z"/>
          </g>
          <g>
            <path class="cls-19" d="M432.17,361.44c-7.06,33.23,22.04,83.81,53.04,96.41l13.55-4.25c-2.93-37.12-20.92-88.14-66.59-92.15Z"/>
            <path class="cls-13" d="M481.13,407.6c.03-.3-.2-.57-.5-.59-.3-.03-.57.2-.59.5l-1.4,16.74c-6.68-11.65-15.67-25.89-26.71-40.04,0-.02,0-.04,0-.06l-.95-11.67c-.02-.3-.29-.53-.59-.5-.3.02-.53.29-.5.59l.82,10.09c-4.65-5.87-9.65-11.71-14.98-17.33-.21-.22-.56-.23-.78-.02-.22.21-.23.56-.02.78,10.87,11.44,20.36,23.83,28.3,35.52l-13,.34c-.3,0-.54.26-.54.56,0,.3.26.54.56.54l13.71-.36c17.47,25.94,27.21,48.15,27.35,48.48.11.26.4.39.67.31.02,0,.04-.01.06-.02.28-.12.41-.45.29-.72-.09-.22-4.53-10.33-12.73-24.82.01-.04.02-.08.03-.12l1.52-18.2Z"/>
          </g>
          <g>
            <path class="cls-13" d="M38.25,220.24c-35.9,66.98-4.92,193.79,53.83,240.18l31.76-.69c16.84-81.58,10.02-202.4-85.59-239.49Z"/>
            <path class="cls-24" d="M114.64,349.95c.24-.63-.07-1.35-.71-1.59-.63-.24-1.35.07-1.59.71l-13.45,35.09c-7.07-29.2-17.52-65.39-32.43-102.66.01-.04.04-.08.05-.13l5.24-25.65c.14-.67-.29-1.32-.96-1.45-.67-.14-1.32.29-1.45.96l-4.53,22.18c-6.33-15.52-13.43-31.18-21.38-46.57-.31-.6-1.06-.84-1.66-.53-.6.31-.84,1.06-.53,1.66,16.22,31.37,28.88,63.89,38.64,93.94l-28.15-7.38c-.66-.17-1.33.22-1.5.88-.17.66.22,1.33.88,1.5l29.67,7.77c21.36,66.62,28.44,120.41,28.53,121.2.08.63.62,1.09,1.25,1.08.04,0,.09,0,.13-.01.67-.09,1.15-.7,1.07-1.38-.07-.53-3.29-25.01-11.87-61.25.05-.07.1-.15.13-.23l14.62-38.14Z"/>
          </g>
          <g>
            <path class="cls-19" d="M0,381.8c.32,33.97,39.71,77.03,72.71,82.59l12.3-7.09c-10.92-35.6-39.56-81.5-85.01-75.5Z"/>
            <path class="cls-13" d="M57.82,416.24c-.04-.3-.32-.51-.62-.47-.3.04-.51.32-.47.62l2.27,16.65c-9.05-9.93-20.92-21.87-34.77-33.28,0-.02,0-.04,0-.06l-3.46-11.18c-.09-.29-.4-.45-.69-.36-.29.09-.45.4-.36.69l2.99,9.67c-5.81-4.72-11.96-9.34-18.39-13.66-.25-.17-.59-.1-.76.15-.17.25-.1.59.15.76,13.1,8.81,25.05,18.84,35.33,28.53l-12.62,3.16c-.3.07-.47.37-.4.67.07.29.37.47.67.4l13.3-3.33c22.69,21.53,37.02,41.1,37.23,41.38.17.23.48.29.72.15.02,0,.03-.02.05-.03.25-.18.3-.52.12-.77-.14-.19-6.66-9.1-17.82-21.46,0-.04,0-.08,0-.12l-2.46-18.09Z"/>
          </g>
          <path class="cls-8" d="M42.53,446.98h582c8.41,0,15.24,6.83,15.24,15.24v8.68H27.29v-8.68c0-8.41,6.83-15.24,15.24-15.24Z"/>
          <g>
            <polygon class="cls-12" points="389.92 392.37 312.02 392.37 301.69 434.81 379.6 434.81 389.92 392.37"/>
            <rect class="cls-14" x="159.71" y="130.5" width="372.2" height="261.87" rx="8.8" ry="8.8"/>
            <rect class="cls-20" x="171.07" y="130.5" width="372.2" height="261.87" rx="8.8" ry="8.8"/>
            <polygon class="cls-6" points="396.12 392.37 318.21 392.37 307.89 434.81 385.79 434.81 396.12 392.37"/>
            <rect class="cls-22" x="231.4" y="80.5" width="251.55" height="361.87" rx="3.8" ry="3.8" transform="translate(618.61 -95.73) rotate(90)"/>
            <rect class="cls-26" x="247.92" y="85.66" width="218.5" height="351.55" transform="translate(618.61 -95.73) rotate(90)"/>
            <rect class="cls-20" x="285.26" y="434" width="142.25" height="12.39"/>
          </g>
          <g>
            <path class="cls-20" d="M362.47,362.82h-6.79c-.62,0-1.13-.51-1.13-1.13s.51-1.13,1.13-1.13h5.66v-5.66c0-.62.51-1.13,1.13-1.13s1.13.51,1.13,1.13v6.79c0,.62-.51,1.13-1.13,1.13Z"/>
            <path class="cls-20" d="M341.65,362.82h-14.02c-.62,0-1.13-.51-1.13-1.13s.51-1.13,1.13-1.13h14.02c.62,0,1.13.51,1.13,1.13s-.51,1.13-1.13,1.13ZM313.6,362.82h-14.02c-.62,0-1.13-.51-1.13-1.13s.51-1.13,1.13-1.13h14.02c.62,0,1.13.51,1.13,1.13s-.51,1.13-1.13,1.13ZM285.55,362.82h-14.02c-.62,0-1.13-.51-1.13-1.13s.51-1.13,1.13-1.13h14.02c.62,0,1.13.51,1.13,1.13s-.51,1.13-1.13,1.13ZM257.5,362.82h-14.02c-.62,0-1.13-.51-1.13-1.13s.51-1.13,1.13-1.13h14.02c.62,0,1.13.51,1.13,1.13s-.51,1.13-1.13,1.13ZM229.45,362.82h-14.02c-.62,0-1.13-.51-1.13-1.13s.51-1.13,1.13-1.13h14.02c.62,0,1.13.51,1.13,1.13s-.51,1.13-1.13,1.13Z"/>
            <path class="cls-20" d="M201.4,362.82h-6.79c-.62,0-1.13-.51-1.13-1.13v-6.79c0-.62.51-1.13,1.13-1.13s1.13.51,1.13,1.13v5.66h5.66c.62,0,1.13.51,1.13,1.13s-.51,1.13-1.13,1.13Z"/>
            <path class="cls-20" d="M194.61,342.56c-.62,0-1.13-.51-1.13-1.13v-13.47c0-.62.51-1.13,1.13-1.13s1.13.51,1.13,1.13v13.47c0,.62-.51,1.13-1.13,1.13ZM194.61,315.62c-.62,0-1.13-.51-1.13-1.13v-13.47c0-.62.51-1.13,1.13-1.13s1.13.51,1.13,1.13v13.47c0,.62-.51,1.13-1.13,1.13ZM194.61,288.68c-.62,0-1.13-.51-1.13-1.13v-13.47c0-.62.51-1.13,1.13-1.13s1.13.51,1.13,1.13v13.47c0,.62-.51,1.13-1.13,1.13ZM194.61,261.74c-.62,0-1.13-.51-1.13-1.13v-13.47c0-.62.51-1.13,1.13-1.13s1.13.51,1.13,1.13v13.47c0,.62-.51,1.13-1.13,1.13Z"/>
            <path class="cls-20" d="M194.61,234.81c-.62,0-1.13-.51-1.13-1.13v-6.79c0-.62.51-1.13,1.13-1.13h6.79c.62,0,1.13.51,1.13,1.13s-.51,1.13-1.13,1.13h-5.66v5.66c0,.62-.51,1.13-1.13,1.13Z"/>
            <path class="cls-20" d="M341.65,228.02h-14.02c-.62,0-1.13-.51-1.13-1.13s.51-1.13,1.13-1.13h14.02c.62,0,1.13.51,1.13,1.13s-.51,1.13-1.13,1.13ZM313.6,228.02h-14.02c-.62,0-1.13-.51-1.13-1.13s.51-1.13,1.13-1.13h14.02c.62,0,1.13.51,1.13,1.13s-.51,1.13-1.13,1.13ZM285.55,228.02h-14.02c-.62,0-1.13-.51-1.13-1.13s.51-1.13,1.13-1.13h14.02c.62,0,1.13.51,1.13,1.13s-.51,1.13-1.13,1.13ZM257.5,228.02h-14.02c-.62,0-1.13-.51-1.13-1.13s.51-1.13,1.13-1.13h14.02c.62,0,1.13.51,1.13,1.13s-.51,1.13-1.13,1.13ZM229.45,228.02h-14.02c-.62,0-1.13-.51-1.13-1.13s.51-1.13,1.13-1.13h14.02c.62,0,1.13.51,1.13,1.13s-.51,1.13-1.13,1.13Z"/>
            <path class="cls-20" d="M362.47,234.81c-.62,0-1.13-.51-1.13-1.13v-5.66h-5.66c-.62,0-1.13-.51-1.13-1.13s.51-1.13,1.13-1.13h6.79c.62,0,1.13.51,1.13,1.13v6.79c0,.62-.51,1.13-1.13,1.13Z"/>
            <path class="cls-20" d="M362.47,342.56c-.62,0-1.13-.51-1.13-1.13v-13.47c0-.62.51-1.13,1.13-1.13s1.13.51,1.13,1.13v13.47c0,.62-.51,1.13-1.13,1.13ZM362.47,315.62c-.62,0-1.13-.51-1.13-1.13v-13.47c0-.62.51-1.13,1.13-1.13s1.13.51,1.13,1.13v13.47c0,.62-.51,1.13-1.13,1.13ZM362.47,288.68c-.62,0-1.13-.51-1.13-1.13v-13.47c0-.62.51-1.13,1.13-1.13s1.13.51,1.13,1.13v13.47c0,.62-.51,1.13-1.13,1.13ZM362.47,261.74c-.62,0-1.13-.51-1.13-1.13v-13.47c0-.62.51-1.13,1.13-1.13s1.13.51,1.13,1.13v13.47c0,.62-.51,1.13-1.13,1.13Z"/>
          </g>
          <g>
            <rect class="cls-1" x="143.76" y="169.76" width="379.67" height="25.98" rx="8.28" ry="8.28"/>
            <rect class="cls-9" x="147.31" y="164.44" width="379.67" height="25.98" rx="8.28" ry="8.28"/>
            <circle class="cls-26" cx="162.59" cy="177.51" r="3.32"/>
            <circle class="cls-26" cx="175.04" cy="177.51" r="3.32"/>
            <circle class="cls-26" cx="187.48" cy="177.51" r="3.32"/>
          </g>
          <g>
            <rect class="cls-1" x="459.37" y="76.46" width="166.51" height="44.29" rx="14.11" ry="14.11"/>
            <rect class="cls-15" x="464.39" y="71.15" width="166.51" height="44.29" rx="14.11" ry="14.11"/>
            <rect class="cls-26" x="478.86" y="89.75" width="137.58" height="7.09" rx="2.26" ry="2.26"/>
            <circle class="cls-20" cx="581.6" cy="92.7" r="12.7" transform="translate(104.8 438.4) rotate(-45)"/>
            <path class="cls-1" d="M588.35,81.96c.96,1.79,1.51,3.84,1.51,6.01,0,7.01-5.68,12.7-12.7,12.7-2.48,0-4.79-.72-6.75-1.96,2.14,3.98,6.35,6.68,11.18,6.68,7.01,0,12.7-5.68,12.7-12.7,0-4.53-2.38-8.49-5.94-10.74Z"/>
          </g>
          <rect class="cls-20" x="203.99" y="202.08" width="100.53" height="13.73" rx="4.37" ry="4.37"/>
          <g>
            <path class="cls-20" d="M521.08,301.53h-6.79c-.62,0-1.13-.51-1.13-1.13s.51-1.13,1.13-1.13h5.66v-5.66c0-.62.51-1.13,1.13-1.13s1.13.51,1.13,1.13v6.79c0,.62-.51,1.13-1.13,1.13Z"/>
            <path class="cls-20" d="M501.48,301.53h-12.81c-.62,0-1.13-.51-1.13-1.13s.51-1.13,1.13-1.13h12.81c.62,0,1.13.51,1.13,1.13s-.51,1.13-1.13,1.13ZM475.86,301.53h-12.81c-.62,0-1.13-.51-1.13-1.13s.51-1.13,1.13-1.13h12.81c.62,0,1.13.51,1.13,1.13s-.51,1.13-1.13,1.13ZM450.24,301.53h-12.81c-.62,0-1.13-.51-1.13-1.13s.51-1.13,1.13-1.13h12.81c.62,0,1.13.51,1.13,1.13s-.51,1.13-1.13,1.13ZM424.62,301.53h-12.81c-.62,0-1.13-.51-1.13-1.13s.51-1.13,1.13-1.13h12.81c.62,0,1.13.51,1.13,1.13s-.51,1.13-1.13,1.13Z"/>
            <path class="cls-20" d="M399,301.53h-6.79c-.62,0-1.13-.51-1.13-1.13v-6.79c0-.62.51-1.13,1.13-1.13s1.13.51,1.13,1.13v5.66h5.66c.62,0,1.13.51,1.13,1.13s-.51,1.13-1.13,1.13Z"/>
            <path class="cls-20" d="M392.21,279.39c-.62,0-1.13-.51-1.13-1.13v-15.35c0-.62.51-1.13,1.13-1.13s1.13.51,1.13,1.13v15.35c0,.62-.51,1.13-1.13,1.13ZM392.21,248.68c-.62,0-1.13-.51-1.13-1.13v-15.35c0-.62.51-1.13,1.13-1.13s1.13.51,1.13,1.13v15.35c0,.62-.51,1.13-1.13,1.13Z"/>
            <path class="cls-20" d="M392.21,217.98c-.62,0-1.13-.51-1.13-1.13v-6.79c0-.62.51-1.13,1.13-1.13h6.79c.62,0,1.13.51,1.13,1.13s-.51,1.13-1.13,1.13h-5.66v5.66c0,.62-.51,1.13-1.13,1.13Z"/>
            <path class="cls-20" d="M501.48,211.19h-12.81c-.62,0-1.13-.51-1.13-1.13s.51-1.13,1.13-1.13h12.81c.62,0,1.13.51,1.13,1.13s-.51,1.13-1.13,1.13ZM475.86,211.19h-12.81c-.62,0-1.13-.51-1.13-1.13s.51-1.13,1.13-1.13h12.81c.62,0,1.13.51,1.13,1.13s-.51,1.13-1.13,1.13ZM450.24,211.19h-12.81c-.62,0-1.13-.51-1.13-1.13s.51-1.13,1.13-1.13h12.81c.62,0,1.13.51,1.13,1.13s-.51,1.13-1.13,1.13ZM424.62,211.19h-12.81c-.62,0-1.13-.51-1.13-1.13s.51-1.13,1.13-1.13h12.81c.62,0,1.13.51,1.13,1.13s-.51,1.13-1.13,1.13Z"/>
            <path class="cls-20" d="M521.08,217.98c-.62,0-1.13-.51-1.13-1.13v-5.66h-5.66c-.62,0-1.13-.51-1.13-1.13s.51-1.13,1.13-1.13h6.79c.62,0,1.13.51,1.13,1.13v6.79c0,.62-.51,1.13-1.13,1.13Z"/>
            <path class="cls-20" d="M521.08,279.39c-.62,0-1.13-.51-1.13-1.13v-15.35c0-.62.51-1.13,1.13-1.13s1.13.51,1.13,1.13v15.35c0,.62-.51,1.13-1.13,1.13ZM521.08,248.68c-.62,0-1.13-.51-1.13-1.13v-15.35c0-.62.51-1.13,1.13-1.13s1.13.51,1.13,1.13v15.35c0,.62-.51,1.13-1.13,1.13Z"/>
          </g>
          <rect class="cls-9" x="417.13" y="196.45" width="79.02" height="117.55" transform="translate(711.87 -201.41) rotate(90)"/>
          <circle class="cls-26" cx="456.64" cy="255.23" r="16.83" transform="translate(103.33 641.01) rotate(-76.72)"/>
          <polygon class="cls-9" points="466.49 252.79 459.08 252.79 459.08 245.37 454.21 245.37 454.21 252.79 446.79 252.79 446.79 257.66 454.21 257.66 454.21 265.08 459.08 265.08 459.08 257.66 466.49 257.66 466.49 252.79"/>
          <g>
            <path class="cls-5" d="M111.67,433.12l-.21,4.34c-3.55,6.27-3.87,9.62-3.87,9.62h34.29c-3.08-4.55-10.61-6.64-15.11-8.99-4.5-2.35-4.39-5.7-4.39-5.7l-10.72.73Z"/>
            <path class="cls-7" d="M109.67,440.94c2.75.65,8.61,1.55,14.34-.71.03-.28.54-1.43,2.26-2.43.17.1.33.19.51.29,4.5,2.35,12.02,4.44,15.11,8.99h-34.29s.2-2.12,2.07-6.14Z"/>
            <path class="cls-7" d="M130.37,438.14c.89,0,1.42-.13,1.55-.31.05-.07.06-.15.02-.23-.21-.41-1.94-.74-4.83-.61,1.79-1.56,2.77-2.74,2.63-3.19-.03-.09-.11-.15-.22-.16-.53-.04-2.19,1.13-3.33,3.4-.02.04,0,.09.04.11s.09,0,.11-.04c1.11-2.22,2.69-3.31,3.16-3.31,0,0,.01,0,.02,0,.07,0,.08.03.08.05.07.22-.41,1.16-2.75,3.17-.03.02-.03.06-.02.09.01.03.04.05.08.05,3.41-.18,4.78.27,4.91.52,0,.02.01.03,0,.06-.21.28-1.97.48-5.26-.26-.04,0-.09.02-.1.06s.02.09.06.1c1.66.38,2.95.52,3.86.52Z"/>
            <path class="cls-5" d="M79.48,433.12l-.21,4.34c-3.55,6.27-3.87,9.62-3.87,9.62h34.29c-3.08-4.55-10.61-6.64-15.11-8.99-4.5-2.35-4.39-5.7-4.39-5.7l-10.72.73Z"/>
            <path class="cls-7" d="M77.47,440.94c2.75.65,8.61,1.55,14.34-.71.03-.28.54-1.43,2.26-2.43.17.1.33.19.51.29,4.5,2.35,12.02,4.44,15.11,8.99h-34.29s.2-2.12,2.07-6.14Z"/>
            <path class="cls-30" d="M118.63,315.92c5.18,31.52,7,119.03,7,119.03-8.63,2.04-16.41.47-16.41.47l-8.47-62.42-7.37,62.57c-10.04,1.57-16.94-.31-16.94-.31,0,0,.78-52.38,1.1-67.59.31-15.21-.16-42.81,3.61-49.24,3.76-6.43,37.48-2.51,37.48-2.51Z"/>
            <path class="cls-5" d="M154.18,272.54c.78-2.67.37-6.9-.47-9.67-.84-2.77-2.04-7.42-.94-7.58,1.1-.16,1.93,2.82,3.35,4.76,1.41,1.93,2.77-.52,3.19-2.09.42-1.57,2.98-10.4,4.08-9.46,1.1.94-1.83,12.28-.57,10.35,1.25-1.93,4.6-9.25,5.44-8.83s0,3.92.37,3.29c1.67-1.88,1.93,1.78.73,5.59-1.2,3.82-1.88,5.02-.47,3.55,1.41-1.46,3.35-4.55,3.71-3.5s-2.09,7.63-5.23,10.77-4.86,8.68-4.86,8.68l-8.31-5.85Z"/>
            <path class="cls-11" d="M104.36,257.79s1.6-.14,2.27,1.05c.66,1.18,2.23,3.59,2.23,3.59,2.16.84,6.97,1.95,9.13,3.87,2.16,1.92,21.43,23.04,21.92,22.69s13.87-17.42,13.87-17.42c7.6,3.69,11.15,7.25,11.15,7.25,0,0-15.54,31.92-24.46,30.81s-20.35-11.15-20.42-10.94c.14,5.3-.42,17.43-.42,17.43l-20.63,3.62-2.61,2.96-1.29,4.08c-2.23,0-6.55-1.67-14.57-4.46s-20.91-11.64-19.93-16.66,8.57-31.36,16.1-35.76c7.53-4.39,15.68-7.25,15.89-7.53.42-1.74,1.12-4.74,3.07-4.74s8.71.17,8.71.17Z"/>
            <path class="cls-7" d="M109.8,238.71c1.57-4.34-.47-8.42-6.69-9.46-6.22-1.05-11.92,2.82-12.02,6.27-.1,3.45,1.25,7.37,1.33,7.61.08.23,3.37,2.53,3.37,2.53,0,0,3.87.26,4.18.26s9.83-7.21,9.83-7.21Z"/>
            <path class="cls-5" d="M94.29,241.87c-2.54-2.58-4.7.63-3.94,2.3s2.96,2.47,3.42,2.13c1.57,7.74.84,12.55.87,12.72,3.52,2.4,9.79,1.67,10.39-.17-.31-1.12-.24-2.65-.24-2.65,0,0-4.84-1.85-4.95-1.95-.1-.1-2.86-4.22-2.93-4.88-.07-.66-2.61-7.49-2.61-7.49Z"/>
            <path class="cls-10" d="M110.29,242.22c1.81,4.46-.45,14.11-5.58,14.53-5.12.42-8.09-4.29-8.82-6.97-.73-2.68-1.6-7.91-1.6-7.91,2.06.14,2.82-.42,2.82-.42l13.17.77Z"/>
            <path class="cls-5" d="M106.5,231.76c-1.83,3.82-8.26-.21-7.79,1.25s-1.15,4.03-3.24,3.92c0,5.33,2.82,9.62,5.7,9.2,2.88-.42,5.91-1.05,8-.31,2.09.73.92-7.79.26-10.04-.78-2.67-2.93-4.03-2.93-4.03Z"/>
            <path class="cls-5" d="M108.62,247.16c-1.83-1.15-9.49-.29-9.64.26s.65,5.02,4.68,6.17c4.03,1.15,5.62-5.44,4.97-6.43Z"/>
            <path class="cls-23" d="M107.71,247.26c-2.27-.05-7.82.13-7.87.39-.05.26,1.52,3.58,4.52,3.69,3.01.1,3.42-3.71,3.35-4.08Z"/>
            <path class="cls-29" d="M103.86,248.46s1.5,1.11,1.68,2.68c-.34.13-.73.21-1.18.19-2.32-.08-3.78-2.07-4.3-3.1l3.81.22Z"/>
            <path class="cls-7" d="M105.38,244.76s0,0,0,0c2.21-.28,2.21-.4,2.21-.48,0-.05-.03-.08-.22-.29-2.07-2.21-2.63-4.12-1.66-5.68.02-.04.01-.09-.03-.11-.04-.02-.09-.01-.11.03-1.01,1.63-.44,3.6,1.68,5.88.06.06.11.12.15.16-.24.09-1.18.23-2.03.34-.04,0-.08.05-.07.09,0,.04.04.07.08.07Z"/>
            <path class="cls-7" d="M103.34,242.98s.03,0,.04-.01c.02-.01,1.54-1.02,3.41-.56.04.01.09-.02.1-.06s-.02-.09-.06-.1c-1.95-.47-3.52.58-3.54.59-.04.02-.05.07-.02.11.02.02.04.04.07.04Z"/>
            <path class="cls-7" d="M99.71,244.32h1.62c1.23,0,2.24-1,2.24-2.24v-2.14s-.04-.08-.08-.08-.08.04-.08.08v2.14c0,1.14-.93,2.08-2.08,2.08h-1.62c-1.14,0-2.08-.93-2.08-2.08v-2.14s-.04-.08-.08-.08-.08.04-.08.08v2.14c0,1.23,1,2.24,2.24,2.24Z"/>
            <path class="cls-7" d="M108.8,244.01h.42c1.23,0,2.24-1,2.24-2.24v-2.14s-.04-.08-.08-.08-.08.04-.08.08v2.14c0,1.14-.93,2.08-2.08,2.08h-.42c-1.14,0-2.08-.93-2.08-2.08v-2.14s-.04-.08-.08-.08-.08.04-.08.08v2.14c0,1.23,1,2.24,2.24,2.24Z"/>
            <path class="cls-4" d="M104.5,253.06c.34,0,.76-.08,1.23-.35.04-.02.05-.07.03-.11-.02-.04-.07-.05-.11-.03-1.16.66-2,.11-2.01.11-.04-.02-.09-.02-.11.02-.02.04-.02.09.02.11.02.02.38.25.95.25Z"/>
            <path class="cls-4" d="M93.77,245.12s.08-.03.08-.08c0-.04-.03-.08-.08-.08-1.28-.07-1.6-.51-1.67-.76-.11-.36.13-.73.41-.94.27-.2.7-.33,1.07-.07.03.02.06.02.09,0,.03-.02.04-.05.03-.08,0-.05-.23-1.16-.95-1.52-.32-.16-.68-.15-1.08.03-.04.02-.06.07-.04.11.02.04.07.06.11.04.35-.16.67-.18.94-.04.49.25.73.92.82,1.23-.4-.17-.81-.04-1.09.17-.39.29-.58.74-.47,1.11.09.29.44.8,1.82.87,0,0,0,0,0,0Z"/>
            <path class="cls-2" d="M102.12,265.57c.56,0,1.11-.03,1.65-.09,2.28-.26,3.91-1.06,4.84-2.38.03-.04.02-.09-.02-.11-.04-.03-.09-.02-.11.02-.9,1.28-2.49,2.06-4.73,2.32-4.32.49-9.34-1.13-10.21-1.91-.03-.03-.08-.03-.11,0-.03.03-.03.08,0,.11.89.8,4.94,2.04,8.69,2.04Z"/>
            <path class="cls-2" d="M85.89,277.77s.08-.04.08-.08c0-.48-.69-4.59-3.28-6.64-1.39-1.1-3.09-1.43-5.04-.97-.04.01-.07.05-.06.1s.05.07.1.06c1.9-.45,3.56-.13,4.91.94,2.54,2.01,3.22,6.04,3.22,6.51,0,.04.04.08.08.08Z"/>
            <path class="cls-2" d="M98.65,312.21s.07-.03.08-.07c0-.04-.02-.08-.07-.09-8.08-1.11-18.13-7.07-18.76-8.18-.56-.99,3.36-8.63,5.51-12.54.02-.04,0-.09-.03-.11-.04-.02-.09,0-.11.03-.64,1.16-6.23,11.4-5.51,12.69.64,1.13,10.76,7.15,18.88,8.26,0,0,0,0,.01,0Z"/>
            <path class="cls-2" d="M92.65,323.36s.06-.02.08-.05c.02-.05,1.89-5.44,2.51-10.75,0-.04-.03-.08-.07-.09-.04,0-.08.03-.09.07-.62,5.3-2.49,10.66-2.51,10.72-.01.04,0,.09.05.1,0,0,.02,0,.03,0Z"/>
            <path class="cls-2" d="M162.93,279.34s0-.07-.03-.09c-.05-.03-4.83-3.14-9.84-5.02-.04-.02-.09,0-.1.05-.02.04,0,.09.05.1,4.99,1.87,9.76,4.97,9.8,5,.04.02.09.01.11-.02,0,0,0-.02.01-.02Z"/>
            <path class="cls-2" d="M77.94,305.72s.05-.01.07-.03c0-.01.9-1.25,1.24-1.52.05-.04.07-.08.06-.13,0-.02-.02-.07-.09-.09-.31-.1-2.21.34-3.01,1.14-.03.03-.03.08,0,.11s.08.03.11,0c.72-.72,2.33-1.09,2.76-1.11-.39.36-1.17,1.44-1.2,1.49-.03.04-.02.09.02.11.01.01.03.02.05.02Z"/>
            <path class="cls-2" d="M86.8,330.26s3.37-.25,4.68-4.31c.01-.04,0-.09-.05-.1-.04-.01-.09,0-.1.05-1.27,3.95-4.49,4.2-4.52,4.2-.04,0-.08.04-.08.08s.04.08.08.08Z"/>
            <path class="cls-2" d="M82.09,433.62h0s.08-.04.08-.08c0-.43-.45-43.25,1.57-54.72,1.35-7.66,1.82-24.48,2.2-37.99.19-6.77.35-12.61.59-15.52,0-.04-.03-.08-.07-.09-.04,0-.08.03-.09.07-.24,2.92-.4,8.77-.59,15.53-.38,13.51-.85,30.32-2.2,37.97-2.02,11.48-1.57,54.32-1.57,54.75,0,.04.04.08.08.08Z"/>
            <path class="cls-2" d="M84.02,434.33c2.46,0,5.37-.13,8.33-.55.04,0,.07-.05.07-.09,0-.04-.05-.07-.09-.07-7.69,1.08-15.01.22-15.09.21-.04,0-.08.03-.09.07s.03.08.07.09c.05,0,2.85.34,6.8.34Z"/>
            <path class="cls-2" d="M116.38,433.7c2.46,0,5.37-.13,8.33-.55.04,0,.07-.05.07-.09,0-.04-.05-.07-.09-.07-7.69,1.08-15.01.22-15.09.21-.04,0-.08.03-.09.07,0,.04.03.08.07.09.05,0,2.85.34,6.8.34Z"/>
            <path class="cls-7" d="M98.17,438.14c.89,0,1.42-.13,1.55-.31.05-.07.06-.15.02-.23-.21-.41-1.94-.74-4.83-.61,1.79-1.56,2.77-2.74,2.63-3.19-.03-.09-.11-.15-.22-.16-.53-.04-2.19,1.13-3.33,3.4-.02.04,0,.09.04.11.04.02.09,0,.11-.04,1.11-2.22,2.69-3.31,3.16-3.31,0,0,.01,0,.02,0,.07,0,.08.03.08.05.07.22-.41,1.16-2.75,3.17-.03.02-.03.06-.02.09.01.03.04.05.08.05,3.41-.18,4.78.27,4.91.52,0,.02.01.03,0,.06-.21.28-1.97.48-5.26-.26-.04,0-.09.02-.1.06,0,.04.02.09.06.1,1.66.38,2.95.52,3.86.52Z"/>
            <path class="cls-2" d="M100.6,370.89s.05-.01.07-.04c.93-1.44,3.69-32.65,3.87-34.78,2.85-.17,2.79-1.72,2.7-4.52-.05-1.31-.1-2.94.13-4.85,0-.04-.03-.08-.07-.09-.04,0-.08.03-.09.07-.24,1.92-.18,3.56-.13,4.88.1,2.81.15,4.22-2.61,4.36-.04,0-.07.03-.08.07-.03.33-2.94,33.35-3.86,34.78-.02.04-.01.09.02.11.01,0,.03.01.04.01Z"/>
            <path class="cls-4" d="M165.63,261.67s.06-.02.07-.05c0-.02.99-2.42,2.09-6.21.01-.04-.01-.09-.05-.1-.04-.01-.09.01-.1.05-1.1,3.78-2.08,6.17-2.09,6.2-.02.04,0,.09.04.1.01,0,.02,0,.03,0Z"/>
            <path class="cls-4" d="M166.9,262.67s.04,0,.06-.03c.03-.03.03-.08,0-.11-1.18-1.05-2.97-1.27-3.05-1.27-.04,0-.08.03-.09.07s.03.08.07.09c.02,0,1.82.22,2.96,1.23.02.01.03.02.05.02Z"/>
            <path class="cls-4" d="M161.97,268.2s.04,0,.06-.02c1.62-1.64,3.64-1.32,4.72-1.15l.15.02s.08-.02.09-.07c0-.04-.02-.08-.07-.09l-.15-.02c-1.09-.17-3.1-.49-4.76,1.1-.19-.75-1.22-4.25-4.15-5.33-.04-.02-.09,0-.1.05-.02.04,0,.09.05.1,3.19,1.17,4.07,5.31,4.08,5.35,0,.03.03.05.06.06,0,0,.02,0,.02,0Z"/>
            <path class="cls-21" d="M99.84,247.65c.05-.24,4.86-.42,7.35-.4-1.26,2.71-6.17,1.83-6.59,1.55-.08-.05-.2-.13-.35-.22-.29-.48-.42-.85-.41-.93Z"/>
            <path class="cls-7" d="M106.61,240.57c0,.56.27,1.02.59,1.02s.59-.46.59-1.02-.27-1.02-.59-1.02-.59.46-.59,1.02Z"/>
            <path class="cls-7" d="M100.56,240.74c0,.56.27,1.02.59,1.02s.59-.46.59-1.02-.27-1.02-.59-1.02-.59.46-.59,1.02Z"/>
            <path class="cls-7" d="M101.92,238.3c-2.6-.03-4.65.52-4.67.35.19-.94,2.79-2.94,4.67-.35Z"/>
            <path class="cls-7" d="M109.55,238.3c-1.69-.44-3.62-.09-3.64-.14.64-1.66,3.17-1.99,3.64.14Z"/>
            <path class="cls-5" d="M98.72,312.72c1.12-1.01,2.23-3.14,5.02-3.55s7.14-1.71,7.88-1.5c.73.21,1.15,2.13-1.32,3.1-2.47.98-3.8,1.71-1.95,2.47,1.85.77,13.7,1.5,13.31,2.75-.38,1.25-2.47,1.6-2.47,1.6-.59,1.05-1.99.98-2.02,1.08-1.71,1.78-6.69,2.58-9.37,2.86-2.68.28.56.98,3.45.38,2.89-.59,2.37.38,1.25,1.12-1.12.73-4.98,2.3-8.47,1.78-3.48-.52-7.63-2.13-7.63-2.13,2.13-5.23,2.33-9.97,2.33-9.97Z"/>
            <path class="cls-4" d="M118.37,317.5s.08-.03.08-.08c0-.04-.03-.08-.08-.08-3.85-.07-8.02-1.45-8.06-1.46-.04-.01-.09,0-.1.05-.01.04,0,.09.05.1.04.01,4.24,1.4,8.11,1.47,0,0,0,0,0,0Z"/>
            <path class="cls-4" d="M112.12,318.81c1.18,0,2.6-.07,4.24-.26.04,0,.08-.05.07-.09,0-.04-.05-.08-.09-.07-5.22.62-8.24-.06-8.27-.07-.04,0-.09.02-.1.06,0,.04.02.09.06.1.02,0,1.47.33,4.08.33Z"/>
          </g>
          <g>
            <rect class="cls-1" x="131.36" y="250.65" width="209.03" height="167.87" rx="9.65" ry="9.65"/>
            <rect class="cls-28" x="140.81" y="236.48" width="209.03" height="167.87"/>
            <path class="cls-9" d="M349.84,339.61c-31.81-34.34-40.16-11.27-66.18-1.44-27.24,10.29-41.16-33.9-61.13-42.98-13.66-6.21-56.19,16.45-81.71,31.4v77.75h209.03v-64.74Z"/>
            <circle class="cls-15" cx="298.19" cy="297.61" r="12.11"/>
          </g>
          <g>
            <rect class="cls-6" x="502.89" y="242.21" width="158.98" height="22.14"/>
            <polygon class="cls-25" points="502.89 264.35 502.89 242.21 478.98 252.84 502.89 264.35"/>
            <polygon class="cls-6" points="486.95 249.29 478.98 252.84 486.95 256.68 486.95 249.29"/>
          </g>
          <g>
            <path class="cls-7" d="M614.24,438.32c1.49,2.69,1.35,6.35,1.35,6.35h-30.11c.82-2.02,10.91-5.75,13.67-7.1,2.76-1.34,3.36-2.32,3.36-2.32l11.73,3.06Z"/>
            <path class="cls-7" d="M583.49,438.32c1.49,2.69,1.35,6.35,1.35,6.35h-30.11c.82-2.02,10.91-5.75,13.67-7.1,2.76-1.34,3.36-2.32,3.36-2.32l11.73,3.06Z"/>
            <path class="cls-5" d="M531.04,259.99c-.75-2.84-1.49-5.53-2.91-6.99-1.42-1.46-1.94-4.82-2.32-4.86-1.16.07-1.2,1.46-.82,3.1.37,1.64.49,2.8-.52,1.79-1.01-1.01-5.16-7.81-6.09-7.4-.93.41,1.16,4.37,1.05,5.6-.11,1.23-.93,4.15-.04,6.28.9,2.13,5.83,6.31,6.31,6.99s5.16-.19,5.34-.71,0-3.81,0-3.81Z"/>
            <path class="cls-11" d="M580.83,249.52c-1.15.2.2,2.14-1.74,3.19-1.94,1.05-6.87,1.94-11.21,4.78-4.33,2.84-19.28,17.78-19.28,17.78l-17.49-15.84c-1.05.3-6.28,4.78-6.28,4.78,0,0,14.5,25.56,20.18,27.65,5.68,2.09,18.38-6.43,18.98-6.43.45,1.2-.25,22.57,6.53,22.42,0,0,3.94,1.49,4.68,1.79.75.3,25.7-2.04,27.05-2.74,1.35-.7,1.79-2.19,1.79-2.19,0,0,17.63,1.34,18.23-2.99.6-4.33-7.77-36.61-11.51-40.65-3.74-4.03-15.39-8.22-15.54-8.67-.9-1.94-.75-4.33-3.89-4.48-3.14-.15-10.51,1.59-10.51,1.59Z"/>
            <path class="cls-7" d="M570.87,311.59c.05-1.1-.35-3.74-.35-3.74,0,0,7.52.7,15.94-.65,8.42-1.35,15.79-.3,15.79-.3l-.15,3.64s-22.22,2.94-22.72,2.94-8.52-1.89-8.52-1.89Z"/>
            <path class="cls-30" d="M570.87,311.59c-.45,2.09-5.83,59.78-5.38,66.2.45,6.43,3.89,57.84,3.89,58.28,2.99,3.29,16.44,3.74,16.44,3.74,0,0-.3-51.86-.3-57.39s3.14-20.62,3.14-20.62c0,0,4.78,18.23,4.78,22.12s7.77,53.5,7.77,53.5c6.58,4.18,14.94,1.35,14.94,1.35,0,0-.75-39.01-3.29-51.56s-4.33-17.19-4.33-22.72,2.09-33.77-.75-42.14c-2.84-8.37-5.68-11.81-5.68-11.81-2.69-.45-31.23,1.05-31.23,1.05Z"/>
            <path class="cls-7" d="M578.09,230.39c-1.49,0-2.69,1.2-2.69,2.69s1.2,2.69,2.69,2.69,2.69-1.2,2.69-2.69-1.2-2.69-2.69-2.69ZM578.09,235.33c-1.24,0-2.25-1.01-2.25-2.25s1.01-2.25,2.25-2.25,2.25,1.01,2.25,2.25-1.01,2.25-2.25,2.25Z"/>
            <path class="cls-17" d="M578.49,232.33c-.5,2.64-2.04,5.08-1.99,5.38s1.74,1.3,1.74,1.3l.25-6.68Z"/>
            <path class="cls-5" d="M578.44,227.95c-.35,3.09-.95,12.8-.95,12.8,0,0,3.19,5.63,3.29,5.93.1.3,0,2.69.05,2.84,4.63,2.34,11.86.7,11.56-1.39-.7-1.54.9-5.48.9-5.48,0,0-5.73-13.8-6.08-13.95-.35-.15-8.77-.75-8.77-.75Z"/>
            <path class="cls-7" d="M577.14,225.46c-1.05.7-.35,2.99.75,3.39,1.1.4,3.49.1,3.04,2.04-.45,1.94-.9,3.54-.15,4.33.75.8-.2,2.39-.55,3.14s.05,2.19-.85,2.44c-.9.25-1.89-.05-1.89-.05,0,0-1.69,2.69-.35,4.98s4.23,2.74,5.13,1c.9-1.74.95-8.62.95-8.62,0,0,.05-4.93.75-5.28s2.89.95,2.44,3.89c-.45,2.94-1.39,4.38-.55,5.43.85,1.05,1.44.95,1.64,1.25.65,1.35,3.89.9,5.48.6,3.64-.05,3.49-3.34,5.48-4.88,1.99-1.54,1.79-3.69,1.99-3.84,1.3-1-.45-5.18-1.39-6.23-.95-1.05-.25-4.08-2.69-5.88-2.44-1.79-6.58-.7-7.67-1.84-1.1-1.15-7.27-2.44-8.42.75-3.69-.8-4.13,1.94-3.14,3.39Z"/>
            <path class="cls-17" d="M583.54,238.09c1.25.8,2.47-.4,2.22-2.29-.25-1.89-1.84-2.74-1.84-2.74l-.37,5.03Z"/>
            <rect class="cls-7" x="575.52" y="232.78" width="8.05" height=".43"/>
            <path class="cls-5" d="M583.72,232.21c-1.06-.29-1.3,1.34-.82,2.96.47,1.62.05,2.52-.2,2.99-.25.47,0,1.25,1.32.1,1.32-1.15.8-5.75-.3-6.05Z"/>
            <path class="cls-3" d="M574.53,271.6s0,0,0,0c-.07,0-.13-.07-.12-.14,0-.08.52-8.14-5.11-13.42-.05-.05-.06-.14,0-.19s.13-.06.19,0c5.73,5.36,5.2,13.55,5.2,13.63,0,.07-.06.12-.13.12Z"/>
            <path class="cls-3" d="M586.19,254.64c-1.63,0-3.46-.18-5.42-.68-.07-.02-.11-.09-.1-.16.02-.07.09-.11.16-.1,7.19,1.83,12.56-.64,12.61-.66.07-.03.15,0,.18.06s0,.15-.06.18c-.04.02-2.96,1.37-7.37,1.37Z"/>
            <path class="cls-3" d="M545.61,279.52s-.07-.02-.1-.04c-.05-.06-.04-.14.01-.19.35-.31.67-.59.96-.85.85-.75,1.59-1.4,1.8-1.67-.47.06-1.65.43-2.11.58-.07.02-.15-.01-.17-.08-.02-.07.01-.15.08-.17.07-.02,1.82-.6,2.28-.6.15,0,.2.08.22.12.09.23-.21.51-1.93,2.03-.29.26-.61.54-.96.85-.03.02-.06.03-.09.03Z"/>
            <path class="cls-3" d="M527.08,265.39s-.07-.01-.1-.04c-.05-.05-.05-.14,0-.19.03-.03,2.81-2.72,5.34-3.98.07-.03.15,0,.18.06.03.07,0,.15-.06.18-2.49,1.25-5.24,3.91-5.27,3.94-.03.03-.06.04-.09.04Z"/>
            <path class="cls-3" d="M603.6,303.35h0c-.07,0-.13-.06-.13-.14,0-.06.18-6.52,2.47-13.12,2.19-6.29,3.91-12.04,2.68-18.69-.01-.07.03-.14.11-.16.07-.01.14.03.16.11,1.23,6.71-.49,12.49-2.7,18.82-2.28,6.55-2.46,12.97-2.46,13.04,0,.07-.06.13-.13.13Z"/>
            <path class="cls-3" d="M566.91,284.08c-.06,0-.11-.04-.13-.09-.02-.07.02-.15.09-.17,3.03-.96,4.04-1.2,4.05-1.2.07-.02.14.03.16.1s-.03.14-.1.16c0,0-1.01.24-4.02,1.19-.01,0-.03,0-.04,0Z"/>
            <path class="cls-3" d="M589.85,360.14s-.02,0-.03,0c-.07-.01-.12-.09-.1-.16.04-.18,3.75-18.29,5.23-23.03,1.42-4.54,1.42-12.06,0-20.11-.01-.07.04-.14.11-.15.07-.01.14.04.15.11,1.43,8.09,1.43,15.66,0,20.24-1.48,4.72-5.19,22.82-5.23,23-.01.06-.07.11-.13.11Z"/>
            <rect class="cls-30" x="574.65" y="307.65" width="1.49" height="4.63"/>
            <rect class="cls-30" x="586.51" y="306.76" width="1.49" height="4.63"/>
            <rect class="cls-30" x="600.16" y="306.36" width="1.49" height="4.63"/>
          </g>
        </g>
      </g>
    </g>
  </g>
</svg>