<?xml version="1.0" encoding="UTF-8"?>
<svg id="_レイヤー_2" data-name="レイヤー 2" xmlns="http://www.w3.org/2000/svg" viewBox="0 0 2483.3 1744.54">
  <defs>
    <style>
      .cls-1 {
        fill: #ed7d5b;
      }

      .cls-1, .cls-2, .cls-3, .cls-4, .cls-5, .cls-6, .cls-7, .cls-8, .cls-9, .cls-10, .cls-11, .cls-12, .cls-13, .cls-14, .cls-15, .cls-16, .cls-17, .cls-18, .cls-19, .cls-20, .cls-21, .cls-22, .cls-23 {
        fill-rule: evenodd;
      }

      .cls-2 {
        fill: #fff;
      }

      .cls-3 {
        fill: #f5a900;
      }

      .cls-4, .cls-24 {
        fill: #87b7e2;
      }

      .cls-5 {
        fill: #86bae4;
      }

      .cls-6 {
        fill: #95c2e8;
      }

      .cls-7 {
        fill: #5d9cd4;
      }

      .cls-25, .cls-23 {
        fill: #498ac9;
      }

      .cls-8 {
        fill: #3f8039;
      }

      .cls-9 {
        fill: #3e62ac;
      }

      .cls-10 {
        fill: #e7eff9;
      }

      .cls-11 {
        fill: #f19651;
      }

      .cls-12 {
        fill: #09378c;
      }

      .cls-13 {
        fill: #f4ae7c;
      }

      .cls-14 {
        fill: #3156a4;
      }

      .cls-15 {
        fill: #bad9f2;
      }

      .cls-16 {
        fill: #d0d9ee;
      }

      .cls-17 {
        fill: #a5cded;
      }

      .cls-26, .cls-19 {
        fill: #f09171;
      }

      .cls-18 {
        fill: #0b70b8;
      }

      .cls-20 {
        fill: #d2e5f6;
      }

      .cls-21 {
        fill: #f1f8fc;
      }

      .cls-22 {
        fill: #f0f6fb;
      }
    </style>
  </defs>
  <g id="Layer_1" data-name="Layer 1">
    <g>
      <path class="cls-22" d="M1241.65,1635.79c-288.82,0-554.6,4.32-765.53,11.56C-40.06,1352.3,138.67,777.21,324.01,451.91,581.95-.83,1191.45-163.55,1443.56,197.67c342.19,490.3,672.3,319.2,850.55,691.57,178.25,372.36-92.45,729.33-286.93,758.1-210.92-7.24-476.71-11.56-765.53-11.56Z"/>
      <path class="cls-10" d="M1241.65,1635.78c-685.74,0-1241.65,24.34-1241.65,54.38s555.91,54.38,1241.65,54.38,1241.65-24.35,1241.65-54.38-555.9-54.38-1241.65-54.38Z"/>
      <polygon class="cls-19" points="690.25 1705.88 700.91 1705.88 777.35 1386.94 753.89 1386.94 690.25 1705.88"/>
      <polygon class="cls-19" points="1009.59 1705.88 998.9 1705.88 911.2 1375.67 934.65 1375.67 1009.59 1705.88"/>
      <path class="cls-19" d="M808.72,1398.9c3.21,0,6.49-.04,9.87-.13,42.03-1.04,70.65-6.85,93.64-11.53,27.2-5.52,42.19-8.57,59.85-.13,5.93,2.84,13.08.33,15.92-5.63,2.84-5.95.33-13.08-5.63-15.93-24.87-11.89-45.86-7.62-74.88-1.72-22.08,4.49-49.57,10.07-89.47,11.06-44.96,1.11-72.44-5.63-86.49-21.21-12.54-13.91-16.24-37.1-11.64-72.99,1.58-12.15,3.14-22.26,4.52-31.16,3.86-25.02,6.42-41.55,3.26-67.02-2.93-23.75-10.82-55.43-29.06-116.9-1.89-6.32-8.54-9.92-14.85-8.05-6.33,1.88-9.93,8.52-8.07,14.85,34.16,114.98,32.42,126.21,25.11,173.47-1.4,9.05-2.98,19.32-4.59,31.77-5.58,43.31.02,72.56,17.57,92.03,18.1,20.07,47.63,29.22,94.96,29.22Z"/>
      <path class="cls-12" d="M797.1,874.77s-12.72,43.7-15.02,82.16c-1.15,19.35-2.81,34.89,7.46,47.9,0,0-25.57,2.95-34.25-5.44,0,0,1.71,4.11,3.28,5.94,0,0-28.59,1.23-40.4-9.35-11.82-10.53.54-241.25,79.94-221.89,0,0,79.34-7.99,73.07,84.17,1.33,109.48,9.04,131.55,15.23,150.61-8.92,6.04-12.26,3.75-14.93-4.97-2.36-7.72-3.66-16.71-4.34-19,0,0,2.82,26.44,4.11,28.07,0,0-32.05-4.29-45.78-16.54-13.67-12.24-32.29-102.64-28.37-121.66Z"/>
      <polygon class="cls-7" points="1326 927.23 1222.49 925.98 1188.85 1106.02 1287.46 1133.49 1326 927.23"/>
      <polygon class="cls-15" points="1316.42 935.08 1281.22 1123.48 1198.03 1100.3 1229.1 934.03 1316.42 935.08"/>
      <polygon class="cls-23" points="1296.33 1182.19 1272.31 1182.19 1272.31 1129.27 1287.46 1133.49 1296.33 1086.03 1296.33 1182.19"/>
      <path class="cls-19" d="M962.85,1218.55h373.38c1.59,0,2.89-4.59,2.89-10.26v-5.13c0-5.67-1.29-10.26-2.89-10.26h-373.38c-1.59,0-2.88,4.6-2.88,10.26v5.13c0,5.67,1.29,10.26,2.88,10.26Z"/>
      <path class="cls-13" d="M931.5,1472.76s-62.94,97.77-71.44,102.02c-8.5,4.25-29.76,5.32-21.78,21.26,7.98,15.94,11.16,78.64,18.6,81.83,7.43,3.18,71.2,10.63,61.64,0-9.58-10.63-15.45-5.31-20.29-24.45-4.81-19.12-11.6-55.26-2.58-62.69,9.04-7.44,64.31-74.4,64.31-74.4l-28.46-43.57Z"/>
      <path class="cls-13" d="M1248.34,1514.75s76.52,126.11,90.7,137.45c14.17,11.33,60.93,28.35,22.67,31.18-38.26,2.84-56.69-12.75-80.78-19.84-24.09-7.08-53.85-11.33-42.51-29.75,11.34-18.42,6.63-58.63-17.81-84.14-24.44-25.51,27.73-34.89,27.73-34.89Z"/>
      <path class="cls-14" d="M857.85,1222.3s189.42-4.95,264.53,56.68c43.93,66.61,150.2,263.12,158.46,284.77-5.67,5.67-37.55,15.9-51.73,14.48-41.81-49.84-97.05-92.93-119.03-132.03-27.07-48.18-35.41-72.27-79.35-76.52-43.94-4.26-143.12-18.42-172.88-18.42s0-128.95,0-128.95Z"/>
      <path class="cls-9" d="M749.93,1209.33l110.13,19s146.35,1.34,213.24,13.81c60.87,11.33,69.84,80.49,0,175.71-39.67,54.1-73.2,97.25-141.8,145.89-17.45-12.81-24.1-17.65-28.94-48.48,4.96-6.8,17.82-49.4,21.81-57.74,37.93-79.3,88.56-108.14,89.28-115.94-8.5-13.81-225.2,72.01-268.29,21.53-41.14-48.2,4.57-153.79,4.57-153.79Z"/>
      <path class="cls-7" d="M745.36,960c29-4.08,58.54,1.44,86.18,21.44,24.15,24.61,51.46,65.19,49.77,132.13-2.13,85.02,13.16,90.48-2.77,113.86-66.48,27.46-180.18,145.42-153.42,18.95,19.4-91.57-42.52-159.82,7.42-261.4,4.07-8.27,9.15-16.29,12.83-24.98Z"/>
      <path class="cls-23" d="M881.35,1145.57c1.28,44.32,7.54,57.38,2.75,71.27-27.09,2.77-76.69,13.62-89.09,30.96-14.15,19.83-28.33,22.67-21.72,8.03,6.61-14.64,24.08-35.43-2.84-106.75-26.92-71.32-39.67-119.5-13.22-169.1l124.11,165.58Z"/>
      <path class="cls-13" d="M745.36,960c17.86-42.28,22.24-89.78,22.24-89.78l46.78,13.81s-26.58,59.51-1.08,80.77c5.44,4.51,11.73,10,18.25,16.64-27.64-20-57.18-25.52-86.18-21.44Z"/>
      <path class="cls-1" d="M766.21,881.47c2.75-2.46,6.22-5.54,9.86-8.76l38.15,11.27.07.21c-.91,2.11-10.62,24.78-11.9,46.58-11.38-6.9-23.82-18.14-38.04-37.78.76-4.36,1.36-8.24,1.86-11.52Z"/>
      <path class="cls-11" d="M778.24,973.29c48.16,16.84,42.81,67.59,87.13,142.41,22.95,38.72,44.24,38.14,44.24,38.14,0,0,53.8.44,118.87-7.52,40.75-4.98,43.35,7.15,15,17.28-57.16,20.43-116.46,42.43-164.3,37.11-47.81-5.32-129.59-127.33-133.82-159.1-5.83-43.93,8.63-76.82,32.88-68.33Z"/>
      <path class="cls-12" d="M1243.14,1621.05c50.77,24.83,78.1,39.06,94.38,37.7,3.84-.32,7.03-.72,9.7-1.13,18.11,10.7,47.01,23.35,14.49,25.75-38.26,2.84-56.69-12.75-80.78-19.84-24.09-7.08-53.85-11.33-42.51-29.75,2.17-3.53,3.75-7.86,4.72-12.74Z"/>
      <path class="cls-12" d="M854.51,1576.86c1.26,40.2,6.79,80.04,31.36,87.56,6.53,1.99,12.47,2.28,17.71,1.58,3.88,4.78,8.61,4.83,14.93,11.87,9.56,10.63-54.21,3.18-61.64,0-7.44-3.19-10.62-65.89-18.6-81.83-6.55-13.09,6.63-16.15,16.23-19.18Z"/>
      <path class="cls-13" d="M1016.36,1147.73c32.58-.47,64.91-19.89,80.97-17.06,16.06,2.83,60.09,37.36,53.47,38.78-6.61,1.42-42.82-15.49-44.23-15.83-1.41-.32-7.35,12.14-29.56,17.74-22.2,5.6-.15-16.64-68.97,4.15-44.74,13.51,8.32-27.78,8.32-27.78Z"/>
      <path class="cls-23" d="M750.15,921.42l-4.79,38.58s42.18,2.5,63.16,14.32c20.98,11.81,51.96,45.92,51.96,45.92l-25.3-43.56-3.64-27.87-81.39-27.39Z"/>
      <path class="cls-7" d="M768.09,968.65c31.34-5.87,45.82,22.19,66.13,68.02,20.31,45.82,54.99,101.47,61.88,108.64,6.89,7.17,116.2,0,116.2,0,0,0,3.3,31.64,0,35.42-3.3,3.78-22.2,3.31-22.2,3.31,0,0-7.56,6.04-14.65,10.81-7.09,4.78-67.06,13.75-94.94,12.34-27.87-1.43-53.39-3.79-57.16-8.04-3.77-4.25-79.83-121.39-84.55-163.43-4.73-42.04,13.31-64.07,29.28-67.07Z"/>
      <rect class="cls-25" x="1197.94" y="1182.19" width="98.39" height="10.71"/>
      <path class="cls-13" d="M773.64,834.94c-19.61,65.29,50,141.72,86.94,82.08.79-1.27,8.45-.37,9.2-1.76,1.57-2.91.48-10.07,2.41-13.19,4.41-7.18,7.56-17.19,10.57-27.74,9.12-32.19-3.39-63.92-27.94-70.9-24.58-6.96-72.05-.68-81.18,31.51Z"/>
      <path class="cls-12" d="M860.48,775.93c59.26,2.84,49.96,91.97,49.96,91.97,0,0-15.39,4.75-47.62-.57,2.47-9.56,1.41-34.01,1.41-34.01,0,0-3.75,19.84-8.49,31.88-6.83,3.12-14.52.35-27.64-2.82-6.74,28.32-25.75,40.29-38.78,44.38-14.39,4.52-29.61,9.91-46.62,1.42-16.99-8.51-7.65-95.42,1.37-112.89,13.57-26.24,36.09-49.71,75.06-37.32,19.53,6.22,41.36,17.95,41.36,17.95Z"/>
      <path class="cls-12" d="M770.39,917.82c3.86,0,8.04-.33,12.55-1.01,20.64-3.09,48.34-14.84,50.53-80.82.04-1.07-.8-1.96-1.87-2-1.1-.05-1.97.8-2.02,1.87-.89,27.32-6.33,47.53-16.1,60.09-7.46,9.56-17.36,14.97-31.12,17.03-19.27,2.89-32.06-.68-38-10.63-.56-.91-1.75-1.21-2.67-.67-.91.55-1.21,1.74-.67,2.65,5.37,8.97,15.21,13.48,29.37,13.48Z"/>
      <rect class="cls-25" x="1077.01" y="1182.14" width="88.58" height="10.76"/>
      <rect class="cls-24" x="1080.26" y="1178.13" width="11.5" height="4.01"/>
      <rect class="cls-24" x="1097.87" y="1177.54" width="11.5" height="4.6"/>
      <rect class="cls-24" x="1115.48" y="1176.49" width="11.5" height="5.65"/>
      <rect class="cls-24" x="1133.09" y="1175.77" width="11.5" height="6.37"/>
      <rect class="cls-24" x="1150.7" y="1174.86" width="11.5" height="7.28"/>
      <path class="cls-1" d="M850.81,929.12c-2.9-.45-14.05-4.46-8.04-8.47,2.62,3.92,6.91,4.61,11.19,5.29l-.89,1-.88.86-1.38,1.32Z"/>
      <path class="cls-12" d="M884.02,872.52c-3.94-2.14-22.08-8.66-20.45-.56,8.21-.68,14.06,2.46,19.88,5.6l.29-1.5.13-1.39.15-2.15Z"/>
      <path class="cls-26" d="M878.28,885.14c-.36,0-.71-.14-.98-.42-2.4-2.52-5.18-3.3-8.52-2.37-.72.16-1.47-.23-1.68-.95-.2-.72.23-1.47.95-1.68,4.32-1.21,8.11-.15,11.22,3.12.52.55.5,1.41-.04,1.92-.26.25-.6.37-.94.37Z"/>
      <path class="cls-20" d="M558.79,1567.37l-8.93,82.95c-1.95,18.08-17.21,31.79-35.4,31.79h-13.13c-.34,0-.68,0-1.02-.01h-.03c-.33-.02-.66-.03-.99-.05-.31-.02-.6-.04-.91-.06h-.19c-.3-.04-.61-.08-.92-.11-.33-.03-.66-.08-1-.12-15.89-2.26-28.57-15.05-30.34-31.43l-8.93-82.95c-1.45-7.77.42-9.93,4.03-11.42,2.76-1.14,12.58-6.98,45.95-6.98,17.09,0,26.81,1.58,33.36,2.99,7.27,1.58,10.46,3.07,12.62,4.11,4.92,2.34,5.84,7.35,5.81,11.29Z"/>
      <path class="cls-15" d="M538.51,1573.67s-4.46,1.59-26.17,1.84c-1.02,25.45-2.6,49.89-5.58,67.85-.25,1.27-.48,2.61-.7,4.04-.48,2.56-.99,5.03-1.54,7.4-4.07,14.95-18.56,21.43-28.66,16.56,2.85,2.92,6.2,5.34,9.89,7.15h0c.07.04.14.07.21.1.28.13.56.26.84.38.35.16.69.31,1.04.46.29.12.58.23.87.34.36.14.72.27,1.08.39.12.04.24.09.35.13h.02c3.53,1.16,7.29,1.8,11.18,1.8h13.13c18.19,0,33.45-13.71,35.4-31.79l8.93-82.95c-7.93,9.13-20.28,6.3-20.28,6.3Z"/>
      <path class="cls-17" d="M558.79,1567.37l-8.93,82.95c-1.95,18.08-17.21,31.79-35.4,31.79h-13.13c-.34,0-.68,0-1.02-.01h-.03c-.33-.02-.66-.03-.99-.05-.31-.02-.6-.04-.91-.06h-.19c-.3-.04-.61-.08-.92-.11-.33-.03-.66-.08-1-.12-3.64-.53-7.11-1.6-10.33-3.14h6.08c18.19,0,38.71-11.03,40.17-36.69l6.31-68.25s16.94-.74,19.9-10.39c0,0,.42.15.39,4.1Z"/>
      <path class="cls-17" d="M555.45,1563.07c0,5.45-21.69,9.86-48.45,9.86-26.76,0-48.44-4.42-48.44-9.86s21.69-9.86,48.44-9.86,48.45,4.42,48.45,9.85Z"/>
      <path class="cls-15" d="M492.68,1336.94c-8.29,8.29-17.04-.77-29.17-14.29-.28-.31-.56-.62-.84-.94l-.04-.04c-.27-.31-.55-.61-.82-.92-.37-.42-.75-.84-1.13-1.26-.43-.48-.86-.96-1.32-1.45-.43-.5-.89-1-1.35-1.49-.68-.76-1.37-1.51-2.07-2.28-.7-.76-1.41-1.53-2.14-2.3-.24-.26-.48-.52-.73-.78-1.46-1.54-2.97-3.11-4.53-4.66-20.59-20.59-34.87-39.68-30.42-44.14.09-.09.26-.21.46-.36.67-.42,1.56-.54,2.64-.4,7.34.9,23.66,13.79,41.04,31.18,20.59,20.59,41.77,32.79,30.42,44.14Z"/>
      <path class="cls-8" d="M495.81,1331.12c.81-6.96-7.69-14.65-18.79-24.6,10.49,10,18.76,17.8,18.79,24.6Z"/>
      <path class="cls-21" d="M463.51,1322.65c-.28-.31-.56-.62-.85-.94l-.04-.04c-.27-.31-.55-.61-.82-.92-.37-.42-.75-.84-1.13-1.26-.43-.48-.86-.96-1.32-1.45-.43-.5-.89-1-1.35-1.49-.68-.76-1.37-1.51-2.07-2.28-.7-.76-1.41-1.53-2.14-2.3-.24-.26-.48-.51-.73-.78-1.46-1.54-2.97-3.11-4.53-4.66-20.59-20.59-34.87-39.68-30.42-44.14.09-.09.26-.21.46-.36.67-.42,1.56-.54,2.64-.4-2.18,6.33,10.12,24.63,28.63,44.32,5.29,5.63,9.38,11.64,13.65,16.71Z"/>
      <path class="cls-17" d="M550.28,1323.1c-15.59,27.01-19.88,53.75-41.04,41.53-21.16-12.22-.15-29.29,15.45-56.3,15.6-27.01,32.72-46.33,41.04-41.53,8.32,4.8.15,29.29-15.45,56.3Z"/>
      <path class="cls-5" d="M536.27,1385.89c.26,1.95.3,3.88.31,5.79.02.96-.04,1.91-.05,2.87l-.14,2.86-.79,11.41-.93,11.4-1.09,11.38c-1.56,15.16-3.36,30.3-5.36,45.41l-1.57,11.32-1.64,11.32-.82,5.66-.88,5.65c-.6,3.76-1.14,7.54-1.79,11.3l-1.85,11.29c-.68,3.76-1.34,7.52-1.99,11.29-.67,3.76-1.52,7.5-2.17,11.27-.66,3.78-1.32,7.58-1.35,11.57l-6.82-1.85c.91-1.7,1.6-3.45,2.28-5.23.33-.88.64-1.78.93-2.68.3-.9.56-1.81.77-2.73.45-1.83.83-3.69,1.23-5.54.39-1.86.83-3.7,1.16-5.57.71-3.73,1.42-7.46,2.1-11.19.62-3.75,1.26-7.49,1.85-11.24,2.3-15.02,4.34-30.11,6.17-45.21l5.47-45.32c.9-7.55,1.84-15.11,2.83-22.65l1.48-11.32.4-2.83c.16-.94.3-1.88.48-2.82.34-1.89.75-3.74,1.25-5.6h.56Z"/>
      <path class="cls-5" d="M523.58,1371.58c.24,2.02.32,4.03.37,6.03.06,2.01.03,4.01,0,6.01l-.32,12.01-.43,12-.55,12c-.84,15.99-1.79,31.97-2.85,47.95-.57,7.99-1.09,15.98-1.73,23.96-.64,7.99-1.39,15.97-2.13,23.95-.84,7.97-1.72,15.94-2.79,23.9-.25,1.99-.5,3.98-.82,5.97-.31,1.98-.6,3.97-.96,5.95-.17.99-.36,1.98-.58,2.96-.25.98-.52,1.96-.8,2.93-.59,1.94-1.21,3.87-2.03,5.74l-.44-.1c-.09-2.06.01-4.07.15-6.06.08-1,.16-1.98.28-2.97.08-.99.17-1.99.28-2.98.44-3.96,1.09-7.89,1.48-11.87l.66-5.95c.22-1.98.44-3.96.61-5.96l1.13-11.92c.71-7.97,1.43-15.92,2.03-23.9.7-7.96,1.27-15.94,1.9-23.91,1.18-15.95,2.21-31.92,3.21-47.89.51-7.98,1.05-15.96,1.62-23.95l.86-11.97c.3-3.99.7-7.98,1.4-11.94h.44Z"/>
      <path class="cls-5" d="M481.58,1384.88c1.87,7.4,2.6,15,3.77,22.51l1.59,11.3,1.53,11.31,5.87,45.27c.98,7.54,1.93,15.09,2.95,22.63,1.01,7.54,2.1,15.06,3.16,22.59,1.15,7.52,2.31,15.03,3.65,22.51.31,1.88.65,3.74,1.01,5.61.35,1.86.68,3.74,1.09,5.58.4,1.86.94,3.69,1.57,5.49.64,1.8,1.35,3.58,2.29,5.3l-6.92,1.49c.65-8-1.21-15.36-2.28-22.93l-3.45-22.6c-1.13-7.53-2.28-15.06-3.36-22.6l-3.29-22.6c-2.11-15.08-4.06-30.18-5.86-45.3l-1.29-11.35-1.16-11.36-1.06-11.38c-.15-1.9-.31-3.8-.36-5.71-.06-1.9-.1-3.83.07-5.77h.46Z"/>
      <path class="cls-20" d="M465.62,1464.29c14.24,16.98,22.68,34.44,30.53,25.08,7.85-9.36-6.8-19.43-21.04-36.4-14.24-16.98-27.45-28.76-30.53-25.08-3.09,3.68,6.8,19.42,21.05,36.4Z"/>
      <path class="cls-15" d="M542.97,1512.06c-11.58,13.8-18.44,28-24.83,20.39-6.38-7.61,5.53-15.79,17.11-29.6,11.58-13.81,22.32-23.39,24.82-20.4,2.51,2.99-5.52,15.79-17.11,29.6Z"/>
      <path class="cls-17" d="M528.06,1423.29c-8.43,28.8-7.52,54.73-27.13,48.22-19.61-6.51-5.02-27.29,3.41-56.09,8.44-28.81,19.42-50.78,27.13-48.22,7.71,2.56,5.02,27.29-3.41,56.09Z"/>
      <path class="cls-20" d="M559.45,1397.19c-8.62,29.45-5.28,56.75-31.41,48.07-26.12-8.67-8.81-29.11-.19-58.56,8.62-29.45,21.14-51.48,31.4-48.08,10.28,3.41,8.81,29.12.19,58.56Z"/>
      <path class="cls-15" d="M559.26,1338.62l-.11-.03c-8.79,33.12-24.33,83.09-32.1,106.32.33.12.65.23.99.34,26.13,8.67,22.79-18.63,31.41-48.07,8.63-29.45,10.09-55.15-.18-58.56Z"/>
      <path class="cls-5" d="M500.53,1316.87c.33,2.59.53,5.19.69,7.78.09,1.3.14,2.59.21,3.89l.13,3.89.41,15.57.37,15.57.28,15.57.59,31.14.64,31.13c.2,10.38.45,20.75.75,31.13.31,10.38.71,20.75,1.17,31.11.51,10.36,1.09,20.72,1.98,31.05.47,5.16.9,10.31,1.56,15.44.19,1.27.41,2.54.64,3.81.22,1.27.51,2.53.82,3.78.33,1.24.63,2.5,1.06,3.71.41,1.2.86,2.4,1.38,3.56l-6.91,1.49c.04-1.39.01-2.75-.05-4.1-.03-1.35-.05-2.67-.12-3.99-.03-.66-.06-1.32-.1-1.98-.03-.66-.06-1.31-.1-1.96-.07-1.31-.16-2.61-.27-3.92-.18-2.6-.45-5.2-.67-7.79l-.6-7.78c-.35-5.2-.66-10.39-.97-15.58l-.81-15.57c-.53-10.38-.99-20.76-1.37-31.14-.41-10.38-.78-20.77-1.09-31.15-.3-10.39-.52-20.77-.73-31.15-.1-5.19-.21-10.39-.27-15.58l-.14-15.58-.1-15.58.06-15.58.17-15.58c.04-2.6.11-5.19.25-7.79.13-2.6.32-5.19.63-7.79h.48Z"/>
      <path class="cls-20" d="M454.5,1394.1c14.84,27.36,18.62,54.62,39.47,41.79,20.86-12.82.59-29.94-14.25-57.3-14.84-27.37-31.28-46.84-39.47-41.79-8.2,5.04-.59,29.94,14.25,57.3Z"/>
      <path class="cls-15" d="M500.98,1483.96c8.78,18.12,11.18,36.04,23.09,27.85,11.9-8.19.09-19.64-8.68-37.76-8.78-18.12-18.41-31.07-23.09-27.85-4.68,3.22-.09,19.64,8.68,37.76Z"/>
      <path class="cls-20" d="M507.81,1299.75c7.83,34.43,26.8,59.47-5.14,66.73-31.94,7.26-25.65-23.52-33.48-57.95-7.82-34.43-7.41-63.88,5.14-66.73,12.56-2.86,25.65,23.52,33.48,57.95Z"/>
      <path class="cls-15" d="M507.81,1299.75c-7.83-34.43-20.93-60.8-33.48-57.95-.55.13-1.08.32-1.59.55,14.64,52.55,24.52,96.44,28.79,124.35.39-.08.75-.14,1.14-.22,31.94-7.26,12.97-32.3,5.14-66.73Z"/>
      <path class="cls-21" d="M475.02,1310.8c-8.14-35.81-10-65.52,2.55-68.37.65-.15,1.3-.21,1.95-.2-1.73-.66-3.47-.82-5.2-.43-12.55,2.85-12.97,32.3-5.14,66.73,5.64,24.78,3.96,47.66,14.49,55.84-3.31-10.65-3.75-32.03-8.65-53.57Z"/>
      <path class="cls-15" d="M479.72,1378.59c-14.84-27.37-31.28-46.84-39.48-41.79-.7.43-1.27,1.01-1.74,1.71,24.48,37.85,42.6,70.97,55.33,97.47l.14-.08c20.86-12.82.59-29.94-14.25-57.3Z"/>
      <path class="cls-21" d="M456.59,1393.76c-12.24-25.56-20.3-47.71-13.74-57.75-.94.05-1.81.3-2.6.79-8.2,5.04-.59,29.94,14.25,57.3,2.98,5.5,5.52,10.99,7.84,16.15,0-2.63-3.03-10.83-5.74-16.49Z"/>
      <path class="cls-15" d="M475.11,1452.97c-14.24-16.98-27.45-28.76-30.53-25.08-.17.21-.3.46-.39.75,15.65,16.39,43.34,47.65,51.66,61.08.1-.11.21-.21.32-.34,7.85-9.36-6.8-19.43-21.04-36.4Z"/>
      <path class="cls-20" d="M490.51,1450.01c-.72,6.57,3.58,19.74,10.47,33.95,8.72,18.01,11.16,35.81,22.87,27.98-7.37-20.79-22.87-47.36-33.34-61.93Z"/>
      <path class="cls-20" d="M560.08,1482.46c-.1-.12-.21-.21-.33-.28-11.66,12.94-27.57,31.2-42.66,48.71.28.53.62,1.05,1.05,1.57,6.39,7.61,13.25-6.59,24.83-20.39,11.59-13.81,19.62-26.61,17.11-29.6Z"/>
      <path class="cls-5" d="M500.3,1565.73l3.36-.56,4.52.56s5.94-1.68,6.44-1.56c.5.12,7.76,2.57,7.76,2.57l-10.37,2.54-11.7-3.55Z"/>
      <path class="cls-5" d="M268.31,1662.49v13.48c0,8.78,33.84,15.91,75.57,15.91,9.24,0,18.1-.36,26.29-1,13.17-1.02,24.61-2.81,33.14-5.09,10.09-2.71,16.12-6.11,16.12-9.83v-13.48c-3.3-1.89-12.84,4.39-19.07,2.91-13.85-3.27-34.02-5.34-56.49-5.34s-41.39,1.93-55.18,5.04c-6.92,1.55-16.87-4.65-20.4-2.61Z"/>
      <path class="cls-5" d="M268.31,1662.49c0,8.78,33.84,15.91,75.57,15.91,9.66,0,18.9-.38,27.4-1.08,12.24-1,22.93-2.66,31.1-4.76,10.67-2.74,17.06-6.26,17.06-10.07,0-8.78-33.83-15.9-75.56-15.9-12.32,0-23.96.62-34.23,1.72-9.34,1-17.56,2.4-24.17,4.08l-.04.02c-10.7,2.74-17.14,6.24-17.14,10.07Z"/>
      <path class="cls-20" d="M370.17,1690.88c13.17-1.02,24.61-2.81,33.15-5.09v-15.91s-33.15,6.09-33.15,6.09c0,0-.02,11.36,0,14.92Z"/>
      <path class="cls-20" d="M285.48,1652.39l61.72,10.1,24.09,14.83c12.24-1,22.93-2.66,31.1-4.76l-61.37-12.5s-19.93-7.57-31.36-11.76l-24.17,4.08Z"/>
      <path class="cls-5" d="M342.33,1098.95c-.7,7.5-.41,18.32-.17,24,.09,2.36.18,3.83.18,3.83,0,0,7.95,16.57,7.95-5.97,0-22.53.66-32.04,6.19-39.77,5.52-7.73,13.7-6.18,17.67-6.41,3.99-.21,26.96.22,44.64,0,17.67-.21,28.73-.44,39.99-6.18,11.27-5.74,12.15-21.43,13.25-31.15,1.11-9.73.22-26.52-1.98-37.57-2.21-11.05-15.47-18.56-22.32-19-6.85-.44-52.59,0-69.82,0s-21.09-4.68-23.71-7.13c-3.75-3.5-4.82-12.53-4.57-19.6.2-5.81-5.08-11.51-7.02-5.6-.43,1.28-.69,3.11-.71,5.6-.11,13.97,1.1,19.5,6.59,26.29,3.59,4.45,10.22,6.83,16.46,7.95,3.29.59,6.48.83,9.05.83,7.45,0,36.12-.33,50.2-.66,10.25-.24,19.63-.75,26.52,1.42h0c2.58.82,4.81,2.01,6.61,3.72,6.63,6.28,6.47,19.55,6.8,26.18.33,6.63,1.81,28.5-6.63,38.45-3.24,3.81-7.49,5.9-12,7.01-.61.15-1.21.28-1.83.4h-.02c-6.72,1.29-13.82.71-18.96.71-9.11,0-26.19-.33-38.94-.67-12.16-.32-21.93.12-30.99,5.77h-.02c-.44.27-.86.56-1.3.85-9.44,6.46-10.11,16.08-11.11,26.69Z"/>
      <path class="cls-5" d="M342.15,1122.96c.57-.24,1.52-.96,1.52-3.12,0-3.1.14-23.39,1.64-30.93,1.51-7.55,4.46-12.85,7.63-14.67,4.18-2.38,3.86-3.01,1.82-2.82h-.02c-.44.27-.86.56-1.3.85-9.44,6.46-10.11,16.08-11.1,26.69-.7,7.5-.41,18.32-.18,24Z"/>
      <path class="cls-5" d="M337.69,1661.49s1.92.96,4.06,1.54c.94.25,1.91.44,2.79.44,2.87,0,5.74-1.77,5.74-1.77l2.66-533.76-13.26-1.39v4.77s-1.99,530.16-1.99,530.16Z"/>
      <path class="cls-5" d="M337.69,1661.49s1.92.96,4.06,1.54l1.28-532.38-3.36.68-1.98,530.16Z"/>
      <path class="cls-20" d="M389.84,984.06s-24.27,2.21-31.57-2.65c-7.31-4.86-10.96-11.05-11.73-14.91-.77-3.87-.89-12.71-.89-12.71h2.84s-.07,9.72,1.26,13.7c1.33,3.98,4.21,9.55,11.94,13.15,7.71,3.59,20.76,2.65,24.3,2.54,3.54-.11,10.38.5,3.87.89Z"/>
      <path class="cls-20" d="M433.47,983.78c9.45-.26,21.14.81,26.63,6.79,6.48,7.06,7.86,14.76,7.84,30.17,0,15.4.33,26.51-2.81,33.47-3.16,6.96-7.12,12.26-14.42,13.76-7.3,1.49-24.69,2.15-32.32,2.15-7.62,0-41.42-.33-46.89,0-5.47.33-17.4,4.31-20.54,12.26-3.16,7.95-4.31,16.15-4.47,25.85-.18,9.7-.32,17.46.65,18.34.98.88,2.16-3.26,2.16-12.21,0-8.95,1.33-22.7,2.48-27.01,1.16-4.31,5.3-10.44,11.27-12.76,5.97-2.32,33.31-2.32,46.73-1.99,13.43.33,36.63.83,47.07-4.64,10.43-5.47,13.09-17.23,13.59-24.03.49-6.79,1.71-24.05,0-36.13-1.72-12.07-5.1-15.38-7.9-18.78-2.8-3.4-9.72-6.63-13.04-6.96-3.31-.33-15.13,0-20.99,0s-4.97,1.99,4.97,1.71Z"/>
      <path class="cls-20" d="M346.35,1128.94s.58,483.66.29,490.34c-.29,6.68,2.29,10.87,2.33,5.3.04-5.57,2.65-495.65,2.65-495.65h-5.26Z"/>
      <path class="cls-5" d="M337.02,1121.49v9.44c0,1.99,1.83,2.49,3.32,2.49h10.43c.3,0,.58-.06.86-.16,1.28-.47,2.29-1.86,2.29-2.83,0-1.16,0-8.95,0-8.95,0-2.15-.99-3.32-3.64-3.48-2.18-.13-6.03-.05-8.44-.01-.52,0-.99.01-1.34.01-1.99,0-3.49,1.33-3.49,3.48Z"/>
      <path class="cls-20" d="M346.35,1133.42h4.43c.3,0,.58-.06.86-.16.04-2.85.08-7.98-.04-11.04-.18-4.41-5.11-1.42-5.11-1,0,.33-.1,8.43-.14,12.2Z"/>
      <path class="cls-5" d="M337.02,1121.49v9.44c0,1.99,1.83,2.49,3.32,2.49h1.46c-.26-4.89-.07-11.61.05-15.42-.52,0-.99.01-1.34.01-1.99,0-3.49,1.33-3.49,3.48Z"/>
      <path class="cls-5" d="M445.5,1067.11c6.67-1.92,13.72-4.91,16.28-10.89,2.56-5.98,4.49-12.82,4.7-26.06.21-13.24-1.49-20.19-2.14-27.55-.61-6.97-6.53-12.49-11.43-13.99-4.9-1.49-6.62-1.49-2.21,1.22h0c2.58.82,4.81,2.01,6.61,3.72,6.63,6.28,6.47,19.55,6.8,26.18.33,6.63,1.81,28.5-6.63,38.45-3.24,3.81-7.49,5.9-12,7.01-.67.11-1.29.25-1.83.4h-.02c-4.21,1.17-4.06,3.22,1.85,1.52Z"/>
      <path class="cls-5" d="M348.47,980.3c3.59,4.45,10.22,6.83,16.46,7.95h.01c4.07-.88.19-1.67-3.06-2.73-2.1-.69-9.74-3.56-13.41-9.54-3.67-5.98-5.09-14.67-4.81-22.78.08-2.33-.38-3.83-1.07-4.79-.43,1.28-.69,3.11-.71,5.6-.11,13.97,1.1,19.5,6.59,26.29Z"/>
      <path class="cls-5" d="M335.21,957.26c.51.15,2.75.21,5.64.2,6.43-.04,16.09-.45,16.9-1.03,1.16-.82,0-10.76,0-10.76,0,0-19.73-6.14-23.91-1.18-.49.57-.77,1.28-.78,2.17-.16,8.61.5,10.1,2.16,10.59Z"/>
      <path class="cls-5" d="M335.21,957.26c.51.15,2.75.21,5.64.2-.39-.5-.95-1.22-1.34-2.26-.86-2.27-.54-5.34-1.07-11.96,0,0-2.16.55-4.6,1.26-.49.57-.77,1.28-.78,2.17-.16,8.61.5,10.1,2.16,10.59Z"/>
      <path class="cls-21" d="M354.61,940.24s.67,14.3,0,15.52c-.68,1.22-3.29,1.42-6.08,1.52-2.79.09-2.18-18.08-2.18-18.08l8.26,1.04Z"/>
      <path class="cls-20" d="M232.29,952.46l87.18-2.5,74.39-2.14,36.54-1.05h0l32.56-.94s2.48-1.16,1.54-3.32c-.94-2.15-3.37-2.39-4.35-3.81-1.25-1.78-53.53-98.26-53.53-98.26-1.45-2.58-4.51-1.78-11.6-1.33,0,0-8.2-.16-15.64,0-14.19.31-35.4,1.11-54.64,1.92-23.76,1.02-44.51,2.09-45.39,2.39-1.98.66.67,5.3-.33,6.97-.99,1.65-12.92,24.51-16.9,34.13-3.97,9.61-25.19,61.32-27.84,62.97-2.66,1.66-1.99,4.97-1.99,4.97Z"/>
      <path class="cls-15" d="M234.29,947.48c2.65-1.65,23.86-53.36,27.84-62.97,3.97-9.61,15.91-32.48,16.9-34.13,1-1.66-1.65-6.3.33-6.97.88-.3,21.63-1.36,45.39-2.39h.11c-1.62,1.46-.9,3.63,2.02,5.38,6.27-.07,19.73-1.59,17.34.39-12,9.95-12.66,32.91-19.38,88.78-.3,4.26-.58,6.86-.85,6.97-1.66.67-5.77,2.29-4.5,7.39l-87.18,2.5s-.66-3.31,1.99-4.97Z"/>
      <path class="cls-21" d="M379.38,839.11c7.44-.16,12.96-.2,15.24-.05l.25.02h.08s.07.02.07.02l-1.16,5.02,16.98,46.95h0c10.08,22.94,17.17,38.65,19.85,42.24,3.33,4.47,13.78,12.73,9.14,13.2-1.83.18-5.28.18-9.09.1-.11.05-.21.1-.33.15h-.01s-36.54,1.04-36.54,1.04c-1.49-3.3,0-8.61,0-8.61l-11.75-94.86s-3.95-3.42-2.73-5.23Z"/>
      <path class="cls-5" d="M460.1,1021.17c0,2.1,2.09,4.95,4.31,4.96.6,0,1.33,0,2.1.02,2.03.02,4.41.06,5.99-.02,2.18-.1,3.38-2.95,3.29-5.4-.07-1.91-1.66-5.3-4.87-5.3-2.23,0-3.28-.13-4.72-.13-.63,0-1.34.01-2.25.08-2.98.22-3.85,3.69-3.85,5.79Z"/>
      <path class="cls-16" d="M473.1,1023.76c1-2,.76-7.26-1.79-7.12-2.55.14-4.08-.5-4.19.78-.11,1.28,3.42.86,3.84,2.21.43,1.35.85,6.69,2.14,4.13Z"/>
      <path class="cls-5" d="M460.1,1021.17c0,2.1,2.09,4.95,4.31,4.96.6,0,1.33,0,2.1.02,0,0-1.82-1.31-2.53-3.44-.68-1.99.15-4.99,1.44-6.61l.78-.81c-.63,0-1.34.02-2.25.09-2.98.22-3.85,3.69-3.85,5.79Z"/>
      <path class="cls-17" d="M937.04,846.04v-91.06c-8.48-.15-16.96-.31-25.43-.47v-22.92c8.47.16,16.96.3,25.43.46,7,.13,12.89,2.51,17.86,7.06,4.99,4.56,7.38,9.9,7.38,16.17v90.9c-8.48-.15-16.96-.15-25.24-.15h0ZM993.97,846.19c-6.97-.03-12.89-2.04-17.88-6.59-4.97-4.39-7.37-9.74-7.37-16.17v-22.76c0-6.13,2.39-11.3,7.37-15.86,4.8-4.4,10.89-6.64,17.88-6.59,16.76.11,33.72.32,50.67.48v-22.61c-25.43-.16-50.67-.47-75.91-.79v-22.76c25.24.32,50.49.71,75.91.94,6.8.06,12.89,2.35,17.86,6.92,4.99,4.39,7.56,9.57,7.56,15.85v22.61c0,6.28-2.58,11.62-7.56,16.02-4.79,4.39-10.86,6.31-17.86,6.27-16.93-.11-33.91-.16-50.67-.31v22.76c25.24.16,50.67.31,76.1.46v22.46c-25.43,0-50.85-.21-76.1-.31h0ZM1076.32,824.05v-22.59h25.43v22.59h-25.43ZM1076.32,778.85v-22.46c8.48,0,16.96,0,25.43.16v22.45c-8.47-.15-16.95,0-25.43-.15h0ZM1184.11,824.37v-67.35c-16.96-.15-33.91-.15-50.67-.31v67.5c16.76,0,33.71.15,50.67.15h0ZM1133.44,846.66c-7.19,0-13.27-2.04-18.06-6.59-4.97-4.39-7.37-9.74-7.37-15.85v-67.67c0-6.27,2.4-11.61,7.37-15.85,4.97-4.39,11.07-6.63,18.06-6.59,16.76.1,33.71.31,50.67.31,7,0,12.89,2.2,17.68,6.75,5.16,4.39,7.55,9.73,7.55,15.86v67.35c0,6.27-2.39,11.61-7.55,15.85-4.97,4.39-10.89,6.63-17.68,6.59-16.96-.1-33.91-.15-50.67-.15h0ZM1291.7,824.37v-67.19h-50.67v67.19h50.67ZM1241.03,846.81c-7.18,0-13.09-2.2-18.06-6.59-4.79-4.24-7.19-9.74-7.19-15.85v-67.35c0-6.28,2.4-11.47,7.19-15.86,5.16-4.39,11.06-6.59,18.06-6.59,16.76,0,33.72.1,50.67,0,7-.04,12.89,2.2,17.86,6.59,4.97,4.39,7.55,9.73,7.55,15.86v67.19c0,6.27-2.58,11.61-7.55,15.85-4.97,4.55-11.04,6.7-17.86,6.75-16.95.1-33.91,0-50.67,0Z"/>
      <path class="cls-5" d="M506.47,160.8c129.71,20.09,259.26,37.58,389.12,47.25,129.59,9.63,259.59,12.65,389.49,13.82,27.99.24,50.85,19.93,50.85,44.89v392.46c0,24.96-22.85,45.43-50.85,45.37-129.89-.25-259.79-1.11-389.49-3.77-129.72-2.66-259.42-7.71-389.12-13.5-28.19-1.25-51.04-24.96-51.04-52.43V201.46c0-27.47,22.85-45.68,51.04-40.65Z"/>
      <path class="cls-21" d="M506.47,179.01c129.67,19.86,259.26,36.65,389.12,46.16,129.59,9.48,259.59,12.24,389.49,13.34,17.68.14,32.05,12.72,32.05,28.41v392.3c0,15.71-14.37,28.77-32.05,28.74-129.89-.27-259.79-1.27-389.49-4.24-129.72-2.99-259.42-8.25-389.12-14.61-17.68-.86-32.05-15.69-32.05-32.96V204.91c0-17.27,14.36-28.61,32.05-25.9Z"/>
      <path class="cls-20" d="M1297.96,396.9c0,61.55-56.37,111.62-126.02,111.14-69.64-1.1-126.2-52.74-126.2-114.75s56.56-110.51,126.2-108.79c69.65.79,126.02,50.71,126.02,112.4Z"/>
      <path class="cls-20" d="M1171.39,284.5c-35.19-.79-66.89,11.31-89.54,31.24,27.82,27.63,55.83,54.94,83.83,82.1,19.53-34.22,39.23-68.28,58.95-102.51-16.22-6.9-34.27-10.68-53.25-10.83Z"/>
      <path class="cls-15" d="M1280.28,339.92c-13.09-19.31-32.43-35.01-55.64-44.58-19.72,34.23-39.43,68.29-58.95,102.51.37.31.73.79,1.1,1.1,37.77-19.47,75.53-39.09,113.5-59.02Z"/>
      <path class="cls-15" d="M1081.85,315.74c-22.48,19.78-36.12,47.25-36.12,78.01.18,20.89,6.64,40.67,17.88,57.77,33.52-17.1,67.06-34.06,100.59-51.33.37-.77.91-1.56,1.48-2.35-28-27.16-56.01-54.47-83.83-82.1Z"/>
      <path class="cls-3" d="M1165.68,397.84c-.56.79-1.11,1.58-1.48,2.35.73-.31,1.66-.77,2.58-1.25-.37-.31-.73-.79-1.1-1.1Z"/>
      <path class="cls-15" d="M1253.56,481.98c-28.92-27.47-57.85-55.25-86.77-83.04-.91.48-1.85.95-2.58,1.25-17.88,30.93-35.74,61.86-53.43,92.79,18.24,9.41,39.24,14.75,61.53,15.06,30.96.17,59.33-9.73,81.25-26.06Z"/>
      <path class="cls-20" d="M1280.28,339.92c-37.96,19.93-75.73,39.56-113.5,59.02,28.92,27.79,57.85,55.57,86.77,83.04,27.27-20.4,44.58-51.33,44.4-85.55,0-20.72-6.63-40.04-17.68-56.52Z"/>
      <path class="cls-2" d="M1259.82,396.9c0,43.02-39.43,77.72-87.89,77.24-48.64-.62-88.06-36.57-88.06-79.74s39.42-77.24,88.06-76.29c48.46.63,87.89,35.79,87.89,78.8Z"/>
      <path class="cls-15" d="M1171.94,332.54c-39.79-.94-72.04,26.85-72.04,62.17s32.24,64.68,72.04,65.31c39.61.32,71.86-27.93,71.86-63.11s-32.24-64.04-71.86-64.36h0ZM1171.94,463.94c-42.19-.79-76.26-31.86-76.26-69.24s34.08-67.03,76.26-66.08c42.01.47,76.28,31.08,76.28,68.28s-34.27,67.35-76.28,67.04Z"/>
      <path class="cls-15" d="M1206.39,532.85c-12.53,0-25.06-.16-37.4-.31v7.69c12.34.16,24.88.31,37.4.31v-7.69h0ZM1224.45,553.42c-18.61-.15-37.03-.31-55.46-.46v7.69c18.43.15,36.85.31,55.46.31v-7.54h0ZM1259.64,614.48h-11.97v7.69h11.97v-7.69h0ZM1224.09,614.48v7.54c6.82,0,13.62.15,20.62.15v-7.69h-20.62ZM1216.71,614.33c-16.02,0-31.86-.16-47.71-.31v7.69c15.85.16,31.69.31,47.71.31v-7.69h0ZM1244.71,594.23c-25.23-.16-50.47-.31-75.72-.47v7.54c25.24.31,50.49.47,75.72.47v-7.54h0ZM1247.67,594.23v7.54c10.31,0,20.64.17,31.13.17v-7.71h-31.13ZM1270.7,573.83c-22.85,0-45.52-.15-68.18-.32v7.71c22.66.15,45.33.15,68.18.31v-7.69h0ZM1261.3,553.42v7.69h17.5v-7.54c-5.89,0-11.79,0-17.5-.16h0ZM1231.82,553.42v7.54c9.03.16,18.06.16,27.27.16v-7.69h-27.27Z"/>
      <path class="cls-15" d="M658.66,580.73c-32.06-2.04-63.94-4.08-95.82-6.13v5.66c31.88,2.04,63.76,4.07,95.82,5.96v-5.49h0ZM678.18,640.39c-38.51-1.89-77.01-3.78-115.34-5.97v5.66c38.33,2.2,76.83,4.07,115.34,5.81v-5.49h0ZM678.18,625.63c-38.51-1.88-77.01-3.92-115.34-6.11v5.65c38.33,2.2,76.83,4.24,115.34,6.11v-5.65h0ZM596.38,606.64c-11.24-.79-22.48-1.41-33.54-2.2v5.8c11.06.63,22.3,1.25,33.54,2.04v-5.65h0ZM678.18,611.03c-23.76-1.25-47.53-2.51-71.31-3.93v5.65c23.78,1.42,47.54,2.68,71.31,3.93v-5.65h0ZM678.18,596.42c-38.51-2.2-77.01-4.39-115.34-6.9v5.65c38.33,2.52,76.83,4.72,115.34,6.76v-5.51Z"/>
      <path class="cls-15" d="M886,554.36c-1.48-.15-2.94-.15-4.42-.31v-255.26c1.48.15,2.94.32,4.42.32v255.25h0ZM565.05,535.99c-1.47-.16-2.94-.31-4.41-.47v-269.07c1.47.15,2.94.31,4.41.62v268.92h0ZM645.21,541.79c-1.48-.31-2.96-.31-4.24-.31v-264.83c1.28.15,2.76.31,4.24.46v264.68h0ZM725.53,546.67c-1.47,0-2.94-.16-4.42-.16v-261.07c1.48.16,2.96.31,4.42.47v260.76h0ZM805.67,550.91c-1.47-.15-2.94-.15-4.23-.32v-257.91c1.28.15,2.76.31,4.23.46v257.77Z"/>
      <path class="cls-20" d="M896.88,554.67c-8.85-.31-17.51-.62-26.17-1.1v-116c8.66.47,17.33.94,26.17,1.41v115.7h0ZM575.93,536.78c-8.85-.63-17.5-1.25-26.16-2.04v-162.63c8.66,1.1,17.31,2.03,26.16,2.97v161.7h0ZM656.81,542.43c-8.66-.63-17.33-1.1-25.98-1.73v-104.86c8.65.79,17.31,1.41,25.98,2.2v104.4h0ZM736.4,547.29c-8.66-.47-17.33-.93-25.98-1.56v-148.83c8.65.79,17.31,1.42,25.98,2.2v148.19h0ZM816.54,551.37c-8.66-.46-17.31-.79-25.98-1.25v-203.13c8.66.62,17.31,1.1,25.98,1.87v202.51Z"/>
      <path class="cls-20" d="M991.57,360.17c-9.21-14.61-18.42-29.51-27.64-44.27-9.21,13.82-18.42,27.95-27.64,41.6,4.79.31,9.78.63,14.75.79v198.27c8.65.16,17.31.47,25.98.62v-197.64c4.79.16,9.58.46,14.55.63Z"/>
      <path class="cls-20" d="M541.47,520.92c0,1.89-1.46,2.98-3.31,2.83-9.03-.79-18.06-1.58-27.09-2.35-1.83-.17-3.31-1.58-3.31-3.47,0-1.72,1.48-2.97,3.31-2.82,9.03.79,18.06,1.56,27.09,2.35,1.85.15,3.31,1.89,3.31,3.45h0ZM979.6,565.5c-78.67-2.51-157.56-5.27-236.01-9.42-78.51-4.16-157.35-9.72-235.83-16v-3.45c78.48,6.27,157.32,11.92,235.83,16.16,78.45,4.23,157.34,7.07,236.01,9.42v3.3h0ZM541.47,250.75c0,1.73-1.46,2.99-3.31,2.68-9.03-1.42-18.06-2.68-27.09-4.08-1.83-.16-3.31-2.04-3.31-3.61h0c0-1.89,1.48-2.99,3.31-2.68,9.03,1.41,18.06,2.68,27.09,4.08,1.85.15,3.31,1.89,3.31,3.61h0ZM541.47,295.81c0,1.72-1.46,2.82-3.31,2.66-9.03-1.25-18.06-2.51-27.09-3.76-1.83-.32-3.31-1.89-3.31-3.78,0-1.56,1.48-2.83,3.31-2.66,9.03,1.25,18.06,2.51,27.09,3.76,1.85.31,3.31,2.04,3.31,3.78h0ZM541.47,340.86c0,1.72-1.46,2.99-3.31,2.66-9.03-1.1-18.06-2.2-27.09-3.45-1.83-.15-3.31-1.89-3.31-3.61s1.48-2.98,3.31-2.68c9.03,1.1,18.06,2.37,27.09,3.47,1.85.31,3.31,1.87,3.31,3.6h0ZM541.47,385.91c0,1.73-1.46,2.83-3.31,2.68-9.03-1.1-18.06-2.04-27.09-3.14-1.83-.31-3.31-1.89-3.31-3.61h0c0-1.73,1.48-2.99,3.31-2.83,9.03,1.1,18.06,2.2,27.09,3.3,1.85.15,3.31,1.89,3.31,3.6h0ZM541.47,430.97c0,1.72-1.46,2.82-3.31,2.66-9.03-.94-18.06-2.04-27.09-2.98-1.83-.15-3.31-1.72-3.31-3.3h0c0-1.88,1.48-2.97,3.31-2.82,9.03.94,18.06,1.87,27.09,2.82,1.85.32,3.31,1.88,3.31,3.62h0ZM541.47,476.02c0,1.73-1.46,2.83-3.31,2.66-9.03-.77-18.06-1.72-27.09-2.51-1.83-.15-3.31-1.72-3.31-3.61h0c0-1.73,1.48-2.98,3.31-2.83,9.03.95,18.06,1.73,27.09,2.68,1.85.15,3.31,1.72,3.31,3.61h0Z"/>
      <path class="cls-21" d="M1389.15,201.62c133.95-3.63,268.11-8.82,401.82-22.29,134.21-13.52,268.11-36.27,402.2-62.33,9.61-1.86,17.31,4.24,17.31,13.82v301.26c0,9.56-7.72,18.4-17.31,19.45-134.1,14.95-268.17,27.79-402.2,35.49-133.85,7.68-267.87,10.68-401.82,12.72-9.57.14-17.31-6.75-17.31-15.23V217.31c0-8.47,7.76-15.44,17.31-15.69Z"/>
      <path class="cls-7" d="M1389.15,198.63c133.95-3.76,268.1-8.89,401.82-22.44,134.19-13.59,268.07-36.58,402.2-62.49,5.52-1.1,10.68.17,14.55,3.14h0c3.68,2.99,6.09,7.69,6.09,13.35v301.4c0,5.65-2.41,11.14-6.09,15.38h0c-3.87,4.24-9.03,7.23-14.55,7.69-134.13,14.76-268.18,27.72-402.2,35.33-133.86,7.61-267.87,10.51-401.82,12.55-5.7.16-10.86-1.87-14.55-5.34h0c-3.68-3.13-6.07-7.85-6.07-12.71V217.31c0-4.86,2.39-9.57,6.07-13.02h0c3.69-3.3,8.85-5.51,14.55-5.66h0ZM2193.18,120.29c-134.13,25.75-268.01,48.57-402.2,62.01-133.72,13.4-267.87,18.52-401.82,22.3-3.86,0-7.37,1.56-9.94,3.76h0c-2.58,2.2-4.24,5.34-4.24,8.79v267.2c0,3.45,1.66,6.75,4.24,8.95h0c2.58,2.2,6.09,3.6,9.94,3.6,133.95-2.2,267.96-5.2,401.82-12.87,134.02-7.69,268.07-20.88,402.2-35.62,3.86-.48,7.37-2.68,9.95-5.49h0c2.58-2.83,4.24-6.59,4.24-10.52V131.45c0-3.93-1.66-7.23-4.24-9.11h0c-2.58-2.04-6.08-2.82-9.95-2.04Z"/>
      <path class="cls-18" d="M1409.79,450.6c2.03,0,3.87.47,5.72.93,15.47-24.17,31.13-48.5,46.8-72.67-.18-.15-.37-.32-.56-.48h0c-2.58-2.35-4.41-5.34-4.41-8.95s1.83-7.21,4.41-9.58h0c2.78-2.35,6.45-3.92,10.51-4.07,4.06-.17,7.73,1.25,10.49,3.61h0c2.59,2.35,4.24,5.65,4.24,9.25,0,2.83-.92,5.49-2.58,7.54,16.03,15.38,32.06,30.78,48.09,46.01,2.21-1.27,4.79-2.04,7.37-2.04,1.48,0,2.76.15,4.06.46,38.13-65.31,76.45-131.56,114.78-198.27-.18-.31-.55-.62-.75-.62h0c-2.76-2.2-4.41-5.51-4.41-9.11s1.65-7.21,4.41-9.73h0c2.59-2.82,6.27-4.39,10.51-4.55,4.06-.31,7.73.79,10.31,2.99h0c2.78,2.2,4.42,5.49,4.42,9.26s-1.65,7.23-4.42,9.73h0c-.18.16-.37.48-.73.63,46.8,75.81,93.59,151.95,140.57,228.73,1.3-.48,2.58-.63,3.87-.79,3.49-.31,6.63.47,9.03,2.04,39.98-59.66,79.96-120.41,120.12-182.42-2.76-2.03-4.24-5.32-4.24-9.25s1.66-7.23,4.24-10.37h0c2.76-2.82,6.45-4.86,10.51-5.17,4.04-.63,7.73.47,10.49,2.51h0c2.58,2.51,4.24,5.65,4.24,9.42,0,3.14-1.1,6.12-2.76,8.79,32.25,31.07,64.47,62.47,96.9,94.03,2.03-1.41,4.61-2.35,7-2.66,1.66-.17,3.32,0,4.79.15,29.12-51.5,58.22-103.78,87.52-157.46-.18.15-.37,0-.37-.16h0c-2.58-2.35-4.24-5.49-4.24-9.42s1.66-8.16,4.24-11.3h0c2.76-3.14,6.44-5.49,10.49-6.28,4.06-.77,7.75,0,10.51,2.04h0c2.76,2.2,4.42,5.49,4.42,9.58s-1.66,8.16-4.42,11.3h0c-2.76,3.3-6.45,5.49-10.51,6.44-1.65.15-3.13.32-4.6.15-29.29,53.54-58.59,106.13-87.69,157.62,0,.15.18.31.37.31h0c2.76,2.35,4.42,5.82,4.42,9.74s-1.66,7.69-4.42,10.52h0c-2.58,2.99-6.45,5.03-10.51,5.49-4.04.47-7.73-.79-10.31-2.99h-.18c-2.58-2.35-4.24-5.49-4.24-9.41,0-3.3,1.11-6.44,2.94-8.96-32.43-31.55-64.84-63.11-97.08-94.34-2.03,1.41-4.42,2.2-7,2.66-1.85.15-3.51,0-5.16-.47-40.36,62.78-80.7,124.17-121.05,184.45.92,1.73,1.47,3.78,1.47,5.97,0,3.76-1.65,7.21-4.43,9.89h0c-2.58,2.66-6.44,4.4-10.49,4.71-4.06.31-7.73-.94-10.33-3.3h0c-2.76-2.35-4.41-5.65-4.41-9.42s1.65-7.21,4.41-9.89h0c.2-.31.38-.47.75-.62-46.98-76.77-93.78-152.91-140.57-228.73-1.3.47-2.58.78-3.87.95-1.48,0-2.76-.17-4.06-.33-38.32,66.88-76.65,133.12-114.96,198.43.37.32.55.32.91.63h0c2.58,2.35,4.24,5.65,4.24,9.25s-1.66,6.92-4.24,9.27h0c-2.76,2.66-6.44,4.24-10.49,4.24-4.06.31-7.73-1.1-10.51-3.45h0c-2.58-2.35-4.23-5.49-4.23-9.11,0-2.97.91-5.49,2.58-7.84-16.03-15.23-32.06-30.46-48.09-45.84-2.21,1.25-4.79,1.73-7.37,1.89-1.48,0-3.13,0-4.42-.48-15.66,24.5-31.32,48.82-46.98,73.17,2.4,2.35,3.87,5.32,3.87,8.79s-1.66,6.9-4.42,9.41h0c-2.58,2.52-6.45,3.93-10.51,3.93-4.06.16-7.73-1.25-10.31-3.77h-.18c-2.58-2.35-4.24-5.49-4.24-9.1s1.66-7.06,4.24-9.42h.18c2.58-2.35,6.25-3.91,10.31-4.07h0ZM1411.45,457.81c.18-.15.37-.62.73-1.1-.73-.15-1.47-.31-2.39-.31-2.21,0-4.42.94-5.89,2.35h0c-1.48,1.25-2.4,3.14-2.4,5.18,0,2.2.91,3.91,2.4,5.18v.15c1.46,1.25,3.68,2.04,5.89,2.04,2.39,0,4.42-.94,5.9-2.2l.18-.17c1.47-1.25,2.4-3.13,2.4-5.17,0-1.25-.37-2.52-.93-3.45-.18.15-.37.31-.37.31-1.84-.94-3.68-1.73-5.52-2.83h0ZM1465.62,373.52c1.3-1.89,2.58-3.78,3.87-5.81.73-1.27,1.47-2.37,2.21-3.62.92.94,1.83,2.04,2.94,2.83,1.66,1.89,3.31,3.45,5.16,5.01.55-.93.73-2.03.73-3.13,0-2.2-.91-3.93-2.39-5.18h0c-1.47-1.41-3.49-2.2-5.89-2.2s-4.42.94-5.9,2.35h0c-1.46,1.56-2.39,3.3-2.39,5.49,0,1.56.56,3.14,1.66,4.24h0ZM1537.11,426.41c.55.79,1.28,1.42,2.03,2.2.37-.93.91-1.88,1.47-2.66-.18-.15-.37-.15-.73-.15-.93.15-2.03.31-2.76.62h0ZM1661.83,216.84c1.11-2.2,2.39-4.09,3.69-6.44.91-1.56,1.83-3.3,2.94-4.86.91,1.25,1.84,2.82,2.76,4.39,1.11,2.04,2.39,3.91,3.69,5.96,1.1-1.41,1.84-3.14,1.84-5.01,0-2.04-.93-3.93-2.41-5.18h0c-1.47-1.1-3.68-1.73-5.89-1.73-2.39.16-4.42,1.25-6.09,2.68h0c-1.46,1.41-2.39,3.45-2.39,5.49,0,1.87.75,3.45,1.84,4.71h0ZM1821.76,454.84c1.1,2.03,2.21,3.92,3.49,5.65.92-1.25,1.85-2.68,2.76-4.24-1.47-1.1-3.31-1.73-5.52-1.41h-.73ZM1955.14,262.83c1.28-2.04,2.76-4.24,4.24-6.59.73-1.1,1.47-2.35,2.4-3.76.91.94,1.83,1.89,2.76,2.82,1.65,1.73,3.31,3.3,5.16,4.88.55-1.25.73-2.35.73-3.78,0-2.2-.91-3.91-2.4-5.34h0c-1.46-1.1-3.49-1.56-5.89-1.41-2.4.31-4.43,1.41-5.9,2.99h0c-1.47,1.56-2.39,3.61-2.39,5.8,0,1.73.36,3.3,1.29,4.4h0ZM2075.45,362.84c.75.79,1.48,1.58,2.21,2.2.55-1.1,1.11-2.04,1.66-2.99-.37-.15-.73,0-1.29,0-.92,0-1.83.33-2.58.79h0ZM2173.83,192.19c1.3-2.35,2.58-4.86,3.87-7.37,1.85.77,3.69,1.56,5.52,2.2-1.28,2.51-2.58,4.86-3.86,7.37.37,0,.73-.15,1.1-.15,2.4-.62,4.42-1.72,5.9-3.45h0c1.65-2.04,2.58-4.24,2.58-6.44,0-2.35-.93-4.24-2.58-5.49h0c-1.48-1.1-3.51-1.72-5.9-1.1-2.21.48-4.42,1.73-5.89,3.45h0c-1.48,1.89-2.39,4.09-2.39,6.44,0,1.73.55,3.3,1.65,4.55h0ZM2084.84,364.57c-1.46,2.2-2.76,4.55-4.04,6.75-.75,1.41-1.48,2.66-2.21,4.08-1.11-.94-2.03-2.04-2.96-2.99-1.65-1.58-3.31-3.14-4.97-4.88-.55,1.1-.91,2.37-.91,3.78,0,2.04.91,4.08,2.4,5.18h0c1.46,1.41,3.68,2.03,5.89,1.72,2.39-.15,4.42-1.41,5.9-3.14h.18c1.48-1.56,2.4-3.76,2.4-5.8,0-1.89-.73-3.45-1.66-4.71h0ZM1964.73,264.72c-.73-.63-1.48-1.41-2.21-2.35-.73,1.25-1.29,2.2-1.85,3.14.37,0,.92-.15,1.48-.15.91-.17,1.85-.48,2.58-.63h0ZM1830.77,462.84c-1.1,1.72-2.2,3.3-3.13,4.86-.37.32-.55.63-.73.94.55-.31,1.1-.62,1.47-1.1l.2-.16c1.1-1.1,2.01-2.83,2.2-4.55h0ZM1823.41,470.05c-.55-.62-.91-1.41-1.28-2.2-2.03-3.3-4.06-6.59-6.09-9.89-1.1,1.27-1.84,3.14-1.84,5.03,0,2.2.93,3.93,2.4,5.34h0c1.48,1.1,3.69,2.04,5.9,1.72h.91ZM1669.2,218.88c-.37-.31-.55-.63-.73-1.25-.37.62-.73.94-.91,1.41h.91c.18,0,.55,0,.73-.15h0ZM1546.32,428.45c-1.3,2.2-2.58,4.09-3.69,6.13-.73,1.25-1.48,2.51-2.03,3.76-1.1-.93-2.21-1.87-3.13-2.82-1.84-1.73-3.5-3.3-5.16-5.03-.56.94-.75,2.04-.75,3.14,0,2.04.93,3.93,2.4,5.19v.15c1.48,1.25,3.5,1.89,5.9,1.89s4.42-.94,5.89-2.2v-.15c1.48-1.42,2.39-3.3,2.39-5.34,0-1.89-.55-3.47-1.83-4.72h0ZM1475.01,375.87c-.73-.63-1.48-1.25-2.21-2.2-.55,1.1-1.1,1.89-1.66,2.66h1.11c.91,0,1.84,0,2.76-.47Z"/>
      <path class="cls-2" d="M1472.25,358.75c6.45-.15,11.61,4.24,11.61,9.89s-5.16,10.52-11.61,10.68c-6.45.15-11.61-4.32-11.61-10.04s5.16-10.37,11.61-10.52Z"/>
      <path class="cls-2" d="M1539.87,422.96c6.45-.16,11.61,4.31,11.61,10.04s-5.16,10.52-11.61,10.68c-6.45.15-11.61-4.09-11.61-9.89s5.16-10.68,11.61-10.83Z"/>
      <path class="cls-2" d="M1668.47,201.15c6.35-.46,11.61,3.76,11.61,9.56s-5.26,10.85-11.61,11.31c-6.35.46-11.61-3.93-11.61-9.74s5.25-10.68,11.61-11.14Z"/>
      <path class="cls-2" d="M1822.49,451.7c6.35-.47,11.61,3.93,11.61,9.89s-5.25,11.06-11.61,11.45c-6.35.39-11.61-4-11.61-9.89s5.25-10.99,11.61-11.45Z"/>
      <path class="cls-2" d="M1962.15,246.67c6.44-.86,11.61,3.38,11.61,9.42s-5.17,11.62-11.61,12.4c-6.44.78-11.61-3.52-11.61-9.56s5.17-11.4,11.61-12.25Z"/>
      <path class="cls-2" d="M2078.03,358.91c6.34-.78,11.61,3.79,11.61,9.9s-5.25,11.69-11.61,12.4c-6.35.71-11.61-3.45-11.61-9.58s5.27-11.95,11.61-12.72Z"/>
      <path class="cls-2" d="M2180.46,174.45c6.45-1.25,11.61,2.83,11.61,9.27s-5.16,12.64-11.61,13.8c-6.45,1.17-11.61-3.06-11.61-9.41s5.16-12.41,11.61-13.67Z"/>
      <path class="cls-2" d="M1409.79,453.57c6.35-.15,11.61,4.33,11.61,10.06s-5.25,10.44-11.61,10.51c-6.35.07-11.61-4.48-11.61-10.2s5.25-10.21,11.61-10.37Z"/>
      <path class="cls-5" d="M2098.85,1549.01c-112.16-16.79-224.49-31.55-336.6-40.98-111.92-9.4-224.22-14.31-336.24-17.89-10.3-.32-18.83-7.86-18.79-17.27.67-150.85,1.49-301.88,2.21-452.9.73-151.15,1.53-302.19,2.39-453.21.04-9.24,8.48-16.83,18.97-16.95,112-1.28,224.25-3.4,336.24-8.17,112.05-4.79,224.42-12.61,336.6-21.67,10.32-.83,18.83,6.78,18.79,16.81-.86,166.24-1.66,332.49-2.39,498.74-.73,166.07-1.52,332.17-2.21,498.11-.04,10.18-8.64,16.92-18.97,15.38h0ZM1426.37,1420.44c112,3.34,224.32,7.23,336.24,15.69,112.12,8.48,224.42,21.62,336.6,36.43,3.14.41,5.7-1.58,5.72-4.72.71-154.62,1.49-309.73,2.03-464.51.55-154.93,1.49-310.21,2.21-465.3.02-2.97-2.58-5.27-5.72-5.03-112.18,8.54-224.37,16.26-336.42,20.88-111.99,4.62-224.22,6.64-336.24,7.86-3.11.03-5.7,2.21-5.7,4.86-.73,141.44-1.68,283.04-2.21,424.33-.55,141.42-1.49,282.88-2.03,424.32,0,2.66,2.41,5.1,5.52,5.18Z"/>
      <path class="cls-2" d="M2099.21,1472.56c-112.19-14.79-224.49-27.95-336.6-36.43-111.92-8.47-224.23-12.34-336.24-15.69-3.13-.09-5.52-2.52-5.52-5.18.54-141.45,1.48-282.9,2.03-424.32.53-141.29,1.48-282.89,2.21-424.33,0-2.65,2.59-4.83,5.7-4.86,112.02-1.23,224.25-3.24,336.24-7.86,112.05-4.62,224.23-12.34,336.42-20.88,3.14-.24,5.73,2.06,5.72,5.03-.72,155.09-1.66,310.37-2.21,465.3-.54,154.79-1.32,309.89-2.03,464.51-.01,3.14-2.59,5.12-5.72,4.72Z"/>
      <path class="cls-7" d="M2099.21,1472.56c-112.19-14.79-224.49-27.95-336.6-36.43-111.92-8.47-224.23-12.34-336.24-15.69-3.13-.09-5.52-2.52-5.52-5.18.54-141.45,1.48-282.9,2.03-424.32.53-141.29,1.48-282.89,2.21-424.33,0-2.65,2.59-4.83,5.7-4.86,112.02-1.23,224.25-3.24,336.24-7.86,112.05-4.62,224.23-12.34,336.42-20.88,3.14-.24,5.73,2.06,5.72,5.03-.72,155.09-1.66,310.37-2.21,465.3-.54,154.79-1.32,309.89-2.03,464.51-.01,3.14-2.59,5.12-5.72,4.72Z"/>
      <path class="cls-21" d="M2099.03,1466.91c.56-154.48,1.49-309.11,2.03-463.74.55-154.77,1.48-309.57,2.21-464.53-112.2,8.48-224.19,16.02-336.24,20.57-111.98,4.55-224.04,6.44-336.05,7.54-.73,141.44-1.48,282.89-2.21,424.18-.73,141.42-1.46,282.88-2.21,424.16,112.02,3.3,224.13,7.31,336.05,15.7,112.12,8.4,224.22,21.51,336.42,36.12Z"/>
      <path class="cls-15" d="M2103.08,588.27c0-16.48,0-32.96.18-49.61-112.2,8.48-224.19,16.02-336.24,20.57-111.98,4.55-224.04,6.44-336.05,7.54-.18,15.23-.18,30.3-.18,45.37,112.02-.94,224.06-2.52,336.05-6.44,112.03-3.92,224.04-10.2,336.24-17.43Z"/>
      <path class="cls-2" d="M1550.36,581.52c-5.16.15-9.39,4-9.39,8.64s4.24,8.23,9.39,8.16c5.16-.07,9.4-3.85,9.4-8.48s-4.24-8.47-9.4-8.31h0ZM1463.59,582.77c-5.24.07-9.58,3.69-9.58,8.32s4.24,8.47,9.39,8.47,9.4-4,9.4-8.64-3.97-8.23-9.21-8.16h0ZM1506.89,582.14c-5.24.09-9.4,4.02-9.4,8.64s4.24,8.24,9.4,8.17c5.16-.07,9.39-3.93,9.39-8.48s-4.16-8.41-9.39-8.33Z"/>
      <path class="cls-17" d="M1406.3,630.81c-.15,45.68-.38,91.37-.56,137.05,0,1.71,1.48,3.14,3.51,3.14h0c2.03,0,3.49-1.44,3.49-3.14.18-45.53.41-91.21.75-136.9.01-1.87-1.48-3.3-3.51-3.3h0c-2.03,0-3.68,1.6-3.68,3.14Z"/>
      <path class="cls-17" d="M1405.55,779c-.15,45.53-.38,91.21-.55,136.89,0,1.86,1.48,3.14,3.51,3.14h0c2.01,0,3.5-1.28,3.5-2.98.17-45.68.38-91.37.73-137.05,0-1.7-1.46-3.14-3.49-3.14h0c-2.03,0-3.69,1.45-3.69,3.14Z"/>
      <path class="cls-17" d="M2120.6,739.6c-.17,50.23-.4,100.47-.56,150.7,0,2.03,1.48,3.62,3.51,3.62h0c2.03,0,3.49-1.59,3.49-3.3.17-50.4.4-100.79.75-151.02.02-2.03-1.48-3.61-3.51-3.45h0c-2.03,0-3.67,1.59-3.67,3.45Z"/>
      <path class="cls-15" d="M1767.03,650.28c-15.1.46-30.03.79-44.95,1.1-2.76.15-4.97-1.73-4.97-4.24s2.21-4.55,4.97-4.71c14.92-.32,29.85-.63,44.95-1.1,2.76-.15,4.97,1.88,4.97,4.24-.18,2.51-2.39,4.55-4.97,4.71h0ZM1576.16,704.44c-41.63.31-83.27.62-124.72.78-2.76,0-4.79-2.04-4.79-4.39s2.21-4.24,4.79-4.24c41.45-.31,83.1-.62,124.72-1.1,2.77,0,4.99,1.89,4.99,4.39s-2.21,4.4-4.99,4.56h0ZM1717.84,702.4c-40.53.62-81.07,1.25-121.41,1.72-2.76,0-4.97-1.87-4.97-4.39,0-2.35,2.21-4.4,4.97-4.4,40.34-.46,80.88-1.1,121.41-1.87,2.76,0,4.97,2.03,4.97,4.39s-2.21,4.4-4.97,4.55h0ZM1528.81,679.79c-25.79.31-51.59.46-77.2.63-2.76,0-4.97-2.04-4.97-4.56,0-2.35,2.21-4.23,4.97-4.23,25.61-.17,51.4-.32,77.2-.63,2.76.15,4.97,2.04,4.97,4.39s-2.21,4.4-4.97,4.4h0ZM1766.85,675.86c-72.22,1.58-144.44,2.83-216.48,3.78-2.58-.16-4.79-2.04-4.79-4.4s2.21-4.39,4.97-4.39c72.04-1.1,144.08-2.35,216.3-4.09,2.76,0,4.97,1.89,4.97,4.55,0,2.35-2.21,4.4-4.97,4.55h0ZM1701.26,651.84c-83.28,1.73-166.37,2.98-249.46,3.62-2.76,0-4.97-2.04-4.97-4.39s2.21-4.24,4.97-4.24c83.1-.79,166.18-2.04,249.46-3.78,2.76,0,4.97,1.89,4.97,4.24-.18,2.51-2.39,4.55-4.97,4.55Z"/>
      <path class="cls-2" d="M1863.2,858.13v20.09c-65.22.16-130.44.31-195.65.48v-19.62c65.21-.33,130.43-.63,195.65-.95Z"/>
      <path class="cls-17" d="M1492.52,859.54c49.74-.16,99.48-.16,149.42-.31v19.47c-49.94,0-99.68.15-149.42.15v-19.31Z"/>
      <path class="cls-15" d="M2040.44,914.16c-112.02-.31-223.85-.79-335.69-1.1v-19.62h335.69v20.72Z"/>
      <path class="cls-15" d="M1949.06,829.87c-111.83,1.1-223.67,2.04-335.5,2.82v-19.46c111.84-.94,223.67-2.21,335.5-3.77v20.41Z"/>
      <path class="cls-2" d="M1678.41,893.44v19.62c-27.26-.15-54.53-.15-81.62-.15v-19.47h81.62Z"/>
      <path class="cls-17" d="M1492.52,893.44h78.66v19.47c-26.34-.16-52.5-.16-78.66-.16v-19.31Z"/>
      <path class="cls-2" d="M1492.52,813.85c31.87-.16,63.74-.31,95.81-.46v19.47c-32.06,0-63.94.15-95.81.31v-19.31Z"/>
      <path class="cls-15" d="M2040.44,950.9c-59.14-.79-118.27-1.41-177.24-2.04v-20.09c58.97.31,118.1.77,177.24,1.1v21.03Z"/>
      <path class="cls-2" d="M1837.04,928.6v20.1c-80.14-.63-160.28-1.1-240.25-1.58v-19.45c79.97.15,160.11.47,240.25.93Z"/>
      <path class="cls-2" d="M1971.91,986.06c-36.3-.62-72.59-1.25-108.71-1.89v-20.09c36.12.31,72.41.79,108.71,1.25v20.72Z"/>
      <path class="cls-17" d="M1492.52,961.42c114.96.47,230.11,1.25,345.25,2.35v20.09c-115.15-1.41-230.29-2.35-345.25-3.14v-19.3Z"/>
      <path class="cls-2" d="M2040.44,1023.9c-50.29-1.41-100.6-2.68-150.88-3.78v-20.24c50.29,1.1,100.59,2.04,150.88,3.3v20.72Z"/>
      <path class="cls-15" d="M1863.2,999.4v20.1c-88.8-1.58-177.6-2.99-266.41-3.93v-19.47c88.8.95,177.6,2.04,266.41,3.3Z"/>
      <path class="cls-17" d="M1492.52,995.49c26.16.16,52.32.31,78.66.46v19.31c-26.34-.15-52.5-.31-78.66-.47v-19.31Z"/>
      <path class="cls-15" d="M2040.44,1060.31c-84.2-2.82-168.39-5.34-252.59-7.37v-19.79c84.2,1.89,168.39,3.93,252.59,6.44v20.72Z"/>
      <path class="cls-2" d="M1761.51,1032.69v19.78c-31.33-.62-62.64-1.25-93.96-1.72v-19.62c31.31.46,62.63.93,93.96,1.56Z"/>
      <path class="cls-17" d="M1492.52,1029.39c49.74.31,99.48.79,149.42,1.41v19.47c-49.94-.62-99.68-1.25-149.42-1.56v-19.31Z"/>
      <path class="cls-15" d="M1929.9,1072.09v20.26c-111.1-3.62-222.19-6.44-333.11-8.48v-19.31c110.92,1.73,222.01,4.24,333.11,7.54Z"/>
      <path class="cls-2" d="M1492.52,1063.3c26.16.31,52.32.46,78.66.79v19.47c-26.34-.33-52.5-.63-78.66-.95v-19.31Z"/>
      <path class="cls-2" d="M1669.57,1152.16v19.45c65.22,2.04,130.44,4.41,195.66,7.23v-19.93c-65.22-2.68-130.44-4.88-195.66-6.75Z"/>
      <path class="cls-17" d="M2040.26,1168.01c-49.92-2.99-99.68-5.49-149.42-8v20.24c49.74,2.52,99.5,5.34,149.42,8.48v-20.72Z"/>
      <path class="cls-15" d="M1492.34,1201.91c111.82,2.2,223.65,5.65,335.67,10.37v-19.93c-112.02-4.41-223.85-7.54-335.67-9.74v19.3Z"/>
      <path class="cls-15" d="M1583.72,1123.58c111.83,2.52,223.65,5.66,335.49,10.06v-20.26c-111.84-3.93-223.66-6.9-335.49-9.25v19.46Z"/>
      <path class="cls-2" d="M1854.37,1193.6v20.09c27.08,1.41,54.35,2.99,81.62,4.55v-20.24c-27.27-1.58-54.54-2.99-81.62-4.4Z"/>
      <path class="cls-17" d="M2040.26,1204.59c-26.34-1.89-52.5-3.62-78.67-5.19v20.41c26.17,1.72,52.33,3.61,78.67,5.49v-20.72Z"/>
      <path class="cls-2" d="M2040.26,1118.87c-32.06-1.56-63.93-3.14-95.8-4.4v20.26c31.88,1.56,63.74,3.13,95.8,4.86v-20.72Z"/>
      <path class="cls-15" d="M1492.34,1235.99c58.95,1.1,118.09,2.66,177.23,4.55v-19.62c-59.14-1.73-118.27-3.3-177.23-4.39v19.47Z"/>
      <path class="cls-2" d="M1695.74,1221.86v19.62c79.96,3.45,160.09,7.69,240.25,12.71v-20.4c-80.15-4.87-160.29-8.81-240.25-11.93Z"/>
      <path class="cls-2" d="M1560.69,1271.46c36.29.95,72.59,2.2,108.88,3.61v-19.62c-36.29-1.25-72.59-2.35-108.88-3.3v19.31Z"/>
      <path class="cls-17" d="M2040.26,1277.74c-115.15-8.94-230.29-16.02-345.26-21.36v19.47c114.98,5.65,230.12,13.18,345.26,22.61v-20.72Z"/>
      <path class="cls-2" d="M1492.34,1303.96c50.29,1.1,100.59,2.51,150.88,4.4v-19.47c-50.29-1.89-100.6-3.3-150.88-4.24v19.31Z"/>
      <path class="cls-15" d="M1669.57,1289.83v19.62c88.8,4.24,177.6,9.58,266.42,16.17v-20.26c-88.82-6.28-177.62-11.45-266.42-15.54Z"/>
      <path class="cls-17" d="M2040.26,1314.31c-26.34-2.51-52.5-4.86-78.67-6.9v20.41c26.17,2.2,52.33,4.71,78.67,7.21v-20.72Z"/>
      <path class="cls-15" d="M1492.34,1337.86c84.2,2.2,168.39,5.49,252.59,9.74v-19.78c-84.2-3.93-168.39-7.23-252.59-9.27v19.31Z"/>
      <path class="cls-2" d="M1771.09,1329.38v19.78c31.32,2.04,62.64,4.09,94.14,6.44v-20.09c-31.5-2.2-62.83-4.24-94.14-6.13Z"/>
      <path class="cls-17" d="M2040.26,1350.74c-49.92-4.88-99.68-9.27-149.42-13.18v20.09c49.74,4.24,99.5,8.79,149.42,13.82v-20.72Z"/>
      <path class="cls-15" d="M1602.88,1355.77v19.45c110.9,5.18,222,12.57,333.11,21.99v-20.26c-111.1-9.1-222.2-16.17-333.11-21.19Z"/>
      <path class="cls-2" d="M2040.26,1387.31c-26.34-2.82-52.5-5.65-78.67-8v20.41c26.17,2.51,52.33,5.34,78.67,8.31v-20.72Z"/>
      <path class="cls-4" d="M377.87,614.17c6.64-91.21,86.41-151.02,178.17-135.49,91.75,13.98,160.83,92.79,154.21,177.87-6.63,85.08-86.41,148.04-178.17,139.87-91.75-8.64-160.65-90.73-154.21-182.25Z"/>
      <path class="cls-6" d="M377.87,609.78c6.64-91.21,86.77-150.71,178.72-135.16,92.11,13.97,161.39,92.93,154.76,177.86-6.64,85.24-86.59,148.19-178.7,140.02-92.13-8.79-161.21-91.2-154.77-182.72Z"/>
      <path class="cls-2" d="M402.93,613.54c5.71-76.76,73.5-127.78,151.81-115.06,78.11,11.61,136.89,78.96,131.17,151.32-5.52,72.53-73.5,125.91-151.63,118.37-78.11-7.85-136.88-77.24-131.36-154.63Z"/>
      <path class="cls-2" d="M627.15,528.93c12.52,22.44,18.79,47.87,16.76,74.1-5.52,73.15-73.5,125.89-151.63,117.74-27.07-3.14-51.95-13.51-72.41-29.05,22.3,41.44,64.31,71.43,114.41,76.29,78.12,7.54,146.11-45.84,151.63-118.37,3.69-47.25-20.07-91.99-58.77-120.71Z"/>
      <path class="cls-2" d="M426.88,630.02c4.97-67.66,64.85-112.86,133.95-102.19,40.16,5.81,74.62,28.57,95.42,59.33-18.97-37.84-57.47-67.04-103.72-73.94-69.1-10.99-128.96,34.23-133.94,101.73-2.03,28.25,5.71,55.4,20.44,78.17-9.4-19.3-13.81-40.96-12.16-63.11Z"/>
      <path class="cls-6" d="M1871.5,704.44c6.09,1.56,12.16,2.97,18.24,4.39-2.76,9.89-7.61,17.06-14,21.67-6.66,4.8-14.95,7.48-24.88,7.69-12.34.25-22.67-3.31-30.58-10.83-8.1-7.69-11.97-18.21-11.97-31.71,0-14.3,3.95-25.53,11.97-33.6,8.18-8.24,18.62-12.69,31.7-13.19,11.41-.44,20.69,2.35,27.81,8.31,4.3,3.59,7.56,8.79,9.59,15.55-6.27,1.72-12.54,3.3-18.61,4.86-1.11-4.4-3.35-7.82-7-10.37-3.52-2.46-7.76-3.65-12.72-3.45-7,.26-12.52,2.83-16.95,7.54-4.24,4.87-6.45,12.09-6.45,22.45s2.21,18.68,6.45,23.08c4.24,4.39,9.78,6.61,16.58,6.44,4.97-.13,9.41-1.73,12.9-4.7,3.68-3.13,6.25-7.86,7.92-14.13h0ZM1900.98,707.26c6.07-.78,12.16-1.56,18.41-2.35,1.11,5.8,3.37,9.85,6.63,12.4,3.35,2.62,7.93,3.91,13.64,3.78,6.07-.16,10.62-1.83,13.63-4.24,3.04-2.44,4.61-5.34,4.61-8.48,0-2.2-.59-4.06-1.84-5.34-1.32-1.37-3.51-2.66-6.82-3.61-2.21-.62-7.21-1.66-14.92-3.14-10.16-1.96-17.17-4.69-21.37-8-5.73-4.52-8.48-10.37-8.48-17.27,0-4.4,1.37-8.61,4.06-12.57,2.63-3.87,6.42-7.13,11.61-9.41,5.11-2.25,11.24-3.59,18.24-3.93,11.78-.59,20.71,1.32,26.52,5.97,5.96,4.76,9.03,11.14,9.21,19.3-6.27.63-12.54.94-18.79,1.42-.93-4.56-2.62-7.63-5.16-9.42-2.8-1.97-6.65-2.73-11.99-2.51-5.34.22-9.65,1.48-12.71,3.61-2.08,1.47-2.94,3.45-2.94,5.65s.87,4.02,2.76,5.34c2.34,1.65,8.1,3.47,17.31,5.03,9.2,1.56,15.89,3.55,20.27,5.49,4.45,1.97,7.92,4.88,10.31,8.64,2.38,3.76,3.69,8.16,3.69,13.8,0,5.03-1.48,9.9-4.42,14.45-2.93,4.55-7.23,7.92-12.71,10.2-5.38,2.25-12.18,3.51-20.27,3.76-11.79.37-20.86-1.83-27.27-6.74-6.28-4.8-9.95-12.09-11.23-21.82h0ZM1987.94,704.12c6.07-.78,12.16-1.72,18.43-2.51,1.1,5.8,3.31,10.06,6.82,12.72,3.3,2.51,7.92,3.75,13.62,3.61,6.07-.16,10.51-1.75,13.64-4.24,3.13-2.51,4.6-5.65,4.6-8.79,0-2.2-.56-3.93-1.85-5.34-1.28-1.4-3.68-2.69-6.8-3.61-2.2-.65-7.2-1.78-15.12-3.3-9.93-1.92-17.16-4.53-21.19-7.84-5.72-4.69-8.48-10.52-8.48-17.6,0-4.55,1.2-8.69,3.87-12.86,2.65-4.14,6.66-7.2,11.79-9.58,4.99-2.31,11.07-3.75,18.24-4.08,11.79-.58,20.5,1.21,26.34,5.8,6.11,4.82,9.03,11.31,9.4,19.62-6.45.63-12.71,1.1-18.98,1.58-.73-4.55-2.44-7.8-5.16-9.74-2.61-1.83-6.63-2.41-11.79-2.2-5.52.24-9.76,1.42-12.72,3.76-2.01,1.58-3.13,3.3-3.13,5.66,0,2.2,1.08,3.96,2.94,5.34,2.37,1.75,8.11,3.51,17.33,5.17,9.02,1.62,15.87,3.39,20.26,5.34,4.45,1.97,7.86,4.82,10.32,8.64,2.49,3.86,3.68,8.48,3.68,14.28,0,5.03-1.38,10.11-4.42,14.76-3.03,4.61-7.21,7.97-12.71,10.35-5.35,2.31-12.17,3.69-20.27,3.93-11.79.37-21.02-1.73-27.26-6.75-6.27-5.01-10.14-12.25-11.42-22.14Z"/>
      <path class="cls-6" d="M1857.5,1447.45c6.82-85.25,87.69-143.8,180.92-129.51,93.04,16,163.05,104.4,156.42,195.75-6.82,91.06-87.69,143.97-180.73,121.82-93.23-19.93-163.24-102.97-156.6-188.06Z"/>
      <path class="cls-6" d="M1863.58,1447.6c6.8-85.72,87.69-144.28,180.92-129.99,93.04,16.02,163.06,104.88,156.42,196.55-6.82,91.52-87.7,144.59-180.73,122.13-93.23-19.93-163.24-103.45-156.6-188.69Z"/>
      <path class="cls-2" d="M1889.18,1453.25c5.72-73,74.43-122.76,153.48-110.05,79.04,13.97,138.36,89.32,132.65,166.56-5.7,77.24-74.25,122.77-153.29,104.4-79.03-16.81-138.54-88.23-132.84-160.91Z"/>
      <path class="cls-2" d="M2115.99,1376.65c12.52,24.33,18.98,51.64,16.95,79.11-5.72,76.62-74.43,123.23-153.47,106.13-27.46-5.34-52.5-17.27-73.32-33.91,22.65,41.6,65.22,75.03,115.88,86.03,79.04,18.36,147.77-27,153.29-104.4,3.87-50.4-20.27-100.47-59.32-132.96Z"/>
      <path class="cls-2" d="M1913.32,1469.42c4.97-64.52,65.59-108.16,135.42-96.4,40.71,7.38,75.53,32.98,96.54,66.73-19.16-41.13-58.04-73.47-105.02-81.79-69.65-11.47-130.26,32.48-135.42,96.85-2.03,27,5.9,53.22,20.64,75.98-9.21-18.99-13.82-40.04-12.16-61.38Z"/>
      <path class="cls-6" d="M1921.24,1508.36v-80.54c9.21.95,18.41,1.88,27.82,2.82,10.68,1.08,17.51,2.2,20.64,3.45,4.97,1.73,9.21,4.89,12.52,9.27,3.31,4.39,4.97,9.89,4.97,16.33,0,5.03-1.03,9.05-2.94,12.24-1.94,3.22-4.24,5.66-7.19,7.23-2.93,1.56-6.07,2.51-9.03,2.82-4.24.32-10.11.02-18.04-.93-3.84-.46-7.56-.63-11.24-1.27v30.45c-5.9-.62-11.79-1.25-17.51-1.87h0ZM1938.75,1443.2v22.92c3.13.31,6.27.76,9.4,1.1,6.82.75,11.43.9,13.64.31,2.38-.65,4.24-1.72,5.52-3.45,1.28-1.72,1.84-3.77,1.84-6.13,0-2.97-.71-5.54-2.58-7.69-1.8-2.07-4.27-3.38-7-4.24-2.23-.69-6.28-1.23-12.54-1.87-2.76-.28-5.52-.63-8.28-.95h0ZM2001.39,1518.09v-81.8c5.7.63,11.59,1.27,17.5,2.05v32.34c11.24,1.41,22.48,2.83,33.91,4.39v-32.65c5.7.63,11.61,1.41,17.5,2.2v83.04c-5.89-.94-11.79-1.72-17.5-2.51v-36.1c-11.42-1.73-22.67-3.14-33.91-4.55v35.95c-5.9-.79-11.79-1.58-17.5-2.35h0ZM2088.35,1530.33v-83.52c9.21,1.1,18.44,2.45,27.82,3.78,10.68,1.49,17.5,2.97,20.64,4.39,4.97,1.87,9.21,5.17,12.52,9.89,3.31,4.69,4.97,10.51,4.97,17.27,0,5.17-1.07,9.44-2.94,12.71-1.8,3.15-4.28,5.59-7.37,7.23-2.81,1.49-5.9,2.35-8.85,2.66-4.24,0-10.14-.35-18.06-1.72-3.86-.66-7.55-1.1-11.24-1.73v31.55c-5.89-.94-11.79-1.73-17.5-2.51h0ZM2105.85,1463.29v23.86c3.14.48,6.27.97,9.4,1.41,6.8.96,11.41,1.31,13.63.79,2.37-.56,4.28-1.55,5.52-3.3,1.32-1.86,1.85-3.76,1.85-6.28,0-3.14-.9-5.83-2.58-8-1.82-2.37-4.25-3.92-7-4.86-2.21-.76-6.28-1.4-12.52-2.37-2.76-.42-5.54-.77-8.3-1.25Z"/>
      <path class="cls-6" d="M512,677.75c-28.75-13.5-57.49-27.32-86.04-41.44v-20.57c28.55-9.89,57.29-19.93,86.04-29.82v23.39c-20.09,6.13-40.16,12.25-60.07,18.21,19.9,9.27,39.98,18.21,60.07,27v23.23h0ZM519.92,694.07c10.33-40.97,20.64-81.79,31.13-122.6,5.9.47,11.99.78,18.06,1.25-10.49,40.65-21,81.31-31.31,122.13-6.09-.31-11.97-.63-17.88-.79h0ZM577.04,681.04v-23.07c19.89-6.28,39.79-12.72,59.87-19.31-20.07-8.31-39.98-16.79-59.87-25.43v-22.76c28.55,13.49,57.29,26.85,86.03,40.03v19.14c-28.74,10.37-57.47,21.04-86.03,31.4Z"/>
    </g>
  </g>
</svg>