<?xml version="1.0" encoding="UTF-8"?>
<svg id="_レイヤー_2" data-name="レイヤー 2" xmlns="http://www.w3.org/2000/svg" viewBox="0 0 2270.42 2018">
  <defs>
    <style>
      .cls-1 {
        fill: #ed7d5b;
      }

      .cls-1, .cls-2, .cls-3, .cls-4, .cls-5, .cls-6, .cls-7, .cls-8, .cls-9, .cls-10, .cls-11, .cls-12, .cls-13, .cls-14, .cls-15, .cls-16, .cls-17, .cls-18, .cls-19, .cls-20, .cls-21, .cls-22, .cls-23, .cls-24, .cls-25, .cls-26, .cls-27, .cls-28, .cls-29 {
        fill-rule: evenodd;
      }

      .cls-2, .cls-30 {
        fill: #fff;
      }

      .cls-31, .cls-24 {
        fill: #f1f8fc;
      }

      .cls-3 {
        fill: #f0f3f9;
      }

      .cls-4 {
        fill: #87b7e2;
      }

      .cls-5, .cls-32 {
        fill: #86bae4;
      }

      .cls-6 {
        fill: #0053a1;
      }

      .cls-7 {
        fill: #95c2e8;
      }

      .cls-33, .cls-19 {
        fill: #a5cded;
      }

      .cls-8 {
        fill: #5d9cd4;
      }

      .cls-9 {
        fill: #eb6622;
      }

      .cls-10 {
        fill: #77b1b4;
      }

      .cls-11 {
        fill: #3f8039;
      }

      .cls-12 {
        fill: #3e62ac;
      }

      .cls-13 {
        fill: #e7eff9;
      }

      .cls-34, .cls-15 {
        fill: #ec743d;
      }

      .cls-14 {
        fill: #09378c;
      }

      .cls-16 {
        fill: #f4ae7c;
      }

      .cls-17 {
        fill: #3156a4;
      }

      .cls-18 {
        fill: #bad9f2;
      }

      .cls-20 {
        fill: #6998d0;
      }

      .cls-21 {
        fill: #f09171;
      }

      .cls-22 {
        fill: #d2e5f6;
      }

      .cls-23 {
        fill: #c1dff4;
      }

      .cls-25 {
        fill: #deedf9;
      }

      .cls-26 {
        fill: #cacacb;
      }

      .cls-27 {
        fill: #f0f6fb;
      }

      .cls-28 {
        fill: #498ac9;
      }

      .cls-29 {
        fill: #fbfdff;
      }
    </style>
  </defs>
  <g id="Layer_1" data-name="Layer 1">
    <g>
      <path class="cls-27" d="M1106.94,0c276.55,0,244.98,488.4,444.63,637.27,159.22,118.73,387.49,130.53,543.84,195.1l2.67,711.16c-215.44,236.7-607.13,334.86-1025.57,339.9l-28.33-.03-32.53.04c-631.02-8.95-1161.68-337.21-972.99-921.14C229.98,370.21,464.36,0,1106.94,0h0ZM2167.67,870.24c62.91,42.68,102.74,104.59,102.74,204.67,0,148.79-37.12,273.74-102.74,377.55v-582.22Z"/>
      <path class="cls-3" d="M1448.27,9.75c50.71,8.1,85.25,55.79,77.15,106.5-8.11,50.71-55.79,85.25-106.51,77.15-50.71-8.1-85.25-55.78-77.14-106.51,8.1-50.71,55.79-85.25,106.5-77.15Z"/>
      <path class="cls-3" d="M1542.03,252.31c30.76,4.91,51.71,33.84,46.79,64.59-4.92,30.76-33.84,51.7-64.59,46.79-30.76-4.92-51.7-33.83-46.78-64.59,4.91-30.75,33.83-51.71,64.59-46.79Z"/>
      <path class="cls-22" d="M293.95,393.84l176.63,186.19,949.4-3.96,45.32-43.43c-4.01-7.18-7.92-14.52-11.7-22.02l-38.44,39.73-941.67-2.97-160.72-180.16c-6.36,8.74-12.63,17.59-18.81,26.61Z"/>
      <path class="cls-24" d="M304.76,378.27l165.82,174.78,949.4-3.96,35.77-34.28c-3.73-7.25-7.35-14.64-10.88-22.15l-29.72,30.71-941.67-2.97-149.8-167.92c-6.38,8.46-12.71,17.03-18.92,25.78Z"/>
      <path class="cls-22" d="M315.84,362.97l154.75,163.12,949.4-3.96,26.72-25.61c-3.48-7.29-6.86-14.67-10.18-22.19l-21.37,22.08-941.67-2.97-138.68-155.45c-6.41,8.2-12.73,16.51-18.97,24.97Z"/>
      <path class="cls-24" d="M327.14,347.92l143.44,151.2,949.4-3.96,18.09-17.34c-3.26-7.3-6.43-14.71-9.55-22.2l-13.38,13.82-941.67-2.97-127.35-142.74c-6.43,7.92-12.75,16-18.99,24.19Z"/>
      <path class="cls-22" d="M338.67,333.09l131.91,139.05,949.4-3.96,9.85-9.44c-3.06-7.3-6.08-14.66-9.03-22.12l-5.65,5.84-941.67-2.97-115.77-129.77c-6.44,7.65-12.77,15.46-19.04,23.36Z"/>
      <path class="cls-24" d="M350.44,318.52l120.15,126.65,949.4-3.96,1.92-1.84c-3.15-7.9-6.22-15.86-9.27-23.89l-939.16-2.96-103.94-116.51c-6.46,7.38-12.82,14.88-19.1,22.51Z"/>
      <path class="cls-22" d="M362.44,304.2l108.15,113.99,941.59-3.92c-3.22-8.54-6.4-17.14-9.54-25.8l-929.15-2.92-91.9-103.01c-6.46,7.1-12.86,14.31-19.14,21.66Z"/>
      <path class="cls-24" d="M374.68,290.13l95.9,101.1,931.64-3.89c-3.11-8.59-6.19-17.22-9.25-25.86l-919.5-2.89-79.64-89.26c-6.47,6.82-12.87,13.74-19.17,20.81Z"/>
      <path class="cls-22" d="M283.33,409.63l187.25,197.37,949.4-3.96,55.44-53.13c-4.34-7.08-8.54-14.36-12.62-21.82l-47.65,49.24-941.67-2.97-171.45-192.18c-6.33,9-12.56,18.16-18.7,27.45Z"/>
      <path class="cls-13" d="M1044.18,1883.4c571.9,0,1035.52,30.13,1035.52,67.3s-463.62,67.3-1035.52,67.3S8.65,1987.87,8.65,1950.7s463.62-67.3,1035.53-67.3Z"/>
      <polygon class="cls-26" points="1553.6 812.03 1540.74 819.46 1472.38 858.91 1404.03 819.46 1335.69 779.98 1335.69 704.74 1553.6 704.74 1553.6 812.03"/>
      <polygon class="cls-24" points="1335.69 779.98 1466.01 704.74 1335.69 704.74 1335.69 779.98"/>
      <polygon class="cls-25" points="1478.75 704.74 1553.6 747.96 1553.6 704.74 1478.75 704.74"/>
      <polygon class="cls-22" points="1553.6 747.96 1478.75 704.74 1466.01 704.74 1335.69 779.98 1404.03 819.46 1472.38 858.91 1540.74 819.46 1553.6 812.03 1553.6 747.96"/>
      <polygon class="cls-26" points="1330.18 704.74 1330.18 779.98 1261.83 819.46 1193.47 858.91 1125.13 819.46 1056.78 779.98 1056.78 704.74 1330.18 704.74"/>
      <polygon class="cls-24" points="1056.78 779.98 1187.1 704.74 1056.78 704.74 1056.78 779.98"/>
      <polygon class="cls-25" points="1199.85 704.74 1330.18 779.98 1330.18 704.74 1199.85 704.74"/>
      <polygon class="cls-22" points="1330.18 779.98 1199.85 704.74 1187.1 704.74 1056.78 779.98 1125.13 819.46 1193.47 858.91 1261.83 819.46 1330.18 779.98"/>
      <polygon class="cls-26" points="1049.26 704.74 1049.26 780.66 980.91 820.11 912.57 859.58 844.23 820.11 775.87 780.66 775.87 704.74 1049.26 704.74"/>
      <polygon class="cls-24" points="775.87 780.66 907.37 704.74 775.87 704.74 775.87 780.66"/>
      <polygon class="cls-25" points="917.78 704.74 1049.26 780.66 1049.26 704.74 917.78 704.74"/>
      <polygon class="cls-22" points="1049.26 780.66 917.78 704.74 907.37 704.74 775.87 780.66 844.23 820.11 912.57 859.58 980.91 820.11 1049.26 780.66"/>
      <polygon class="cls-26" points="770.37 704.74 770.37 780.66 702.02 820.11 633.67 859.58 565.32 820.11 496.96 780.66 496.96 704.74 770.37 704.74"/>
      <polygon class="cls-24" points="496.96 780.66 628.46 704.74 496.96 704.74 496.96 780.66"/>
      <polygon class="cls-25" points="638.87 704.74 770.37 780.66 770.37 704.74 638.87 704.74"/>
      <polygon class="cls-22" points="770.37 780.66 638.87 704.74 628.46 704.74 496.96 780.66 565.32 820.11 633.67 859.58 702.02 820.11 770.37 780.66"/>
      <polygon class="cls-26" points="1332.28 785.01 1400.63 824.46 1468.98 863.93 1468.98 942.84 1468.98 1021.77 1400.63 1061.24 1332.28 1100.68 1263.93 1061.24 1195.58 1021.77 1195.58 942.84 1195.58 863.93 1263.93 824.46 1332.28 785.01"/>
      <polygon class="cls-24" points="1195.58 1021.77 1332.28 942.84 1332.28 942.84 1332.28 785.01 1263.93 824.46 1195.58 863.93 1195.58 942.84 1195.58 1021.77"/>
      <polygon class="cls-25" points="1332.28 785.01 1332.28 942.84 1332.28 942.84 1468.98 1021.77 1468.98 942.84 1468.98 863.93 1400.63 824.46 1332.28 785.01"/>
      <polygon class="cls-22" points="1468.98 1021.77 1332.28 942.84 1332.28 942.84 1195.58 1021.77 1263.93 1061.24 1332.28 1100.68 1400.63 1061.24 1468.98 1021.77"/>
      <polygon class="cls-26" points="1053.38 785.01 1121.72 824.46 1190.08 863.93 1190.08 942.84 1190.08 1021.77 1121.72 1061.24 1053.38 1100.68 985.03 1061.24 916.69 1021.77 916.69 942.84 916.69 863.93 985.03 824.46 1053.38 785.01"/>
      <polygon class="cls-24" points="916.69 1021.77 1053.38 942.84 1053.38 942.84 1053.38 785.01 985.03 824.46 916.69 863.93 916.69 942.84 916.69 1021.77"/>
      <polygon class="cls-25" points="1053.38 785.01 1053.38 942.84 1053.38 942.84 1190.08 1021.77 1190.08 942.84 1190.08 863.93 1121.72 824.46 1053.38 785.01"/>
      <polygon class="cls-22" points="1190.08 1021.77 1053.38 942.84 1053.38 942.84 916.69 1021.77 985.03 1061.24 1053.38 1100.68 1121.72 1061.24 1190.08 1021.77"/>
      <polygon class="cls-26" points="772.47 785.67 840.83 825.13 909.17 864.59 909.17 943.52 909.17 1022.44 840.83 1061.9 772.47 1101.36 704.12 1061.9 635.78 1022.44 635.78 943.52 635.78 864.59 704.12 825.13 772.47 785.67"/>
      <polygon class="cls-24" points="635.78 1022.43 772.47 943.52 772.47 943.52 772.47 785.67 704.12 825.13 635.78 864.59 635.78 943.52 635.78 1022.43"/>
      <polygon class="cls-25" points="772.47 785.67 772.47 943.52 772.47 943.52 909.17 1022.43 909.17 943.52 909.17 864.59 840.83 825.13 772.47 785.67"/>
      <polygon class="cls-22" points="909.17 1022.43 772.47 943.52 772.47 943.52 635.78 1022.43 704.12 1061.9 772.47 1101.36 840.83 1061.9 909.17 1022.43"/>
      <polygon class="cls-26" points="493.58 785.67 561.92 825.13 630.27 864.59 630.27 943.52 630.27 1022.44 561.92 1061.9 493.58 1101.36 425.22 1061.9 388.54 1040.72 388.54 846.31 425.22 825.13 493.58 785.67"/>
      <polygon class="cls-24" points="388.54 1004.16 493.58 943.52 493.58 943.52 493.58 785.67 425.22 825.13 388.54 846.31 388.54 1004.16"/>
      <polygon class="cls-25" points="493.58 785.67 493.58 943.52 493.58 943.52 630.27 1022.43 630.27 943.52 630.27 864.59 561.92 825.13 493.58 785.67"/>
      <polygon class="cls-22" points="630.27 1022.43 493.58 943.52 493.58 943.52 388.54 1004.16 388.54 1040.72 425.22 1061.9 493.58 1101.36 561.92 1061.9 630.27 1022.43"/>
      <polygon class="cls-26" points="1472.38 1027.82 1540.74 1067.29 1553.6 1074.71 1553.6 1296.63 1540.74 1304.05 1472.38 1343.52 1404.03 1304.05 1335.69 1264.6 1335.69 1185.67 1335.69 1106.75 1404.03 1067.29 1472.38 1027.82"/>
      <polygon class="cls-24" points="1335.69 1264.6 1472.38 1185.67 1472.38 1185.67 1472.38 1027.82 1404.03 1067.29 1335.69 1106.75 1335.69 1185.67 1335.69 1264.6"/>
      <polygon class="cls-25" points="1472.38 1027.82 1472.38 1185.67 1472.38 1185.67 1553.6 1232.56 1553.6 1074.71 1540.74 1067.29 1472.38 1027.82"/>
      <polygon class="cls-22" points="1553.6 1232.56 1472.38 1185.67 1472.38 1185.67 1335.69 1264.6 1404.03 1304.05 1472.38 1343.52 1540.74 1304.05 1553.6 1296.63 1553.6 1232.56"/>
      <polygon class="cls-26" points="1193.47 1027.82 1261.83 1067.29 1330.18 1106.75 1330.18 1185.67 1330.18 1264.6 1261.83 1304.05 1193.47 1343.52 1125.13 1304.05 1056.78 1264.6 1056.78 1185.67 1056.78 1106.75 1125.13 1067.29 1193.47 1027.82"/>
      <polygon class="cls-24" points="1056.78 1264.6 1193.47 1185.67 1193.47 1185.67 1193.47 1027.82 1125.13 1067.29 1056.78 1106.75 1056.78 1185.67 1056.78 1264.6"/>
      <polygon class="cls-25" points="1193.47 1027.82 1193.47 1185.67 1193.47 1185.67 1330.18 1264.6 1330.18 1185.67 1330.18 1106.75 1261.83 1067.29 1193.47 1027.82"/>
      <polygon class="cls-22" points="1330.18 1264.6 1193.47 1185.67 1193.47 1185.67 1056.78 1264.6 1125.13 1304.05 1193.47 1343.52 1261.83 1304.05 1330.18 1264.6"/>
      <polygon class="cls-26" points="912.57 1028.5 980.91 1067.95 1049.26 1107.42 1049.26 1186.34 1049.26 1265.25 980.91 1304.72 912.57 1344.18 844.23 1304.72 775.87 1265.25 775.87 1186.34 775.87 1107.42 844.23 1067.95 912.57 1028.5"/>
      <polygon class="cls-24" points="775.87 1265.25 912.57 1186.34 912.57 1186.35 912.57 1028.5 844.23 1067.95 775.87 1107.42 775.87 1186.34 775.87 1265.25"/>
      <polygon class="cls-25" points="912.57 1028.5 912.57 1186.34 912.57 1186.34 1049.26 1265.25 1049.26 1186.34 1049.26 1107.42 980.91 1067.95 912.57 1028.5"/>
      <polygon class="cls-22" points="1049.26 1265.25 912.57 1186.35 912.57 1186.34 775.87 1265.25 844.23 1304.72 912.57 1344.18 980.91 1304.72 1049.26 1265.25"/>
      <polygon class="cls-26" points="633.67 1028.5 702.02 1067.95 770.37 1107.42 770.37 1186.34 770.37 1265.25 702.02 1304.72 633.67 1344.18 565.32 1304.72 496.96 1265.25 496.96 1186.34 496.96 1107.42 565.32 1067.95 633.67 1028.5"/>
      <polygon class="cls-24" points="496.96 1265.25 633.67 1186.34 633.67 1186.35 633.67 1028.5 565.32 1067.95 496.96 1107.42 496.96 1186.34 496.96 1265.25"/>
      <polygon class="cls-25" points="633.67 1028.5 633.67 1186.34 633.67 1186.34 770.37 1265.25 770.37 1186.34 770.37 1107.42 702.02 1067.95 633.67 1028.5"/>
      <polygon class="cls-22" points="770.37 1265.25 633.67 1186.35 633.67 1186.34 496.96 1265.25 565.32 1304.72 633.67 1344.18 702.02 1304.72 770.37 1265.25"/>
      <polygon class="cls-26" points="1332.28 1269.61 1400.63 1309.07 1468.98 1348.53 1468.98 1427.45 1468.98 1463.38 1195.58 1463.38 1195.58 1427.45 1195.58 1348.53 1263.93 1309.07 1332.28 1269.61"/>
      <polygon class="cls-24" points="1270.05 1463.38 1332.28 1427.45 1332.28 1427.45 1332.28 1269.61 1263.93 1309.07 1195.58 1348.53 1195.58 1427.45 1195.58 1463.38 1270.05 1463.38"/>
      <polygon class="cls-25" points="1332.28 1269.61 1332.28 1427.45 1332.28 1427.45 1394.52 1463.38 1468.98 1463.38 1468.98 1427.45 1468.98 1348.53 1400.63 1309.07 1332.28 1269.61"/>
      <polygon class="cls-22" points="1394.52 1463.38 1332.28 1427.45 1332.28 1427.45 1270.05 1463.38 1394.52 1463.38"/>
      <polygon class="cls-26" points="1053.38 1269.61 1121.72 1309.07 1190.08 1348.53 1190.08 1427.45 1190.08 1463.38 916.69 1463.38 916.69 1427.45 916.69 1348.53 985.03 1309.07 1053.38 1269.61"/>
      <polygon class="cls-24" points="991.15 1463.38 1053.38 1427.45 1053.38 1427.45 1053.38 1269.61 985.03 1309.07 916.69 1348.53 916.69 1427.45 916.69 1463.38 991.15 1463.38"/>
      <polygon class="cls-25" points="1053.38 1269.61 1053.38 1427.45 1053.38 1427.45 1115.62 1463.38 1190.08 1463.38 1190.08 1427.45 1190.08 1348.53 1121.72 1309.07 1053.38 1269.61"/>
      <polygon class="cls-22" points="1115.62 1463.38 1053.38 1427.45 1053.38 1427.45 991.15 1463.38 1115.62 1463.38"/>
      <polygon class="cls-26" points="772.47 1270.28 840.83 1309.73 909.17 1349.19 909.17 1428.12 909.17 1463.38 635.78 1463.38 635.78 1428.12 635.78 1349.19 704.12 1309.73 772.47 1270.28"/>
      <polygon class="cls-24" points="711.4 1463.38 772.47 1428.12 772.47 1428.12 772.47 1270.28 704.12 1309.73 635.78 1349.2 635.78 1428.12 635.78 1463.38 711.4 1463.38"/>
      <polygon class="cls-25" points="772.47 1270.28 772.47 1428.12 772.47 1428.12 833.54 1463.38 909.17 1463.38 909.17 1428.12 909.17 1349.2 840.83 1309.73 772.47 1270.28"/>
      <polygon class="cls-22" points="833.54 1463.38 772.47 1428.12 772.47 1428.12 711.4 1463.38 833.54 1463.38"/>
      <polygon class="cls-26" points="493.58 1270.28 561.92 1309.73 630.27 1349.19 630.27 1428.12 630.27 1463.38 388.54 1463.38 388.54 1330.91 425.22 1309.73 493.58 1270.28"/>
      <polygon class="cls-24" points="432.51 1463.38 493.58 1428.12 493.58 1428.12 493.58 1270.28 425.22 1309.73 388.54 1330.92 388.54 1463.38 432.51 1463.38"/>
      <polygon class="cls-25" points="493.58 1270.28 493.58 1428.12 493.58 1428.12 554.65 1463.38 630.27 1463.38 630.27 1428.12 630.27 1349.2 561.92 1309.73 493.58 1270.28"/>
      <polygon class="cls-22" points="554.65 1463.38 493.58 1428.12 493.58 1428.12 432.51 1463.38 554.65 1463.38"/>
      <path class="cls-24" d="M1597.45,667.56l-50.35,32.03v757.98l325.26,256.79c240.69-127.16,398.05-332.78,398.05-639.44s-405.3-250.17-672.96-407.36Z"/>
      <path class="cls-23" d="M1611.38,675.47l-63.27,38.08v-17.17l47.35-30c5.26,3.11,10.56,6.14,15.92,9.09Z"/>
      <path class="cls-5" d="M1611.38,675.47l-63.27,38.08v10.47l73.69-42.96c-3.5-1.83-6.97-3.69-10.42-5.59Z"/>
      <path class="cls-23" d="M1895.59,1701.72l-106.57-80.04c-80.28-60.27-155.15-116.72-235.42-176.99v18.69c80.28,62.85,155.14,120.04,235.42,182.9l85.5,66.95c7.1-3.77,14.13-7.6,21.07-11.5Z"/>
      <path class="cls-5" d="M1895.59,1701.72l-106.57-80.04c-80.28-60.27-160.63-120.84-240.91-181.11v-10.47c80.28,58.74,160.62,117.65,240.91,176.4l119.67,87.63c-4.36,2.54-8.69,5.11-13.1,7.59Z"/>
      <path class="cls-25" d="M189.18,575.91l194.39,123.68v757.98l-195.76,154.55C21,1457.07-50.52,1238.25,38.65,962.3c45.99-142.32,94.48-271.77,150.52-386.39Z"/>
      <path class="cls-5" d="M383.05,693.77h1170.55v769.61c-392.01-.07-784.02-.07-1176.03,0v-769.61h5.48ZM1542.64,704.74H388.54v747.67h1154.1v-747.67Z"/>
      <path class="cls-22" d="M189.18,575.91l194.39,123.68h1163.54l50.31-32.06c-15.78-9.27-31.13-19.3-45.85-30.27-26.64-19.86-49.12-45.8-68.8-75.78l-62.78,58.83-949.4,3.87-197.32-199.09c-30.03,46.88-57.89,97.21-84.08,150.81Z"/>
      <path class="cls-5" d="M274.9,422.52l195.68,201.66,949.4-3.87,62.78-58.83c-4.53-6.9-8.91-14.01-13.17-21.32l-54.45,55.01-941.67-2.9-180.2-197.48c-6.22,9.09-12.34,18.36-18.38,27.73Z"/>
      <rect class="cls-32" x="547.17" y="823.41" width="233.28" height="326.78"/>
      <rect class="cls-31" x="561.66" y="843.71" width="204.3" height="286.18"/>
      <rect class="cls-30" x="596.17" y="892.05" width="135.27" height="189.49"/>
      <path class="cls-5" d="M645.52,641.63c22.85,0,41.39,9.09,41.39,20.29s-18.54,20.29-41.39,20.29-41.4-9.09-41.4-20.29,18.54-20.29,41.4-20.29Z"/>
      <path class="cls-2" d="M645.52,654.62c15.55,0,28.16,6.19,28.16,13.82s-12.61,13.78-28.16,13.78-28.16-6.16-28.16-13.78,12.61-13.82,28.16-13.82Z"/>
      <path class="cls-5" d="M1320.79,641.63c22.88,0,41.4,9.09,41.4,20.29s-18.52,20.29-41.4,20.29-41.39-9.09-41.39-20.29,18.52-20.29,41.39-20.29Z"/>
      <path class="cls-2" d="M1320.79,654.62c15.55,0,28.15,6.19,28.15,13.82s-12.6,13.78-28.15,13.78-28.16-6.16-28.16-13.78,12.62-13.82,28.16-13.82Z"/>
      <rect class="cls-32" x="868.85" y="823.41" width="233.28" height="326.78"/>
      <rect class="cls-31" x="883.35" y="843.71" width="204.29" height="286.18"/>
      <rect class="cls-30" x="917.86" y="892.05" width="135.28" height="189.49"/>
      <path class="cls-19" d="M148.25,665.19c77.34,29.21,154.9,57.55,232.33,85.59.75,24.52-.3,49.09,2.24,73.32l5.93,56.63-12.11,12.4-317.92,8.46c28.3-83.74,57.77-162.7,89.53-236.41Z"/>
      <path class="cls-18" d="M160,638.37l228.74,87.04v155.33c-88.56-.59-177.11-1.21-265.66-1.8l-56.52-.37c29.38-85.36,60.12-165.58,93.44-240.19Z"/>
      <path class="cls-5" d="M152.28,655.81c75.73,25.3,151.57,50.55,227.35,75.86v122.33c-81.59-4.34-163.22-8.7-244.75-13.07l-54.11-2.89c22.76-63.84,46.41-124.67,71.52-182.23Z"/>
      <path class="cls-8" d="M139.98,684.6l239.65,68.31v-21.24c-75.78-25.3-151.62-50.56-227.35-75.86-4.14,9.5-8.24,19.11-12.3,28.79Z"/>
      <path class="cls-10" d="M385.28,861.25c-40.31-1.5-80.55-3.01-120.79-4.51-40.24-1.5-80.48-3.01-120.72-4.51,40.24,1.5,80.48,3.01,120.72,4.51,40.24,1.51,80.48,3.01,120.79,4.51Z"/>
      <path class="cls-10" d="M159.81,852.86l-83.2-3.12,83.2,3.12Z"/>
      <path class="cls-8" d="M359.14,852.92c6.82.33,13.63.7,20.49,1.07v-122.33c-6.86-2.29-13.68-4.59-20.49-6.83v128.08Z"/>
      <path class="cls-2" d="M358.05,739.99c-6.47-1.94-12.9-3.89-19.33-5.8v117.08c6.43.36,12.85.74,19.33,1.07v-112.35Z"/>
      <path class="cls-25" d="M354.43,744.51c-3.02-.92-6.04-1.76-9-2.61v49.22c2.96.55,5.99,1.1,9,1.65v-48.26Z"/>
      <path class="cls-25" d="M358.05,821.73c-6.47-.77-12.9-1.58-19.33-2.35v31.9c6.43.36,12.85.74,19.33,1.07v-30.61Z"/>
      <path class="cls-2" d="M349.43,830.21c-1.64-.19-3.13.36-4.22,1.42-1.11,1.07-1.75,2.61-1.75,4.42s.64,3.41,1.75,4.66c1.09,1.25,2.58,2.06,4.22,2.2,1.63.11,3.13-.48,4.22-1.55,1.04-1.06,1.76-2.57,1.76-4.29s-.71-3.33-1.76-4.59c-1.09-1.28-2.59-2.12-4.22-2.27h0ZM347.4,834.21c.55-.47,1.27-.73,2.04-.66.77.07,1.48.48,1.97,1.07.55.58.89,1.36.89,2.2s-.34,1.53-.83,2.06c-.55.47-1.26.73-2.03.7-.77-.08-1.49-.48-2.04-1.07-.49-.59-.82-1.37-.82-2.2s.34-1.58.82-2.09Z"/>
      <path class="cls-19" d="M305.07,733.17c11.2.22,22.4.54,33.66,1.02v117.08c-11.14-1.43-22.29-2.97-33.44-4.52-.04-18.94-.16-37.87-.16-56.77s-.05-37.89-.05-56.82Z"/>
      <path class="cls-2" d="M332.03,732.17c-6.48-1.94-12.9-3.89-19.33-5.8v123.51c6.42.33,12.84.7,19.33,1.02v-118.73Z"/>
      <path class="cls-25" d="M328.4,736.98c-3.02-.88-6.03-1.72-9-2.6v51.97c2.97.55,5.98,1.1,9,1.65v-51.01Z"/>
      <path class="cls-25" d="M332.03,818.57c-6.48-.81-12.9-1.58-19.33-2.35v33.66c6.42.33,12.84.7,19.33,1.02v-32.33Z"/>
      <path class="cls-2" d="M323.41,827.56c-1.65-.15-3.13.45-4.18,1.58-1.09,1.1-1.76,2.74-1.76,4.63s.67,3.59,1.71,4.91c1.1,1.29,2.58,2.17,4.23,2.28,1.64.14,3.12-.51,4.23-1.62,1.09-1.14,1.75-2.72,1.75-4.54s-.66-3.53-1.75-4.85c-1.11-1.32-2.59-2.2-4.23-2.39h0ZM321.43,831.82c.5-.51,1.21-.81,1.99-.74.82.08,1.48.49,2.03,1.14.49.59.82,1.44.82,2.32,0,.84-.33,1.61-.82,2.16-.55.52-1.2.8-2.03.74-.77-.04-1.48-.49-1.99-1.06-.55-.64-.82-1.48-.82-2.35s.27-1.65.82-2.21Z"/>
      <path class="cls-19" d="M279.11,725.87c11.19.04,22.39.22,33.59.51v123.5c-11.14-1.5-22.29-3.07-33.44-4.69-.05-19.86-.1-39.75-.1-59.65s-.05-39.79-.05-59.68Z"/>
      <path class="cls-2" d="M306.06,724.4c-6.48-1.95-12.9-3.86-19.33-5.8v129.85c6.42.37,12.85.7,19.33,1.06v-125.11Z"/>
      <path class="cls-25" d="M302.38,729.5c-3.02-.85-5.98-1.73-8.95-2.54v54.65c2.97.51,5.94,1.06,8.95,1.61v-53.73Z"/>
      <path class="cls-25" d="M306.06,815.41c-6.48-.77-12.9-1.54-19.33-2.35v35.38c6.42.37,12.85.7,19.33,1.06v-34.1Z"/>
      <path class="cls-2" d="M297.44,824.96c-1.64-.19-3.13.47-4.23,1.65-1.11,1.18-1.76,2.9-1.76,4.89s.65,3.8,1.76,5.17c1.04,1.36,2.58,2.27,4.23,2.38,1.59.11,3.13-.55,4.17-1.76,1.1-1.18,1.76-2.86,1.76-4.77s-.66-3.71-1.76-5.11c-1.04-1.36-2.53-2.31-4.17-2.45h0ZM295.41,829.43c.49-.55,1.2-.85,2.03-.77.76.07,1.48.52,1.97,1.17.5.63.82,1.51.82,2.42s-.28,1.74-.82,2.29c-.49.57-1.21.88-1.97.81-.82-.09-1.54-.52-2.03-1.15-.49-.66-.82-1.5-.82-2.42s.33-1.76.82-2.35Z"/>
      <path class="cls-19" d="M253.08,718.52c11.2-.08,22.4-.08,33.65.07v129.85c-11.14-1.54-22.28-3.15-33.43-4.8-.06-20.85-.17-41.69-.17-62.55s-.05-41.73-.05-62.58Z"/>
      <path class="cls-2" d="M280.04,716.61c-6.48-1.94-12.9-3.89-19.33-5.8v136.24c6.43.33,12.85.7,19.33,1.03v-131.47Z"/>
      <path class="cls-25" d="M276.36,722.04c-3.02-.88-5.98-1.72-8.95-2.6v57.4c2.97.55,5.93,1.1,8.95,1.65v-56.45Z"/>
      <path class="cls-25" d="M280.04,812.26c-6.48-.77-12.9-1.58-19.33-2.34v37.13c6.43.33,12.85.7,19.33,1.03v-35.83Z"/>
      <path class="cls-2" d="M271.42,822.31c-1.65-.15-3.13.52-4.23,1.76-1.1,1.27-1.75,3.08-1.75,5.13s.65,4.01,1.75,5.43c1.1,1.43,2.58,2.4,4.23,2.49,1.65.12,3.13-.57,4.23-1.87,1.04-1.24,1.76-3.01,1.76-5s-.72-3.92-1.76-5.35c-1.09-1.46-2.58-2.42-4.23-2.6h0ZM269.39,827.05c.54-.59,1.26-.92,2.03-.85.77.07,1.47.55,1.98,1.21.55.7.87,1.62.87,2.57s-.32,1.8-.82,2.42c-.55.59-1.25.92-2.02.85-.77-.07-1.49-.51-2.03-1.18-.5-.7-.83-1.62-.83-2.56s.34-1.88.83-2.46Z"/>
      <path class="cls-19" d="M227.06,711.18c11.2-.25,22.4-.36,33.65-.36v136.23c-11.14-1.62-22.29-3.27-33.43-4.99-.05-21.81-.16-43.61-.16-65.4s-.05-43.65-.05-65.49Z"/>
      <path class="cls-2" d="M254.01,708.8c-6.48-1.95-12.9-3.89-19.32-5.8v142.63c6.42.33,12.84.7,19.32,1.06v-137.88Z"/>
      <path class="cls-25" d="M250.4,714.56c-3.03-.88-6.04-1.73-9.01-2.61v60.12c2.97.55,5.99,1.1,9.01,1.65v-59.16Z"/>
      <path class="cls-25" d="M254.01,809.1c-6.48-.77-12.9-1.58-19.32-2.35v38.87c6.42.33,12.84.7,19.32,1.06v-37.58Z"/>
      <path class="cls-2" d="M245.4,819.71c-1.65-.19-3.13.55-4.17,1.88-1.1,1.33-1.76,3.19-1.76,5.36s.66,4.19,1.7,5.65c1.1,1.51,2.58,2.5,4.23,2.65,1.64.11,3.12-.67,4.23-1.99,1.1-1.28,1.75-3.16,1.75-5.25s-.65-4.11-1.75-5.61c-1.1-1.5-2.58-2.53-4.23-2.69h0ZM243.42,824.66c.49-.62,1.2-.95,1.98-.88.82.07,1.47.55,2.03,1.29.48.65.82,1.61.82,2.64s-.34,1.9-.82,2.53c-.56.62-1.22.95-2.03.89-.77-.05-1.49-.52-1.98-1.22-.55-.73-.82-1.65-.82-2.68s.26-1.94.82-2.57Z"/>
      <path class="cls-19" d="M201.09,703.85c11.2-.41,22.39-.7,33.6-.85v142.63c-11.15-1.66-22.29-3.34-33.43-5.1-.07-22.76-.13-45.55-.13-68.3s-.04-45.58-.04-68.37Z"/>
      <path class="cls-2" d="M228.04,701.02c-6.47-1.98-12.9-3.89-19.32-5.8v148.97c6.42.37,12.85.7,19.32,1.06v-144.24Z"/>
      <path class="cls-25" d="M224.37,707.07c-3.02-.88-5.99-1.76-8.95-2.57v62.8c2.96.55,5.93,1.09,8.95,1.65v-61.88Z"/>
      <path class="cls-25" d="M228.04,805.94c-6.47-.77-12.9-1.58-19.32-2.35v40.59c6.42.37,12.85.7,19.32,1.06v-39.31Z"/>
      <path class="cls-2" d="M219.42,817.07c-1.64-.18-3.12.59-4.22,1.99-1.1,1.36-1.76,3.34-1.76,5.61s.65,4.37,1.76,5.91c1.04,1.58,2.58,2.61,4.22,2.72,1.59.15,3.14-.66,4.18-2.06,1.09-1.35,1.76-3.3,1.76-5.5s-.68-4.29-1.76-5.86c-1.04-1.58-2.52-2.62-4.18-2.8h0ZM217.39,822.28c.5-.66,1.21-1.02,2.03-.95.77.07,1.49.59,1.98,1.33.5.72.82,1.71.82,2.78s-.32,1.98-.82,2.65c-.49.65-1.2,1.02-1.98.95-.82-.07-1.53-.54-2.03-1.28-.49-.74-.82-1.73-.82-2.79s.34-2.02.82-2.68Z"/>
      <path class="cls-19" d="M175.07,696.51c11.2-.56,22.4-1,33.66-1.29v148.97c-11.15-1.68-22.3-3.45-33.44-5.22-.05-23.75-.16-47.53-.16-71.23s-.06-47.5-.06-71.24Z"/>
      <path class="cls-2" d="M202.03,693.2c-6.48-1.95-12.9-3.86-19.33-5.8v155.39c6.42.33,12.84.7,19.33,1.03v-150.62Z"/>
      <path class="cls-25" d="M198.35,699.58c-3.02-.88-5.99-1.72-8.95-2.57v65.51c2.97.55,5.93,1.1,8.95,1.65v-64.59Z"/>
      <path class="cls-25" d="M202.03,802.79c-6.48-.77-12.9-1.58-19.33-2.35v42.36c6.42.33,12.84.7,19.33,1.03v-41.04Z"/>
      <path class="cls-2" d="M193.4,814.42c-1.65-.14-3.13.66-4.22,2.09-1.1,1.44-1.76,3.53-1.76,5.88s.67,4.55,1.76,6.17c1.09,1.65,2.58,2.71,4.22,2.82,1.65.12,3.13-.7,4.23-2.17,1.04-1.43,1.75-3.48,1.75-5.75s-.71-4.47-1.75-6.13c-1.1-1.61-2.58-2.72-4.23-2.9h0ZM191.37,819.86c.56-.66,1.26-1.04,2.03-.97.77.09,1.49.59,1.99,1.36.54.77.88,1.8.88,2.9s-.34,2.1-.82,2.76c-.55.7-1.27,1.06-2.04,1.03-.77-.07-1.47-.59-2.03-1.36-.5-.77-.82-1.8-.82-2.9s.32-2.13.82-2.82Z"/>
      <path class="cls-19" d="M149.05,689.16c11.2-.74,22.4-1.33,33.64-1.77v155.4c-11.14-1.76-22.28-3.55-33.43-5.39-.05-24.7-.16-49.4-.16-74.11s-.05-49.43-.05-74.13Z"/>
      <path class="cls-2" d="M176,685.38c-6.47-1.95-12.89-3.86-19.32-5.8v161.78c6.43.37,12.85.7,19.32,1.06v-157.05Z"/>
      <path class="cls-25" d="M172.38,692.1c-3.02-.88-6.04-1.76-9-2.61v68.27c2.96.55,5.98,1.1,9,1.65v-67.31Z"/>
      <path class="cls-25" d="M176,799.64c-6.47-.81-12.89-1.58-19.32-2.35v44.08c6.43.37,12.85.7,19.32,1.06v-42.79Z"/>
      <path class="cls-2" d="M167.38,811.82c-1.65-.18-3.13.66-4.17,2.17-1.1,1.54-1.76,3.67-1.76,6.13s.66,4.74,1.71,6.42c1.09,1.68,2.57,2.79,4.22,2.94,1.63.11,3.13-.77,4.22-2.28,1.11-1.51,1.76-3.64,1.76-6.01s-.66-4.67-1.76-6.36c-1.09-1.72-2.59-2.86-4.22-3h0ZM165.41,817.47c.5-.7,1.21-1.1,1.98-1.02.76.07,1.49.62,2.03,1.43.5.77.82,1.87.82,3.02s-.32,2.16-.82,2.9c-.54.7-1.27,1.1-2.03,1.03-.77-.09-1.48-.59-1.98-1.36-.54-.81-.82-1.87-.82-3.05s.27-2.21.82-2.94Z"/>
      <path class="cls-19" d="M141.7,680.47c4.98-.33,9.98-.64,14.98-.9v161.78c-11.14-1.79-22.29-3.63-33.44-5.5-.04-25.66-.15-51.34-.15-77l-.03-33.07c6.13-15.32,12.35-30.41,18.65-45.31Z"/>
      <path class="cls-2" d="M151.47,678.01l-7.75-2.31c-3.89,9.16-7.75,18.39-11.58,27.71v136.63c6.42.33,12.84.7,19.33,1.03v-163.07Z"/>
      <path class="cls-25" d="M147.79,685.02l-7.12-2.05-1.83,4.37v65.95c2.96.54,5.93,1.06,8.95,1.61v-69.88Z"/>
      <path class="cls-25" d="M151.47,796.66c-6.48-.81-12.9-1.58-19.33-2.35v45.73c6.42.33,12.84.7,19.33,1.03v-44.41Z"/>
      <path class="cls-2" d="M142.79,809.32c-1.58-.14-3.13.74-4.17,2.28-1.1,1.58-1.75,3.82-1.75,6.4s.65,4.91,1.75,6.63c1.04,1.76,2.53,2.9,4.17,3,1.65.12,3.12-.8,4.23-2.34,1.1-1.58,1.76-3.78,1.76-6.28s-.66-4.84-1.76-6.56c-1.04-1.76-2.58-2.94-4.23-3.13h0ZM140.81,815.23c.49-.72,1.2-1.17,1.97-1.09.82.07,1.54.63,2.03,1.47.5.81.82,1.95.82,3.15s-.32,2.24-.82,2.98c-.49.77-1.21,1.18-2.03,1.11-.77-.09-1.48-.62-1.97-1.44-.5-.85-.83-1.95-.83-3.16s.34-2.27.83-3.02Z"/>
      <path class="cls-19" d="M132.13,703.43v136.61c-11.19-1.83-22.34-3.74-33.48-5.65l-.09-45.13c10.95-29.29,22.11-57.92,33.57-85.83Z"/>
      <path class="cls-2" d="M107.54,765.53v73.15c6.42.37,12.85.7,19.33,1.06v-123.34c-6.53,16.14-12.96,32.52-19.33,49.12Z"/>
      <path class="cls-25" d="M114.24,748.14v.63c2.96.55,5.93,1.09,8.94,1.65v-24.94c-3,7.5-5.97,15.07-8.94,22.67Z"/>
      <path class="cls-25" d="M126.86,793.69c-6.48-.8-12.9-1.58-19.33-2.38v47.38c6.42.37,12.85.7,19.33,1.06v-46.06Z"/>
      <path class="cls-2" d="M118.25,806.86c-1.65-.18-3.13.74-4.23,2.38-1.11,1.62-1.76,3.93-1.76,6.57s.66,5.11,1.76,6.9c1.04,1.81,2.58,3.01,4.23,3.12,1.65.11,3.13-.85,4.16-2.47,1.11-1.65,1.76-3.93,1.76-6.49s-.65-5.03-1.7-6.83c-1.1-1.83-2.58-3.05-4.23-3.19h0ZM116.22,812.96c.48-.75,1.2-1.18,2.02-1.11.77.07,1.49.63,1.98,1.51.55.84.82,2.02.82,3.22s-.28,2.35-.82,3.12c-.49.78-1.2,1.22-1.98,1.14-.82-.07-1.49-.61-2.02-1.46-.51-.89-.83-2.01-.83-3.27s.31-2.38.83-3.15Z"/>
      <path class="cls-19" d="M107.55,765.51v73.18c-8.49-1.42-16.98-2.89-25.46-4.37,8.35-23.34,16.84-46.28,25.46-68.8Z"/>
      <path class="cls-2" d="M82.95,831.9v5.43c6.42.37,12.85.74,19.33,1.07v-59.05c-6.52,17.28-12.96,34.8-19.33,52.55Z"/>
      <path class="cls-25" d="M102.27,790.68l-4.05-.49c-5.13,13.76-10.24,27.65-15.28,41.71v5.43c6.42.37,12.85.74,19.33,1.07v-47.72Z"/>
      <path class="cls-2" d="M93.65,804.37c-.24-.03-.47-.03-.7,0l-4.82,13.2c.3,1.2.75,2.31,1.29,3.25,1.11,1.86,2.59,3.08,4.23,3.19,1.65.14,3.13-.85,4.23-2.54,1.04-1.69,1.76-4.07,1.76-6.74s-.72-5.18-1.76-7.05c-1.09-1.87-2.58-3.15-4.23-3.3h0ZM91.61,810.68c.56-.77,1.27-1.21,2.04-1.14.77.07,1.48.66,1.98,1.55.55.88.87,2.09.87,3.37s-.32,2.42-.82,3.2c-.55.84-1.26,1.24-2.03,1.21-.76-.07-1.48-.66-2.04-1.54-.49-.88-.82-2.06-.82-3.37s.33-2.46.82-3.27Z"/>
      <polygon class="cls-19" points="82.95 831.9 82.95 837.32 81.13 837.01 82.95 831.9"/>
      <polygon class="cls-5" points="1912.79 777.57 1912.79 1691.76 1907.64 1694.75 1887.77 1694.75 1887.77 771.33 1912.79 777.57"/>
      <path class="cls-23" d="M1840.25,759.24l3.46,924.41,44.06,14.44v-926.76c-15.75-3.93-31.61-7.94-47.52-12.09Z"/>
      <path class="cls-5" d="M1719.88,723.19v832.84h-19.42v-839.94c6.45,2.44,12.92,4.79,19.42,7.1Z"/>
      <path class="cls-23" d="M1675.96,706.35v850.21h26.05v-839.88c-8.75-3.3-17.43-6.75-26.05-10.33Z"/>
      <path class="cls-22" d="M1654.58,1390.45l-11.58,107.6c-2.53,23.46-22.33,41.25-45.92,41.25h-17.03c-.44,0-.88,0-1.32-.02h-.04c-.43-.02-.86-.03-1.29-.06-.4-.02-.78-.04-1.17-.08l-.25-.02c-.39-.03-.8-.08-1.19-.12-.43-.05-.86-.1-1.29-.16-20.61-2.93-37.06-19.53-39.36-40.78l-11.58-107.6c-1.87-10.07.55-12.88,5.24-14.82,3.58-1.48,16.32-9.05,59.61-9.05,22.18,0,34.79,2.04,43.27,3.88,9.43,2.06,13.57,3.98,16.38,5.33,6.38,3.04,7.57,9.53,7.54,14.65Z"/>
      <path class="cls-18" d="M1628.26,1398.61s-5.79,2.07-33.94,2.39c-1.33,33.02-3.38,64.72-7.24,88.02-.32,1.65-.63,3.38-.91,5.23-.62,3.33-1.29,6.53-2,9.6-5.29,19.39-24.08,27.8-37.19,21.48,3.7,3.79,8.05,6.93,12.84,9.27h-.01c.09.06.18.09.27.14.36.17.73.33,1.09.49.45.21.9.4,1.36.59.37.15.75.29,1.13.44.47.18.93.35,1.4.51.15.06.3.12.46.17h.03c4.58,1.5,9.45,2.34,14.51,2.34h17.03c23.59,0,43.4-17.79,45.92-41.25l11.58-107.6c-10.29,11.85-26.32,8.17-26.32,8.17Z"/>
      <path class="cls-19" d="M1654.58,1390.45l-11.58,107.6c-2.53,23.46-22.33,41.25-45.92,41.25h-17.03c-.44,0-.88,0-1.32-.02h-.04c-.43-.02-.86-.03-1.29-.06-.4-.02-.78-.04-1.17-.08l-.25-.02c-.39-.03-.8-.08-1.19-.12-.43-.05-.86-.1-1.29-.16-4.72-.68-9.23-2.07-13.39-4.07h7.88c23.59,0,50.22-14.31,52.1-47.59l8.19-88.55s21.98-.96,25.81-13.48c0,0,.54.2.5,5.31Z"/>
      <path class="cls-19" d="M1650.24,1384.86c0,7.06-28.14,12.79-62.85,12.79s-62.84-5.73-62.84-12.79c0-7.06,28.14-12.78,62.84-12.78s62.85,5.73,62.85,12.78Z"/>
      <path class="cls-18" d="M1568.81,1091.52c-10.75,10.76-22.1-1-37.84-18.54-.36-.41-.73-.81-1.1-1.22l-.04-.05c-.35-.4-.71-.79-1.07-1.19-.48-.54-.97-1.09-1.46-1.63-.55-.62-1.12-1.25-1.7-1.88-.56-.65-1.15-1.29-1.75-1.94-.88-.98-1.78-1.96-2.69-2.96-.9-.99-1.83-1.98-2.77-2.99-.31-.33-.63-.68-.95-1-1.89-2.01-3.85-4.03-5.87-6.05-26.71-26.71-45.24-51.47-39.46-57.26.12-.12.33-.28.59-.46.87-.54,2.02-.7,3.43-.52,9.52,1.17,30.69,17.89,53.24,40.44,26.71,26.71,54.18,42.54,39.45,57.26Z"/>
      <path class="cls-11" d="M1572.86,1083.97c1.05-9.03-9.97-19-24.37-31.9,13.6,12.97,24.33,23.1,24.37,31.9Z"/>
      <path class="cls-24" d="M1530.97,1072.98c-.36-.41-.73-.81-1.1-1.22l-.04-.05c-.35-.4-.71-.79-1.07-1.19-.48-.54-.97-1.09-1.46-1.63-.55-.62-1.12-1.25-1.7-1.88-.56-.65-1.15-1.29-1.75-1.94-.88-.98-1.78-1.96-2.69-2.96-.9-.99-1.83-1.98-2.77-2.99-.31-.33-.63-.66-.95-1-1.89-2.01-3.85-4.03-5.87-6.05-26.71-26.71-45.24-51.47-39.46-57.26.12-.12.33-.28.59-.46.87-.54,2.02-.7,3.43-.52-2.83,8.2,13.13,31.95,37.14,57.49,6.87,7.31,12.16,15.1,17.71,21.67Z"/>
      <path class="cls-19" d="M1643.52,1073.57c-20.23,35.04-25.79,69.72-53.24,53.87-27.45-15.85-.2-38,20.04-73.04,20.23-35.04,42.45-60.1,53.24-53.87,10.79,6.23.2,38-20.04,73.04Z"/>
      <path class="cls-5" d="M1625.35,1155.02c.34,2.53.4,5.03.41,7.51.02,1.25-.05,2.48-.06,3.72l-.19,3.71-1.02,14.8-1.21,14.78-1.42,14.76c-2.03,19.67-4.35,39.3-6.96,58.91l-2.03,14.69-2.13,14.69-1.07,7.35-1.14,7.32c-.78,4.88-1.47,9.79-2.33,14.66l-2.39,14.65c-.89,4.88-1.74,9.76-2.59,14.64-.87,4.88-1.97,9.72-2.82,14.61-.85,4.9-1.71,9.83-1.75,15.01l-8.85-2.4c1.17-2.2,2.08-4.48,2.95-6.78.42-1.15.82-2.31,1.2-3.48.4-1.17.73-2.34,1-3.55.59-2.38,1.08-4.79,1.6-7.19.5-2.41,1.08-4.79,1.51-7.22.92-4.84,1.84-9.68,2.72-14.52.8-4.87,1.63-9.72,2.4-14.59,2.99-19.49,5.63-39.05,8.01-58.64l7.09-58.79c1.18-9.8,2.4-19.6,3.67-29.39l1.91-14.69.52-3.67c.2-1.22.38-2.44.62-3.66.44-2.44.97-4.86,1.62-7.26h.73Z"/>
      <path class="cls-5" d="M1608.89,1136.45c.32,2.62.42,5.23.48,7.83.08,2.6.05,5.2,0,7.8l-.41,15.58-.56,15.57-.71,15.56c-1.09,20.74-2.33,41.48-3.7,62.21-.74,10.37-1.41,20.73-2.24,31.09-.83,10.36-1.81,20.71-2.77,31.06-1.09,10.34-2.24,20.68-3.62,31-.32,2.58-.65,5.17-1.06,7.74-.4,2.58-.77,5.15-1.23,7.72-.23,1.29-.47,2.57-.75,3.84-.33,1.27-.68,2.54-1.04,3.8-.77,2.51-1.57,5.02-2.63,7.45l-.57-.13c-.12-2.67.02-5.28.2-7.86.1-1.29.21-2.58.37-3.86.1-1.28.22-2.58.36-3.86.57-5.14,1.42-10.24,1.91-15.4l.86-7.72c.29-2.56.56-5.14.79-7.73l1.46-15.47c.92-10.33,1.85-20.65,2.63-31,.91-10.33,1.65-20.67,2.46-31.02,1.53-20.69,2.87-41.41,4.16-62.12.66-10.35,1.36-20.71,2.1-31.06l1.11-15.53c.39-5.17.91-10.35,1.82-15.49h.58Z"/>
      <path class="cls-5" d="M1554.4,1153.71c2.43,9.6,3.37,19.46,4.89,29.21l2.06,14.66,1.98,14.67,7.61,58.72c1.27,9.79,2.5,19.58,3.82,29.36,1.31,9.78,2.72,19.54,4.1,29.31,1.49,9.75,3,19.5,4.74,29.21.4,2.43.84,4.86,1.31,7.27.46,2.41.88,4.84,1.42,7.24.52,2.42,1.21,4.79,2.04,7.12.82,2.33,1.76,4.64,2.97,6.88l-8.97,1.93c.84-10.38-1.57-19.93-2.96-29.74l-4.47-29.31c-1.47-9.77-2.96-19.54-4.36-29.32l-4.26-29.32c-2.74-19.56-5.27-39.15-7.6-58.77l-1.67-14.72-1.51-14.74-1.37-14.76c-.2-2.46-.39-4.92-.47-7.4-.08-2.47-.12-4.97.09-7.49h.6Z"/>
      <path class="cls-22" d="M1533.7,1256.73c18.48,22.02,29.42,44.67,39.61,32.53,10.18-12.14-8.82-25.2-27.3-47.22-18.47-22.02-35.6-37.31-39.61-32.54-4,4.77,8.82,25.2,27.3,47.22Z"/>
      <path class="cls-18" d="M1634.05,1318.69c-15.02,17.91-23.93,36.32-32.21,26.46-8.28-9.88,7.17-20.49,22.2-38.4,15.02-17.91,28.95-30.33,32.2-26.46,3.26,3.88-7.16,20.49-22.19,38.4Z"/>
      <path class="cls-19" d="M1614.71,1203.54c-10.93,37.37-9.75,70.99-35.19,62.55-25.44-8.45-6.51-35.4,4.43-72.77,10.95-37.37,25.19-65.87,35.19-62.55,10,3.32,6.52,35.4-4.43,72.76Z"/>
      <path class="cls-22" d="M1655.42,1169.68c-11.18,38.2-6.85,73.61-40.74,62.36-33.89-11.25-11.43-37.77-.24-75.97,11.19-38.2,27.42-66.79,40.74-62.36,13.33,4.42,11.43,37.77.25,75.97Z"/>
      <path class="cls-18" d="M1655.18,1093.7l-.14-.04c-11.41,42.97-31.57,107.78-41.64,137.92.42.15.84.3,1.28.45,33.89,11.25,29.56-24.17,40.74-62.36,11.19-38.2,13.09-71.55-.24-75.97Z"/>
      <path class="cls-5" d="M1578.99,1065.49c.42,3.36.68,6.73.89,10.1.12,1.69.18,3.37.27,5.05l.17,5.05.53,20.2.49,20.2.37,20.2.76,40.39.82,40.39c.26,13.46.58,26.92.98,40.38.41,13.46.92,26.92,1.52,40.35.66,13.44,1.42,26.88,2.57,40.27.6,6.69,1.16,13.38,2.03,20.03.25,1.65.53,3.3.83,4.95.29,1.65.66,3.28,1.07,4.9.43,1.61.82,3.24,1.37,4.81.54,1.55,1.12,3.1,1.79,4.61l-8.97,1.93c.05-1.81.02-3.57-.07-5.32-.04-1.75-.06-3.46-.15-5.18-.03-.86-.08-1.72-.13-2.57-.04-.85-.07-1.7-.13-2.55-.09-1.7-.21-3.39-.35-5.08-.23-3.37-.58-6.74-.86-10.11l-.77-10.1c-.45-6.74-.85-13.48-1.26-20.21l-1.05-20.2c-.69-13.46-1.28-26.93-1.78-40.4-.53-13.47-1.02-26.94-1.42-40.41-.4-13.47-.67-26.94-.94-40.42-.13-6.74-.27-13.47-.35-20.21l-.18-20.21-.13-20.22.08-20.21.22-20.21c.06-3.37.14-6.74.33-10.11.17-3.37.41-6.74.82-10.11h.62Z"/>
      <path class="cls-22" d="M1519.28,1165.67c19.25,35.5,24.15,70.85,51.2,54.22,27.06-16.63.77-38.83-18.48-74.33-19.25-35.5-40.58-60.76-51.21-54.22-10.64,6.54-.77,38.84,18.49,74.33Z"/>
      <path class="cls-18" d="M1579.58,1282.24c11.38,23.5,14.51,46.75,29.95,36.12,15.44-10.63.12-25.48-11.26-48.98-11.38-23.5-23.88-40.3-29.95-36.12-6.07,4.18-.12,25.47,11.27,48.98Z"/>
      <path class="cls-22" d="M1588.44,1043.27c10.15,44.66,34.76,77.15-6.67,86.56-41.43,9.42-33.28-30.51-43.43-75.17-10.15-44.66-9.62-82.86,6.67-86.56,16.29-3.71,33.28,30.51,43.44,75.17Z"/>
      <path class="cls-18" d="M1588.44,1043.27c-10.15-44.66-27.15-78.88-43.44-75.17-.71.16-1.4.42-2.06.72,18.99,68.16,31.81,125.1,37.35,161.31.5-.1.97-.18,1.48-.29,41.43-9.42,16.82-41.9,6.67-86.56Z"/>
      <path class="cls-24" d="M1545.9,1057.61c-10.56-46.46-12.97-84.99,3.31-88.7.85-.19,1.69-.27,2.53-.25-2.25-.85-4.5-1.07-6.74-.56-16.28,3.7-16.82,41.9-6.67,86.56,7.31,32.14,5.13,61.83,18.79,72.44-4.29-13.82-4.87-41.55-11.22-69.5Z"/>
      <path class="cls-18" d="M1552,1145.56c-19.25-35.5-40.58-60.76-51.21-54.22-.91.55-1.65,1.31-2.26,2.22,31.76,49.1,55.26,92.06,71.78,126.43l.18-.1c27.06-16.63.76-38.83-18.49-74.33Z"/>
      <path class="cls-24" d="M1521.99,1165.23c-15.87-33.15-26.34-61.89-17.83-74.91-1.21.06-2.35.39-3.37,1.02-10.64,6.54-.77,38.84,18.48,74.33,3.87,7.14,7.15,14.26,10.17,20.96,0-3.41-3.93-14.05-7.45-21.4Z"/>
      <path class="cls-18" d="M1546.01,1242.04c-18.47-22.02-35.6-37.31-39.61-32.54-.23.27-.39.6-.51.97,20.31,21.26,56.21,61.81,67.01,79.23.14-.14.27-.28.41-.44,10.18-12.14-8.82-25.2-27.3-47.22Z"/>
      <path class="cls-22" d="M1566,1238.2c-.94,8.52,4.65,25.61,13.58,44.04,11.32,23.36,14.47,46.45,29.67,36.29-9.56-26.97-29.67-61.44-43.25-80.34Z"/>
      <path class="cls-22" d="M1656.25,1280.29c-.13-.15-.27-.26-.43-.37-15.13,16.78-35.76,40.48-55.34,63.19.36.68.8,1.36,1.37,2.04,8.28,9.86,17.19-8.55,32.21-26.46,15.03-17.91,25.45-34.52,22.2-38.4Z"/>
      <path class="cls-5" d="M1578.69,1388.32l4.36-.73,5.87.73s7.7-2.18,8.35-2.02c.65.16,10.06,3.33,10.06,3.33l-13.46,3.3-15.18-4.61Z"/>
      <path class="cls-5" d="M323.83,553.17c22.85,0,41.38,9.09,41.38,20.29s-18.53,20.29-41.38,20.29-41.4-9.09-41.4-20.29,18.54-20.29,41.4-20.29Z"/>
      <path class="cls-2" d="M323.83,566.16c15.55,0,28.16,6.18,28.16,13.82s-12.61,13.78-28.16,13.78-28.16-6.16-28.16-13.78,12.61-13.82,28.16-13.82Z"/>
      <path class="cls-18" d="M1560.53,1602.46l2.12,18.77,14.24,126.23s5.14,4.24,11.39,4.47c2.28.08,4.42-.29,6.22-.78,3.1-.87,5.18-2.13,5.18-2.13l-4.47-122.24-.89-24.32h-33.78Z"/>
      <path class="cls-19" d="M1560.53,1602.46l2.85,25.2c12.69-2.83,25.2.44,32.11,6.86l-1.17-32.05h-33.78Z"/>
      <path class="cls-22" d="M1579.9,1654.6c3.29,20.27,6.37,84.14,6.59,88.16.22,4.02-4.47,7.38-5.7-1.34-1.23-8.71-7.48-71.33-9.38-89.5-1.9-18.16,5.2-17.59,8.49,2.68Z"/>
      <path class="cls-19" d="M1583.2,1602.46l11.31,148.69c3.1-.87,5.18-2.13,5.18-2.13l-5.36-146.56h-11.12Z"/>
      <path class="cls-18" d="M1159.32,1604.47c.87.87,3.21,1.53,7.46,1.76.11.02.23.03.36.03,4.47.23,8.94-1.12,8.94-1.12l6.28-37.81,2.42-14.59.24-1.44-13.73-2.28-9.06-1.51s-.14,2-.35,5.24c-.2,3.09-.49,7.32-.77,12.03-1.04,16.56-2.34,39.15-1.79,39.7Z"/>
      <path class="cls-19" d="M1161.1,1564.77c6.79-.51,15.06.92,21.25,2.56l2.42-14.59h-22.9c-.2,3.09-.49,7.32-.77,12.03Z"/>
      <path class="cls-19" d="M1166.78,1606.23c.11.01.23.02.36.02,4.47.23,8.94-1.11,8.94-1.11l8.93-53.85-13.73-2.28-4.5,57.22Z"/>
      <path class="cls-18" d="M996,1646.69c.36.25.8.46,1.33.62.85.27,1.92.43,3.08.5,2.32.17,5.07,0,7.48-.25,3.43-.36,6.2-.88,6.2-.88l34.79-86.88,7.28-18.14,1.85-7.57.54-2.24-9.45-.82-6.18-.53-7.2-.63-5.55-.48-.93,3.19-6,20.58-27.25,93.53Z"/>
      <path class="cls-19" d="M1023.72,1551.55c2.51-.38,6.9-.42,9.5.59,4.48,1.74,11.81,6.7,14.34,10.98l8.6-21.45,1.85-7.57-28.76-1.51-5.53,18.97Z"/>
      <path class="cls-19" d="M1007.9,1647.57c3.43-.36,6.2-.88,6.2-.88l42.07-105.04,2.39-9.81-9.45-.82-41.21,116.54Z"/>
      <path class="cls-22" d="M997.33,1647.31c.85.28,1.92.43,3.08.51,0,0,23.06-66.34,29.03-82.72,5.43-14.94-3.49-9.27-5.83-1.77-2.35,7.5-26.28,83.98-26.28,83.98Z"/>
      <path class="cls-22" d="M976.78,1432.21c0,6.7,4.91,71.05,8.94,81.76,4.02,10.73,2.34,16.1,8.54,18.78,6.2,2.68,218,28.45,226.94,29.64,8.93,1.18,159.07,22.04,179.93,25.02,19.14,2.73,120.06,16.5,143.91,20.58,2.15.38,3.66.66,4.44.86,9.53,2.38,23.24,2.38,35.75,3.58,12.51,1.19,38.73-6.55,61.96-13.11,23.24-6.55,37.53-7.74,44.09-26.22,6.55-18.47,16.68-79.23,20.26-104.26,3.57-25.02,19.06-119.75,19.06-119.75,1.03-5.86,1.8-14.31.33-23.66-2.34-14.9-10.37-32.08-32.05-44.71-35.3-20.55-92.49-26.36-105.01-28.6-12.51-2.23-71.94-8.49-90.71-9.38-18.77-.89-39.33,3.13-58.98,0-19.66-3.13-73.28-3.57-82.67-3.57-7.5,0-55.25.29-92.82,3.14-9.45.72-18.24,1.59-25.59,2.67-36.64,5.36-95.63,25.47-109.48,33.96-13.85,8.49-31.28,25.47-46.47,28.6-15.19,3.13-58.53,5.36-75.51,9.38-7.55,1.79-15.48,3.85-22.21,6.29-8.38,3.04-14.93,6.68-16.67,11.13-3.12,8.04,4.02,91.16,4.02,97.86Z"/>
      <path class="cls-18" d="M1550.08,1302.85c1.1,1.56,5.81,7.32,4.02,10.7-1.79,3.38-5.33,8.07-8.47,8.52-3.14.45-8.84,2.24-10.91,0-2.07-2.23-1.62-6.27.84-9.06,2.46-2.78,10.73-15.56,14.52-10.16Z"/>
      <path class="cls-18" d="M1472.37,1298.82c3.43,1.66,5.77,8.7,3.31,10.61-2.46,1.9-4.91,1.46-6.26,4.59-1.34,3.13-3.57,5.81-5.14,7.15-1.56,1.34-8.26-1.12-8.26-2.68s.22-8.73,1.12-9.06c.9-.33,9.69-13.29,15.23-10.61Z"/>
      <path class="cls-18" d="M1388.99,1294.58c3.15,1.46,5.59,8.04,1.34,11.62-4.25,3.57-4.69,6.26-6.03,7.6-1.34,1.34-8.49,1.56-10.72-.9-2.23-2.46-1.56-8.94,1.56-9.61,3.13-.67,8.05-11.39,13.85-8.71Z"/>
      <path class="cls-18" d="M1312.14,1292.57c1.64.96,4.47,7.15,1.12,10.28-3.35,3.13-2.01,4.04-4.69,7.16-2.68,3.12-8.36,5.35-9.88,1.78-1.52-3.58-2.86-9.83,1.17-12.06,4.02-2.24,9.61-8.72,12.29-7.15Z"/>
      <path class="cls-18" d="M1231.93,1287.13c.42.2,5.36,2.05,3.72,5.2-1.64,3.14,0,5.08-.74,7.61-.75,2.53-3.28,5.96-7.6,4.77-4.32-1.19-6.56-.79-7.3-1.74-.75-.95-.45-6.45,1.94-6.67,2.38-.23,6.4-4.7,6.55-5.74.15-1.04,1.71-4.25,3.43-3.42Z"/>
      <path class="cls-18" d="M1537.12,1375.23c.97-1.84,8.02-5.14,7.92,0-.1,5.14,1.44,8.27,0,11.4-1.44,3.12-5.91,3.8-7.92,4.46-2.01.67-4.91.67-5.58-1.56-.67-2.23-1.05-5.13.93-7.15,1.98-2.01,4.66-7.15,4.66-7.15Z"/>
      <path class="cls-18" d="M1453.33,1371.43c1.17-2.72,8.27-1.79,8.27,0s-2.46,6.7-3.13,9.61c-.67,2.91-1.53,8.04-7.36,6.7-5.82-1.34-6.83-2.46-6.78-4.46.06-2.01,8.99-11.85,8.99-11.85Z"/>
      <path class="cls-18" d="M1370.9,1364.74c.96-2.02,5.58-5.14,6.92-2.46,1.34,2.69,4.47,8.05,1.56,8.94-2.9.89-4.47,1.11-5.81,4.47-1.34,3.35-2.46,4.69-4.69,5.14-2.23.45-5.14.45-6.26-3.35-1.11-3.8,6.26-8.61,6.26-8.61l2.01-4.12Z"/>
      <path class="cls-18" d="M1294.28,1361.23c1.88-2.47,2.26-7.42,4.47-4.08,2.21,3.34,4.44,6.71,2.88,10.05s-6.03,7.53-8.93,7.22c-2.9-.31-8.9-1.93-7.81-4.7,1.09-2.77,9.4-8.49,9.4-8.49Z"/>
      <path class="cls-22" d="M1308.35,1264.84c2.11-2.11-4.62,22.3-4.62,28.26s-16.39,1.79-16.39,1.79c0,0,2.08-3.58,4.47-4.77,2.38-1.19,2.08-3.28,3.57-4.77,1.49-1.49,1.39.59,3.38-2.39s5.13-13.66,9.59-18.13Z"/>
      <path class="cls-22" d="M1230.46,1262.58s-3.3,20.68-3,27.24c.3,6.55-10.43,2.68-10.43,2.68,0,0-5.36-5.06,0-10.13,5.36-5.06,4.54-4.59,5.44-6.08.89-1.49,5.9-13.8,7.99-13.71Z"/>
      <path class="cls-22" d="M1383.57,1268.98s-3.89,17.72-3.29,27.32c.59,9.6-8.05,2.31-8.05,0s-.7-6.34,1.09-7.23c1.79-.89,4.12-5.74,4.72-10.5.59-4.77,3.74-8.99,5.53-9.58Z"/>
      <path class="cls-22" d="M1466.36,1273.61c-.96,7.3-5.65,22.45-5.95,27.52-.3,5.07-8.64,4.18-9.53,1.79-.9-2.38-3.15-5.63-1.79-7.44,2.22-2.94,3.82-2.15,6.85-5.96,2.97-3.73,10.42-19.93,10.42-15.91Z"/>
      <path class="cls-22" d="M1544.79,1279.2c-.84,6.18-3.56,18.01-3.75,25.63-.19,7.62-16.87,2.51-19.56,0-2.68-2.5,3.88-1.01,7.15-2.21,3.28-1.19,4.54-.81,6.09-5.96,1.66-5.5,7.54-16.99,10.07-17.47Z"/>
      <path class="cls-22" d="M1534.44,1372.43c0-2.34-.75-5.91-3.13-6.58-2.39-.67-3.39.67-4.49,2.24-1.1,1.56-2.66,2.01-5.79,3.35-3.13,1.34-6.48.67-6.03,4.25.45,3.57,7.9,6.63,10.73,6.7,2.83.07,4.69-1.56,5.59-2.24.89-.67,3.13-7.72,3.13-7.72Z"/>
      <path class="cls-22" d="M1450.66,1368.98c-.16-2.97,1.11-7.36,0-9.71-1.12-2.35-4.02-3.69-5.81,1.22-1.79,4.91-5.14,5.36-6.92,8.49-1.79,3.13,3.59,6.65,7.37,5.05,3.78-1.6,5.36-5.05,5.36-5.05Z"/>
      <path class="cls-22" d="M1367.32,1362.27c.76-2.69,1.56-6.47,1.56-8.48s-1.25-6.6-3.72-3.03c-1.85,2.67-3,6.63-5.67,6.39-2.67-.23-8.7,2-8.7,3.78s-1.66,3.35,1.07,4.91c2.73,1.56,14.22,1.34,14.22,1.34l1.25-4.92Z"/>
      <path class="cls-22" d="M1292.03,1359.27c.85-3.17,1.85-6.17,2.24-8.16.32-1.66-.59-6.58-1.46-6.81-2.2-.61-4.13,1.88-5.47,4.68-1.34,2.8-2.46,3.47-5.14,4.81-2.68,1.34-6.7,3.14-6.7,5.48s2.68,4.35,5.14,4.35,11.39-4.35,11.39-4.35Z"/>
      <path class="cls-18" d="M1030.18,1468.18c-4.19,1.53-8.71,3.19-12.29.59-3.58-2.6-3.12-22.66-3.12-26.26s-7.47-48.28-6.87-51.41c.61-3.12.23-33.51,0-41.55-.28-10.5-11.36-7.72-17.26-15.34-2.92-3.77,56.07-2.8,65.91-4.59,9.83-1.79,33.67-4.75,43.34-6.7,6.1-1.23,26.83-3.86,33.51-12.51,6.68-8.65,31.2-30.16,51.61-35.48,7.14-1.86,20.14-2.95,21.48,1.52,1.34,4.46-.06,13.05-.03,22.61.03,9.56,9.99,20.5,15.64,30.39,6.98,12.22,11.86,26.81,14.97,39.42,1.87,7.58,21.22,27.69,48.48,33.91,27.26,6.21-90.7,7.54-90.7,7.54l-164.66,57.87Z"/>
      <path class="cls-22" d="M1024.6,1443.38c0,4.1.1,8.85,2.04,12.94.96,2.04,2.37,3.93,4.46,5.5,2.37,1.79,5.6,3.16,10.03,3.89,16.08,2.69,72.39,5.37,92.49,8.49,20.11,3.14,79.09,9.38,93.84,9.83,14.74.45,95.18,12.51,108.58,13.41,13.41.9,71.94,8.49,84.46,10.73,12.51,2.23,80.88,6.7,88.92,7.15,8.04.45,25.02,3.12,39.32,1.79,14.3-1.34,25.17-13.41,25.17-13.41v-77.84c-8.33-.97-71.49-4.68-83.41-4.68s-67.32-5.54-86.39-6.64c-19.06-1.11-76.26-9.44-88.77-9.44s-61.96-5.96-70.9-6.56c-8.93-.59-75.96-5.66-93.83-4.77-17.88.9-55.41,1.34-67.92,4.91-12.51,3.58-34.41,4.47-42,7.59-7.59,3.14-13.85,2.69-16.08,8.05-2.24,5.36,0,20.55,0,29.05Z"/>
      <path class="cls-18" d="M1031.1,1461.82c2.37,1.79,5.6,3.16,10.03,3.89,16.08,2.69,72.39,5.37,92.49,8.49,20.11,3.14,79.09,9.38,93.84,9.83,14.74.45,95.18,12.51,108.58,13.41,13.41.9,71.94,8.49,84.46,10.73,12.51,2.23,80.88,6.7,88.92,7.15,8.04.45,25.02,3.12,39.32,1.79,14.3-1.34,17.87-11.74,17.87-11.74l7.3-50.44c-2.21.99-4.46,2.12-6.4,3.19-6.4,3.58-16.09,3.58-26.47,1.79-9.52-1.64-33.8-4.41-34.33-4.41.03.03.19.04.47.08,4.47.56,12.96,8.36,18.77,11.93,5.81,3.58,1.34,12.51,0,18.76-1.34,6.26-15.19,14.75-24.58,16.99-9.38,2.23-58.53-5.81-73.28-6.26-14.74-.45-45.13-5.36-64.79-5.36-19.66,0-64.34-10.28-80.43-10.28s-54.07-6.71-67.03-7.59c-12.96-.89-34.85-3.58-45.13-4.47-10.27-.89-37.98-7.15-51.38-6.23-13.4.9-36.65-.92-61.22-2.71-13.54-.98-22.18-.07-27.01,1.46Z"/>
      <path class="cls-18" d="M1551.87,1512.64c4.74-.4,8.04,2.53,8.64,4.85.6,2.3-8.34,12.73-17.57,11.83-9.23-.89-9.83.11-14.59.06-4.77-.06-19.37-5.72-23.83-5.72s-16.98-2.36-21.45-2.67c-4.47-.3-29.49-.3-32.17-1.2-2.68-.89-22.94-5.06-28-5.66-5.06-.6-35.45-3.28-44.38-3.28s-17.58-2.39-21.15-4.17c-3.57-1.78-30.68-4.77-37.24-5.06-6.55-.3-27.4-2.68-33.66-4.47-6.26-1.79-40.21-4.47-47.36-5.06-7.15-.59-11.91-2.68-17.87-3.58-5.96-.89-42.6-3.57-49.45-3.87-6.85-.3-30.68-3.87-37.83-4.77-7.15-.9-26.52-1.49-35.75-2.38-9.23-.9-20.85-.3-26.21-1.79-5.37-1.49-11.02-2.68-17.88-2.68s-20.55-2.08-25.02-2.08c-4.47,0-5.26-5.67-5.46-7.15-.21-1.49-2.28-17.88-1.99-20.55.29-2.69,12.8,2.98,12.8,2.98l517.45,66.43Z"/>
      <path class="cls-19" d="M1032.63,1458.79c.4-.13,14.01,2.37,25.38,4.5h0s114.08,11.54,114.08,11.54l373.29,40.04c2.24,0,12.74,2.46,12.07,4.24-.67,1.79-10.93,6.26-16.41,5.81-5.48-.45-57.61-9.79-76.98-10.06-9.67-.14-193.93-25.73-208.23-25.29-14.3.44-203.27-22.49-203.34-22.49-6.37.34-12.14.73-13.82,1.09-4.25.89-7.82.67-8.5,0-.67-.67-4.02-4.02-4.02-5.36s5.81-3.8,6.47-4.02Z"/>
      <path class="cls-18" d="M1625.15,1596.35l7.46,15.68,33.35,70.12s6.85,2.24,12.22,1.19c.35-.06.67-.14.99-.2,4.63-1.04,6.46-2.48,6.46-2.48l-26.03-67.53-8.53-22.13-13.77,2.86-12.14,2.5Z"/>
      <path class="cls-19" d="M1625.15,1596.35l7.46,15.68c10.82-1.84,20.8-.36,26.98,1.09l-8.53-22.13-13.77,2.86-12.14,2.5Z"/>
      <path class="cls-19" d="M1637.29,1593.85l41.88,89.29c4.63-1.04,6.46-2.48,6.46-2.48l-34.56-89.66-13.77,2.86Z"/>
      <path class="cls-24" d="M1029.74,1430.15c1.31-4.51,4.24-6.48,10.05-8.04,2.3-.61,11.32-2.98,17.57-2.98s20.26-.3,38.73,0c18.47.29,64.34,3.87,73.29,3.27,7.52-.5,48.25,7.15,64.34,7.75,16.09.59,79.84,8.1,95.33,7.63,15.49-.48,71.49,3.68,92.35,5.47,20.85,1.79,71.5,7.15,78.05,6.55,6.55-.59,25.02,1.2,34.55,1.79,9.53.59,19.06,6.55,28,1.79,3.28-1.75,7.66-4.01,11.92-6.27v-21.23c-8.33-.97-71.49-4.68-83.41-4.68s-67.32-5.54-86.39-6.64c-19.06-1.11-76.26-9.44-88.77-9.44s-61.96-5.96-70.9-6.56c-8.93-.6-75.96-5.66-93.83-4.77-17.88.89-55.41,1.34-67.92,4.91-12.51,3.57-34.41,4.47-42,7.59-7.59,3.12-13.85,2.68-16.08,8.05-1.25,2.99-1.47,9.09-.73,15.31,2.29,19.23,5.26,2.54,5.87.46Z"/>
      <path class="cls-19" d="M1547.81,1310.01c0-4.07-3.3-7.37-7.37-7.37s-7.38,3.3-7.38,7.37,3.3,7.37,7.38,7.37,7.37-3.3,7.37-7.37Z"/>
      <path class="cls-19" d="M1469.39,1305.39c0-4.07-3.3-7.37-7.37-7.37s-7.37,3.3-7.37,7.37,3.3,7.37,7.37,7.37c4.07,0,7.37-3.3,7.37-7.37Z"/>
      <path class="cls-19" d="M1387.95,1301.52c0-4.07-3.3-7.37-7.37-7.37s-7.37,3.3-7.37,7.37,3.3,7.37,7.37,7.37c4.07,0,7.37-3.3,7.37-7.37Z"/>
      <circle class="cls-33" cx="1304.56" cy="1298.37" r="7.37" transform="translate(-263.41 334.46) rotate(-13.28)"/>
      <path class="cls-19" d="M1233.95,1294.37c0-4.07-3.3-7.37-7.37-7.37-4.07,0-7.37,3.3-7.37,7.37s3.3,7.37,7.37,7.37,7.37-3.3,7.37-7.37Z"/>
      <path class="cls-24" d="M1545.63,1309.43c0-3.64-2.95-6.58-6.58-6.58s-6.58,2.95-6.58,6.58,2.94,6.58,6.58,6.58,6.58-2.95,6.58-6.58Z"/>
      <path class="cls-24" d="M1467.3,1304.95c0-3.64-2.94-6.58-6.58-6.58s-6.58,2.95-6.58,6.58c0,3.63,2.94,6.58,6.58,6.58s6.58-2.95,6.58-6.58Z"/>
      <path class="cls-24" d="M1385.82,1301.13c0-3.64-2.95-6.58-6.58-6.58s-6.58,2.94-6.58,6.58,2.95,6.58,6.58,6.58,6.58-2.95,6.58-6.58Z"/>
      <path class="cls-24" d="M1310.03,1297.88c0-3.63-2.95-6.58-6.58-6.58s-6.58,2.95-6.58,6.58,2.95,6.58,6.58,6.58,6.58-2.94,6.58-6.58Z"/>
      <path class="cls-19" d="M1299.64,1363.62c0-4.07-3.3-7.37-7.38-7.37s-7.37,3.3-7.37,7.37,3.3,7.38,7.37,7.38,7.38-3.3,7.38-7.38Z"/>
      <path class="cls-24" d="M1297.19,1362.27c0-3.63-2.95-6.58-6.58-6.58s-6.58,2.95-6.58,6.58,2.94,6.58,6.58,6.58,6.58-2.95,6.58-6.58Z"/>
      <path class="cls-19" d="M1375,1366.66c0-4.07-3.3-7.37-7.37-7.37s-7.37,3.3-7.37,7.37,3.3,7.37,7.37,7.37,7.37-3.3,7.37-7.37Z"/>
      <path class="cls-24" d="M1372.65,1365.85c0-3.64-2.94-6.58-6.58-6.58s-6.58,2.95-6.58,6.58,2.95,6.58,6.58,6.58,6.58-2.95,6.58-6.58Z"/>
      <path class="cls-19" d="M1458.49,1373.22c0-4.07-3.3-7.37-7.37-7.37s-7.37,3.3-7.37,7.37,3.3,7.37,7.37,7.37,7.37-3.3,7.37-7.37Z"/>
      <path class="cls-24" d="M1455.65,1372.43c0-3.64-2.94-6.58-6.58-6.58s-6.58,2.94-6.58,6.58,2.95,6.58,6.58,6.58,6.58-2.95,6.58-6.58Z"/>
      <path class="cls-19" d="M1542.26,1378.99c0-4.07-3.3-7.37-7.38-7.37s-7.37,3.3-7.37,7.37,3.3,7.37,7.37,7.37,7.38-3.3,7.38-7.37Z"/>
      <path class="cls-24" d="M1539.99,1378.02c0-3.64-2.95-6.58-6.58-6.58s-6.58,2.95-6.58,6.58,2.95,6.58,6.58,6.58,6.58-2.94,6.58-6.58Z"/>
      <path class="cls-24" d="M1231.93,1293.58c0-3.64-2.95-6.58-6.58-6.58-3.64,0-6.58,2.94-6.58,6.58s2.95,6.58,6.58,6.58,6.58-2.95,6.58-6.58Z"/>
      <path class="cls-22" d="M1219.65,1355.69c0-3.64-2.95-6.58-6.58-6.58s-6.58,2.95-6.58,6.58c0,3.64,2.94,6.58,6.58,6.58s6.58-2.94,6.58-6.58Z"/>
      <path class="cls-24" d="M974.66,1331.45c2.3.18,17.69-2.99,26.77-6.01,8.66-2.87,16.81-4.3,28.31-5.36,9.34-.86,37.09-4.45,46.47-5.07,9.38-.63,32.38-8.58,35-11.17,3.37-3.32,22.35-17.13,26.82-20.7,4.47-3.58,20.26-9.24,30.53-12.36,10.28-3.13,39.09-13.62,52.73-17.58,13.64-3.96,37.01-6.88,46.39-8.67,3.07-.59,2.84-1.4,1.02-2.22-9.45.72-18.24,1.59-25.59,2.67-36.64,5.36-95.63,25.47-109.48,33.96-13.85,8.49-31.28,25.47-46.47,28.6-15.19,3.13-58.53,5.36-75.51,9.38-7.55,1.79-30.76,7.33-36.98,14.53Z"/>
      <path class="cls-18" d="M1545.04,1608c2.15.38,3.66.66,4.44.86,9.53,2.38,23.24,2.38,35.75,3.58,12.51,1.19,38.73-6.55,61.96-13.11,23.24-6.55,37.53-7.74,44.09-26.22,6.55-18.47,16.68-79.23,20.26-104.26,3.57-25.02,19.06-119.75,19.06-119.75,1.03-5.86,1.8-14.31.33-23.66l-9.18-19.36c-1.34-3.02-6.33-1.71-6.33,9.94s-5.58,28.19-13.4,34.87c-3.5,2.98-11.17,10.27-19.21,11.17-8.05.89-33.96,2.68-40.22,3.8-6.26,1.12-21.51,5.59-22.14,16.31-.65,10.73-1.8,69.7-3.45,82.67-1.66,12.96-4.34,47.87-5.68,60.14-1.34,12.25-4.47,42.19-13.85,53.8s-19.42,23.9-39.97,25.91c-5.6.55-9.59,1.8-12.44,3.31Z"/>
      <path class="cls-24" d="M1663.87,1319.9c-.32,6.54-.6,22.04-18.47,27.41-17.88,5.36-50.64,8.93-60.18,15.49-9.53,6.56-14.89,20.26-16.08,30.98-1.19,10.73-5.37,47.66-7.15,59.58s-2.98,50.05-4.77,56c-1.79,5.96-1.19,20.26-8.94,22.05-7.75,1.79-10.13,17.88-2.98,18.47,7.15.59,19.66-11.91,23.24-29.19,3.57-17.28,9.54-90.56,11.92-106.65,2.38-16.09,5.18-43.35,12.51-46.48,7.34-3.12,25.62-7.75,32.77-8.94,7.15-1.19,16.87-4.07,31.8-6.23,18.4-2.65,39.33-25.47,29.05-47.71-4.43-9.58-14.6-13.51-22.94-15.89-8.34-2.38-14.67-5.25-25.39-7.03-10.73-1.78-36.72-4.59-37.91-.38-1.19,4.21,4.42,7.64,12.88,9.31,11.12,2.19,46.47,15.49,47.66,19.06,1.19,3.58,3.24,4.79,2.98,10.13Z"/>
      <path class="cls-2" d="M1482.2,841.67v550.4c0,24.43-19.88,44.29-44.31,44.29H469.14c-24.38,0-44.24-19.86-44.24-44.29v-550.4c0-24.43,19.86-44.28,44.24-44.28h968.75c10.44,0,20.57,3.7,28.54,10.39,10.01,8.45,15.77,20.82,15.77,33.88Z"/>
      <path class="cls-9" d="M1098.9,1681.02h-290.71l15.14-100.66,25.95-172.59,3.03-20.22h202.47l3.03,20.22,25.95,172.59,15.14,100.66h0ZM953.55,1526.65c-23.09,0-41.8,18.72-41.8,41.8s18.72,41.8,41.8,41.8,41.8-18.72,41.8-41.8-18.72-41.8-41.8-41.8Z"/>
      <path class="cls-15" d="M424.9,841.67c0-24.43,19.86-44.29,44.24-44.29h968.74c10.46,0,20.58,3.71,28.54,10.41,10.02,8.45,15.77,20.81,15.77,33.88v550.4c0,15.33-7.84,28.88-19.73,36.84-7.03,4.71-15.48,7.45-24.58,7.45H469.14c-2.06,0-4.12-.15-6.11-.43-21.49-2.99-38.13-21.53-38.13-43.86v-550.4h0ZM1488.18,781.97c-11.22-9.43-24.89-15.51-39.29-17.56-3.64-.54-7.3-.79-11.02-.79H469.14c-43.02,0-78.01,35.02-78.01,78.06v550.4c0,22.61,9.67,43.03,25.08,57.29,9.35,8.66,20.81,15.06,33.52,18.34,6.21,1.6,12.71,2.43,19.41,2.43h968.74c.82,0,1.64-.02,2.43-.03,2.4-.07,4.77-.27,7.1-.54,3.91-.49,7.74-1.26,11.47-2.29,2.25-.64,4.45-1.36,6.6-2.18,2.89-1.08,5.66-2.34,8.36-3.74,1.46-.76,2.91-1.56,4.32-2.4v-.02c4.23-2.53,8.19-5.49,11.83-8.78,10.21-9.17,17.98-20.97,22.25-34.34.86-2.6,1.54-5.29,2.12-8.01.47-2.25.84-4.54,1.08-6.87.34-2.9.52-5.88.52-8.86v-550.4c0-23.05-10.11-44.8-27.77-59.71Z"/>
      <path class="cls-21" d="M1516.17,1389.26v14.76c0,35.25-28.25,63.86-63.07,63.86H454.44c-34.82,0-63.01-28.62-63.01-63.86v-14.76h1124.74Z"/>
      <path class="cls-15" d="M1174.11,1704.33h-441.12c-5.08,0-9.19-9.49-9.19-21.23,0-11.73,4.11-21.23,9.19-21.23h441.13c5.08,0,9.19,9.5,9.19,21.23,0,3.58-.37,6.97-1.06,9.9-1.53,6.72-4.6,11.33-8.13,11.33Z"/>
      <path class="cls-21" d="M1482.2,861.66H424.89v-19.99c0-24.42,19.87-44.27,44.25-44.27h968.74c10.45,0,20.58,3.7,28.55,10.39,10.01,8.45,15.77,20.82,15.77,33.88v19.99Z"/>
      <path class="cls-2" d="M512.46,812.99c7.65,0,13.86,6.21,13.86,13.87s-6.21,13.86-13.86,13.86-13.87-6.21-13.87-13.86,6.21-13.87,13.87-13.87h0ZM585.58,812.99c7.66,0,13.87,6.21,13.87,13.87s-6.21,13.86-13.87,13.86-13.86-6.21-13.86-13.86,6.21-13.87,13.86-13.87h0ZM549.01,812.99c7.66,0,13.87,6.21,13.87,13.87s-6.21,13.86-13.87,13.86-13.86-6.21-13.86-13.86,6.21-13.87,13.86-13.87Z"/>
      <path class="cls-15" d="M995.26,1565.75c.06.89.09,1.79.09,2.7,0,23.09-18.72,41.8-41.8,41.8s-41.8-18.72-41.8-41.8c0-.91.03-1.81.09-2.7,1.38,21.83,19.53,39.11,41.71,39.11s40.33-17.27,41.71-39.11Z"/>
      <path class="cls-2" d="M496.39,1414.88c9.56,0,17.3,7.74,17.3,17.3s-7.74,17.3-17.3,17.3-17.31-7.75-17.31-17.3,7.75-17.3,17.31-17.3Z"/>
      <path class="cls-2" d="M547.88,1422.24c5.49,0,9.94,4.45,9.94,9.94s-4.45,9.94-9.94,9.94-9.94-4.45-9.94-9.94,4.45-9.94,9.94-9.94Z"/>
      <path class="cls-2" d="M588.34,1422.24c5.49,0,9.94,4.45,9.94,9.94s-4.45,9.94-9.94,9.94-9.94-4.45-9.94-9.94,4.45-9.94,9.94-9.94Z"/>
      <path class="cls-2" d="M628.79,1422.24c5.49,0,9.94,4.45,9.94,9.94s-4.45,9.94-9.94,9.94-9.94-4.45-9.94-9.94,4.45-9.94,9.94-9.94Z"/>
      <path class="cls-25" d="M908,997.68c20.35,14.67,36.9,31.32,51.53,48.89,11.68-12.27,24.25-24.9,38.24-37.84,87.64-81.09,171.18-90.24,235.65-63.58,50.89,21.04,88.83,64.7,107.24,113.23,18.93,49.91,17.57,105.77-10.85,149.33-31.45,48.2-94.03,79.84-195.71,68.68-96.91-10.63-140.69-63.65-180.95-121.39-54.28,58.13-106.91,101.73-219.15,111.65-21.33,1.88-42.53,1.52-64.02-3.49-22.16-5.17-43.79-15.19-64.9-32.57-58.02-47.76-75.48-106.43-64.07-159.46,5.52-25.65,17.92-49.67,35.86-70.24,17.34-19.88,39.9-36.49,66.39-48.05,69.18-30.21,165.91-26.4,264.75,44.84h0ZM912.49,1097.85c-13.18-16.73-27.58-32.16-44.61-44.43-76.18-54.91-147.62-59.21-197.16-37.57-17.04,7.44-31.36,17.9-42.16,30.28-10.2,11.7-17.2,25.13-20.25,39.28-6.3,29.27,4.87,62.92,40.38,92.14,12.06,9.93,24.35,15.64,36.9,18.57,13.22,3.09,27.5,3.19,42.47,1.87,93.14-8.23,136.5-47.89,184.42-100.14h0ZM1000.75,1102.91c33.98,49.45,67.72,97.09,140.6,105.09,71.57,7.86,112.66-9.88,130.82-37.72,15.74-24.12,15.73-57.08,4.12-87.67-12.12-31.97-36.58-60.51-69-73.92-41.91-17.33-98.85-8.92-162.95,50.39-15.91,14.72-30.23,29.46-43.59,43.83Z"/>
      <path class="cls-21" d="M953.16,1155.04c12.82-13.42,28.68-30.8,47.59-52.12,6.63-7.13,13.5-14.35,20.69-21.62,4.87-4.93,9.88-9.88,15.06-14.83l3.32-17.86,7.98-42.82-42.08,9.61-19.78,4.52c-4.7,4.54-9.25,9.05-13.66,13.51-4.38,4.43-8.62,8.82-12.76,13.16-17.15,20.34-34.39,39.13-51.74,56.37-38.34,41.33-74.88,74.13-137.89,88.59l17.8,6.62,40.45,15.06-30.17,31.43-14.07,14.66c78.17-16.77,122.39-54.42,167.22-102.16.67-.71,1.34-1.43,2.01-2.14,0,0,.01.02.02.03Z"/>
      <path class="cls-9" d="M1000.75,1102.91c-18.91,21.32-34.78,38.7-47.59,52.12,12.89,18.49,26.14,36.49,41.38,52.77l-4.82-24.45-8.35-42.35,42.57,9.25,14.94,3.25c-13.88-15.48-25.99-32.92-38.13-50.59h0ZM802.3,945.13c34.14,9.69,69.78,26.67,105.7,52.56,20.35,14.67,36.9,31.32,51.53,48.89-17.15,20.34-34.39,39.13-51.74,56.37,1.56-1.69,3.13-3.39,4.7-5.1-13.18-16.73-27.58-32.16-44.61-44.43-28.09-20.25-55.54-33.62-81.49-41.34-5.22-1.55-10.38-2.88-15.48-3.98l-14.76-15.43-27.92-29.17,38.21-14.16,21.36-7.91c4.8,1.09,9.63,2.32,14.49,3.7Z"/>
      <path class="cls-21" d="M602.8,1120.07l4.16-12.27c-.68-7.64-.19-15.15,1.37-22.39.32-1.47.68-2.94,1.08-4.39,3.46-12.53,10.03-24.41,19.17-34.89,10.8-12.38,25.12-22.84,42.16-30.28,27.59-12.05,61.98-16.06,100.19-7.75l-14.76-15.43-27.92-29.17,38.21-14.16,21.36-7.91c-54.22-12.29-104.1-6.26-144.56,11.41-26.49,11.57-49.05,28.17-66.39,48.05-17.94,20.57-30.34,44.6-35.86,70.24-1.98,9.18-3.09,18.54-3.27,27.97-.1,5.33.09,10.67.58,16.03l18.32,16.58,32.3,29.23,13.86-40.88Z"/>
      <path class="cls-9" d="M764.9,1262.86c6.56-1.05,12.89-2.24,19.02-3.55l44.24-46.09-40.45-15.06-17.8-6.62c-6.36,1.46-13,2.73-19.94,3.81-6.98,1.09-14.27,1.97-21.89,2.64-14.97,1.32-29.26,1.21-42.47-1.87-12.55-2.93-24.84-8.64-36.9-18.57-26.73-22-39.66-46.5-41.74-69.76l-4.16,12.27-13.86,40.88-32.3-29.23-18.32-16.58c3.71,40.01,24.45,80.63,66.76,115.46,21.11,17.38,42.74,27.4,64.9,32.57,21.49,5.02,42.69,5.38,64.02,3.49,10.84-.96,21.12-2.23,30.9-3.8Z"/>
      <path class="cls-21" d="M981.37,1141.01l8.35,42.35,4.82,24.45c3.49,3.72,7.07,7.35,10.79,10.88,30.75,29.23,69.99,51.27,128.76,57.72,43.46,4.77,79.77,1.72,109.57-7.1l-21.9-7.17-41.02-13.43,28.88-32.61,10.23-11.55c-20.5,5.36-46.44,6.97-78.49,3.45-36.98-4.06-63.89-18.33-85.86-37.85-5.86-5.21-11.37-10.79-16.62-16.65l-14.94-3.25-42.57-9.25Z"/>
      <path class="cls-9" d="M1209.62,1216.1l-28.88,32.61,41.02,13.43,21.9,7.17c5.56-1.65,10.9-3.49,16.01-5.53,31.57-12.57,54.63-32.3,70.13-56.05,28.43-43.56,29.78-99.43,10.85-149.33-11.06-29.15-29.16-56.54-52.89-78.33l1.75,20.63,3.64,43.01-41.29-13.88-19.14-6.43c19.8,15.08,34.87,36.27,43.57,59.23,11.61,30.59,11.62,63.55-4.12,87.67-6.77,10.38-16.74,19.35-30.27,26.12-6.51,3.25-13.85,6-22.06,8.14l-10.23,11.55Z"/>
      <path class="cls-9" d="M1251.87,1029.82l41.29,13.88-3.64-43.01-1.75-20.63c-4.73-4.35-9.69-8.47-14.86-12.34-12.05-9.03-25.26-16.68-39.49-22.56-64.48-26.66-148.01-17.51-235.65,63.58-4.05,3.75-7.99,7.48-11.82,11.17l61.86-14.13-7.98,42.82-3.32,17.86c2.57-2.46,5.18-4.92,7.84-7.38,64.1-59.3,121.05-67.71,162.95-50.39,2.69,1.11,5.33,2.34,7.92,3.65,6.18,3.15,12.02,6.86,17.51,11.03l19.14,6.43Z"/>
      <path class="cls-21" d="M505.48,1244.93h-41.44v9.54h41.44v-9.54h0ZM525.44,1270.36h-61.41v9.54h61.41v-9.54h0ZM564.31,1346.68h-13.15v9.54h13.15v-9.54h0ZM525.14,1346.68v9.54h22.69v-9.54h-22.69ZM516.98,1346.68h-52.94v9.54h52.94v-9.54h0ZM547.82,1321.24h-83.79v9.54h83.79v-9.54h0ZM551.15,1321.24v9.54h34.49v-9.54h-34.49ZM576.58,1295.8h-75.34v9.54h75.34v-9.54h0ZM566.28,1270.36v9.54h19.36v-9.54h-19.36ZM533.6,1270.36v9.54h30.25v-9.54h-30.25Z"/>
      <path class="cls-21" d="M521.64,885.2c27.34,0,49.49,22.16,49.49,49.5s-22.16,49.49-49.49,49.49-49.49-22.16-49.49-49.49,22.15-49.5,49.49-49.5Z"/>
      <path class="cls-2" d="M521.64,904.89c16.46,0,29.81,13.35,29.81,29.81s-13.35,29.81-29.81,29.81-29.8-13.34-29.8-29.81,13.34-29.81,29.8-29.81Z"/>
      <path class="cls-21" d="M1423.81,986.91h41.44v-9.54h-41.44v9.54h0ZM1403.84,961.48h61.41v-9.54h-61.41v9.54h0ZM1364.98,885.16h13.15v-9.54h-13.15v9.54h0ZM1404.15,885.16v-9.54h-22.69v9.54h22.69ZM1412.31,885.16h52.94v-9.54h-52.94v9.54h0ZM1381.46,910.6h83.79v-9.54h-83.79v9.54h0ZM1378.13,910.6v-9.54h-34.48v9.54h34.48ZM1352.7,936.04h75.34v-9.54h-75.34v9.54h0ZM1363.01,961.48v-9.54h-19.36v9.54h19.36ZM1395.68,961.48v-9.54h-30.25v9.54h30.25Z"/>
      <path class="cls-21" d="M1408.21,1278.79c27.34,0,49.49,22.16,49.49,49.49s-22.16,49.5-49.49,49.5-49.5-22.16-49.5-49.5,22.16-49.49,49.5-49.49Z"/>
      <path class="cls-2" d="M1408.21,1298.48c16.46,0,29.8,13.34,29.8,29.81s-13.34,29.81-29.8,29.81-29.81-13.35-29.81-29.81,13.34-29.81,29.81-29.81Z"/>
      <path class="cls-16" d="M536.36,1216.8s10.11-12.27,15.55-13.99c5.43-1.72,15.96-9.87,17.34-6.51,1.37,3.36-7.08,8.54-6.63,12.37.45,3.84,26.86,10,26.69,14.06-.16,4.06-6.21,13.87-16.29,12.75-10.07-1.13-35.62-7.19-40.86-4.57-5.24,2.62,4.2-14.1,4.2-14.1Z"/>
      <path class="cls-8" d="M264,1157.11c14.91,20.03,32.37,35.85,50.31,48.32,57.01,39.66,118.86,45.57,118.86,45.57,14.82-4.75,60.35-9.7,87.26-14.04h.01c11.73-1.88,19.91-3.66,20.46-5.23l-.68-23.44s-98.75-5.22-115.11-12.8c-25.79-22.22-48.57-51.06-63.41-73.6-12.54-19.03-26.57-33.09-49.71-41.34-33.46-11.93-94.29,14.36-48,76.55Z"/>
      <path class="cls-28" d="M309.28,1190.69l5.03,14.74c57.01,39.66,118.86,45.57,118.86,45.57,11.91,0,60.35-9.7,87.26-14.04-1.06.09-73.25,5.73-89.21,4.08-16.08-1.67-90.9-66.51-90.9-66.51l-31.04,16.15Z"/>
      <path class="cls-14" d="M373.74,1933.35h-109.13c-7.82-5.3,2.11-57.15,2.11-57.15,0,0,29.78-11.29,34.93,11.68,5.16,22.97,37.94,30.27,55.29,33.07,11.87,1.94,15.62,8.45,16.81,12.39Z"/>
      <path class="cls-14" d="M211.89,1933.35h-109.13c-7.82-5.3,2.11-57.15,2.11-57.15,0,0,29.78-11.29,34.93,11.68,5.16,22.97,37.94,30.27,55.28,33.07,11.87,1.94,15.62,8.45,16.81,12.39Z"/>
      <path class="cls-12" d="M344.38,1404.48s-4.91,61.19-10.67,134.76c-7.83,99.93-28.97,347.7-28.97,347.7,0,0-13.86,11.82-44.54,5.36,0,0-26.13-85.48-33.94-183.04-.12-1.6-.24-3.2-.36-4.82-7.27-99.31-18.57-308.44-18.57-308.44l137.06,8.48Z"/>
      <path class="cls-17" d="M346.06,1383.33s-6.58,82.35-12.34,155.92l-107.45,170.02c-.12-1.6-.24-3.2-.36-4.82-7.27-99.31-18.57-308.44-18.57-308.44l138.73-12.68Z"/>
      <path class="cls-12" d="M314.74,1383.33s-77.93,193.99-102.85,267.53c-17.75,52.38-67.79,236.13-67.79,236.13,0,0-21.76,6.62-40.05-6.18,0,0-18.62-187.73,18.99-240.67,19.96-28.08,4.96-291.93,85.87-294.19,80.91-2.26,105.84,37.38,105.84,37.38Z"/>
      <path class="cls-16" d="M279.93,1097.36c-11.9,6.26-23.51,6.66-33.57,4.52-9.21-1.94-17.11-6-22.75-9.6-5.78-3.69-9.17-6.91-9.17-6.91,0,0,.4-.58,1.08-1.73,3.52-6.01,14.17-27.63,9.43-62.35-.06-.46,3.37.19,8.57,1.42,15.47,3.66,46.55,12.48,47.93,12.87h.06s.38,7.3,1.66,20.4c.1,1.15.22,2.36.35,3.61.16,1.53.32,3.17.51,4.84,1.44,13.61-4.09,32.94-4.09,32.94Z"/>
      <path class="cls-1" d="M283.16,1055.97c-23.08,5.29-57.54-28.79-57.54-28.79,2.52-1.87,5.17-3.35,7.89-4.48,15.47,3.66,46.55,12.48,47.93,12.87h.06s.38,7.3,1.66,20.4Z"/>
      <path class="cls-16" d="M290.25,1037.99s-9.82,3.53-22.33,5.21c-18.31,2.47-42.37,1.01-49.93-21.13-12.73-37.27-29-59.62,8.47-74.84,20.06-8.15,32.9-8.58,41.61-5.47,7.57,2.68,12.04,8.05,15.42,13.35,7.28,11.41,21.92,76.36,6.76,82.88Z"/>
      <path class="cls-14" d="M251.94,962.47c-9.32,4.14-10.99,19.77-11.16,24.73-.17,4.97-.82,9.16-13.48,6.19-2.07-.48-3.56-.34-4.59.28-5.25,3.11,1.46,18.21,3.49,21.48,0,0,2.91,10.82-3.55,16.08-.78.63-13.48,6.18-44.07-40.64-4.81-7.35-9.4-24.74-1.98-40.68-11.91-42.36,113.2-58.1,129.29-29.22,29.13,52.38-66.31,38.06-53.94,41.78Z"/>
      <path class="cls-8" d="M356.57,1350.66c-1.69,22.23-6.38,38.16-16.68,38.16,0,0-45.79,16.11-100.51,16.54-10.7.08-25.84-2-38.41-4.11-12.83-2.17-22.99-4.36-22.99-4.36-11-2.54-23.15-9.34-21.52-21.88.92-7.1,1.56-16.36,2.01-27.1,1.2-29.07,1-69.11,1.16-107.43.1-23.54.34-46.43,1.12-65.73,0,0-10.8-75.83,1.2-88.28,14.05-14.55,55.31-19.03,57.89-18.47.78-.16,1.55-.35,2.35-.49,0,0,35.14,19.8,61.24,5.15,0,0,.25.05.74.11,6.36,1.01,38.09,8.34,49.05,19.92,3.78,3.98,18.87,28.47,19.28,55.36.58,37.48-.89,80.06-.89,80.07.39,6.09,1.04,13.93,1.76,22.89.77,9.55,1.61,20.33,2.33,31.58.35,5.66.69,11.44.96,17.23.81,17.84,1.06,35.8-.08,50.85Z"/>
      <path class="cls-28" d="M220.02,1068.04s38.88,40.11,66.68,31.89c0,0,3.7-5.42-8.82-7.15-12.52-1.74-26.04-1.02-57.87-24.74Z"/>
      <path class="cls-28" d="M195.36,1208.99s.08,108.47-36.89,138.92c1.2-29.07,1-69.11,1.16-107.43l35.73-31.49Z"/>
      <path class="cls-16" d="M81.71,1412.04s-18.83,29.55-19.88,40.86c-.72,7.69,1.01,38.01,4.85,38.11,5.42.15,10.84-18.71,12.93-23.6,2.1-4.9,4.55-8.74,6.64-8.74s-4.54,18.88,0,16.78c4.55-2.1,12.24-19.57,12.94-23.77.7-4.21-4.1-17.64-1.76-22.94,2.34-5.29-15.72-16.71-15.72-16.71Z"/>
      <path class="cls-8" d="M165.54,1082.36s-25.44,12.02-46.77,100.96c-16.08,67.06-46.85,238.28-46.85,238.28l26.03,10.71s95.32-218.84,108.95-249.62c13.63-30.77-41.37-100.34-41.37-100.34Z"/>
      <path class="cls-14" d="M278.77,939.7c11.55,3.68,16.4,9.63,14.55,17.85-13.85,10.77-28.53,14.65-44.02,11.64,8.39-2.5,18.21-12.34,29.46-29.5Z"/>
      <path class="cls-14" d="M181.26,958.93c2.62-5.38,2.14-9.15-1.43-11.28-8.57,1.29-14.95,5.22-19.15,11.79,3.75-2.15,10.61-2.32,20.58-.51Z"/>
      <path class="cls-14" d="M194.31,957.18c-1.46,7.98-5,11.71-10.62,11.18-8.32-8.28-12.15-17.69-11.47-28.23,2.37,5.36,9.74,11.04,22.09,17.05Z"/>
      <path class="cls-6" d="M274.83,981.6c3.34-2.32,6.19-4.69,9.72-7.01,5.14-3.37,7.67.09,11.73-.58-.99-.28-.92-.58-2.13-1.23-6.52-3.49-10.8-1.23-16.23,3.01-3.02,2.36-3.86,1.7-3.09,5.8Z"/>
      <path class="cls-2" d="M284.72,977.89c1.96-.49,3.94.71,4.42,2.67.49,1.96-.71,3.93-2.67,4.42-1.95.48-3.93-.71-4.42-2.67-.48-1.96.71-3.93,2.67-4.42Z"/>
      <path class="cls-6" d="M286.48,984.98c1.96-.49,3.16-2.47,2.67-4.42-.48-1.96-2.46-3.16-4.42-2.67-.82.2-1.5.67-1.99,1.28l.26-.1c.63-.16,1.27.23,1.44.86.16.63-.23,1.28-.87,1.43-.63.16-1.27-.23-1.43-.87l-.02-.13c-.19.61-.22,1.27-.06,1.94.49,1.96,2.46,3.15,4.42,2.67Z"/>
      <path class="cls-6" d="M259.6,985.36c-4.04-.5-7.66-1.26-11.87-1.67-6.12-.59-6.74,3.65-10.64,4.95.74-.71.54-.95,1.31-2.08,4.14-6.13,8.99-6.12,15.76-4.9,3.78.68,4.21-.29,5.44,3.69Z"/>
      <path class="cls-2" d="M249.11,986.69c-1.95.48-3.15,2.46-2.67,4.42.49,1.96,2.46,3.15,4.42,2.67,1.96-.49,3.15-2.46,2.67-4.42-.48-1.96-2.46-3.15-4.42-2.67Z"/>
      <path class="cls-6" d="M250.86,993.78c-1.96.48-3.94-.71-4.42-2.67-.48-1.96.71-3.94,2.67-4.42.82-.2,1.64-.11,2.36.21l-.28.03c-.63.16-1.02.8-.86,1.43.16.63.8,1.02,1.43.86.63-.16,1.02-.8.86-1.43l-.04-.13c.45.45.78,1.03.95,1.69.48,1.96-.71,3.94-2.67,4.42Z"/>
      <path class="cls-21" d="M270.87,990.15c-.23-.33-.14-.8.2-1.02.33-.23.8-.14,1.02.2,2.66,3.94,4.6,7.08,5.8,9.39,1.29,2.49,1.75,4.18,1.38,5.06l-.07.12c-.53.8-1.14,1.44-1.82,1.9-.69.47-1.47.78-2.31.91-.4.06-.78-.22-.84-.62-.06-.4.21-.78.61-.84.62-.09,1.19-.33,1.7-.67.5-.34.97-.83,1.37-1.42.14-.49-.31-1.75-1.35-3.77-1.17-2.26-3.09-5.35-5.71-9.23Z"/>
      <path class="cls-2" d="M287.95,1015.82c-5.92,7.86-12.92,8.98-21,3.38,9.13-.66,16.18-2.17,21-3.38Z"/>
      <path class="cls-14" d="M1833.5,1131.48c14.61-21.4-16.98-26.89-16.67-50.3.21-16.14-9.89-32.96-6.86-49.05,6.19-32.93-6.66-42.92-6.74-45.43-.77-24.96-15.7-25.59-30.56-34.01-26.37-14.94-49.3,3.33-56.78,3.82-38.11,2.49-17,18.87-34.07,33.64-14.06,12.16-7.41,21.38-5.96,28.69.65,3.29,3.71,16.85-6.02,23.71-14.26,10.05.35,36.9-8.07,39.45-32.39,9.82-19.35,13.85-18.47,36.49.28,7.24,7.26,12.73,11.82,18.05,55.77-17.46,94.14,51.94,178.38-5.06Z"/>
      <path class="cls-2" d="M1783.87,1101.43c-1.65-3.84-6.05-6.22-7.54-7.43-16.15,8.73-33.26,14.12-51.2,14.26.65,10.26,2.16,21.04,4.21,32.57,29.66-23.07,47.84-36.2,54.53-39.4Z"/>
      <path class="cls-2" d="M1712.39,1100.12c-4.37,9.21-7.32,17.82-8.87,25.83,4.69-8.47,9.96-13.65,21.62-17.7-3.72-3.91-3.42-9-4.92-13.09-4.19,2.58-6.8,4.23-7.83,4.96Z"/>
      <path class="cls-9" d="M1699.7,1100.21c-44.82,113.92-7.03,105.08,90.04,2.47,5.69,1.35,10.9,3.02,15.63,5-12.61,11.65-17.32,31.14-14.13,58.46,1.9,21.16,4,41.72,6.29,61.7-5.53,12.48-8.36,25.23-8.84,38.99-.42,12.02.95,24.81,3.87,38.84,4.58,22,12.98,47.06,24.26,77.02-67.96,23.15-126.14,23.41-174.53.79,28.06-61.69,24.33-80.82,21.14-122.1-3.18-67-44.01-45.95,23.87-158.63,4.65-1.45,8.71-2.18,12.4-2.54Z"/>
      <path class="cls-15" d="M1725.14,1108.26c.65,10.26,2.16,21.04,4.21,32.57,29.66-23.07,47.84-36.2,54.53-39.4,2.01.38,3.96.79,5.86,1.25-97.07,102.61-134.86,111.45-90.04-2.47,4.66-.44,8.75-.26,12.69-.08-4.37,9.21-7.32,17.82-8.87,25.83,4.69-8.47,9.96-13.65,21.62-17.7Z"/>
      <path class="cls-20" d="M1639.01,1231.64c5.34-5.02,9.86-10.91,13.56-17.66,2.17,6.07,4.81,12.52,6.96,20.77l-20.51-3.11Z"/>
      <path class="cls-15" d="M1687.3,1102.74c-15.93,26.45-25.88,45.53-31.72,60.11-5.76-45.22,2.49-55.41,31.72-60.11Z"/>
      <path class="cls-12" d="M1806.08,1386.18c16.05,33.1,20.57,105.05,13.55,215.85-88.12,11.92-151.6,10.71-190.45-3.65,3.15-101.18,10.29-171.61,21.4-211.29,44.08,17.84,95.91,17.54,155.5-.91Z"/>
      <path class="cls-16" d="M1776.34,1094c-16.15,8.73-33.26,14.12-51.2,14.26-3.27-3.44-3.44-7.8-4.45-11.58-.05-.21-.12-.42-.18-.63,2.74-3.74,4.6-6.57,2.94-13.11-.03-.1-.06-.2-.08-.3-19.43-6.53-31.5-39.21-23.61-58.43-.39-6.43-1.01-13.09-1.85-20,28.78,8.36,46.87,7.9,67.95-6.93,3.69,9.59,5.53,15.06,3.34,25.19-.49,3.5-2.28,10.97,2.4,11.66,2.17-12.16,6.59-18.88,14.79-15.97,7.31,11.71,2.95,26.45-14.61,29.49-5.16,10.66-7.39,17.94-6.67,21.86-.56,6.64,5.26,15.58,9.63,22.12.56.83,1.09,1.63,1.58,2.37Z"/>
      <path class="cls-1" d="M1723.27,1082.25c11.77,1.33,17.11,1.25,27.99-3.09-6.37,6.88-16.3,10.98-27.71,11.65.61-2.87.5-5.65-.28-8.56Z"/>
      <path class="cls-16" d="M1642.43,1700.73c-2.27-31.21-3.62-64.33-4.04-99.33,19.38,5.63,43.87,8.55,73.45,8.73-7.1,29.98-17.88,62.78-23.49,95.14,29.84,80.92-11.24,147.78-5.42,200.7-8.13,12.97-21.62,42.28-41.98,53.04-6.79-1.76-1.7-7.94-3.97-11.46,10.5-10.92,17.07-28.02,19.71-51.31,2.42-55.36-2.34-120.52-14.27-195.5Z"/>
      <path class="cls-16" d="M1753.37,1689.15c-6.15-25.61-17.3-51.38-25.42-79.18,21.73-.54,45.91-2.38,72.52-5.52-.43,26.26-.77,53.67-1,82.21,41.78,73.88,13.8,160.19,24.96,197.33-8.14,19.3-10.31,43.49-28.41,57.71-6.67-.52-3.21-7.04-5.72-10.1,5.69-12.82,8.8-29.01,9.33-48.56-6.42-55.72-21.84-120.34-46.25-193.88Z"/>
      <path class="cls-14" d="M1630.39,1945.08c14.31.75,1.25,11.5,10.57,13.92,20.37-10.76,31.65-40.1,39.78-53.06,4.28-6.82,7.38,1.86,9.49,11.56,3.36,15.46-.88,10.06-2.78,22.41-.47,3.08,3.51,19.65,4.16,28.85.26,3.63-1.73,5.04-2.1,5.67-3.73-6.27-6.92-25.58-10.32-37.37-19.99,17.18-15.62,36.12-27.48,42.57-28.43,3.04-43.81,3.8-65.4,4.25-4.74-17.73,32.81-11.75,44.09-38.81Z"/>
      <path class="cls-14" d="M1783.39,1930.2c13.81-1.73,3.29,10.77,12.63,11.5,17.49-13.75,22.91-43.7,28.31-57.46,2.84-7.24,7.39.52,11.17,9.43,6.03,14.2.99,9.76,1.43,21.88.11,3.03,6.94,18.17,9.24,26.85.91,3.42-.73,5.11-.97,5.77-4.7-5.36-11.28-23.25-16.68-33.93-15.96,19.82-8.32,37.16-18.47,45.35-26.6,7.75-41.15,11.09-61.69,15.21-7.77-16.13,29.19-16.81,35.02-44.58Z"/>
      <path class="cls-14" d="M1739.87,1033.85c2.66.33,5.98-9.94-.5-10.74-3.47-.42-3.86,10.18.5,10.74Z"/>
      <path class="cls-14" d="M1706.19,1030.35c-2.67-.33-3.55-11.09,2.94-10.3,3.46.42,1.45,10.85-2.94,10.3Z"/>
      <path class="cls-14" d="M1738.19,1013.52c-4.32-.37-4.61,3.2-1.58,4.54.88.4,17.92,5.97,17.28,4.81-1.22-2.42-7.51-8.64-15.69-9.35Z"/>
      <path class="cls-14" d="M1714.32,1010.18c4.32.49,3.95,4.05.72,4.76-1.52.33-18.89,2.45-17.68,1.08,2.01-2.23,9.08-6.75,16.95-5.85Z"/>
      <path class="cls-1" d="M1714.04,1048.75c9.62,2.73,8.48-1.7,5.77-1.17-9,1.76-.38-3.44-1.88-19.04-.18-1.63-2.01-1.44-2.05-.07-.02.95.28,4.39.18,5.4-1.18,12.46-5.11,13.99-2.02,14.88Z"/>
      <path class="cls-2" d="M1711.63,1055.83c12.54,24.02,26.06,2.47,22.34,1.83-18.96-3.22-23.88-4.76-22.34-1.83Z"/>
      <path class="cls-19" d="M1551.01,1198.98h126.28c2.49,0,5.06,2.04,5.71,4.52l22.47,85.56c.65,2.49-.85,4.52-3.34,4.52h-126.29c-2.49,0-5.06-2.04-5.71-4.52l-22.46-85.56c-.65-2.49.85-4.52,3.33-4.52Z"/>
      <path class="cls-8" d="M1700.96,1259.53l-15.25-58.08c-.65-2.49-3.22-4.52-5.71-4.52h-126.28c-2.49,0-6.92,3.21-6.18,5.68-.12-2.06,1.31-3.62,3.48-3.62h126.28c2.49,0,5.06,2.04,5.71,4.52l22.47,85.56c.39,1.49,0,2.82-.9,3.65,2.08-1.34,4.06-3.94,3.6-5.7l-7.22-27.48Z"/>
      <path class="cls-8" d="M1702.14,1293.59h-126.29c-.46,0-.93-.07-1.38-.2,2.51,6.51,9.34,5.55,12.01,5.53h149.73c8.11-.34,7.9-6.03,8.01-11.52h-35.97c.12,1.74-1.73,4.07-3.66,5.31-.61.55-1.44.88-2.44.88Z"/>
      <path class="cls-8" d="M1684.46,1234.17c-69.54,35.17-69.41-1.58-117.61,17.28l9.39,35.77h122.15l-13.93-53.05Z"/>
      <path class="cls-15" d="M1750.53,1267.89c18.45.05,35.68-.64,51.66-2.08-4.17-31.62-7.82-64.84-10.96-99.67-3.19-27.32,1.52-46.8,14.13-58.46,16.79,7.05,27.47,18.1,32.03,33.15,9.92,32.01,8.71,151.24-2.08,162.02-13.63,5.97-42.41,4.75-86.36-3.66,3.04-8.95,3.57-19.39,1.58-31.3Z"/>
      <path class="cls-16" d="M1739.39,1272.33c2.5.29,6.46.54,11.86.75.86,7.87.52,15.04-.99,21.52-4.7-.87-10.67-2.12-17.91-3.75-12.85,3.3-28.33,3.12-46.44-.52-12.58-4.84-16.41-13.71-11.48-26.61,19.69,2.3,31.47,1.56,35.36-2.22-6.89-3.5-9.32-7.55-7.31-12.13,19.35,7.09,31.66,14.74,36.92,22.96Z"/>
      <path class="cls-8" d="M931.84,1622.24c56.01,103.78,17.28,233.31-86.5,289.31-103.77,56.01-233.31,17.28-289.31-86.5-56.01-103.77-17.28-233.31,86.49-289.31,103.78-56.01,233.31-17.28,289.32,86.49Z"/>
      <path class="cls-4" d="M832.02,1896.55c-.43.22-.87.43-1.3.65-.95.47-1.9.95-2.86,1.4-.48.24-.97.46-1.45.69-.94.44-1.88.88-2.82,1.3-.46.21-.93.42-1.4.63-1.12.49-2.24.97-3.36,1.44-.27.11-.54.23-.81.35-1.39.58-2.78,1.13-4.18,1.67-.38.15-.76.29-1.14.43-1.03.39-2.06.78-3.09,1.15-.49.18-.98.35-1.47.52-.96.34-1.91.66-2.87.98-.49.16-.97.32-1.46.48-1.06.34-2.11.68-3.17,1-.36.11-.73.23-1.09.34-1.43.43-2.86.84-4.29,1.24-.24.06-.49.12-.72.19-1.2.32-2.39.64-3.58.94-.45.11-.9.22-1.34.33-1.01.25-2.03.49-3.04.71-.47.11-.94.21-1.41.31-1.06.23-2.12.45-3.18.66-.39.08-.78.16-1.16.23-2.9.57-5.81,1.06-8.73,1.49-.39.06-.78.11-1.18.16-1.07.15-2.14.29-3.21.43-.46.06-.91.11-1.37.16-1.05.12-2.11.23-3.16.34-.42.04-.83.09-1.25.12-1.31.12-2.61.23-3.92.33l-.42.03c-1.49.11-2.97.19-4.45.26-.28.02-.57.02-.85.04-1.18.05-2.36.09-3.54.12-.41.01-.82.02-1.23.03-1.09.02-2.17.03-3.26.03-.4,0-.8,0-1.2,0-1.2,0-2.41-.02-3.61-.06-.25,0-.51,0-.76-.01-1.5-.04-3-.1-4.5-.18h-.11c-1.41-.08-2.82-.17-4.23-.27-.34-.03-.69-.06-1.03-.08-1.12-.09-2.24-.19-3.36-.29l-1.17-.12c-1.15-.12-2.29-.25-3.43-.38-.3-.04-.61-.07-.91-.11-2.93-.36-5.83-.8-8.74-1.29-.29-.05-.57-.11-.86-.16-1.15-.2-2.29-.41-3.43-.63-.38-.07-.76-.15-1.14-.22-1.1-.22-2.2-.45-3.31-.7-.33-.07-.66-.14-.99-.22-1.38-.31-2.76-.63-4.13-.97l-.06-.02c-1.47-.36-2.94-.75-4.4-1.14-.15-.04-.3-.09-.46-.13-1.24-.34-2.47-.7-3.71-1.06-.34-.1-.67-.2-1.01-.3-1.09-.33-2.17-.67-3.25-1.02-.33-.11-.67-.22-1-.32-1.21-.39-2.41-.8-3.61-1.22l-.51-.18c-2.79-.98-5.56-2.03-8.3-3.14-.29-.12-.59-.24-.88-.36-1.06-.44-2.12-.88-3.18-1.34-.34-.14-.68-.29-1.02-.44-1.07-.47-2.14-.95-3.19-1.44-.27-.12-.54-.24-.8-.37-2.67-1.24-5.32-2.54-7.94-3.91-.25-.13-.5-.26-.75-.39-1.04-.55-2.07-1.11-3.1-1.67-.34-.18-.67-.37-1.01-.56-.98-.54-1.95-1.1-2.92-1.67-.3-.18-.61-.35-.92-.53-1.18-.7-2.36-1.4-3.52-2.12l-.2-.12c-1.27-.79-2.54-1.6-3.8-2.42-.19-.12-.38-.25-.57-.38-1.03-.68-2.05-1.36-3.06-2.05-.33-.22-.66-.45-.98-.68-.9-.62-1.78-1.24-2.67-1.88-.33-.24-.66-.48-.99-.72-.98-.72-1.95-1.44-2.92-2.17-.19-.14-.39-.29-.59-.44-1.2-.91-2.38-1.84-3.56-2.78l-.22-.18c-1.06-.86-2.12-1.72-3.16-2.6-.31-.26-.61-.51-.91-.77-.82-.7-1.65-1.41-2.46-2.13-.33-.29-.66-.58-.99-.88-.82-.74-1.64-1.48-2.46-2.23-.28-.26-.55-.51-.83-.77-1.09-1.02-2.17-2.05-3.24-3.09h0c-13.63-13.34-25.52-28.94-35.05-46.61-26.41-48.93-29.63-104.15-13.47-153.08h0c.36-1.1.73-2.18,1.11-3.26l.16-.45c.46-1.31.94-2.62,1.43-3.91l.16-.44c.5-1.32,1.02-2.63,1.55-3.94l.14-.34c.55-1.35,1.11-2.69,1.69-4.03l.09-.22c.59-1.37,1.2-2.73,1.83-4.09l.06-.14c.65-1.39,1.31-2.77,1.98-4.14l.05-.09c.66-1.35,1.34-2.69,2.04-4.02l.13-.23c.67-1.28,1.36-2.56,2.06-3.82l.2-.37c.68-1.23,1.38-2.45,2.09-3.66l.25-.43c.7-1.19,1.42-2.38,2.15-3.56l.28-.45c.73-1.17,1.47-2.33,2.22-3.49l.3-.46c.75-1.15,1.52-2.3,2.3-3.43l.31-.45c.78-1.13,1.58-2.26,2.38-3.38l.33-.45c.82-1.13,1.65-2.25,2.49-3.35l.29-.39c.86-1.12,1.73-2.24,2.61-3.34l.28-.35c.9-1.12,1.81-2.23,2.74-3.33l.24-.29c.96-1.14,1.93-2.26,2.92-3.38l.14-.15c1.03-1.16,2.08-2.32,3.14-3.46l.02-.02c1.07-1.15,2.15-2.28,3.25-3.41l.11-.11c1.07-1.09,2.15-2.17,3.25-3.23l.19-.19c1.07-1.04,2.15-2.06,3.24-3.07l.29-.27c1.07-.99,2.15-1.96,3.24-2.92l.37-.32c1.08-.94,2.16-1.87,3.25-2.79l.42-.36c1.09-.91,2.19-1.81,3.3-2.69l.44-.35c1.12-.88,2.24-1.76,3.39-2.62l.46-.34c1.14-.86,2.29-1.7,3.45-2.54l.47-.34c1.17-.84,2.36-1.67,3.56-2.48l.42-.29c1.22-.82,2.46-1.64,3.7-2.44l.38-.24c1.28-.82,2.58-1.63,3.88-2.42l.28-.17c1.34-.82,2.7-1.61,4.07-2.4l.18-.11c1.43-.82,2.87-1.62,4.33-2.4,1.46-.79,2.92-1.55,4.38-2.3l.18-.09c1.41-.72,2.82-1.41,4.24-2.09l.29-.14c1.38-.66,2.76-1.29,4.16-1.92l.41-.18c1.36-.6,2.71-1.18,4.08-1.75l.47-.2c1.34-.56,2.69-1.1,4.03-1.62l.54-.21c1.34-.52,2.67-1.01,4.02-1.49l.54-.2c1.35-.48,2.7-.94,4.05-1.39l.53-.18c1.36-.44,2.71-.87,4.07-1.28l.53-.16c1.37-.42,2.74-.81,4.12-1.19l.47-.13c1.4-.38,2.81-.75,4.22-1.1l.38-.1c1.45-.36,2.9-.7,4.35-1.02l.26-.06c1.49-.33,2.99-.64,4.48-.94l.16-.03c1.54-.3,3.09-.59,4.64-.85h.02c1.54-.27,3.08-.51,4.62-.73l.2-.03c1.48-.22,2.95-.41,4.43-.59l.38-.04c1.43-.17,2.86-.32,4.29-.46l.45-.04c1.41-.13,2.82-.25,4.22-.35l.49-.03c1.39-.1,2.78-.18,4.17-.25l.56-.02c1.38-.06,2.76-.1,4.13-.14h.54c1.38-.04,2.75-.06,4.13-.05h.55c1.38,0,2.76.03,4.14.06h.53c1.38.05,2.77.11,4.15.18l.5.02c1.4.07,2.81.16,4.21.27l.42.03c1.44.11,2.89.24,4.33.38l.26.03c1.49.15,2.99.32,4.48.5h.1c1.52.2,3.04.41,4.55.63l.15.02c1.48.22,2.95.46,4.42.71l.23.04c1.44.25,2.87.52,4.29.8l.36.07c1.38.27,2.77.56,4.15.87l.46.11c1.35.3,2.71.62,4.06.95l.46.11c1.11.28,2.22.56,3.33.86h0c49.77,13.35,94.16,46.36,120.57,95.29,9.54,17.67,16.05,36.16,19.72,54.88h0c.29,1.47.56,2.94.81,4.41.06.37.12.74.18,1.11.18,1.09.35,2.18.52,3.28.07.43.13.87.19,1.31.15,1.07.29,2.15.43,3.23.05.39.1.79.14,1.18.16,1.36.31,2.72.44,4.08l.03.27c.14,1.5.26,3,.37,4.5.02.25.03.49.04.74.08,1.21.16,2.42.22,3.63.02.41.03.81.05,1.22.05,1.09.08,2.17.11,3.26.01.4.02.8.03,1.19.02,1.23.03,2.46.03,3.69,0,.23,0,.45,0,.68,0,1.5-.02,3-.07,4.5v.23c-.05,1.37-.1,2.74-.17,4.11-.02.35-.04.71-.06,1.06-.06,1.12-.13,2.24-.21,3.36-.03.39-.06.77-.09,1.16-.09,1.17-.2,2.34-.31,3.51-.03.28-.05.56-.08.84-.3,2.94-.66,5.86-1.09,8.78-.04.29-.09.58-.13.87-.18,1.15-.36,2.31-.55,3.46-.06.37-.13.73-.19,1.1-.2,1.13-.41,2.26-.63,3.39-.06.31-.12.62-.18.94-.58,2.9-1.22,5.79-1.93,8.66-.04.17-.09.35-.13.52-.3,1.23-.62,2.46-.96,3.68-.09.34-.18.68-.28,1.02-.31,1.09-.62,2.18-.94,3.27-.1.34-.2.68-.3,1.01-.37,1.23-.75,2.46-1.15,3.68-.05.15-.09.3-.14.45-.47,1.44-.95,2.88-1.46,4.31l-.02.06c-.47,1.34-.96,2.67-1.46,3.99-.12.32-.24.63-.36.95-.4,1.05-.81,2.1-1.24,3.15-.14.36-.29.72-.43,1.07-.44,1.08-.89,2.15-1.35,3.21-.12.27-.23.54-.34.81-1.18,2.7-2.41,5.37-3.71,8.01-.14.27-.27.54-.41.82-.51,1.03-1.03,2.06-1.56,3.08l-.55,1.05c-.52.99-1.06,1.98-1.6,2.97-.16.3-.33.61-.5.91-.69,1.23-1.38,2.46-2.1,3.68l-.06.09c-.76,1.29-1.53,2.58-2.32,3.86-.13.22-.27.43-.4.64-.64,1.02-1.28,2.03-1.94,3.04-.22.34-.44.67-.66,1-.6.91-1.2,1.81-1.81,2.71-.23.34-.46.68-.7,1.02-.67.97-1.35,1.93-2.04,2.89-.16.23-.33.46-.5.7-.87,1.2-1.76,2.39-2.66,3.58l-.26.34c-.8,1.04-1.6,2.07-2.42,3.1-.26.32-.52.65-.79.97-.66.82-1.34,1.64-2.02,2.46-.29.35-.59.7-.89,1.06-.7.82-1.4,1.64-2.12,2.45-.26.3-.52.6-.78.89-1.95,2.2-3.97,4.36-6.03,6.48-.28.28-.56.56-.84.84-.76.77-1.53,1.53-2.3,2.3-.34.33-.69.67-1.03,1-.75.72-1.5,1.44-2.27,2.15-.34.32-.67.63-1.01.94-.91.84-1.82,1.66-2.75,2.48-.18.16-.37.33-.56.5-1.11.98-2.24,1.95-3.38,2.9-.29.25-.59.48-.88.73-.85.71-1.71,1.41-2.58,2.1-.4.32-.8.63-1.2.95-.79.62-1.59,1.24-2.4,1.86-.41.32-.82.63-1.24.94-.88.66-1.76,1.31-2.65,1.95-.33.24-.66.48-.99.72-1.22.87-2.45,1.73-3.69,2.58-.24.16-.49.32-.74.49-1.01.68-2.03,1.35-3.05,2.02-.43.27-.86.55-1.29.82-.87.55-1.75,1.1-2.63,1.64-.46.28-.92.56-1.37.84-.91.54-1.83,1.08-2.74,1.62-.42.24-.84.49-1.26.73-1.33.75-2.67,1.5-4.02,2.23-1.35.73-2.71,1.44-4.07,2.13h0ZM846.74,1582.91c-.27-.2-.53-.39-.8-.58-2.06-1.49-4.16-2.93-6.27-4.32-.28-.19-.57-.37-.85-.55-.83-.54-1.67-1.07-2.51-1.6-.26-.16-.52-.33-.78-.49-1.07-.66-2.14-1.31-3.22-1.94-.18-.11-.38-.22-.56-.32-.9-.53-1.81-1.04-2.72-1.55-.33-.18-.65-.36-.98-.54-.9-.49-1.79-.97-2.69-1.45-.22-.12-.45-.23-.67-.35-1.09-.57-2.19-1.13-3.3-1.67-.3-.15-.6-.29-.9-.44-.85-.42-1.71-.82-2.56-1.23-.34-.16-.68-.32-1.02-.47-1.12-.52-2.24-1.02-3.37-1.51l-.3-.13c-1.04-.45-2.08-.88-3.12-1.31-.38-.16-.76-.31-1.14-.46-.83-.33-1.65-.66-2.48-.97-.36-.14-.72-.28-1.07-.41-1.12-.42-2.24-.83-3.37-1.23-.32-.11-.64-.22-.97-.33-.86-.3-1.72-.59-2.58-.87-.42-.14-.84-.28-1.26-.41-.89-.29-1.78-.56-2.68-.84-.3-.09-.59-.18-.89-.27-1.14-.34-2.28-.66-3.43-.98-.4-.11-.8-.21-1.2-.32-.82-.22-1.65-.43-2.47-.65-.42-.1-.85-.21-1.27-.32-1.15-.28-2.31-.56-3.47-.81-.23-.06-.47-.1-.71-.15-.98-.22-1.96-.42-2.94-.62-.43-.09-.87-.17-1.31-.26-.84-.16-1.68-.32-2.53-.47-.4-.07-.79-.14-1.19-.21-1.16-.2-2.33-.39-3.49-.56-.39-.06-.78-.11-1.17-.16-.85-.12-1.7-.24-2.54-.35-.46-.06-.92-.12-1.38-.17-.94-.11-1.88-.22-2.83-.32-.29-.03-.58-.06-.86-.09-1.19-.12-2.38-.22-3.57-.31-.43-.03-.85-.06-1.27-.09-.85-.06-1.7-.12-2.56-.16-.43-.02-.86-.05-1.29-.07-1.2-.06-2.4-.1-3.6-.14-.25,0-.51,0-.76-.02-.98-.02-1.97-.04-2.96-.04-.45,0-.9,0-1.36,0-.89,0-1.78,0-2.67.02-.37,0-.74,0-1.1.02-1.21.03-2.41.07-3.62.13-.37.02-.75.03-1.12.05-.9.05-1.81.1-2.71.16-.42.03-.84.05-1.27.09-1.04.08-2.09.16-3.14.26-.22.02-.43.03-.64.06-1.22.11-2.43.25-3.64.39-.42.05-.82.1-1.24.15-.89.11-1.78.23-2.68.35-.4.05-.79.11-1.18.17-1.22.18-2.43.37-3.65.58-.26.04-.53.09-.79.14-1,.17-1.99.36-2.99.55-.42.08-.83.16-1.24.24-.95.19-1.9.39-2.85.59-.31.07-.62.13-.93.2-1.22.27-2.45.56-3.66.86-.33.08-.66.17-.98.25-.95.24-1.89.49-2.84.74-.38.1-.76.21-1.15.31-1.13.31-2.25.63-3.37.97-.12.03-.23.07-.35.1-1.22.37-2.44.75-3.66,1.15-.37.12-.74.24-1.1.37-.93.31-1.86.63-2.78.95-.34.12-.68.24-1.02.36-1.21.43-2.42.88-3.62,1.34-.23.09-.45.18-.68.27-1.01.39-2.02.8-3.03,1.21-.36.15-.71.3-1.07.45-1,.42-2.01.85-3.01,1.29-.23.1-.45.2-.68.3-1.2.54-2.4,1.09-3.59,1.65-.31.15-.62.3-.94.45-.93.45-1.85.9-2.77,1.36-.34.17-.68.34-1.01.51-1.2.61-2.39,1.23-3.58,1.87-1.19.64-2.36,1.3-3.53,1.96-.33.19-.66.38-.99.57-.89.52-1.77,1.04-2.65,1.57-.3.18-.6.36-.89.54-1.13.69-2.24,1.38-3.35,2.09-.21.13-.41.27-.62.41-.92.59-1.83,1.19-2.73,1.8-.32.21-.64.43-.96.65-.9.61-1.8,1.24-2.68,1.86-.2.14-.4.28-.59.42-1.05.75-2.09,1.52-3.12,2.29-.29.22-.58.43-.86.65-.78.6-1.56,1.2-2.33,1.8-.3.24-.61.48-.91.72-1,.8-1.99,1.61-2.97,2.42l-.28.24c-.9.75-1.78,1.52-2.66,2.29-.3.26-.59.52-.89.79-.73.65-1.46,1.3-2.18,1.96-.25.23-.5.46-.75.69-.92.86-1.83,1.72-2.73,2.59-.23.22-.45.45-.68.67-.7.68-1.38,1.36-2.06,2.05-.3.3-.59.6-.89.9-.71.73-1.4,1.46-2.1,2.2-.18.19-.37.39-.55.58-.84.9-1.66,1.81-2.48,2.73-.26.3-.53.6-.79.9-.59.68-1.18,1.36-1.77,2.05-.27.32-.54.63-.81.95-.79.93-1.56,1.88-2.33,2.83-.14.17-.27.34-.4.5-.65.82-1.3,1.65-1.94,2.48-.26.34-.52.67-.77,1.01-.54.72-1.08,1.45-1.62,2.18-.22.3-.44.6-.66.9-.71.98-1.4,1.96-2.09,2.96-.21.3-.41.61-.62.92-.5.74-1,1.47-1.49,2.22-.25.38-.49.75-.74,1.13-.54.83-1.07,1.66-1.59,2.5-.14.22-.27.43-.41.65-.63,1.02-1.25,2.05-1.86,3.08-.22.37-.43.74-.65,1.12-.43.74-.85,1.48-1.27,2.23-.21.37-.42.74-.62,1.11-.58,1.04-1.14,2.1-1.7,3.15-.13.26-.26.52-.39.77-.44.84-.87,1.69-1.29,2.53-.2.41-.41.83-.61,1.25-.37.77-.74,1.54-1.11,2.31-.17.36-.34.71-.5,1.07-.5,1.07-.98,2.15-1.45,3.22-.16.37-.32.74-.48,1.11-.34.79-.67,1.58-1,2.37-.17.41-.34.82-.5,1.23-.37.93-.74,1.86-1.1,2.79-.09.23-.18.45-.26.68-.42,1.11-.82,2.22-1.22,3.35-.15.41-.29.82-.43,1.23-.28.81-.55,1.61-.82,2.42-.13.39-.26.79-.39,1.18-.37,1.13-.72,2.27-1.06,3.41-.09.3-.17.6-.26.9-.26.9-.52,1.79-.77,2.69-.12.43-.23.85-.35,1.27-.23.88-.46,1.75-.68,2.63-.08.33-.17.66-.25.99-.29,1.16-.55,2.33-.82,3.49-.09.37-.16.75-.25,1.12-.19.87-.37,1.74-.55,2.61-.08.4-.16.81-.24,1.22-.22,1.11-.42,2.22-.62,3.33l-.06.32c-.21,1.21-.4,2.42-.59,3.64-.06.37-.11.74-.16,1.11-.13.94-.26,1.88-.38,2.82-.04.33-.09.66-.13.99-.15,1.22-.29,2.45-.41,3.67-.03.25-.05.5-.07.75-.1,1.02-.19,2.03-.27,3.05-.03.37-.06.74-.09,1.11-.07,1.04-.14,2.09-.19,3.13-.01.22-.03.43-.04.65-.06,1.25-.11,2.51-.14,3.76-.01.31-.02.61-.02.92-.02.99-.03,1.99-.04,2.98,0,.34,0,.68,0,1.01,0,2.54.05,5.08.16,7.62.01.33.03.66.05.98,1.23,25.15,7.96,50.43,20.72,74.07,9.23,17.1,20.91,32.04,34.37,44.61.27.25.54.5.81.74.7.65,1.41,1.29,2.12,1.92.32.28.64.57.96.85.7.62,1.42,1.23,2.13,1.84.29.25.59.5.88.75.96.81,1.94,1.61,2.92,2.4l.09.07.02.02c1,.8,2.02,1.59,3.04,2.37.32.25.64.49.97.73.71.54,1.43,1.08,2.16,1.61.38.27.75.55,1.13.82.71.51,1.42,1.01,2.13,1.5.36.25.71.5,1.07.74.97.66,1.94,1.32,2.92,1.96l.36.24c1.03.67,2.06,1.33,3.1,1.97.38.24.77.47,1.16.71.72.44,1.44.88,2.17,1.31.42.25.83.49,1.25.73.73.42,1.46.84,2.19,1.25.4.22.8.45,1.2.67.96.53,1.92,1.05,2.89,1.56l.75.39c1.01.53,2.02,1.04,3.05,1.55.42.21.84.41,1.26.61.74.36,1.47.71,2.21,1.06.47.22.93.43,1.39.64.73.33,1.46.66,2.19.99.44.19.89.39,1.33.59.93.4,1.86.78,2.79,1.17.42.18.85.35,1.27.52.95.38,1.9.75,2.86,1.12.48.18.96.36,1.44.54.72.27,1.43.53,2.16.79.5.18,1.01.36,1.51.53.74.26,1.47.5,2.21.75.47.16.95.32,1.42.47.95.3,1.91.6,2.86.89.45.14.89.27,1.34.4.97.29,1.95.57,2.93.84.51.14,1.02.27,1.53.41.72.19,1.45.38,2.17.57.54.13,1.07.27,1.61.4.74.18,1.48.35,2.22.52.5.11,1,.23,1.5.34.96.21,1.92.42,2.89.61.48.1.96.19,1.44.28.99.19,1.98.38,2.98.55.5.09,1.01.17,1.52.26.75.13,1.51.25,2.26.36.54.08,1.07.16,1.62.24.76.11,1.52.21,2.28.31.5.07,1.01.13,1.52.19.99.12,1.99.23,2.98.33.46.05.93.1,1.4.14,1.02.1,2.03.19,3.05.27.5.04,1.01.07,1.52.11.78.05,1.55.1,2.33.15.54.03,1.07.06,1.61.08.79.03,1.57.07,2.35.09.5.02,1,.04,1.49.05,1.04.03,2.08.04,3.12.05.39,0,.79,0,1.19,0,1.08,0,2.16,0,3.24-.03.48,0,.97-.02,1.45-.03.8-.02,1.6-.05,2.41-.08.53-.02,1.05-.05,1.58-.07.82-.04,1.64-.09,2.46-.14.47-.03.94-.06,1.4-.09,1.14-.08,2.27-.18,3.41-.28l.74-.07c1.16-.11,2.32-.23,3.48-.37.45-.06.91-.11,1.36-.17.85-.11,1.69-.22,2.54-.34.49-.07.98-.14,1.48-.22.84-.12,1.68-.26,2.51-.39.46-.08.91-.15,1.37-.23,1.15-.2,2.3-.41,3.45-.63l.65-.13c1.17-.23,2.34-.47,3.5-.73.44-.1.88-.2,1.33-.3.85-.19,1.7-.39,2.56-.6.47-.12.94-.23,1.41-.35.87-.22,1.74-.45,2.6-.68.42-.11.83-.22,1.25-.34,1.22-.33,2.43-.68,3.64-1.05l.14-.04h0s.1-.04.1-.04c1.23-.37,2.45-.76,3.67-1.16.41-.13.82-.27,1.23-.41.86-.29,1.73-.59,2.59-.89.45-.16.91-.32,1.36-.48.86-.31,1.73-.63,2.59-.96.4-.15.8-.3,1.2-.46,1.25-.48,2.49-.98,3.73-1.49h0c1.24-.52,2.48-1.06,3.71-1.6.39-.17.78-.35,1.16-.52.86-.39,1.71-.78,2.57-1.18.44-.21.88-.42,1.32-.63.85-.41,1.7-.82,2.54-1.25.38-.19.77-.38,1.15-.58,1.22-.62,2.44-1.25,3.65-1.91,1.21-.65,2.41-1.32,3.6-2,.37-.22.74-.43,1.11-.65.82-.47,1.63-.95,2.44-1.44.42-.25.84-.5,1.25-.76.81-.49,1.6-1,2.4-1.5.35-.23.72-.45,1.07-.68,1.13-.73,2.26-1.47,3.37-2.23h0l4.8-284.84h0ZM838.57,1869.98c1.13-.73,2.26-1.47,3.37-2.23l-3.37,2.23h0ZM845.24,1865.45c.35-.25.7-.5,1.04-.75.75-.54,1.49-1.09,2.22-1.63.39-.29.77-.58,1.15-.87.73-.56,1.45-1.12,2.17-1.68.34-.27.68-.53,1.02-.8,1-.8,2-1.61,2.98-2.43l.08-.07h0s.11-.1.11-.1c.97-.81,1.93-1.64,2.88-2.47.32-.29.65-.58.97-.86.67-.6,1.34-1.2,1.99-1.8.36-.33.71-.66,1.07-.99.64-.6,1.27-1.2,1.9-1.81.33-.31.66-.63.98-.94.85-.83,1.7-1.68,2.53-2.53l.46-.48c.82-.84,1.62-1.68,2.42-2.53.31-.34.63-.68.94-1.02.57-.63,1.14-1.25,1.71-1.88.33-.37.66-.74.99-1.11.56-.64,1.12-1.29,1.67-1.94.3-.35.59-.69.89-1.04.75-.89,1.49-1.79,2.22-2.7l.46-.58c.71-.89,1.42-1.79,2.1-2.69.28-.37.57-.75.85-1.12.49-.65.98-1.31,1.47-1.97.31-.43.62-.85.92-1.28.47-.65.93-1.31,1.39-1.97.28-.4.55-.79.83-1.2.61-.89,1.21-1.79,1.8-2.69.22-.33.43-.66.65-.99.57-.88,1.13-1.75,1.68-2.64.26-.42.52-.85.78-1.28.41-.67.81-1.34,1.22-2.02.27-.46.54-.92.81-1.39.39-.67.78-1.35,1.15-2.03.25-.44.5-.88.75-1.33.49-.9.97-1.79,1.45-2.7.22-.42.44-.83.65-1.25.46-.89.91-1.78,1.36-2.67.23-.46.45-.92.67-1.37.33-.69.66-1.38.99-2.08.23-.49.46-.99.69-1.48.32-.7.63-1.4.94-2.09.21-.47.42-.94.62-1.42.4-.92.79-1.85,1.17-2.79.18-.45.37-.9.55-1.36.36-.91.73-1.83,1.08-2.74.18-.48.36-.96.54-1.44.27-.71.53-1.43.78-2.14.19-.52.37-1.04.55-1.56.24-.71.48-1.42.71-2.12.17-.5.34-1,.5-1.5.31-.97.61-1.94.91-2.91.14-.44.27-.89.4-1.33.28-.96.56-1.92.82-2.88.13-.48.26-.97.39-1.45.2-.75.4-1.5.59-2.26.13-.52.26-1.04.39-1.56.18-.74.35-1.49.52-2.23.12-.5.23-1,.34-1.5.22-1,.43-2,.63-3.01.09-.45.18-.9.27-1.34.19-.99.38-1.98.55-2.98.08-.48.16-.96.24-1.44.13-.79.26-1.58.38-2.37.08-.5.15-1.01.22-1.51.12-.81.23-1.62.33-2.43.06-.46.12-.93.18-1.39.14-1.13.26-2.26.38-3.39l.08-.85c.1-1.09.2-2.18.29-3.27.03-.45.07-.91.1-1.37.06-.84.11-1.68.16-2.52.03-.48.05-.96.07-1.45.04-.84.07-1.69.1-2.53.02-.45.03-.91.04-1.36.03-1.22.05-2.45.05-3.68v-.43c0-1.17-.01-2.35-.03-3.52,0-.43-.02-.87-.04-1.3-.02-.87-.05-1.74-.09-2.61-.02-.46-.04-.93-.06-1.4-.05-.9-.1-1.79-.16-2.69-.03-.4-.05-.8-.08-1.2-.09-1.28-.2-2.57-.32-3.84v-.14c-.13-1.26-.27-2.51-.42-3.76-.04-.38-.09-.77-.14-1.15-.12-.93-.24-1.86-.37-2.79-.06-.42-.12-.85-.18-1.26-.14-.94-.29-1.88-.44-2.83-.06-.36-.12-.72-.18-1.08-3.12-18.15-9.2-36.11-18.43-53.22-12.76-23.64-30.19-43.14-50.54-57.98l-1.5,282.54h0ZM917.76,1710.96c-.09-1.28-.2-2.57-.32-3.84l.32,3.84Z"/>
      <path class="cls-2" d="M897.28,1640.89c45.71,84.69,14.11,190.4-70.59,236.11-84.69,45.71-190.4,14.1-236.11-70.59-45.71-84.69-14.1-190.41,70.59-236.11,84.69-45.71,190.4-14.11,236.11,70.59Z"/>
      <path class="cls-19" d="M679.76,1605l-.3.16c-2.2,1.19-4.95.37-6.14-1.83l-10.77-19.96c-1.19-2.2-.37-4.95,1.83-6.14l.3-.16c2.2-1.18,4.95-.36,6.14,1.84l10.77,19.96c1.19,2.2.36,4.95-1.83,6.14Z"/>
      <path class="cls-19" d="M625.28,1787.82l.17.3c1.18,2.2.36,4.95-1.83,6.14l-19.96,10.77c-2.2,1.19-4.94.37-6.13-1.83l-.16-.3c-1.19-2.2-.37-4.95,1.83-6.14l19.96-10.77c2.2-1.19,4.95-.37,6.14,1.83h0ZM890.35,1644.1l.16.3c1.19,2.2.37,4.95-1.83,6.14l-19.96,10.77c-2.2,1.19-4.95.36-6.14-1.83l-.16-.3c-1.19-2.21-.37-4.95,1.83-6.14l19.96-10.77c2.2-1.19,4.95-.37,6.13,1.83Z"/>
      <path class="cls-19" d="M614.65,1685.13l-.1.33c-.72,2.4-3.24,3.76-5.64,3.04l-21.73-6.49c-2.4-.72-3.76-3.24-3.04-5.64l.1-.33c.72-2.4,3.24-3.76,5.64-3.04l21.73,6.5c2.4.72,3.76,3.24,3.04,5.63h0ZM903.71,1770.93l-.1.33c-.72,2.4-3.24,3.76-5.63,3.04l-21.73-6.5c-2.39-.72-3.76-3.24-3.04-5.64l.1-.33c.72-2.4,3.24-3.76,5.63-3.05l21.73,6.5c2.4.72,3.76,3.24,3.04,5.64Z"/>
      <path class="cls-19" d="M782.68,1594.45l.33.1c2.4.72,4.92-.65,5.64-3.04l6.5-21.74c.72-2.4-.64-4.92-3.04-5.64l-.33-.1c-2.4-.71-4.92.65-5.64,3.04l-6.5,21.73c-.71,2.39.65,4.92,3.04,5.63h0ZM695.75,1883.17l.33.1c2.4.72,4.92-.64,5.64-3.04l6.5-21.74c.72-2.39-.65-4.92-3.05-5.63l-.33-.1c-2.4-.72-4.92.64-5.63,3.04l-6.5,21.73c-.72,2.4.64,4.92,3.04,5.63Z"/>
      <path class="cls-19" d="M823.48,1870.07l-.3.16c-2.2,1.19-4.95.37-6.14-1.83l-10.77-19.96c-1.19-2.2-.37-4.95,1.83-6.13l.3-.16c2.2-1.19,4.95-.37,6.14,1.83l10.77,19.96c1.19,2.2.37,4.95-1.83,6.14Z"/>
      <path class="cls-18" d="M745.32,1725.96l-.34.18c-2.43,1.31-5.47.4-6.78-2.02l-51.97-96.29c-1.31-2.43-.4-5.46,2.03-6.77l.34-.18c2.43-1.31,5.47-.41,6.78,2.02l51.96,96.29c1.31,2.43.41,5.47-2.02,6.78Z"/>
      <path class="cls-18" d="M746.57,1721.74l.27.26c1.98,1.92,2.02,5.09.1,7.07l-52.77,54.24c-1.93,1.98-5.1,2.02-7.07.09l-.27-.27c-1.98-1.93-2.02-5.09-.1-7.07l52.77-54.24c1.93-1.98,5.09-2.02,7.07-.09Z"/>
      <path class="cls-7" d="M845,1697.7l-101.68,25.3c-.73.18-1.18.92-1,1.66.18.74.93,1.18,1.66,1l101.68-25.29c.74-.18,1.18-.93,1-1.66-.18-.74-.92-1.18-1.66-1Z"/>
      <path class="cls-29" d="M863.85,1660.95c-.55.24-1.04.45-1.43.62-.35.15-.75,0-.9-.36-.02-.04-.04-.09-.05-.14.23,0,.45-.04.67-.13.33-.14.71-.31,1.15-.5.18.18.36.35.56.5Z"/>
      <path class="cls-29" d="M856.36,1651.33s-.06-.07-.09-.11c-.19-.32-.09-.75.24-.94,3.38-2.02,12.69-7.58,21.58-13l.42.54c-8.91,5.43-18.26,11.02-21.65,13.04-.21.12-.38.28-.5.47Z"/>
      <path class="cls-8" d="M821.99,1443.8c28.69,6.32,48.49,31.18,49.59,59.23l-119.47-26.3c12.78-24.98,41.19-39.23,69.88-32.92Z"/>
      <path class="cls-4" d="M781.22,1483.13l61.27,13.49-7.46,33.91c-19.08-8.98-39.39-15.11-60.24-18.17l6.44-29.23Z"/>
      <path class="cls-19" d="M781.22,1483.13l30.64,6.74-6.45,29.3c-10.02-3.01-20.25-5.29-30.62-6.82l6.44-29.23Z"/>
      <path class="cls-8" d="M467.16,1635.3c-10.47,27.44-.55,57.65,22.28,73.96l43.59-114.3c-27.89-3.03-55.41,12.9-65.87,40.34Z"/>
      <path class="cls-4" d="M522.41,1622.8l-22.36,58.62,32.45,12.37c2.96-20.87,8.99-41.22,17.87-60.33l-27.96-10.66Z"/>
      <path class="cls-19" d="M522.41,1622.8l-11.18,29.31,28.03,10.69c2.98-10.02,6.69-19.83,11.11-29.33l-27.96-10.66Z"/>
      <path class="cls-8" d="M591.86,1495.12l44.51-24.02c16.1-8.69,34.28-10,50.59-5.13,16.32,4.88,30.79,15.96,39.47,32.05l6.66,12.34c-7.9.4-15.81,1.24-23.7,2.53l-2.37-4.39c-5.79-10.74-15.47-18.13-26.38-21.39-10.92-3.26-23.06-2.39-33.8,3.41l-44.51,24.02c-10.74,5.79-18.13,15.47-21.39,26.38-3.26,10.92-2.39,23.06,3.41,33.8l2.37,4.39c-5.41,5.88-10.45,12.03-15.12,18.42l-6.66-12.34c-8.68-16.1-10-34.28-5.13-50.59,4.88-16.32,15.96-30.79,32.05-39.48Z"/>
      <path class="cls-21" d="M1552.8,595.03l119.27,17.94c-1.03,6.84-.53,13.44,1.17,19.22l-127.21-19.12c3.33-5.03,5.75-11.2,6.78-18.04Z"/>
      <path class="cls-2" d="M1189.54,417.97c-72.43,40.38-98.41,131.82-58.04,204.26,40.38,72.43,131.83,98.42,204.26,58.04,72.43-40.38,98.42-131.83,58.03-204.26-40.37-72.43-131.82-98.41-204.26-58.03Z"/>
      <path class="cls-21" d="M1176.99,635.25c11.12,5.48,23.22,9.45,36.15,11.38,65.85,9.92,127.17-35.38,137.05-101.11,5.8-38.51-7.33-75.43-32.38-101.45,45.22,22.82,72.79,72.72,64.87,125.4-9.89,65.74-71.21,111.02-137.05,101.11-27.21-4.07-50.94-16.92-68.64-35.33Z"/>
      <path class="cls-15" d="M1432.7,613.05c-14.54-2.2-23.96-19.75-21.03-39.23,2.94-19.47,17.09-33.49,31.63-31.3,14.54,2.18,23.96,19.74,21.04,39.22-2.93,19.48-17.09,33.48-31.63,31.31Z"/>
      <path class="cls-15" d="M1521.15,626.34c-14.53-2.18-23.96-19.73-21.01-39.22,2.9-19.47,17.09-33.48,31.65-31.31,14.51,2.2,23.94,19.75,21.01,39.22-2.92,19.49-17.1,33.49-31.64,31.31Z"/>
      <path class="cls-15" d="M1693.09,652.17c-14.54-2.16-23.96-19.71-21.02-39.21,2.91-19.49,17.09-33.48,31.63-31.29,14.53,2.18,23.95,19.74,21.02,39.23-2.93,19.45-17.1,33.47-31.63,31.27Z"/>
      <path class="cls-15" d="M1717.68,638.89c-10.86-1.63-18.41-11.32-16.87-21.61,1.55-10.28,11.62-17.31,22.46-15.67,10.87,1.63,18.42,11.3,16.86,21.57-1.54,10.31-11.6,17.34-22.45,15.7Z"/>
      <path class="cls-15" d="M1532.93,611.1c.93-6.2,1.87-12.42,2.8-18.63,50.66,7.63,101.32,15.25,151.97,22.85-.93,6.22-1.86,12.42-2.79,18.63-50.66-7.61-101.33-15.22-151.99-22.85h0ZM1519.91,571.03c-1.89,12.44-3.76,24.85-5.61,37.28-.39,2.53.26,4.58,1.36,6.22l.4.77.54.55c1.25,1.56,3.04,2.79,5.61,3.18,56.87,8.55,113.73,17.09,170.62,25.66,5.06.76,9.93-2.83,10.72-7.9,1.86-12.42,3.73-24.86,5.6-37.3.76-5.07-2.84-9.94-7.92-10.72-56.87-8.56-113.74-17.11-170.62-25.66-5.09-.77-9.95,2.85-10.7,7.93Z"/>
      <rect class="cls-34" x="1457.49" y="528.06" width="29.45" height="109.71" transform="translate(676.3708 1951.8028) rotate(-81.4279)"/>
      <path class="cls-15" d="M1176.67,398.27c-41.42,23.09-69.6,60.85-81.66,103.23l-.03.11c-12.03,42.4-7.91,89.34,15.18,130.76,23.09,41.43,60.88,69.62,103.29,81.68,42.34,12.09,89.31,7.97,130.81-15.17,41.49-23.13,69.7-60.92,81.74-103.28,12.03-42.36,7.91-89.33-15.22-130.83-23.14-41.5-60.92-69.7-103.28-81.73-42.43-11.99-89.39-7.88-130.83,15.22h0ZM1137.09,513.46c8.94-31.48,29.97-59.6,60.95-76.87,30.97-17.27,65.95-20.37,97.43-11.42l.04.07c31.55,8.97,59.7,29.98,76.94,60.91,17.24,30.93,20.32,65.92,11.35,97.47-8.97,31.55-29.98,59.7-60.91,76.94-30.93,17.24-65.92,20.32-97.47,11.35l-.07.04c-31.48-8.94-59.6-29.97-76.87-60.95-17.27-30.98-20.37-65.95-11.42-97.43l.03-.11Z"/>
    </g>
  </g>
</svg>