<?xml version="1.0" encoding="UTF-8"?>
<svg id="_レイヤー_2" data-name="レイヤー 2" xmlns="http://www.w3.org/2000/svg" viewBox="0 0 2391.9 1704.25">
  <defs>
    <style>
      .cls-1, .cls-2, .cls-3, .cls-4, .cls-5, .cls-6, .cls-7, .cls-8, .cls-9, .cls-10, .cls-11, .cls-12, .cls-13, .cls-14, .cls-15, .cls-16, .cls-17, .cls-18, .cls-19, .cls-20, .cls-21, .cls-22, .cls-23, .cls-24, .cls-25, .cls-26, .cls-27, .cls-28, .cls-29, .cls-30 {
        fill-rule: evenodd;
      }

      .cls-1, .cls-31 {
        fill: #fb9674;
      }

      .cls-32, .cls-20 {
        fill: #c2def9;
      }

      .cls-2, .cls-33 {
        fill: #71aeec;
      }

      .cls-3 {
        fill: #f47a44;
      }

      .cls-4, .cls-34 {
        fill: #fff;
      }

      .cls-35, .cls-28 {
        fill: #619fdf;
      }

      .cls-5 {
        fill: #86bdf4;
      }

      .cls-6 {
        fill: #3b5bb2;
      }

      .cls-7 {
        fill: #98c4f1;
      }

      .cls-8 {
        fill: #dbe5f2;
      }

      .cls-9 {
        fill: #d1e4f6;
      }

      .cls-10 {
        fill: #66142e;
      }

      .cls-11 {
        fill: #4567c5;
      }

      .cls-12 {
        fill: #8ab9e8;
      }

      .cls-13 {
        fill: #ef8161;
      }

      .cls-14 {
        fill: #5275d3;
      }

      .cls-15 {
        fill: #125aa2;
      }

      .cls-16 {
        fill: #fbb78c;
      }

      .cls-36 {
        fill: #1e77d0;
      }

      .cls-17, .cls-37 {
        fill: #a3cffb;
      }

      .cls-18 {
        fill: #ffb17d;
      }

      .cls-19 {
        fill: #284190;
      }

      .cls-21 {
        fill: #deecf9;
      }

      .cls-22 {
        fill: #f0f4fa;
      }

      .cls-23 {
        fill: #505761;
      }

      .cls-24 {
        fill: #d0b7bf;
      }

      .cls-25 {
        fill: #fabea7;
      }

      .cls-26 {
        fill: #f1f1f1;
      }

      .cls-27 {
        fill: #ffe1db;
      }

      .cls-29 {
        fill: #badaf9;
      }

      .cls-30 {
        fill: #4f8dcb;
      }
    </style>
  </defs>
  <g id="Layer_1" data-name="Layer 1">
    <g>
      <path class="cls-22" d="M1194.37,1599.64c277.82,0,533.49,4.15,736.39,11.11,496.53-283.81,324.6-837.01,146.32-1149.92C1828.96,25.33,1242.66-131.2,1000.16,216.27c-329.16,471.63-646.7,307.05-818.16,665.24-171.46,358.18,88.93,701.57,276,729.24,202.89-6.96,458.56-11.11,736.39-11.11h0ZM759.32,391.95c-127.09,96.73-337.3,171.68-407.1,68.85-52.15-76.82,12.09-220.97,137.91-330.26,125.73-109.21,294.18-175.32,385.99-94.9,108.96,95.43-18.93,281.83-116.79,356.31Z"/>
      <path class="cls-8" d="M1194.37,1599.63c659.64,0,1194.38,23.42,1194.38,52.31s-534.74,52.31-1194.38,52.31S0,1680.83,0,1651.94s534.74-52.31,1194.37-52.31Z"/>
      <path class="cls-4" d="M1579.54,155.69c298.3,66.45,488.13,340.78,506.73,473.23,7.63,54.35-6.52-72.83-158.69-188.65-135.99-103.5-241.87-122.68-403.67-135.17-114.34-8.84-234.07-22.89-225.56-91.09,6.72-53.86,88.6-101.22,281.18-58.32h0ZM799.52,44.72c51.35,3.09,82.62,45.26,84.77,93.89.91,20.69-15.33-33.41-72.27-40.93-35.31-4.67-40.61,5.74-53.27-8.84-12.66-14.58-.64-46.61,40.77-44.12Z"/>
      <path class="cls-4" d="M1107.65,346.87c-4.27,58.67-12.92,66.76-68.86,71.29,55.94,4.51,64.59,12.61,68.86,71.28,4.27-58.67,12.93-66.76,68.87-71.28-55.94-4.52-64.59-12.62-68.87-71.29h0ZM1335.03,501.61c-2.28,31.32-6.9,35.64-36.76,38.05,29.86,2.41,34.48,6.74,36.76,38.06,2.28-31.32,6.9-35.65,36.77-38.06-29.87-2.42-34.49-6.73-36.77-38.05h0ZM1235.46,260.53c-2.31,31.72-6.99,36.11-37.24,38.54,30.25,2.45,34.93,6.82,37.24,38.55,2.31-31.73,6.99-36.11,37.23-38.55-30.25-2.44-34.92-6.82-37.23-38.54Z"/>
      <path class="cls-4" d="M1025.2,1308.79c3.46,47.53,10.47,54.09,55.79,57.75-45.32,3.66-52.33,10.21-55.79,57.75-3.46-47.53-10.48-54.09-55.79-57.75,45.31-3.66,52.33-10.22,55.79-57.75h0ZM840.99,1434.14c1.85,25.38,5.59,28.88,29.78,30.84-24.19,1.96-27.93,5.45-29.78,30.83-1.85-25.37-5.6-28.87-29.79-30.83,24.19-1.96,27.94-5.45,29.79-30.84h0ZM921.66,1238.84c1.87,25.7,5.67,29.25,30.17,31.22-24.5,1.99-28.3,5.53-30.17,31.23-1.87-25.7-5.66-29.24-30.16-31.23,24.5-1.98,28.29-5.52,30.16-31.22Z"/>
      <path class="cls-4" d="M1749.14,1191.62c-2.65,36.39-8.02,41.41-42.71,44.22,34.69,2.8,40.06,7.82,42.71,44.21,2.65-36.39,8.02-41.41,42.71-44.21-34.69-2.8-40.06-7.82-42.71-44.22h0ZM1890.18,1287.6c-1.41,19.43-4.28,22.11-22.81,23.61,18.53,1.5,21.39,4.18,22.81,23.61,1.41-19.43,4.28-22.11,22.81-23.61-18.53-1.5-21.39-4.18-22.81-23.61h0ZM1828.41,1138.07c-1.43,19.68-4.33,22.39-23.1,23.9,18.77,1.52,21.67,4.23,23.1,23.91,1.44-19.68,4.34-22.39,23.1-23.91-18.76-1.51-21.66-4.23-23.1-23.9Z"/>
      <path class="cls-21" d="M435.4,706.43l-31.29,18.2c-10.55,6.14-14.17,19.78-8.03,30.34l6.9,11.88c8.15,14.01,4.6,20.35,2.07,22.62-6.97,6.23-13.42,13-19.9,19.74-1.91,1.98-7.95,8.75-23.86-.51l-10.92-6.33c-10.56-6.14-24.21-2.53-30.34,8.03l-18.2,31.29c-6.14,10.56-2.53,24.21,8.03,30.35l10.81,6.27c14.92,8.68,14.53,13.12,12.65,19.45-2.6,8.68-5.38,17.37-7.29,26.36-1.69,8.01-.92,13.73-21.22,13.73h-12.44c-12.22,0-22.19,9.96-22.19,22.19v36.21c0,12.22,9.97,22.19,22.19,22.19h12.44c20.3,0,19.54,5.72,21.22,13.73,1.9,8.99,4.69,17.68,7.29,26.36,1.89,6.32,2.28,10.77-12.65,19.45l-10.81,6.27c-10.56,6.14-14.17,19.79-8.03,30.34l18.2,31.3c6.13,10.55,19.78,14.16,30.34,8.03l10.92-6.34c15.91-9.26,21.95-2.49,23.86-.5,6.48,6.74,12.93,13.51,19.9,19.74,2.53,2.27,6.08,8.61-2.07,22.62l-6.9,11.88c-6.14,10.56-2.53,24.2,8.03,30.34l31.29,18.2c10.56,6.13,24.21,2.53,30.34-8.03l6.9-11.85c8.27-14.22,16.41-13.66,19.85-12.57,9.98,3.18,19.2,5.24,29.5,7.91,3.76.98,10.2,3.72,10.2,20.67v12.7c0,12.22,9.97,22.19,22.19,22.19h36.2c12.22,0,22.19-9.96,22.19-22.19v-12.7c0-16.95,6.44-19.68,10.2-20.67,10.3-2.68,19.51-4.73,29.5-7.91,3.44-1.09,11.58-1.65,19.85,12.57l6.89,11.85c6.14,10.56,19.79,14.16,30.34,8.03l31.3-18.2c10.55-6.14,14.17-19.78,8.03-30.34l-6.91-11.88c-8.15-14.01-4.6-20.35-2.07-22.62,6.97-6.23,13.43-13,19.9-19.74,1.91-1.98,7.95-8.75,23.86.5l10.92,6.34c10.55,6.13,24.2,2.52,30.34-8.03l18.2-31.3c6.13-10.55,2.53-24.2-8.03-30.34l-10.81-6.27c-14.92-8.68-14.54-13.13-12.65-19.45,2.59-8.68,5.38-17.38,7.28-26.36,1.69-8,.93-13.73,21.22-13.73h12.44c12.23,0,22.19-9.97,22.19-22.19v-36.21c0-12.23-9.96-22.19-22.19-22.19h-12.44c-20.29,0-19.53-5.72-21.22-13.73-1.9-8.99-4.69-17.68-7.28-26.36-1.89-6.33-2.28-10.78,12.65-19.45l10.81-6.27c10.56-6.14,14.16-19.79,8.03-30.35l-18.2-31.29c-6.14-10.56-19.79-14.17-30.34-8.03l-10.92,6.33c-15.91,9.26-21.95,2.49-23.86.51-6.48-6.74-12.93-13.51-19.9-19.74-2.53-2.27-6.08-8.6,2.07-22.62l6.91-11.88c6.14-10.56,2.52-24.2-8.03-30.34l-31.3-18.2c-10.55-6.14-24.2-2.53-30.34,8.03l-6.89,11.85c-8.27,14.23-16.41,13.66-19.85,12.56-9.99-3.17-19.2-5.23-29.5-7.91-3.77-.98-10.2-3.72-10.2-20.66v-12.7c0-12.22-9.97-22.19-22.19-22.19h-36.2c-12.22,0-22.19,9.97-22.19,22.19v12.7c0,16.94-6.44,19.68-10.2,20.66-10.3,2.68-19.52,4.74-29.5,7.91-3.44,1.1-11.58,1.66-19.85-12.56l-6.9-11.85c-6.13-10.56-19.78-14.17-30.34-8.03h0ZM572.49,930.35c26.4,0,47.81,21.4,47.81,47.81s-21.41,47.81-47.81,47.81-47.81-21.41-47.81-47.81,21.4-47.81,47.81-47.81h0ZM422.63,978.15c0-5.65,4.58-10.23,10.22-10.23s10.23,4.59,10.23,10.23c0,35.73,14.48,68.08,37.9,91.5,23.42,23.42,55.76,37.9,91.5,37.9,5.65,0,10.22,4.58,10.22,10.23s-4.58,10.22-10.22,10.22c-41.38,0-78.85-16.78-105.96-43.89-27.12-27.12-43.89-64.59-43.89-105.96h0ZM720.37,954.02c.88,5.56-2.91,10.78-8.47,11.67-5.55.88-10.78-2.91-11.67-8.47-4.39-27.1-17.24-51.4-35.74-70.1-18.53-18.71-42.73-31.8-69.8-36.48-5.56-.95-9.3-6.22-8.35-11.79.95-5.56,6.23-9.3,11.79-8.35,31.35,5.41,59.37,20.57,80.82,42.22,21.43,21.66,36.32,49.83,41.42,81.29h0ZM572.49,800.58c98.06,0,177.57,79.5,177.57,177.57s-79.5,177.57-177.57,177.57-177.57-79.5-177.57-177.57,79.5-177.57,177.57-177.57Z"/>
      <path class="cls-21" d="M1550.9,456.77l-38.33,22.29c-12.93,7.52-17.35,24.23-9.84,37.16l8.46,14.54c9.98,17.17,5.63,24.93,2.53,27.7-8.53,7.64-16.44,15.93-24.37,24.18-2.33,2.42-9.74,10.72-29.22-.62l-13.37-7.76c-12.92-7.52-29.64-3.1-37.16,9.83l-22.29,38.33c-7.52,12.92-3.1,29.64,9.83,37.16l13.24,7.69c18.27,10.63,17.8,16.07,15.49,23.82-3.18,10.64-6.59,21.28-8.92,32.29-2.07,9.8-1.14,16.81-25.99,16.81h-15.23c-14.97,0-27.18,12.21-27.18,27.18v44.35c0,14.97,12.21,27.18,27.18,27.18h15.23c24.86,0,23.92,7.01,25.99,16.81,2.33,11.01,5.74,21.66,8.92,32.29,2.32,7.75,2.78,13.2-15.49,23.83l-13.24,7.69c-12.92,7.52-17.35,24.24-9.83,37.16l22.29,38.33c7.52,12.92,24.24,17.35,37.16,9.83l13.37-7.76c19.49-11.33,26.89-3.05,29.22-.62,7.93,8.25,15.84,16.54,24.37,24.18,3.1,2.77,7.45,10.54-2.53,27.7l-8.46,14.55c-7.51,12.92-3.1,29.64,9.84,37.16l38.33,22.29c12.92,7.52,29.64,3.1,37.16-9.83l8.44-14.51c10.12-17.42,20.1-16.74,24.31-15.39,12.22,3.89,23.52,6.41,36.14,9.69,4.6,1.2,12.49,4.55,12.49,25.31v15.56c0,14.97,12.21,27.18,27.18,27.18h44.34c14.98,0,27.18-12.21,27.18-27.18v-15.56c0-20.76,7.89-24.11,12.5-25.31,12.62-3.28,23.9-5.8,36.14-9.69,4.21-1.35,14.18-2.03,24.31,15.39l8.44,14.51c7.51,12.92,24.24,17.35,37.16,9.83l38.33-22.29c12.92-7.52,17.35-24.24,9.83-37.16l-8.46-14.55c-9.98-17.16-5.63-24.93-2.53-27.7,8.53-7.64,16.44-15.93,24.38-24.18,2.33-2.43,9.74-10.72,29.22.62l13.37,7.76c12.92,7.52,29.64,3.1,37.16-9.83l22.29-38.33c7.52-12.92,3.1-29.64-9.84-37.16l-13.23-7.69c-18.28-10.63-17.8-16.07-15.49-23.83,3.17-10.63,6.59-21.28,8.92-32.29,2.07-9.8,1.13-16.81,25.99-16.81h15.23c14.97,0,27.18-12.21,27.18-27.18v-44.35c0-14.97-12.21-27.18-27.18-27.18h-15.23c-24.86,0-23.92-7.01-25.99-16.81-2.33-11.01-5.75-21.66-8.92-32.29-2.32-7.75-2.79-13.2,15.49-23.82l13.23-7.69c12.93-7.52,17.35-24.24,9.84-37.16l-22.29-38.33c-7.52-12.92-24.24-17.35-37.16-9.83l-13.37,7.76c-19.49,11.33-26.89,3.04-29.22.62-7.93-8.25-15.84-16.54-24.38-24.18-3.1-2.78-7.45-10.53,2.53-27.7l8.46-14.54c7.52-12.93,3.1-29.64-9.83-37.16l-38.33-22.29c-12.92-7.52-29.65-3.1-37.16,9.83l-8.44,14.51c-10.13,17.42-20.1,16.73-24.31,15.39-12.23-3.89-23.52-6.41-36.14-9.69-4.61-1.2-12.5-4.54-12.5-25.3v-15.56c0-14.97-12.2-27.18-27.18-27.18h-44.34c-14.97,0-27.18,12.21-27.18,27.18v15.56c0,20.76-7.89,24.11-12.49,25.3-12.62,3.29-23.91,5.81-36.14,9.69-4.21,1.34-14.19,2.03-24.31-15.39l-8.44-14.51c-7.52-12.93-24.24-17.35-37.16-9.83h0ZM1718.8,731c32.33,0,58.55,26.21,58.55,58.55s-26.21,58.55-58.55,58.55-58.55-26.21-58.55-58.55,26.21-58.55,58.55-58.55h0ZM1535.26,789.55c0-6.92,5.61-12.53,12.53-12.53s12.52,5.61,12.52,12.53c0,43.77,17.74,83.39,46.42,112.07,28.68,28.68,68.31,46.42,112.07,46.42,6.92,0,12.53,5.61,12.53,12.53s-5.61,12.53-12.53,12.53c-50.68,0-96.57-20.55-129.78-53.76-33.21-33.21-53.76-79.11-53.76-129.78h0ZM1899.92,759.99c1.08,6.81-3.56,13.21-10.37,14.3-6.81,1.07-13.21-3.57-14.29-10.38-5.38-33.2-21.12-62.96-43.79-85.86-22.69-22.92-52.32-38.95-85.47-44.68-6.81-1.16-11.39-7.62-10.23-14.43,1.16-6.8,7.63-11.38,14.43-10.22,38.4,6.63,72.72,25.19,98.98,51.72,26.25,26.52,44.49,61.03,50.73,99.56h0ZM1718.8,572.08c120.11,0,217.48,97.36,217.48,217.47s-97.36,217.48-217.48,217.48-217.48-97.36-217.48-217.48,97.37-217.47,217.48-217.47Z"/>
      <path class="cls-8" d="M426.2,1478.39c-13.62-17.05-32.79-31.14-38.41-52.22-6.63-24.89,7.99-51.09,4.36-76.59-4.55-32.09-35.46-52.9-52.24-80.63-16.43-27.17-8.73-36.3-10.23-68.01-2.25-47.78-41.45-108.1-93.66-91.92-53.01,16.44-44.36,65.72-35.02,102.8,6.65,26.4,2.3,30.2-4.16,56.66-7.8,31.95-32.95,62.83-22.44,93.99,6.5,19.28,25.4,32.28,32.23,51.44,7.75,21.71-1.63,45.25-5.24,68.01-7.6,47.93,3.31,87.79,38.13,127.37,3.74,3.56,7.63,6.87,11.67,9.93,48.77-2.75,103.66-5.29,163.82-7.57l.44-.47c31.87-34.78,41.38-94.48,10.76-132.77Z"/>
      <path class="cls-4" d="M260.09,1152.17c-.83-2.15-3.25-3.24-5.41-2.41-2.16.82-3.24,3.24-2.42,5.4,4.14,10.83,7.62,22.17,10.6,33.97-1.2-1.09-2.44-2.15-3.72-3.17-5.69-4.57-12.15-8.57-19.38-11.98-2.08-.98-4.58-.08-5.57,2-.98,2.09-.08,4.59,2,5.58,6.64,3.14,12.54,6.78,17.71,10.94,4.89,3.93,9.15,8.33,12.76,13.2,5.35,25.57,8.85,53.06,12,82.05-4.86-7.55-10.04-14.32-15.54-20.3-9.57-10.41-20.17-18.49-31.77-24.24-2.07-1.02-4.58-.18-5.6,1.89-1.02,2.07-.18,4.58,1.89,5.6,10.65,5.28,20.42,12.76,29.32,22.43,8.85,9.62,16.81,21.38,23.89,35.29l.81,7.86c1.78,17.28,3.61,35,5.77,53.09.01.18.03.35.06.52,2.26,18.91,4.9,38.23,8.23,57.86-9.05-13.98-18.79-26.33-29.22-37.07-15.29-15.74-32.06-28-50.29-36.79-2.08-1-4.58-.13-5.59,1.96-1,2.08-.13,4.59,1.96,5.59,17.35,8.36,33.32,20.05,47.91,35.07,14.55,14.98,27.75,33.28,39.58,54.89,5.15,26.01,11.72,52.51,20.44,79.31h0s.04.11.04.11h0c4.27,13.15,9.08,26.35,14.48,39.62-12.68-10.88-26.14-20.28-40.37-28.22-19.84-11.04-41.15-19.2-63.92-24.48-2.25-.52-4.51.87-5.04,3.14-.52,2.25.88,4.51,3.14,5.03,22.05,5.11,42.64,12.98,61.75,23.62,18.9,10.53,36.42,23.78,52.53,39.76,3.71,8.25,7.67,16.51,11.91,24.78l9.22-.4c-14.85-28.5-26.42-56.94-35.6-85.07-1.57-20.43.85-40.86,7.26-61.27,6.52-20.7,17.13-41.45,31.87-62.21,1.33-1.89.89-4.5-.99-5.84-1.88-1.34-4.49-.89-5.83.99-15.23,21.47-26.23,43-33.01,64.54-3.84,12.24-6.33,24.48-7.45,36.71-12.57-45.38-19.53-89.74-24.62-132.08,4.92-17.94,10.41-33.12,16.48-45.55,6.03-12.36,12.58-21.89,19.65-28.58,1.68-1.58,1.75-4.23.17-5.91-1.58-1.68-4.23-1.75-5.91-.16-7.84,7.41-14.99,17.74-21.47,31-4.02,8.25-7.8,17.66-11.33,28.24-1.23-11.18-2.37-22.21-3.48-33.05l-.87-8.44c0-.15-.03-.31-.05-.46-5.96-57.53-11.97-109.88-28.98-154.36Z"/>
      <path class="cls-9" d="M285.96,1500.88c-14.54-7.84-32.06-11.98-42.23-25-12-15.37-9.57-37.94-19.66-54.64-12.68-21.01-40.37-26.34-60.28-40.69-19.49-14.05-16.83-22.7-27.27-44.34-15.73-32.62-60.89-63.03-92.48-36.29-32.05,27.17-11.43,58.93,6.06,81.99,12.46,16.42,10.55,20.35,13.9,40.69,4.03,24.57-4.35,53.53,12.21,72.13,10.24,11.49,27.26,14.96,37.7,26.28,11.82,12.82,12.27,32,16.5,48.93,5.61,22.47,15.4,40.52,30.89,55.12,41.78-3.16,90.9-6.11,146.32-8.8,4.25-6.08,7.71-12.7,10.18-19.71,11.89-33.68.83-78.07-31.84-95.67Z"/>
      <path class="cls-4" d="M73.6,1322.85c-1.21-1.26-3.22-1.29-4.49-.08-1.26,1.21-1.29,3.22-.08,4.48,6.09,6.32,11.88,13.18,17.45,20.52-1.15-.4-2.33-.76-3.53-1.1-5.32-1.5-11-2.37-17.04-2.61-1.75-.07-3.22,1.3-3.29,3.04-.07,1.74,1.3,3.22,3.04,3.29,5.56.22,10.75,1.02,15.58,2.38,4.58,1.29,8.85,3.09,12.8,5.41,11.3,16.22,21.88,34.34,32.66,53.59-5.61-3.82-11.23-6.99-16.84-9.53-9.75-4.42-19.51-6.9-29.31-7.48-1.74-.1-3.24,1.24-3.35,2.98-.1,1.74,1.23,3.24,2.98,3.34,8.98.52,18.01,2.84,27.07,6.94,9.01,4.08,18.05,9.92,27.09,17.51l2.9,5.24c6.36,11.5,12.89,23.3,19.75,35.27.06.11.13.23.2.34,7.18,12.5,14.73,25.18,22.87,37.87-10.44-7.05-20.89-12.77-31.33-17.16-15.31-6.43-30.62-10.01-45.93-10.72-1.75-.08-3.23,1.27-3.31,3.03-.08,1.74,1.27,3.23,3.02,3.31,14.55.68,29.15,4.09,43.76,10.23,14.58,6.12,29.19,14.96,43.83,26.51,11.3,16.59,23.73,33.1,37.74,49.18h0s.05.07.05.07h0c6.87,7.88,14.13,15.66,21.82,23.3-12.05-3.82-24.21-6.39-36.48-7.69-17.09-1.81-34.35-1.19-51.78,1.89-1.72.3-2.88,1.95-2.57,3.67.3,1.72,1.95,2.88,3.67,2.58,16.87-2.98,33.54-3.6,50-1.84,16.29,1.73,32.42,5.78,48.38,12.14,5.5,5.09,11.22,10.09,17.17,15.01l9.45-.49c-20.74-16.57-38.74-34.25-54.68-52.5-7.15-13.77-11.52-28.71-13.09-44.83-1.61-16.36-.35-33.94,3.76-52.78.37-1.71-.72-3.4-2.43-3.77-1.7-.37-3.39.71-3.77,2.41-4.24,19.47-5.53,37.72-3.87,54.74.95,9.67,2.84,18.93,5.69,27.78-22.2-27.89-40.2-56.72-56.29-84.71-1.89-13.95-2.56-26.16-2.02-36.6.54-10.4,2.28-18.98,5.23-25.73.7-1.6-.03-3.48-1.63-4.17-1.6-.71-3.47.03-4.18,1.63-3.26,7.48-5.18,16.8-5.76,27.95-.36,6.94-.2,14.61.47,23.03-4.17-7.43-8.23-14.77-12.22-21.99l-3.1-5.62c-.05-.1-.11-.21-.18-.31-21.19-38.31-40.89-73-65.91-98.93Z"/>
      <path class="cls-8" d="M1992.96,1480.44c13.62-17.05,32.79-31.14,38.41-52.22,6.63-24.89-7.99-51.08-4.36-76.59,4.55-32.09,35.46-52.9,52.24-80.63,16.43-27.17,8.73-36.3,10.23-68.01,2.25-47.78,41.45-108.1,93.66-91.92,53.01,16.44,44.36,65.72,35.02,102.8-6.65,26.4-2.3,30.2,4.16,56.66,7.8,31.95,32.95,62.83,22.44,93.99-6.5,19.28-25.4,32.28-32.23,51.44-7.75,21.71,1.63,45.25,5.24,68.01,7.6,47.93-3.31,87.79-38.13,127.37-3.74,3.56-7.63,6.87-11.67,9.93-48.77-2.75-103.66-5.29-163.82-7.57l-.44-.47c-31.87-34.78-41.38-94.48-10.76-132.77Z"/>
      <path class="cls-4" d="M2159.07,1154.22c.83-2.15,3.25-3.24,5.41-2.41,2.16.82,3.24,3.24,2.42,5.4-4.14,10.83-7.62,22.17-10.6,33.97,1.2-1.09,2.44-2.15,3.72-3.17,5.69-4.57,12.15-8.57,19.38-11.98,2.08-.98,4.58-.08,5.57,2,.98,2.09.08,4.59-2,5.58-6.64,3.14-12.54,6.78-17.71,10.94-4.89,3.93-9.15,8.33-12.76,13.2-5.35,25.57-8.85,53.06-12,82.05,4.86-7.55,10.04-14.32,15.54-20.3,9.57-10.41,20.17-18.49,31.77-24.24,2.07-1.02,4.58-.18,5.6,1.89,1.02,2.07.18,4.58-1.89,5.6-10.65,5.28-20.42,12.76-29.32,22.43-8.85,9.62-16.81,21.38-23.89,35.29l-.81,7.86c-1.78,17.28-3.61,35-5.77,53.09-.01.18-.03.35-.06.52-2.26,18.91-4.9,38.23-8.23,57.86,9.05-13.98,18.79-26.33,29.22-37.07,15.29-15.74,32.06-28,50.29-36.79,2.08-1,4.58-.13,5.59,1.96,1,2.08.13,4.59-1.96,5.59-17.35,8.36-33.32,20.05-47.91,35.07-14.55,14.98-27.75,33.28-39.58,54.89-5.15,26.01-11.72,52.51-20.44,79.31h0s-.04.11-.04.11h0c-4.27,13.15-9.08,26.35-14.48,39.62,12.68-10.88,26.14-20.28,40.37-28.22,19.84-11.04,41.15-19.2,63.92-24.48,2.25-.52,4.51.88,5.04,3.14.52,2.25-.88,4.51-3.14,5.03-22.05,5.11-42.64,12.98-61.75,23.62-18.9,10.53-36.42,23.78-52.53,39.76-3.71,8.25-7.67,16.51-11.91,24.78l-9.22-.4c14.85-28.5,26.42-56.94,35.6-85.07,1.57-20.43-.85-40.86-7.26-61.27-6.52-20.7-17.13-41.45-31.87-62.21-1.33-1.89-.89-4.5.99-5.84,1.88-1.34,4.49-.89,5.83.99,15.23,21.47,26.23,43,33.01,64.55,3.84,12.24,6.33,24.48,7.45,36.71,12.57-45.38,19.53-89.74,24.62-132.08-4.92-17.94-10.41-33.12-16.48-45.55-6.03-12.36-12.58-21.89-19.65-28.58-1.68-1.58-1.75-4.23-.17-5.91,1.58-1.68,4.23-1.75,5.91-.16,7.84,7.41,14.99,17.74,21.47,31,4.02,8.25,7.8,17.66,11.33,28.24,1.23-11.18,2.37-22.21,3.48-33.05l.87-8.44c0-.15.03-.31.05-.46,5.96-57.53,11.97-109.88,28.98-154.36Z"/>
      <path class="cls-9" d="M2133.19,1502.93c14.54-7.84,32.06-11.98,42.23-25,12-15.37,9.57-37.94,19.66-54.64,12.68-21.01,40.37-26.34,60.28-40.69,19.49-14.05,16.83-22.7,27.27-44.34,15.73-32.62,60.89-63.03,92.48-36.29,32.05,27.17,11.43,58.93-6.06,81.99-12.46,16.42-10.55,20.35-13.9,40.69-4.03,24.57,4.34,53.53-12.21,72.13-10.24,11.49-27.26,14.96-37.7,26.28-11.82,12.82-12.27,32-16.5,48.93-5.61,22.47-15.4,40.52-30.89,55.12-41.78-3.16-90.9-6.1-146.32-8.8-4.25-6.08-7.71-12.7-10.18-19.71-11.89-33.68-.83-78.07,31.84-95.67Z"/>
      <path class="cls-4" d="M2345.55,1324.9c1.21-1.26,3.22-1.29,4.49-.08,1.26,1.21,1.29,3.22.08,4.48-6.09,6.32-11.88,13.18-17.45,20.52,1.15-.4,2.33-.76,3.53-1.1,5.32-1.5,11-2.37,17.04-2.61,1.75-.07,3.22,1.3,3.29,3.04.07,1.75-1.3,3.22-3.04,3.29-5.56.22-10.75,1.02-15.58,2.38-4.58,1.29-8.85,3.09-12.8,5.41-11.3,16.22-21.88,34.34-32.66,53.59,5.61-3.82,11.23-6.99,16.84-9.53,9.75-4.42,19.51-6.9,29.31-7.48,1.74-.1,3.24,1.24,3.35,2.98.1,1.74-1.23,3.24-2.98,3.34-8.98.52-18.01,2.84-27.07,6.94-9.01,4.08-18.05,9.92-27.09,17.51l-2.9,5.24c-6.36,11.5-12.89,23.3-19.75,35.27-.06.11-.13.23-.2.34-7.18,12.5-14.73,25.18-22.87,37.87,10.44-7.05,20.89-12.77,31.33-17.16,15.31-6.43,30.62-10.01,45.93-10.72,1.75-.08,3.23,1.27,3.31,3.02.08,1.74-1.27,3.23-3.02,3.31-14.56.68-29.15,4.09-43.76,10.23-14.58,6.12-29.19,14.96-43.83,26.51-11.3,16.59-23.73,33.1-37.74,49.18h0s-.05.07-.05.07h0c-6.87,7.88-14.13,15.66-21.82,23.3,12.05-3.82,24.21-6.39,36.48-7.69,17.09-1.81,34.35-1.19,51.78,1.89,1.72.3,2.88,1.95,2.57,3.67-.3,1.72-1.95,2.88-3.67,2.58-16.87-2.97-33.54-3.6-50-1.84-16.29,1.73-32.42,5.78-48.38,12.14-5.5,5.09-11.22,10.09-17.17,15.01l-9.45-.49c20.74-16.57,38.74-34.25,54.68-52.5,7.15-13.77,11.52-28.72,13.09-44.83,1.61-16.36.35-33.94-3.76-52.78-.37-1.71.72-3.4,2.43-3.77,1.7-.37,3.39.71,3.77,2.41,4.24,19.47,5.53,37.72,3.87,54.74-.95,9.67-2.84,18.93-5.69,27.78,22.2-27.89,40.2-56.72,56.29-84.71,1.89-13.95,2.56-26.16,2.02-36.6-.54-10.4-2.28-18.98-5.23-25.73-.7-1.6.03-3.48,1.63-4.17,1.6-.71,3.47.03,4.18,1.63,3.26,7.48,5.18,16.8,5.76,27.95.36,6.94.2,14.61-.47,23.03,4.17-7.43,8.23-14.77,12.22-21.99l3.1-5.62c.05-.1.11-.21.17-.31,21.2-38.31,40.89-73,65.92-98.93Z"/>
      <path class="cls-3" d="M1417.89,389.3h-481.7c-46.44,0-84.36,37.92-84.36,84.36v145.6h0c-7.69,0-13.98,6.29-13.98,13.99v118.49c0,7.69,6.29,13.98,13.98,13.98h0v751.95c0,46.43,37.91,84.35,84.36,84.35h481.7c46.44,0,84.36-37.92,84.36-84.35v-637.61c.4.03.79.05,1.19.05h0c7.69,0,13.99-6.29,13.99-13.98v-118.49c0-7.69-6.3-13.98-13.99-13.98h0c-.4,0-.8.02-1.19.05v-40.32c.4.04.79.06,1.19.06h0c7.69,0,13.99-6.29,13.99-13.99v-118.48c0-7.69-6.3-13.98-13.99-13.98h0c-.4,0-.8.02-1.19.05v-73.36c0-46.43-37.91-84.36-84.36-84.36Z"/>
      <path class="cls-1" d="M1417.89,411.81h-481.7c-34.03,0-61.86,27.83-61.86,61.85v1044c0,34.02,27.83,61.85,61.86,61.85h481.7c34.02,0,61.86-27.83,61.86-61.85V473.66c0-34.02-27.84-61.85-61.86-61.85Z"/>
      <path class="cls-34" d="M936.79,434.76h481.7c20.13,0,36.48,16.35,36.48,36.48v962.79c0,20.13-16.35,36.48-36.48,36.48h-481.7c-20.13,0-36.48-16.35-36.48-36.48V471.25c0-20.13,16.35-36.48,36.48-36.48Z"/>
      <path class="cls-4" d="M1067.48,422.72h266.04c1.81,0,3.29.91,3.29,2.03h0c0,1.12-1.48,2.03-3.29,2.03h-266.04c-1.81,0-3.29-.91-3.29-2.03h0c0-1.12,1.48-2.03,3.29-2.03h0ZM1047.85,422.72h-26.1c-1.81,0-3.29.91-3.29,2.03h0c0,1.12,1.48,2.03,3.29,2.03h26.1c1.81,0,3.29-.91,3.29-2.03h0c0-1.12-1.48-2.03-3.29-2.03Z"/>
      <path class="cls-1" d="M1302.07,434.04h-248.88c2.47,8.01,9.96,13.86,18.75,13.86h211.38c8.79,0,16.27-5.85,18.74-13.86Z"/>
      <path class="cls-25" d="M978.55,564.31c0,9.02,7.31,16.33,16.33,16.33h365.53c9.01,0,16.32-7.31,16.32-16.33v-49.28c0-9.02-7.31-16.33-16.32-16.33h-365.53c-9.02,0-16.33,7.31-16.33,16.33v49.28Z"/>
      <path class="cls-1" d="M1376.73,564.31c0,9.02-7.31,16.33-16.32,16.33h-49.3c-9,0-16.32-7.31-16.32-16.33v-49.28c0-9.02,7.32-16.33,16.32-16.33h49.3c9.01,0,16.32,7.31,16.32,16.33v49.28Z"/>
      <path class="cls-26" d="M1335.22,522.33c4.41,3.52,6.19,9.09,5.06,14.25-.44,2.1-1.36,4.09-2.78,5.87-1.41,1.79-3.19,3.15-5.1,4.05-4.8,2.24-10.63,1.75-15.03-1.74-6.2-4.92-7.21-13.95-2.28-20.15,4.93-6.18,13.93-7.21,20.12-2.28h0ZM1310.5,520.97c-6.97,8.7-5.51,21.41,3.2,28.35,6.99,5.58,16.54,5.75,23.64,1.13l17.78,14.17c1.37,1.07,3.05,1.51,4.66,1.31,1.62-.18,3.15-.95,4.24-2.34,2.18-2.73,1.73-6.73-1-8.91l-17.78-14.15c2.92-7.94.61-17.23-6.37-22.78-8.73-6.96-21.44-5.51-28.37,3.22Z"/>
      <path class="cls-4" d="M1002.91,555.35c2.43,2.27,5.69,3.82,8.79,3.82,3.82,0,5.89-1.7,5.89-4.35,0-2.79-2.17-3.66-5.22-4.96l-4.65-2.01c-3.31-1.4-6.82-4.03-6.82-8.99,0-5.38,4.76-9.52,11.36-9.52,3.94,0,7.77,1.66,10.39,4.29l-3.05,3.82c-2.17-1.8-4.44-2.9-7.34-2.9-3.19,0-5.32,1.5-5.32,3.99,0,2.62,2.58,3.62,5.38,4.75l4.61,1.91c3.97,1.7,6.81,4.24,6.81,9.14,0,5.48-4.55,10.03-12.14,10.03-4.55,0-9-1.8-12.2-4.96l3.51-4.08h0ZM1185.18,556.33c2.18,0,3.82,1.71,3.82,4.04s-1.65,4.03-3.82,4.03-3.87-1.7-3.87-4.03,1.69-4.04,3.87-4.04h0ZM1170.97,556.33c2.17,0,3.83,1.71,3.83,4.04s-1.66,4.03-3.83,4.03-3.87-1.7-3.87-4.03c0-2.33,1.7-4.04,3.87-4.04h0ZM1156.76,556.33c2.17,0,3.83,1.71,3.83,4.04s-1.66,4.03-3.83,4.03-3.88-1.7-3.88-4.03,1.7-4.04,3.88-4.04h0ZM1124.58,527.29h5.94v9.4l-.21,4.9c2.11-2.01,4.65-3.82,8.11-3.82,5.43,0,7.8,3.67,7.8,10.08v15.92h-5.94v-15.15c0-4.18-1.19-5.73-3.99-5.73-2.22,0-3.66,1.08-5.78,3.15v17.73h-5.94v-36.49h0ZM1111.77,537.78c3.26,0,5.74,1.3,7.44,2.95l-2.85,3.77c-1.34-1.19-2.68-1.86-4.27-1.86-4.09,0-6.94,3.36-6.94,8.47s2.79,8.43,6.77,8.43c2.07,0,3.83-1.02,5.22-2.18l2.49,3.77c-2.39,2.12-5.44,3.26-8.33,3.26-6.92,0-12.24-4.86-12.24-13.28s5.95-13.33,12.71-13.33h0ZM1081.95,538.4h4.91l.41,4.5h.22c1.8-3.32,4.49-5.12,7.18-5.12,1.29,0,2.11.16,2.9.52l-1.03,5.17c-.88-.27-1.56-.42-2.65-.42-2.01,0-4.44,1.39-5.99,5.22v15.5h-5.94v-25.38h0ZM1063.25,559.74c2.07,0,3.67-1.02,5.53-2.78v-5.68c-6.87.87-9.15,2.68-9.15,5.21,0,2.28,1.5,3.25,3.62,3.25h0ZM1068.78,547.55c-.05-2.68-1.19-4.97-4.6-4.97-2.54,0-4.9,1.14-7.14,2.49l-2.16-3.99c2.8-1.75,6.35-3.31,10.39-3.31,6.36,0,9.45,3.88,9.45,10.96v15.04h-4.85l-.47-2.79h-.15c-2.28,1.91-4.86,3.41-7.86,3.41-4.44,0-7.55-3-7.55-7.44,0-5.43,4.56-8.27,14.94-9.4h0ZM1044.71,548.83c0-4.03-1.71-6.46-5.17-6.46-3,0-5.59,2.22-6.1,6.46h11.27ZM1039.39,537.78c6.87,0,10.49,4.97,10.49,12.04,0,1.14-.1,2.18-.26,2.79h-16.12c.51,4.6,3.41,7.19,7.48,7.19,2.18,0,4.04-.69,5.9-1.87l2.01,3.73c-2.42,1.6-5.48,2.73-8.69,2.73-7.02,0-12.5-4.9-12.5-13.28s5.74-13.33,11.69-13.33Z"/>
      <rect class="cls-32" x="1055.89" y="632.39" width="729.69" height="413.62"/>
      <rect class="cls-33" x="1110.01" y="721.01" width="621.47" height="33.11"/>
      <path class="cls-2" d="M1181.21,896.59h478.33c4.43,0,8.05-2.25,8.05-4.9h0c0-2.65-3.66-4.9-8.05-4.9h-478.33c-4.39,0-8.05,2.2-8.05,4.9h0c0,2.7,3.62,4.91,8.05,4.91h0ZM1543.79,850.88h116.5c4.43,0,8.05-2.23,8.05-4.9h0c0-2.67-3.68-4.9-8.05-4.9h-116.5c-4.38,0-8.05,2.2-8.05,4.9h0c0,2.7,3.62,4.9,8.05,4.9h0ZM1422.51,805.17h237.29c4.42,0,8.05-2.26,8.05-4.9h0c0-2.65-3.68-4.91-8.05-4.91h-237.29c-4.38,0-8.05,2.21-8.05,4.9h0c0,2.7,3.63,4.9,8.05,4.9h0ZM1181.21,805.17h197.26c4.43,0,8.05-2.21,8.05-4.9h0c0-2.69-3.63-4.91-8.05-4.91h-197.26c-4.42,0-8.05,2.21-8.05,4.9h0c0,2.7,3.62,4.9,8.05,4.9h0ZM1181.2,850.88h315.96c4.42,0,8.04-2.23,8.04-4.9h0c0-2.68-3.63-4.9-8.04-4.9h-315.96c-4.41,0-8.05,2.2-8.05,4.9h0c0,2.7,3.62,4.9,8.05,4.9Z"/>
      <path class="cls-2" d="M1422.51,689.06h237.29c4.42,0,8.05-2.26,8.05-4.9h0c0-2.65-3.68-4.9-8.05-4.9h-237.29c-4.38,0-8.05,2.2-8.05,4.9h0c0,2.7,3.63,4.9,8.05,4.9h0ZM1181.21,689.06h197.26c4.43,0,8.05-2.21,8.05-4.9h0c0-2.69-3.63-4.9-8.05-4.9h-197.26c-4.42,0-8.05,2.2-8.05,4.9h0c0,2.7,3.62,4.9,8.05,4.9Z"/>
      <path class="cls-2" d="M1123.81,979.4h138.25c4.43,0,8.05-2.21,8.05-4.9h0c0-2.69-3.63-4.9-8.05-4.9h-138.25c-4.42,0-8.06,2.21-8.06,4.9h0c0,2.69,3.62,4.91,8.06,4.91Z"/>
      <path class="cls-2" d="M1598.02,979.4h132.71c4.42,0,8.05-2.26,8.05-4.9h0c0-2.65-3.69-4.9-8.05-4.9h-132.71c-4.37,0-8.06,2.21-8.06,4.9h0c0,2.69,3.63,4.91,8.06,4.91Z"/>
      <rect class="cls-32" x="940.33" y="1105.23" width="474.61" height="25.3"/>
      <rect class="cls-32" x="940.33" y="1145.61" width="252.89" height="25.29"/>
      <rect class="cls-37" x="940.33" y="1190.71" width="474.61" height="57.61"/>
      <path class="cls-20" d="M1414.94,1190.71h-474.61v212.87h474.61v-212.87h0ZM1412.84,1192.81v208.67h-470.41v-208.67h470.41Z"/>
      <rect class="cls-32" x="940.33" y="1272.1" width="474.61" height="2.1"/>
      <rect class="cls-32" x="940.33" y="1297.79" width="474.61" height="2.1"/>
      <rect class="cls-32" x="940.33" y="1323.5" width="474.61" height="2.1"/>
      <rect class="cls-32" x="940.33" y="1349.2" width="474.61" height="2.1"/>
      <rect class="cls-32" x="940.33" y="1374.91" width="474.61" height="2.09"/>
      <path class="cls-28" d="M518.95,1397.25h27.78c2.54,0,4.63,2.08,4.63,4.63v23.15c0,2.54-2.08,4.63-4.63,4.63h-27.78c-2.54,0-4.63-2.08-4.63-4.63v-23.15c0-2.55,2.08-4.63,4.63-4.63Z"/>
      <path class="cls-7" d="M503.83,1409.68h270.97c10.48,0,19.06,8.58,19.06,19.06v176.3c0,10.48-8.58,19.06-19.06,19.06h-270.97c-10.49,0-19.06-8.58-19.06-19.06v-176.3c0-10.49,8.58-19.06,19.06-19.06Z"/>
      <path class="cls-20" d="M484.77,1466.69h309.09v-37.95c0-10.49-8.58-19.06-19.06-19.06h-270.97c-10.49,0-19.06,8.58-19.06,19.06v37.95Z"/>
      <path class="cls-20" d="M793.86,1587.07h-309.09v17.97c0,10.48,8.58,19.06,19.06,19.06h270.97c10.48,0,19.06-8.58,19.06-19.06v-17.97Z"/>
      <circle class="cls-36" cx="640.21" cy="1521.49" r="78.7" transform="translate(-888.35 898.33) rotate(-45)"/>
      <path class="cls-28" d="M523.45,1453.29c7.74,0,14.01,6.27,14.01,14.01s-6.27,14.01-14.01,14.01-14-6.27-14-14.01,6.27-14.01,14-14.01Z"/>
      <circle class="cls-37" cx="639.32" cy="1517.62" r="78.7" transform="translate(-885.87 896.56) rotate(-45)"/>
      <circle class="cls-35" cx="639.32" cy="1517.62" r="64.09" transform="translate(-991.6697 1745.1422) rotate(-75.0977)"/>
      <circle class="cls-35" cx="639.32" cy="1517.62" r="59.46" transform="translate(-991.7905 1744.2749) rotate(-75.0673)"/>
      <path class="cls-28" d="M639.32,1457.23c16.68,0,31.77,6.76,42.7,17.69,10.93,10.93,17.69,26.02,17.69,42.7s-6.76,31.77-17.69,42.7c-10.93,10.93-26.02,17.69-42.7,17.69s-31.77-6.76-42.7-17.69c-10.92-10.93-17.69-26.02-17.69-42.7s6.76-31.77,17.69-42.7c10.93-10.92,26.02-17.69,42.7-17.69h0ZM680.71,1476.23c-10.59-10.59-25.22-17.15-41.39-17.15s-30.79,6.55-41.38,17.15c-10.59,10.59-17.15,25.23-17.15,41.38s6.56,30.8,17.15,41.39c10.59,10.59,25.23,17.14,41.38,17.14s30.8-6.55,41.39-17.14c10.59-10.59,17.14-25.22,17.14-41.39s-6.55-30.79-17.14-41.38Z"/>
      <circle class="cls-37" cx="639.32" cy="1517.62" r="50.8" transform="translate(-983.1903 1799.3177) rotate(-77.0057)"/>
      <path class="cls-5" d="M606.91,1374.83h75.19c5.09,0,7.06,4.66,9.26,9.26l12.54,26.32h-117.96l-.45-1.96,12.15-24.36c2.28-4.56,4.17-9.26,9.26-9.26Z"/>
      <path class="cls-4" d="M664.97,1449.58c8.55,3.57,16.34,8.61,23.06,14.8.81.76,1.62,1.53,2.4,2.32.76.76,1.49,1.53,2.22,2.31.12.13.24.26.35.39,12.67,13.97,20.38,32.51,20.38,52.85,0,10.43-2.03,20.4-5.72,29.51,5.14-10.27,8.03-21.86,8.03-34.13,0-15.09-4.36-29.15-11.91-40.99-1.7-2.66-3.55-5.2-5.55-7.62-.64-.79-1.31-1.56-1.99-2.31-.71-.79-1.43-1.56-2.16-2.32-.25-.26-.51-.52-.76-.78-.11-.1-.21-.21-.33-.32-13.79-13.64-32.76-22.05-53.69-22.05-12.27,0-23.86,2.89-34.13,8.03,9.11-3.69,19.06-5.72,29.5-5.72s20.96,2.14,30.29,6.03Z"/>
      <path class="cls-4" d="M500.97,1415.77h270.97c10.48,0,19.06,8.58,19.06,19.06v29.55h.54v-35.63c0-4.61-1.88-8.79-4.92-11.83s-7.22-4.92-11.82-4.92h-270.97c-4.61,0-8.79,1.88-11.83,4.92-.7.7-1.34,1.46-1.91,2.28,3.09-2.16,6.84-3.43,10.88-3.43Z"/>
      <path class="cls-4" d="M517.12,1401.67h27.78c1.81,0,3.38,1.05,4.14,2.57v-2.37c0-.64-.26-1.21-.68-1.63v-.02c-.42-.42-1-.67-1.63-.67h-27.78c-.64,0-1.22.25-1.63.67v.02c-.38.37-.63.88-.67,1.45.15-.01.32-.02.47-.02Z"/>
      <path class="cls-17" d="M775.83,1615.78h-270.97c-8.06,0-15-5.08-17.77-12.19v1.45c0,4.6,1.88,8.79,4.92,11.82s7.22,4.93,11.83,4.93h270.97c4.6,0,8.78-1.89,11.82-4.93,2.42-2.42,4.1-5.56,4.69-9.07-3.46,4.83-9.13,7.99-15.49,7.99Z"/>
      <path class="cls-4" d="M652.81,1480.35c.9-1.24,2.63-1.51,3.87-.62,1.24.9,1.52,2.64.61,3.87l-31.09,42.75c-.9,1.24-2.64,1.52-3.88.62-1.24-.9-1.51-2.64-.62-3.88l31.1-42.75Z"/>
      <path class="cls-4" d="M615.22,1531.7c.89-1.25,2.62-1.54,3.87-.65,1.25.88,1.54,2.61.65,3.86l-6.52,9.14c-.88,1.25-2.61,1.54-3.86.65-1.25-.88-1.54-2.61-.65-3.86l6.52-9.14Z"/>
      <path class="cls-4" d="M623.2,1549.58c-.89,1.24-2.62,1.53-3.86.63-1.24-.89-1.53-2.62-.64-3.86l30.86-42.93c.9-1.24,2.62-1.53,3.87-.63,1.24.89,1.52,2.62.63,3.86l-30.86,42.93Z"/>
      <path class="cls-4" d="M663.88,1493.25c-.88,1.26-2.61,1.56-3.86.68-1.25-.88-1.56-2.61-.67-3.86l3.1-4.4c.88-1.26,2.61-1.56,3.86-.68,1.25.88,1.56,2.61.67,3.86l-3.1,4.4Z"/>
      <path class="cls-17" d="M519.07,1457.43c5.16,0,9.67,2.79,12.1,6.95.43.74.79,1.51,1.09,2.32.26.74.47,1.52.62,2.31.13.79.2,1.61.2,2.44,0,1-.1,1.98-.3,2.92,1.17-1.53,1.96-3.36,2.26-5.36.08-.56.13-1.12.13-1.71,0-.2,0-.4-.01-.6-.04-.8-.16-1.57-.35-2.32-.53-2.06-1.6-3.89-3.06-5.35-2.12-2.12-5.04-3.43-8.28-3.43-2.42,0-4.66.74-6.53,1.99.7-.11,1.41-.16,2.15-.16Z"/>
      <path class="cls-4" d="M680.44,1377.38c5.09,0,7.06,4.66,9.25,9.26l9.47,19.88h1.59l-10.97-23.01h0s-.29-.62-.29-.62c-1.76-3.71-3.47-7.32-6.88-7.32h-75.19c-1.58,0-2.78.78-3.8,2,.5-.11,1.05-.18,1.63-.18h75.19Z"/>
      <path class="cls-4" d="M664.96,1466.69c1.41.71,2.8,1.49,4.14,2.31,10.64,6.52,19.07,16.28,23.91,27.93,2.93,7.02,4.54,14.72,4.54,22.81,0,2.4-.14,4.78-.42,7.1.47-3,.72-6.09.72-9.23,0-8.3-1.72-16.19-4.84-23.34-2.95-6.78-7.14-12.89-12.3-18.05-2.68-2.68-5.62-5.1-8.77-7.23-1.22-.81-2.46-1.59-3.74-2.31-1.47-.84-2.98-1.61-4.52-2.32-7.42-3.4-15.66-5.29-24.36-5.29s-16.94,1.89-24.36,5.29c-1.54.71-3.05,1.48-4.51,2.32-1.28.72-2.53,1.5-3.75,2.31-1.43.97-2.81,1.98-4.16,3.07,1.46-1.09,2.97-2.11,4.53-3.07,1.34-.82,2.73-1.6,4.14-2.31,1.67-.86,3.4-1.63,5.16-2.32,6.73-2.63,14.05-4.09,21.71-4.09s14.99,1.46,21.71,4.09c1.76.69,3.48,1.46,5.16,2.32Z"/>
      <path class="cls-37" d="M731.05,1492.85h165.13c4.65,0,8.42,3.77,8.42,8.42v136.08c0,4.65-3.77,8.42-8.42,8.42h-165.13c-4.65,0-8.42-3.77-8.42-8.42v-136.08c0-4.65,3.77-8.42,8.42-8.42Z"/>
      <path class="cls-28" d="M825.68,1575.55l-22.24-41.04-22.24,41.04-22.24,41.04h109.3l-15.56-28.72-15.56-28.71-10.17,18.77-1.29-2.38h0ZM820.25,1532.58c0-5.82,4.72-10.54,10.54-10.54s10.54,4.72,10.54,10.54-4.72,10.54-10.54,10.54-10.54-4.72-10.54-10.54Z"/>
      <path class="cls-23" d="M1569.29,1266.16l2.65,12.79-2.65-12.79Z"/>
      <path class="cls-23" d="M1569.29,1266.16l11.29,2.33-11.29-2.33Z"/>
      <path class="cls-3" d="M2039.46,1615.11h-397.03c-21.86,0-39.74-17.88-39.74-39.74v-332.6c0-35.45,29-64.45,64.44-64.45h347.61c35.46,0,64.45,29,64.45,64.45v332.6c0,21.86-17.88,39.74-39.74,39.74Z"/>
      <path class="cls-3" d="M2079.49,1228.3v10.61c0-35.45-29.28-65.27-64.74-65.27h-347.61c-35.44,0-65.36,29.82-65.36,65.27v-10.61c0-35.92,30.3-66.06,66.22-66.06h345.9c35.91,0,65.58,30.15,65.58,66.06Z"/>
      <path class="cls-25" d="M2079.49,1237.64v325.33c0,22.14-18.41,41.49-40.55,41.49h-395.96c-22.15,0-41.19-19.35-41.19-41.49v-325.33c0-35.45,29.92-65.26,65.36-65.26h347.61c35.46,0,64.74,29.82,64.74,65.26Z"/>
      <path class="cls-1" d="M2079.49,1237.64v47.51h-477.7v-47.51c0-35.45,29.92-65.26,65.36-65.26h347.61c35.46,0,64.74,29.82,64.74,65.26Z"/>
      <path class="cls-27" d="M1685.35,1309.74c0,6.46-5.02,11.69-11.21,11.69s-11.21-5.23-11.21-11.69,5.02-11.7,11.21-11.7,11.21,5.23,11.21,11.69Z"/>
      <path class="cls-27" d="M1686.23,1238.99c0,6.96-5.41,12.61-12.09,12.61s-12.09-5.64-12.09-12.61,5.41-12.61,12.09-12.61c6.68,0,12.09,5.64,12.09,12.61Z"/>
      <path class="cls-27" d="M2018.63,1309.74c0,6.46-5.03,11.69-11.22,11.69s-11.21-5.23-11.21-11.69c0-6.47,5.02-11.7,11.21-11.7s11.22,5.23,11.22,11.69Z"/>
      <path class="cls-27" d="M2019.5,1238.99c0,6.96-5.4,12.61-12.09,12.61s-12.08-5.64-12.08-12.61,5.41-12.61,12.08-12.61c6.69,0,12.09,5.64,12.09,12.61Z"/>
      <path class="cls-3" d="M1674.36,1315.37h-.49c-4.49,0-8.15-3.66-8.15-8.14v-65.97c0-4.48,3.67-8.14,8.15-8.14h.49c4.47,0,8.14,3.66,8.14,8.14v65.97c0,4.48-3.67,8.14-8.14,8.14Z"/>
      <path class="cls-3" d="M2007.67,1315.37h-.51c-4.47,0-8.14-3.66-8.14-8.14v-65.97c0-4.48,3.67-8.14,8.14-8.14h.51c4.47,0,8.13,3.66,8.13,8.14v65.97c0,4.48-3.67,8.14-8.13,8.14Z"/>
      <path class="cls-1" d="M2039,1483.51l-112.7,118.51s4.25-20.87,4.29-33.97c.03-8.33-1.68-15.59-2.25-27.56-1.61-33.56,17.83-42.1,27.01-47.07,14.07-7.62,37.14-1.98,51.04-2.88,5.89-.38,28.25-1.36,32.63-7.03Z"/>
      <path class="cls-27" d="M2076.35,1476.05l-150.05,125.97s7.46-23.95,8.93-39.31c.92-9.75-.35-18.46.25-32.53,1.71-39.49,26.28-47.28,37.97-52.05,17.95-7.32,45.4,1.91,62.43,2.44,7.19.22,34.5,1.63,40.47-4.52Z"/>
      <rect class="cls-34" x="1651.87" y="1347.5" width="63.56" height="41.22"/>
      <rect class="cls-34" x="1651.87" y="1420.85" width="63.56" height="41.21"/>
      <rect class="cls-31" x="1753.02" y="1420.85" width="63.57" height="41.21"/>
      <rect class="cls-34" x="1854.17" y="1420.85" width="63.56" height="41.21"/>
      <rect class="cls-34" x="1953.37" y="1420.85" width="63.56" height="41.21"/>
      <rect class="cls-34" x="1651.87" y="1494.19" width="63.56" height="41.22"/>
      <rect class="cls-34" x="1753.02" y="1494.19" width="63.57" height="41.22"/>
      <rect class="cls-34" x="1854.17" y="1494.19" width="63.56" height="41.22"/>
      <rect class="cls-34" x="1753.02" y="1347.5" width="63.57" height="41.22"/>
      <rect class="cls-34" x="1854.17" y="1347.5" width="63.56" height="41.22"/>
      <rect class="cls-34" x="1955.32" y="1347.5" width="63.56" height="41.22"/>
      <path class="cls-17" d="M1837.56,733.61h105.07c8.35,0,15.1-6.66,15.1-14.87v-103.43c0-8.21-6.75-14.87-15.1-14.87h-105.07c-8.34,0-15.1,6.66-15.1,14.87v103.43c0,8.21,6.76,14.87,15.1,14.87Z"/>
      <path class="cls-34" d="M1844.69,633.47h90.82c5.13,0,9.3,4.17,9.3,9.3v48.51c0,5.13-4.17,9.3-9.3,9.3h-90.82c-5.13,0-9.3-4.17-9.3-9.3v-48.52c0-5.13,4.17-9.3,9.3-9.3Z"/>
      <path class="cls-4" d="M1844.69,633.65h90.82c4.08,0,7.57,2.5,8.82,6.17-.13.11-.27.22-.41.32l-44.16,33.01c-5.31,3.97-14.01,3.97-19.32,0l-44.16-33.01c-.13-.1-.27-.21-.4-.32,1.24-3.68,4.73-6.17,8.82-6.17Z"/>
      <path class="cls-17" d="M1944.64,640.98c-14.22,11.3-29.63,22.15-44.22,33.05-2.85,2.13-6.59,3.2-10.32,3.2s-7.47-1.07-10.32-3.2c-14.58-10.9-29.99-21.76-44.22-33.05.15-.78.41-1.54.76-2.25l.88.72,43.9,32.81c2.47,1.84,5.73,2.76,9.01,2.76s6.54-.92,9-2.76l43.9-32.81.9-.67c.33.69.58,1.43.73,2.2Z"/>
      <path class="cls-19" d="M544.83,795.8c-38.82,14.07-63.72,15.42-74.72,4.07-11.17-2.59-18.46-12.5-21.83-29.7-11.56-26.21-1.67-68.08,14.58-47.34,13.44-34.4,67.38-14.45,97.8-33.53,18.46,12.06,11.44,41.88-1.83,51.96.52,34.3-1.36,52.62-13.99,54.54Z"/>
      <path class="cls-19" d="M454.08,726.58c4.2-3.24,5.55-6.77,4.06-10.61-6.44-3.62-12.57-3.73-18.38-.35,3.53.2,8.3,3.86,14.32,10.96Z"/>
      <path class="cls-19" d="M462.09,717.54c-2.98,3.34-5.72,4.08-8.22,2.22-1.54-6.3-.64-11.83,2.72-16.61-.42,3.2,1.41,8,5.5,14.39Z"/>
      <path class="cls-19" d="M482.62,731.91c-7.32-2.89-12.85-1.92-16.61,2.9.3,10.97,5.99,33.02,14.72,37.85,1.52-1.07,1.17-24.27,1.89-40.75Z"/>
      <path class="cls-19" d="M485.35,721.31c-12.37,6.01-16.44,11.42-12.24,16.24,18.66,2.76,36.52.74,53.59-6.05-10.28.97-24.07-2.42-41.35-10.19Z"/>
      <path class="cls-19" d="M557.93,739.82c-14-14.14-40.41-15.84-76.81-2.54-23.03-5.72-28.2-16.35-18.48-33.67,13.74-24.46,43.49-5.12,79.93-28.14-1.39,17.88,52.85,33.21,15.35,64.35Z"/>
      <path class="cls-18" d="M470.4,751.84c9.66-2.06,8.75,17.77,8.02,27.6-1.43,19.33-23.22-24.37-8.02-27.6Z"/>
      <path class="cls-19" d="M419.03,1644.49c-18.14-6.39-19.6-15.74-29.38-20.31-9.84-4.59-10.97-12.79-1.35-21.68,7.12,5.69,15.93,12.67,20.61,8.97,3.12-2.47,13.7-2.3,15.8,1.29,9.22,21.43,22.04,14.64,24.57,24.39.29,12.99-21.92,10.28-30.25,7.35Z"/>
      <path class="cls-19" d="M574.84,1645.14c-33.49-.54-58.53-.94-70.09-4.59-12.48-3.94-9.9-11.55-2.73-23.73,31.57,14.52,23.15-2.98,37.92-.76,10.37,8.35,25.74,13.95,46.09,16.79,8.61,6.35,5.11,12-11.19,12.29Z"/>
      <path class="cls-18" d="M459.11,832.32c5.35.38,13.79-.64,15.28-2.55,5.69-7.22,9.63-14.76,11.09-19.51-1.11-3.17-2.28-7.16-3.48-11.98-20.61-14-23.43-24.36-8.45-31.07,3.02,1.69,6.76,6.9,11.23,15.64,3.57-.14,6.28-1.97,8.12-5.48-4.25-14.73-7.02-26.71-8.3-35.91,10.15-15.09,33.9-17.25,65.35-13.17,1.46,8.37,2.66,17.23,3.59,26.6,3.92,3.6,15.3,63.93-23.33,66.37-.26,4.42.15,9.83.44,10.44.45.96,2.04,1.88,4.25,2.66h0c.6,20.55-24.66,19.86-75.79-2.04Z"/>
      <path class="cls-19" d="M549.95,728.29c-31.45-4.08-55.2-1.92-65.36,13.17,1.29,9.2,4.06,21.17,8.31,35.91-1.84,3.51-4.55,5.34-8.12,5.48-4.47-8.73-8.22-13.95-11.23-15.64-14.98,6.71-12.16,17.07,8.45,31.07,1.21,4.83,2.37,8.82,3.48,11.98-18.54-4.16-34.06-20.74-36.24-27.92-21.63-42.63,2.5-60.63,15.4-67.2,5.7-42.22,67-4.9,97.71-25.25,12.21,16.86-2.89,38.01-12.4,38.39Z"/>
      <path class="cls-28" d="M738.67,907.1c-15.56,66.63-42.9,118.34-82,155.13-14.1-4.27-26.6-13.91-37.52-28.9.59,48.2-.62,96.17-3.6,143.91-28.55,13.53-66.44,12.66-113.69-2.62l-19.17-23.61c-4.92-.95-16.1,4.48-21.47,12.77-44.87-34.25-75.13-71.06-92.98-107.62,4.82-78.56,15.5-140.55,32.02-185.96,8.35-12.84,27.97-25.47,58.86-37.88,51.13,21.91,76.4,22.59,75.79,2.04,15.04,4.94,34.98,13.67,59.85,26.2,20.72,15.74,38.38,58.42,52.96,128.02,23.73-29.72,48.34-61.24,73.84-94.54,5.67,1.6,11.38,5.96,17.13,13.05h0ZM472.35,1129.72c14.88-48.92,6.67-109.27-24.64-181.06-7.88,35.42-16.39,70.27-25.54,104.58,10.63,5.05,27.35,30.54,50.18,76.48Z"/>
      <path class="cls-11" d="M466.79,1193.48c7.26-.57,18.94-6.85,35.06-18.86,47.25,15.28,85.15,16.15,113.69,2.62,5.08,80.36-14.67,164.62-39.74,258.52-24.55,41.23-23.5,70.21-36.59,165.34-7.26,5.19-19.27,4.43-36.01-2.25-5.31-81.11-1.65-134.81,19.4-165.08-3.3-27.19,5.31-94.04,5.72-136.01-15.31,34.13-25.83,80.24-45.78,126.8-24.29,56.7-41.21,117.38-54.02,172.73-13.55,2.63-26.26,1.08-38.11-4.66,13.61-90.98,28.68-153.59,45.24-187.84-.64-89.45,7.88-169.79,25.55-241.02,3.29,8.41,5.15,18.3,5.58,29.69Z"/>
      <path class="cls-18" d="M501.85,1174.62c-16.12,12-27.8,18.29-35.06,18.86-.42-11.39-2.28-21.28-5.58-29.69,5.36-8.29,16.55-13.73,21.47-12.77l19.17,23.61Z"/>
      <path class="cls-30" d="M619.14,1033.33c-1.56-46.81-5.31-85.19-11.26-115.13,15.14,63.58,29.81,105.77,44.02,126.58,8.97-.28,20.34-5.6,34.11-15.96-8.91,12.24-18.69,23.38-29.35,33.41-14.1-4.27-26.6-13.91-37.52-28.9Z"/>
      <path class="cls-30" d="M482.68,1151.01c-2.75-6.8-6.19-13.9-10.33-21.29,14.88-48.92,6.67-109.27-24.64-181.06,45.53,64.72,58.44,133.72,38.74,206.99l-3.77-4.64Z"/>
      <path class="cls-13" d="M509.54,816.93c5.02,2.49,11.91,3.93,20.67,4.34-.17,2.96-.05,6.37.14,8.49-8.8-1.7-15.74-5.97-20.81-12.82Z"/>
      <path class="cls-18" d="M505.18,1618.22c1.69-5.53,2.33-11.5,1.91-17.9,12.77,4.59,22.53,5.39,29.25,2.41-.35,4.74.19,9.12,1.63,13.14-11.63-.41-6.32,13.68-32.79,2.35h0ZM420.77,1610.37c-4.02-1.06-9.71-.61-11.86,1.09-4.18,3.31-11.68-1.92-18.3-7.13,1.14-3.14,2.09-6.58,2.83-10.32,7.98,3.34,16.34,4.83,25.06,4.48-.12,4.76.64,8.72,2.27,11.88Z"/>
      <path class="cls-6" d="M466.31,1204.89c.51-4.13.67-7.93.48-11.42,7.26-.57,18.94-6.85,35.06-18.87,3.83,1.24,7.6,2.39,11.31,3.43-11.34,11.8-26.96,20.75-46.85,26.85Z"/>
      <path class="cls-18" d="M738.67,907.1c.95-2.38,4.8-9.77,8.56-19.04,9.34-4.8,16.8-15.29,22.38-31.46-3.34-10.85-10.39-17.63-21.15-20.34-3.63,13.41-9.06,23.26-16.27,29.56,1.79-13.99-.52-18.37-6.92-13.16.87,1.79.92,4.05.14,6.78-4.34,7.07-3.95,15.13,1.16,24.16-1.95,4.09-4.08,8.21-5.03,10.44,5.82,1.86,11.24,5.92,17.13,13.05Z"/>
      <path class="cls-4" d="M774.35,800.24l20,95.59c.71,3.4-1.47,6.74-4.88,7.45l-41.23,8.62c-1.89.4-3.74-.1-5.15-1.19h0c-1.13-.88-1.97-2.16-2.28-3.67l-20-95.6c-.71-3.4,1.47-6.73,4.87-7.45l41.24-8.62c3.4-.71,6.73,1.47,7.44,4.88Z"/>
      <path class="cls-10" d="M743.27,910.58c1.41,1.07,3.2,1.48,4.93,1.12l41.24-8.63c3.28-.69,5.39-3.92,4.71-7.2l-19.99-95.6c-.69-3.29-3.92-5.4-7.2-4.71l-41.24,8.63c-3.29.69-5.4,3.91-4.71,7.2l19.99,95.6c.3,1.41,1.08,2.67,2.21,3.55l.05.05h0ZM789.51,903.47l-41.23,8.62c-1.87.39-3.81-.06-5.32-1.23l-.06-.05c-1.18-.94-1.99-2.27-2.3-3.75l-19.99-95.6c-.74-3.5,1.52-6.95,5.02-7.69l41.24-8.62c3.5-.74,6.95,1.52,7.69,5.03l19.99,95.59c.74,3.5-1.52,6.95-5.03,7.69Z"/>
      <path class="cls-30" d="M725.93,805.19c-2.73.57-4.49,3.26-3.91,5.99l19.99,95.59c.57,2.73,3.26,4.49,5.99,3.92l41.23-8.62c2.73-.57,4.49-3.26,3.91-5.98l-19.99-95.6c-.57-2.73-3.26-4.49-5.99-3.92l-41.23,8.62h0ZM789.72,904.48l-41.23,8.62c-4.06.85-8.06-1.76-8.9-5.82l-19.99-95.59c-.85-4.06,1.76-8.06,5.82-8.9l41.23-8.62c4.06-.85,8.05,1.76,8.9,5.82l19.99,95.59c.85,4.06-1.76,8.06-5.82,8.9Z"/>
      <path class="cls-9" d="M788.8,900.06c-7.67,1.61-23.63,4.91-26.77,5.62.39-2,7.76-18.36,7.76-18.36l13.45-2.81c1.88-.4,3.09-2.24,2.7-4.13l-13.93-66.6c-.04-.2-.1-.4-.18-.59h0s0-.01,0-.01c-.03-.08-.06-.15-.09-.22.09,0,.18-.02.28,0h.39l-.22-.32c-.73-1.05-1.93-1.64-3.18-1.59-.18-.02-.37-.03-.55-.02-.28-4.06-.67-8.18-1.15-12.38l.27-.06c1.62-.34,3.22.71,3.56,2.34l19.99,95.59c.34,1.63-.71,3.22-2.33,3.56Z"/>
      <path class="cls-4" d="M741.25,883.73l9.9,6.15c.24.14.55.07.69-.16l4.7-7.57.45-.72,2.99-4.8c.14-.23.07-.55-.17-.69l-7.11-4.42c-.23-.15-.54-.08-.69.16l-2.72,4.37c-.15.23-.46.31-.69.16l-2.21-1.37c-.24-.15-.55-.08-.69.16l-4.7,7.57c-.07.1-.09.24-.06.37l.1.47c.03.13.1.25.22.33Z"/>
      <path class="cls-4" d="M774.37,868.51c.48,5.06-2.5,11.51-9.14,19.66-.07.08-.18.15-.29.18l-2.2.46s-.08.02-.11.03c-.49.23-.95-.35-.61-.78,6.23-7.66,10.32-15,9.9-19.31-.15-1.55-.72-2.88-1.72-4.04-.25-.29-.53-.57-.84-.84-.2-.18-.22-.49-.05-.69l.91-1.14c.18-.22.5-.25.72-.07,1.23,1.07,2.14,2.32,2.72,3.69.37.88.61,1.84.71,2.84Z"/>
      <path class="cls-30" d="M731.29,819.82c-1.31.28-2.15,1.56-1.87,2.87l13.93,66.6c.28,1.31,1.56,2.15,2.87,1.87l36.81-7.69c1.31-.28,2.15-1.56,1.88-2.87l-13.93-66.6c-.28-1.31-1.56-2.15-2.87-1.88l-36.82,7.7h0ZM783.46,885.55l-36.81,7.7c-2.46.51-4.88-1.07-5.39-3.53l-13.93-66.59c-.51-2.46,1.07-4.88,3.53-5.38l36.81-7.7c2.45-.52,4.87,1.07,5.38,3.52l13.93,66.6c.52,2.46-1.07,4.87-3.52,5.38Z"/>
      <path class="cls-30" d="M752.71,808.14l-8.9,1.87c-.44.09-.88-.19-.97-.64-.09-.45.19-.88.64-.97l8.9-1.86c.45-.09.88.19.97.64.09.45-.19.88-.64.97Z"/>
      <path class="cls-30" d="M749.13,804.74l-3.41.71c-.33.07-.66-.14-.73-.47-.07-.34.15-.66.48-.73l3.4-.71c.33-.07.66.14.73.47.07.33-.14.66-.47.73Z"/>
      <path class="cls-30" d="M760.05,805.78c.18.9-.39,1.78-1.29,1.97-.9.19-1.78-.39-1.97-1.29-.19-.9.39-1.78,1.29-1.97.9-.19,1.78.39,1.97,1.29Z"/>
      <path class="cls-24" d="M766.56,903.26l-.81-.17c-2.05-.43-3.65-2.03-4.07-4.08-.59-2.84,1.24-5.63,4.08-6.23,1.59-.33,3.22.08,4.46,1.12l.63.53-.11-.02c-1.21-1.34-3.1-2.03-4.99-1.63-2.84.59-4.67,3.39-4.08,6.23.5,2.36,2.5,4.02,4.79,4.18l.08.07Z"/>
      <path class="cls-18" d="M732.18,865.81c4.48-10.8-.52-18.37-6.92-13.16.87,1.79.92,4.05.13,6.78-2.74,4.48-3.59,9.35-2.55,14.62l9.33-8.25Z"/>
      <path class="cls-19" d="M545.46,717.9c4.74,3.65,6.28,7.64,4.59,11.98-7.28,4.08-14.2,4.22-20.77.4,3.99-.23,9.38-4.36,16.18-12.38Z"/>
      <path class="cls-30" d="M537.68,835.3c-.27,3.74-1.03,6.25-2.41,8.96v.02c-1.92,3.77-4.87,6.49-8.84,8.17-3.75,1.58-8.37,2.17-13.85,1.79-12.94-.92-34.27-8.14-57.83-20.13l6.94-2.72c22.88,11.64,39.12,16.3,51.3,17.16,4.59.32,8.34-.12,11.24-1.34,2.67-1.12,4.66-2.97,5.96-5.51h0c1.02-2.03,1.71-5.62,1.91-8.59l5.58,2.21Z"/>
      <path class="cls-30" d="M522.43,871.51c5.87,0,10.64-3.93,10.64-8.75s-4.78-8.75-10.64-8.75-10.65,3.94-10.65,8.75,4.78,8.75,10.65,8.75Z"/>
      <path class="cls-30" d="M525.45,872.72c3.96-.55,7.53,1.64,7.98,4.89.45,3.25-2.39,6.32-6.34,6.87-3.95.55-7.53-1.64-7.98-4.89-.45-3.25,2.39-6.33,6.34-6.87Z"/>
      <path class="cls-29" d="M511.92,753.77c-2.53,0-4.6,2.06-4.6,4.61s2.06,4.6,4.6,4.6,4.61-2.06,4.61-4.6-2.06-4.61-4.61-4.61Z"/>
      <path class="cls-15" d="M511.92,762.98c-2.54,0-4.6-2.06-4.6-4.61s2.06-4.6,4.6-4.6c1.07,0,2.05.36,2.83.97l-.35-.04c-.83,0-1.5.67-1.5,1.49s.67,1.49,1.5,1.49,1.49-.66,1.49-1.49v-.17c.4.69.64,1.49.64,2.35,0,2.55-2.06,4.61-4.61,4.61Z"/>
      <path class="cls-15" d="M516.63,750.24c.11.08.2.13.3.23-.16-.4-.71-.91-.93-1.23.21.14.34.18.57.43.19.21.32.44.48.72,0-.32-.15-.52-.2-.8.17.2.32.61.37.86-.1-.92-.14-.86-.57-1.69.41.23.78,1.03.88,1.5.08-.2.05-.47.03-.74.19.3.2.45.23.77l.21-.36c-.02.21-.08.27-.09.44.42-.39,1.11-1.65.96-2.25-.06.27-.19.77-.32.94.01-.45.12-.95,0-1.45-.1.33-.01.77-.07,1.13-.06.36-.15.79-.31,1.02.06-.76.23-1.39-.07-2.18v.2c.02.39.08.81.03,1.19-.17-.68-.16-1.33-.79-1.79.16.28.3.43.44.76-.34-.29-.52-.85-1.03-.87.25.24.48.39.75.74.21.27.54.74.45,1.12-.46-1.23-1.24-1.82-2.13-1.97.25.1,1.03.56,1.12.86v.06c-.01.34-.08-.3,0,.08.18.1.4.36.53.57.08.12.17.27.22.43.03.06.08.19.09.26.01.08,0,.07,0,.13v.08c-.33-.82-.66-1.26-1.28-1.67-.38-.25-1.25-.67-1.72-.68,0,0,.02.01.03.01l.42.16c1,.4,1.98.89,2.39,2.06-.06-.04,0,.01-.09-.09-.03-.03-.03-.03-.05-.06-.24-.33-.49-.69-.81-.95-.33-.29-.74-.57-1.09-.71-.45-.2-1.89-.59-2.58-.44.21-.03,1.56.23,1.78.3.5.15,1.15.37,1.56.82-.2-.04-.43-.16-.63-.23-1.26-.42-3.43-1.02-4.69-.82.79.08,1.93.32,2.55.59l-.49-.05c.13.05.25.12.4.17.15.05.26.08.4.15.69.32,1.74.86,2.18,1.54-.18-.15-.43-.3-.64-.44-.24-.16-.44-.28-.68-.42-.44-.25-.94-.53-1.41-.71-1.01-.37-1.97-.66-3.08-.79.15.04.31.08.45.22-.89.04-2.4-.52-4.62-.39.49.12,1.28.1,1.83.2l.52.14c-.3.04-1.27-.11-1.66-.15-1.92-.17-3.12-.3-5.17-.08-1.31.15-2.54.27-3.8.96-.81.45-1.57.96-2.21,1.61-.23.22-.34.39-.52.6.5-.32,1.55-1.6,2.69-1.96-1.69,1.23-3.01,2.3-4.13,3.82.32-.25.76-.75,1.1-1.08.39-.37.79-.7,1.21-1.04.74-.61,1.95-1.46,2.93-1.82-.21.21-.81.59-1.1.79-2.09,1.48-4.06,3.14-5.84,4.97-.21.22-.62.75-.79.88.21-.11.95-.84,1.21-1.05,1.34-1.13,2.59-2.17,4.3-2.85-.42.41-3.46,2.01-4.36,3.03l2.58-1.66c.79-.47,2.13-1.21,3.03-1.43-1.02.31-4.87,2.56-5.61,3.34.42-.19,1-.61,1.44-.86.52-.29,1.03-.56,1.57-.82,1.1-.53,2.27-1.01,3.44-1.29,1.6-.39,3.14-.52,4.72-.52.46,0,1.07.05,1.51,0-.27-.13-1.05-.1-1.34-.12-.92-.04-1.84-.01-2.76.06-.37.03-1.11.2-1.41.18,1.07-.39,1.94-.37,2.86-.59-.08,0-.03,0-.12,0-.09-.03-.04-.01-.11-.05.58-.11,1.72-.01,2.27.06.65.09,1.98.46,2.05.47-.17-.1-.32-.15-.45-.27l1.59.21-1.98-.51c.38,0,.91.16,1.29.21.47.07,1.44.21,1.87.33.51.14,1.45.17,1.97.13-.19-.09-.83-.2-1.11-.27l-1.07-.26c-.21-.05-.38-.08-.55-.15-.51-.2-1.02-.33-1.55-.48-.94-.28-3.63-.79-4.56-.42,1.19-.52,3.8,0,4.73.27l2.16.64c.19.04.34.11.54.17.52.16,1.06.33,1.61.42l-.04-.11s0-.01,0-.02c0,0,0,0,0-.02,0,0,0-.01,0-.02.19.1.76.25,1,.25-.54-.42-1.84-.68-2.33-1.24.44.1.99.42,1.41.64.16.08.3.12.44.19-.4-.56-1.12-.99-1.69-1.33l-.64-.3c.51-.02,1.17.41,1.58.71.42.3.79.67,1.16,1.04.04.04.03.04.08.08.08.06.04.03.1.05l-.54-.76c.1.15.81.74.86.95-.12-.42-.42-.72-.64-1.03l.32.18c-.56-.77-1.76-1.23-2.52-1.66.72,0,2.09.86,2.62,1.47.25.29.44.66.68.9l-.29-.62s.03.01.03.01l.37.37c-.34-.78-.78-1.17-1.3-1.62.21.02.39.15.57.3.16.13.33.28.48.45.3.35.57.75.8,1.21.01-.2-.15-.54-.25-.76.15.03.02-.02.16.06.23.12.41.42.56.62l-.13-.47.38.45c-.11-.43-.28-.67-.42-1.02.28.15.44.48.6.81.03-.16-.06-.4-.13-.58l.41.35c.11.12.22.27.32.38-.15-.42-.36-.62-.57-.92.43.21.61.58.94.97-.13-.48-.56-1.17-.86-1.44.45.03.83,1.14,1.07,1.36l-.06-.49s.02,0,.09.07l.31.47-.09-.63c.18.16.23.37.38.6-.01-.03-.05-.53-.17-.81.09.03.01-.01.13.08.2.16.31.43.5.6l-.25-.49c.07.02.03,0,.11.04l.25.17Z"/>
      <path class="cls-29" d="M543.34,749.51c2.54,0,4.6,2.06,4.6,4.6s-2.06,4.61-4.6,4.61-4.6-2.06-4.6-4.61,2.06-4.6,4.6-4.6Z"/>
      <path class="cls-15" d="M543.34,758.71c2.54,0,4.61-2.06,4.61-4.61s-2.06-4.61-4.61-4.61c-1.06,0-2.04.37-2.83.97l.35-.04c.83,0,1.49.66,1.49,1.49s-.66,1.49-1.49,1.49-1.49-.66-1.49-1.49v-.17c-.4.69-.64,1.49-.64,2.35,0,2.54,2.06,4.61,4.61,4.61Z"/>
      <path class="cls-15" d="M534.6,748.96c-.08.1-.15.17-.22.28.07-.43.47-1.03.61-1.39-.16.18-.27.26-.42.54-.13.24-.21.5-.3.8-.05-.32.04-.54.04-.83-.12.22-.18.66-.17.92-.06-.92-.03-.87.21-1.77-.33.3-.51,1.16-.52,1.64-.1-.18-.13-.45-.15-.71-.11.33-.1.48-.06.8l-.25-.32c.06.2.12.26.16.42-.44-.3-1.26-1.41-1.23-2.03.08.25.3.72.43.85-.08-.43-.26-.9-.24-1.41.15.3.15.75.26,1.09.11.35.27.74.44.94-.18-.73-.42-1.31-.3-2.16l.04.2c.04.39.05.81.16,1.18.04-.7-.08-1.34.39-1.91-.09.3-.19.48-.25.83.25-.35.31-.94.76-1.05-.17.28-.35.48-.53.87-.15.3-.35.83-.21,1.18.19-1.29.78-2.02,1.53-2.33-.2.14-.81.74-.84,1.05v.05c.08.33.03-.31.03.08-.13.13-.29.43-.37.66-.05.13-.1.3-.13.46-.01.07-.03.21-.03.28,0,.08,0,.06.02.13l.02.08c.15-.86.37-1.36.84-1.88.29-.32.98-.9,1.4-1,0,0-.02.02-.03.02l-.34.23c-.81.58-1.59,1.25-1.75,2.48.05-.06,0,.01.07-.11.01-.03.02-.04.03-.08.16-.37.31-.76.54-1.08.25-.35.56-.69.83-.9.36-.28,1.56-.94,2.2-.92-.19,0-1.33.52-1.52.63-.42.25-.95.59-1.23,1.09.18-.07.35-.23.52-.34,1.04-.66,2.85-1.65,3.99-1.7-.69.23-1.65.69-2.14,1.07l.42-.15c-.11.08-.2.16-.33.25-.11.08-.21.13-.33.23-.55.44-1.38,1.17-1.65,1.92.14-.18.33-.38.49-.56.18-.21.34-.36.52-.55.35-.32.74-.69,1.13-.95.82-.56,1.62-1.03,2.57-1.36-.13.08-.26.14-.36.3.79-.13,2.02-.97,4-1.27-.41.21-1.11.35-1.58.56l-.43.23c.26-.02,1.1-.35,1.44-.47,1.67-.53,2.7-.88,4.54-1.05,1.17-.11,2.28-.22,3.5.22.79.28,1.55.64,2.22,1.16.24.18.37.32.56.49-.49-.22-1.64-1.27-2.7-1.41,1.69.89,3.04,1.69,4.28,2.96-.33-.18-.79-.59-1.15-.85-.41-.29-.81-.54-1.24-.8-.76-.46-1.96-1.07-2.89-1.23.23.17.81.42,1.1.57,2.09,1.06,4.11,2.3,5.99,3.77.22.17.67.62.83.71-.2-.06-.98-.64-1.24-.81-1.36-.85-2.65-1.63-4.27-1.98.45.32,3.39,1.31,4.36,2.14l-2.56-1.14c-.77-.3-2.08-.79-2.9-.83.95.11,4.73,1.59,5.51,2.21-.4-.11-.98-.4-1.42-.57-.51-.19-1-.36-1.52-.51-1.05-.32-2.17-.56-3.25-.62-1.47-.07-2.85.09-4.24.39-.4.09-.94.25-1.32.29.22-.18.9-.3,1.16-.37.8-.21,1.62-.37,2.44-.46.33-.04,1.02-.02,1.28-.09-1.01-.18-1.76,0-2.62-.03.08-.01.03,0,.1-.03.08-.04.03-.02.1-.06-.53,0-1.52.3-1.99.49-.56.21-1.67.83-1.72.85.13-.13.25-.22.35-.36l-1.36.51,1.66-.87c-.33.08-.78.32-1.1.45-.4.16-1.22.47-1.59.67-.42.24-1.24.44-1.71.51.15-.13.7-.36.93-.48l.9-.46c.17-.09.32-.15.45-.25.42-.3.85-.52,1.29-.77.78-.44,3.06-1.46,3.94-1.27-1.14-.29-3.34.73-4.11,1.16l-1.79,1.05c-.16.08-.27.17-.44.27-.43.25-.88.52-1.35.72l.02-.11s0-.02,0-.02v-.02s0-.01,0-.02c-.15.13-.62.39-.84.44.41-.51,1.51-1.02,1.84-1.67-.37.18-.8.61-1.13.9-.12.11-.24.17-.35.27.25-.63.82-1.19,1.26-1.63l.52-.42c-.45.08-.95.63-1.26,1-.32.37-.59.81-.85,1.24-.03.05-.02.04-.06.08-.06.08-.02.04-.08.07l.35-.85c-.07.16-.59.87-.6,1.09.03-.43.25-.78.38-1.14l-.25.24c.35-.85,1.34-1.53,1.94-2.1-.63.14-1.69,1.24-2.06,1.94-.18.33-.28.74-.44,1.01l.15-.67s-.02.02-.03.03l-.27.44c.17-.82.49-1.29.87-1.84-.18.06-.32.23-.45.4-.12.15-.25.34-.34.53-.21.41-.38.85-.5,1.34-.04-.18.04-.55.09-.78-.12.05-.02-.02-.13.08-.18.16-.29.49-.39.71l.03-.49-.25.51c.03-.44.13-.7.2-1.09-.22.21-.3.57-.39.91-.06-.15-.01-.39.01-.59l-.3.42c-.08.14-.15.31-.22.44.05-.43.21-.67.34-1.01-.34.29-.43.69-.66,1.14.03-.5.29-1.25.51-1.58-.39.11-.53,1.29-.7,1.55l-.03-.5s-.01.01-.06.09l-.2.52-.02-.64c-.14.19-.15.4-.23.67,0-.03-.05-.53,0-.84-.07.06-.01,0-.1.11-.15.2-.2.47-.35.68l.13-.52c-.05.03-.02.01-.08.06l-.19.22Z"/>
      <path class="cls-1" d="M529.4,759.61c-.35-.27-.4-.77-.13-1.12.27-.34.77-.39,1.11-.12.85.67,2.87,4.54,4.79,8.69,2.28,4.91,4.49,10.32,4.49,11.25,0,3.51-2.18,4.16-4.4,4.16-.57,0-1.2-.06-1.77-.11-.77-.07-1.42-.13-1.49-.07-.33.28-.83.23-1.12-.1-.27-.33-.22-.84.11-1.12.58-.48,1.52-.39,2.64-.29.5.04,1.05.09,1.63.09,1.42,0,2.8-.4,2.8-2.56,0-.73-2.13-5.85-4.34-10.59-1.84-3.96-3.7-7.62-4.33-8.12Z"/>
      <path class="cls-4" d="M546.63,794.27c-9.45,3.1-9.64,2.67-21.39,2.55-4.12-.04-.32,1.6,4.32,3.22,8.63,3.01,17.97-.3,17.57-5.55l-.5-.22Z"/>
      <path class="cls-18" d="M1726.28,870.65c-3.94-10.48-8.74-16.53-14.41-18.15-12.75-5.66-24.05-12.01-33.89-19.07-3.96,4.83-.81,9.84,9.46,15.04,4.29,2.36,7.39,4.69,9.31,6.99-10.69,5.02-15.88,11.35-15.57,18.99,1.52,5.89,3.43,9.28,5.75,10.15,1.1.41,3.53,1.26,5.87-1.34,5.8,11.52,13.31,11.98,19.23,9.79,1.67.36,2.21.51,3.67.89,1.51-8.46,6.42-19.11,10.58-23.3Z"/>
      <path class="cls-14" d="M2007.58,1126.1c-16.3,11.36-29.96,95.79-31.29,253.28-1.74,59.09,8.52,137.36,21.79,240.26,10.82,4.63,26.69,5.26,38.77,4.62,16.83-127.68,19.59-209.21,7.05-242.66,16.26-41.07,29.92-83.82,40.34-127.43,7.23,60.52,15.77,108.54,25.61,144.07,21.83,56.87,54.16,131.35,97.01,223.45,9.91,1.34,27.52-1.65,37.77-8.33-14.98-112.67-43.61-197.33-70.57-225.38,25.64-144.01,4.3-219-27.53-263.01-56.79,8.45-106.09,7.86-138.94,1.13Z"/>
      <path class="cls-12" d="M2185.51,1082.02c42.49-164.68-3.78-224.65-94.76-225.38-6.01,15.98-16.75,32.33-32.21,49.04-6.39-12.2-13.33-21.49-20.81-27.86-7.99,5.24-16,13.46-24.02,24.66-1.39-17.06.21-31.79,4.81-44.17-32.74,2.27-83.76,18.48-153.09,48.62-38.09-12.54-85.88-26.63-139.58-38.03l-.18.14c-1.38-.35-11.98,24.13-12.43,24.24,3.48,11.26,135.96,59.09,149.64,64.4,39.44-.32,79.29,1.23,119.45-12.87.57,118.43,8.91,167.68,25.24,181.28,15.66,3.21,35.05,5.03,57.21,5.12,1.46,2.69,2.52,7.09,3.58,11.31,10.43-3.24,21.9-8.56,34.54-12.67l3.48-1.41c12.39-5.03,23.43-10.09,33.41-15.33,18.06-9.49,32.69-19.57,45.72-31.09Z"/>
      <polygon class="cls-28" points="2146.17 1109.27 2101.58 1130.59 2146.53 1125.26 2146.17 1109.27"/>
      <path class="cls-19" d="M1961.72,1660c32.45,1.51,56.71,2.64,68.13-.18,12.32-3.06,10.28-10.58,4.09-22.8-12.15,3.97-24.36,2.95-36.66-3.04-10.55,7.45-25.77,11.93-45.63,13.45-8.72,5.62-5.68,11.3,10.08,12.57h0ZM2214.35,1664.81c18-5.09,33.51-8.59,39.96-13.13,8.64-6.07,3.96-13.37-4.85-22.57-10.47,7.32-22.46,9.89-35.97,7.71-9.54,13.55-40.56,7.86-43.62,17.14-3.8,17.28,36.19,13.18,44.46,10.84Z"/>
      <path class="cls-30" d="M2052.7,1069.88c-3.01-46.37-6.67-102.8-10.34-172.81,3.9-1.97,6.64-5.11,7.55-5.89-3.74-5.18-7.63-9.49-11.69-12.94-4.6,3.02-9.21,7.02-13.81,12,1.42,1.98,3.89,4.27,7.43,6.87-3.41,43.08-6.92,101.8-10.52,176.13,1.96,6.9,7.91,13.94,15.61,19.28,5.03-4.05,13.4-11.52,15.77-22.65Z"/>
      <path class="cls-28" d="M2058.54,905.68c15.47-16.7,26.2-33.05,32.22-49.04-3.38-6.38-8.69-12.79-12.42-14.6-17.99,18.78-29.44,29.28-40.41,35.67-.06.03-.13.07-.19.11-.14-.5-.29-1-.44-1.51-2.9-9.91-7.09-21.41-8.92-32.85-5.17,3.67-7.03,9.24-9.85,14.84-4.6,12.39-6.2,27.12-4.81,44.17,3.4-4.76,6.8-8.97,10.2-12.65,4.61-5,9.21-9,13.81-12.01,4.06,3.45,7.95,7.77,11.69,12.94,3.15,4.36,6.19,9.33,9.11,14.92Z"/>
      <path class="cls-28" d="M2117.53,957.24c.59-2.6.76-5.55.51-8.89-15.26,1.34-28.94.32-40.98-3.21-1.28,2.44-1.85,5.05-1.7,7.86,9.27,3.47,23.33,4.88,42.17,4.24Z"/>
      <path class="cls-18" d="M2078.14,842.16c-2.79-3.47-5.14-8.09-7.06-13.87,1.02-3.08,2.06-6.98,3.13-11.69,19.69-14.01,22.21-24.1,7.55-30.3-2.89,1.7-6.42,6.84-10.57,15.39-3.47-.06-.21-9.1-2.06-12.46,3.82-14.38.32-18.72,1.38-27.67-10.17-14.42-34.81-18.28-65.22-13.68-2.58,28.02-11.23,94.14,22.65,92l.25,3.69c1.82,11.44,6.02,22.93,8.92,32.84l.63,1.4c10.97-6.38,22.42-16.88,40.41-35.66Z"/>
      <path class="cls-19" d="M2006.87,750.15c30.4-4.6,53.48-3.01,63.65,11.41-1.06,8.94,1.42,14.4-2.39,28.78,1.86,3.36-.4,11.28,3.07,11.35,4.15-8.55,7.68-13.69,10.57-15.39,14.66,6.2,12.15,16.29-7.55,30.3-1.07,4.71-2.11,8.61-3.13,11.69,34.59-20.32,49.74-69.55,18.22-92.65-6.4-40.81-65.05-3.36-95.26-22.45-11.48,16.6,3.59,36.79,12.82,36.96Z"/>
      <path class="cls-13" d="M2050.94,837.03c-5.57,1.54-16.56,3.05-23,2.85l.25,3.69c.35,2.22.8,4.44,1.3,6.65.07-.02.13-.04.2-.07,9.96-3.47,17.03-7.85,21.25-13.12Z"/>
      <path class="cls-30" d="M2025.96,892.18c-.74-.73-1.42-1.51-2.03-2.35,6.69-7.12,11.46-10.98,14.3-11.59,2.03,3.65,4.59,9.23,7.36,16,1.91-1.51,3.26-2.98,3.84-3.48-3.58-4.96-7.32-9.14-11.21-12.52-3.69,3-7.79,7.64-12.27,13.93Z"/>
      <path class="cls-16" d="M2214.33,1621.95c1.42,4.9,1.98,9.98,1.67,15.24,11.08,1.31,21.12-.65,30.1-5.91-2.55-4.8-4.46-9.98-5.74-15.54-7.76,3.74-17.83,5.86-26.03,6.21h0ZM2031.26,1637.81c-.53-4.59-.76-9.04-.67-13.35-8.51.09-18.02-.55-26.07-2.66-.91,5.51-2.54,9.93-4.86,13.28,10.59,4.61,21.12,5.53,31.6,2.73Z"/>
      <path class="cls-28" d="M2014.21,909.67c3.57-6,7.61-11.97,11.74-17.49-.83-.83-1.51-1.61-2.03-2.35-3.39,3.67-6.78,7.87-10.17,12.61.08,2.47.24,4.88.46,7.23h0ZM1982.34,944.82c-.16-6.85.37-16.51,1.59-28.96-2.83,13.52-8.54,24.75-17.16,33.68,5.19-1.33,10.38-2.9,15.57-4.72h0ZM2058.54,905.68c-2.92-5.58-5.96-10.56-9.11-14.92-.59.5-1.93,1.97-3.84,3.48,2.95,7.21,6.16,15.76,9.26,24.81,15.37-19.33,29.94-43.91,35.92-62.41-6.01,15.99-16.75,32.33-32.22,49.04h0ZM2064.8,1131.23c-3.18-5.77-6.92-10.46-11.23-14.11,45.76-31.8,72.52-50.11,93.03-63.01-6.4-26.74-11.46-64.09-9.64-96.25-6.77,36.6-7.58,67.69-2.44,93.28-35.65,24.64-68.79,50.33-90.43,68.3l1.45,2.54c-3.26,2.2-6.45,4.88-9.58,8.04,8.96.75,18.6,1.16,28.84,1.21Z"/>
      <path class="cls-18" d="M2067.88,1140.6c-8.12,6.78-14.6,7.81-22.98,12.64-14.3.69-20.24-.45-24.67-6.7-4.97-11.29.79-22.05,7.44-19.79,1.58,4.61,6.3,5.99,11.65,4.57,1.49-5.74,4.53-8.37,9.12-7.92,1.71-1.76,4.22-4.44,5.57-5.9,12.05,9.37,11.72,15.25,13.87,23.1Z"/>
      <path class="cls-19" d="M2092.58,749.68c-2.88-4.14-3.1-7.72-.66-10.78,6.88-1.44,12.47.2,16.77,4.92-3.26-.82-8.63,1.13-16.11,5.85Z"/>
      <path class="cls-19" d="M2085.47,736.91c2.84,3.17,5.44,3.87,7.81,2.1,1.46-5.98.6-11.25-2.59-15.78.4,3.05-1.34,7.61-5.23,13.68Z"/>
      <path class="cls-19" d="M2028.27,747.97c-.25-8.83-3.69-14.12-10.32-15.87-11.2,5.14-17.36,13.28-18.49,24.44,3.73-4.56,13.34-7.41,28.81-8.57Z"/>
      <path class="cls-19" d="M2048.59,716.88c-1.35,3.76.42,8.67-4.9,9.82-3.51,16.19-16.29-5.65-16.03-11.7,2.26,1.71,9.24,2.33,20.94,1.89Z"/>
      <path class="cls-29" d="M2043.71,769.24c2.08-.28,3.94,1.68,4.15,4.37.21,2.68-1.3,5.09-3.38,5.36-2.08.28-3.94-1.68-4.16-4.36-.21-2.69,1.3-5.09,3.39-5.37Z"/>
      <path class="cls-15" d="M2044.49,778.98c2.08-.28,3.6-2.68,3.39-5.37-.22-2.69-2.08-4.65-4.16-4.37-.88.12-1.65.61-2.24,1.34l.29-.08c.67-.09,1.28.54,1.35,1.42.07.87-.42,1.65-1.1,1.74-.67.09-1.28-.54-1.34-1.41v-.18c-.29.77-.42,1.65-.34,2.56.21,2.68,2.08,4.64,4.16,4.37Z"/>
      <path class="cls-15" d="M2037.13,766.02c-.11.09-.19.16-.29.27.13-.45.65-1.04.85-1.41-.21.18-.34.24-.55.52-.17.25-.3.51-.43.81-.03-.34.1-.56.13-.87-.16.23-.28.69-.3.95.01-.98.05-.93.42-1.85-.41.28-.72,1.17-.77,1.68-.11-.21-.11-.5-.12-.78-.16.34-.16.5-.15.84l-.26-.36c.04.22.11.28.15.47-.5-.37-1.36-1.63-1.27-2.28.08.28.28.79.44.95-.06-.47-.23-.98-.15-1.53.14.34.1.81.2,1.19.1.37.25.81.43,1.04-.15-.78-.38-1.44-.16-2.31l.03.21c.01.42-.02.86.08,1.27.1-.74.03-1.42.64-1.98-.13.31-.28.5-.37.85.32-.34.45-.97.99-1.04-.24.28-.47.47-.71.87-.2.31-.48.84-.35,1.23.35-1.35,1.11-2.06,2.03-2.31-.25.13-1.02.7-1.09,1.03v.06c.06.36.05-.32.03.08-.18.13-.38.42-.5.65-.07.14-.14.32-.19.48-.02.08-.06.22-.06.29,0,.08,0,.08,0,.14v.08c.27-.9.58-1.4,1.19-1.9.37-.31,1.24-.85,1.74-.92,0,0-.03.02-.03.02l-.42.2c-1.02.54-2,1.16-2.3,2.45.06-.05,0,.02.08-.11.03-.03.03-.04.05-.07.22-.38.45-.78.75-1.09.32-.34.72-.67,1.07-.87.46-.26,1.93-.83,2.68-.74-.23,0-1.61.41-1.84.51-.52.22-1.18.52-1.56,1.03.22-.06.44-.21.65-.3,1.28-.59,3.52-1.46,4.86-1.38-.83.18-2.01.55-2.63.91l.51-.11c-.14.07-.26.15-.42.23-.15.07-.26.12-.4.2-.7.4-1.75,1.09-2.13,1.86.17-.18.42-.36.64-.54.22-.19.42-.35.67-.52.44-.31.92-.66,1.41-.9,1.03-.5,2.01-.92,3.17-1.17-.16.07-.33.13-.45.28.94-.04,2.48-.81,4.84-.92-.5.17-1.34.25-1.91.42l-.53.2c.32,0,1.33-.26,1.74-.34,2.01-.39,3.27-.66,5.46-.64,1.41,0,2.71.02,4.12.6.91.38,1.77.85,2.52,1.46.27.23.4.38.62.59-.57-.28-1.81-1.52-3.06-1.78,1.91,1.12,3.43,2.11,4.77,3.59-.36-.23-.87-.72-1.27-1.02-.46-.35-.91-.66-1.39-.97-.85-.57-2.23-1.33-3.31-1.61.25.2.92.54,1.26.72,2.36,1.34,4.64,2.88,6.71,4.61.25.21.74.73.92.85-.22-.08-1.1-.78-1.39-.98-1.53-1.04-2.98-2.01-4.85-2.54.49.38,3.88,1.74,4.94,2.72l-2.91-1.46c-.88-.41-2.37-1.05-3.35-1.19,1.11.22,5.43,2.18,6.3,2.92-.46-.16-1.12-.54-1.62-.76-.59-.25-1.15-.48-1.75-.7-1.21-.44-2.5-.82-3.77-.99-1.73-.24-3.38-.2-5.05-.03-.48.05-1.13.17-1.58.16.27-.16,1.09-.22,1.41-.27.96-.14,1.94-.22,2.92-.23.39,0,1.19.08,1.51.03-1.17-.3-2.09-.18-3.1-.3.1-.01.05,0,.13-.03.1-.03.05-.02.12-.06-.62-.05-1.81.17-2.39.31-.68.16-2.04.7-2.11.71.16-.12.32-.2.45-.33l-1.66.39,2.04-.76c-.4.05-.95.27-1.35.37-.49.13-1.48.37-1.93.54-.53.21-1.51.34-2.06.35.19-.12.85-.31,1.14-.41l1.1-.39c.21-.08.38-.13.56-.22.52-.27,1.05-.47,1.58-.68.97-.39,3.76-1.22,4.78-.93-1.31-.43-4.02.42-4.97.8l-2.22.92c-.2.06-.34.16-.54.23-.53.22-1.09.46-1.66.62l.04-.12v-.02s0-.02,0-.03c0,0,0-.01,0-.02-.2.13-.77.35-1.04.37.53-.5,1.87-.92,2.33-1.57-.46.15-1.01.55-1.43.82-.15.1-.3.16-.45.25.36-.64,1.08-1.18,1.66-1.6l.65-.4c-.54.04-1.19.57-1.6.92-.4.36-.76.79-1.11,1.22-.04.05-.03.04-.08.08-.07.08-.04.04-.11.06l.5-.86c-.09.17-.78.86-.81,1.1.08-.45.37-.81.55-1.17l-.32.23c.5-.88,1.72-1.49,2.49-2.04-.76.08-2.12,1.14-2.61,1.84-.23.33-.4.75-.62,1.02l.24-.68s-.03.02-.04.03l-.36.43c.28-.85.7-1.31,1.21-1.84-.23.05-.4.2-.57.37-.16.15-.32.33-.46.53-.28.41-.53.85-.72,1.37-.04-.21.1-.59.18-.83-.15.04-.02-.02-.16.08-.23.15-.38.5-.52.71l.09-.51-.35.51c.08-.47.23-.73.34-1.13-.28.2-.42.57-.55.92-.05-.16.02-.42.08-.62l-.4.41c-.1.14-.2.31-.3.44.11-.45.32-.69.5-1.03-.42.28-.57.69-.88,1.14.08-.53.46-1.3.76-1.61-.47.08-.75,1.3-.98,1.56v-.53s0,0-.07.08l-.28.53.03-.68c-.18.19-.21.41-.34.68.01-.04,0-.57.1-.88-.1.05-.02,0-.13.1-.2.19-.28.49-.47.69l.21-.54c-.08.03-.03.01-.11.06l-.25.21Z"/>
      <path class="cls-29" d="M2010.34,768.15c-1.93.28-3.33,2.68-3.13,5.36.2,2.68,1.92,4.64,3.85,4.37,1.93-.28,3.33-2.68,3.13-5.37-.2-2.68-1.92-4.63-3.85-4.36Z"/>
      <path class="cls-15" d="M2011.06,777.88c-1.93.27-3.66-1.67-3.86-4.37-.2-2.69,1.21-5.09,3.14-5.37.81-.11,1.58.16,2.22.72h-.27c-.63.08-1.08.86-1.02,1.73.06.87.62,1.51,1.25,1.41.62-.09,1.08-.87,1.02-1.74l-.02-.18c.37.69.61,1.51.68,2.42.2,2.69-1.21,5.1-3.14,5.37Z"/>
      <path class="cls-15" d="M2018.46,766.61c.08.1.15.17.21.28-.09-.45-.48-1.04-.64-1.41.15.18.25.24.4.52.13.24.23.51.33.81.01-.35-.08-.57-.11-.87.12.23.21.68.23.95-.03-.99-.06-.93-.34-1.85.3.27.53,1.17.59,1.68.07-.21.06-.49.06-.78.13.34.13.5.13.84l.18-.36c-.03.22-.07.28-.1.47.35-.37.94-1.63.86-2.28-.05.28-.19.79-.29.95.03-.47.14-.98.08-1.53-.09.34-.06.81-.12,1.19-.06.37-.17.81-.3,1.04.1-.79.25-1.44.08-2.31l-.02.21c0,.42.03.86-.04,1.26-.09-.74-.05-1.42-.49-1.97.1.3.2.49.28.85-.23-.34-.34-.96-.73-1.03.18.28.34.47.52.86.15.31.36.84.28,1.23-.27-1.35-.83-2.05-1.49-2.3.18.13.75.7.8,1.02v.06c-.03.36-.04-.33-.01.08.13.13.28.43.37.66.05.13.11.31.14.47.02.08.05.22.06.3v.22c-.21-.9-.44-1.39-.88-1.89-.27-.31-.91-.85-1.27-.91.01,0,.02.02.03.02l.3.2c.74.53,1.45,1.15,1.7,2.43-.04-.05,0,.02-.07-.11t-.03-.07c-.17-.37-.34-.77-.56-1.09-.24-.34-.53-.67-.78-.86-.33-.26-1.39-.83-1.93-.74.16-.01,1.16.4,1.33.5.37.21.86.52,1.14,1.02-.15-.05-.32-.21-.47-.3-.93-.58-2.54-1.44-3.5-1.36.59.17,1.45.54,1.9.9l-.37-.1c.1.06.18.15.3.22.11.07.19.12.3.2.5.4,1.27,1.09,1.56,1.85-.13-.17-.31-.36-.47-.54-.17-.19-.31-.35-.49-.51-.32-.31-.68-.66-1.03-.9-.75-.49-1.46-.91-2.29-1.15.11.06.23.12.32.27-.67-.04-1.79-.8-3.48-.9.36.18.96.24,1.38.42l.38.2c-.23,0-.95-.25-1.25-.33-1.45-.38-2.35-.64-3.92-.62-1,.01-1.94.01-2.94.61-.64.38-1.24.85-1.77,1.46-.19.22-.28.38-.43.59.4-.28,1.27-1.53,2.16-1.79-1.35,1.12-2.42,2.12-3.35,3.6.25-.23.62-.71.9-1.02.32-.35.64-.67.98-.98.59-.57,1.56-1.34,2.33-1.61-.18.2-.65.54-.88.72-1.67,1.35-3.27,2.89-4.72,4.63-.18.21-.52.73-.64.85.16-.08.77-.78.97-.98,1.07-1.05,2.1-2.02,3.43-2.56-.35.38-2.74,1.75-3.49,2.73l2.06-1.48c.63-.41,1.69-1.06,2.38-1.19-.79.22-3.84,2.2-4.45,2.93.33-.15.79-.54,1.14-.76.41-.25.81-.49,1.24-.71.86-.44,1.77-.82,2.69-1,1.23-.24,2.41-.21,3.61-.05.35.05.81.16,1.14.16-.2-.16-.79-.22-1.01-.27-.69-.13-1.39-.2-2.1-.22-.28,0-.86.09-1.08.04.83-.3,1.49-.18,2.2-.31-.06-.01-.03,0-.09-.03-.06-.04-.03-.02-.08-.06.45-.06,1.31.15,1.72.3.49.16,1.48.69,1.53.71-.12-.13-.24-.2-.33-.33l1.19.39-1.47-.75c.29.04.69.25.97.36.35.12,1.07.36,1.4.54.38.2,1.09.33,1.48.34-.13-.12-.62-.31-.83-.41l-.8-.38c-.15-.08-.27-.13-.4-.22-.38-.27-.76-.46-1.15-.67-.7-.38-2.7-1.21-3.43-.92.93-.42,2.88.41,3.57.79l1.61.9c.15.06.25.15.39.23.38.22.79.46,1.19.62l-.03-.12v-.02s0-.01,0-.02c0-.01,0-.01,0-.02.14.12.56.35.74.37-.39-.5-1.35-.91-1.69-1.56.33.16.73.55,1.03.83.11.1.22.15.32.25-.26-.64-.79-1.17-1.21-1.59l-.47-.39c.39.04.86.56,1.16.91.3.36.56.8.82,1.22.03.05.03.04.06.08.05.08.03.04.08.06l-.37-.86c.07.17.57.86.6,1.1-.06-.45-.28-.8-.43-1.16l.23.23c-.37-.87-1.26-1.48-1.82-2.02.55.08,1.54,1.13,1.9,1.83.18.33.3.74.47,1.02l-.18-.68s.02.01.03.02l.26.43c-.21-.86-.52-1.31-.89-1.84.16.05.28.2.42.38.11.15.23.33.33.53.21.4.4.85.54,1.36.02-.2-.08-.59-.15-.83.1.05.01-.01.11.08.17.15.29.49.39.71l-.07-.51.26.51c-.06-.47-.17-.73-.26-1.13.2.2.3.56.41.92.03-.16-.02-.42-.07-.62l.3.41c.07.14.15.31.22.44-.09-.45-.24-.69-.38-1.03.31.27.43.68.66,1.13-.08-.52-.36-1.29-.57-1.61.34.08.56,1.31.73,1.56v-.53s0,0,.04.08l.21.52-.04-.67c.13.18.16.41.25.68,0-.04,0-.57-.08-.88.07.05.01,0,.1.1.14.19.2.48.35.69l-.16-.54c.05.03.02,0,.08.06l.18.2Z"/>
      <path class="cls-1" d="M2024.66,777.32c.33-.33.34-.87.01-1.19-.33-.33-.87-.34-1.19-.02-.82.8-2.53,5.11-4.11,9.7-1.87,5.44-3.62,11.41-3.52,12.4.49,4.84,4.13,5,6.6,5.1.67.02,1.24.05,1.38.14.39.25.91.15,1.17-.24.25-.39.15-.91-.24-1.17-.52-.35-1.31-.39-2.24-.42-1.87-.08-4.64-.2-4.99-3.59-.08-.77,1.63-6.41,3.44-11.67,1.51-4.39,3.08-8.44,3.7-9.04Z"/>
      <path class="cls-4" d="M2043.04,811.27c-15.77,10.79-24.95,11.49-27.55,2.11,11.45,1.14,20.63.44,27.55-2.11Z"/>
      <path class="cls-25" d="M1839.49,1023.46h147.61c2.91,0,5.91,2.37,6.68,5.28l26.26,100.01c.76,2.9-.99,5.29-3.9,5.29h-147.61c-2.91,0-5.91-2.38-6.68-5.29l-26.26-100.01c-.76-2.91.99-5.28,3.9-5.28Z"/>
      <path class="cls-3" d="M2014.76,1094.23l-17.83-67.89c-.76-2.91-3.76-5.29-6.68-5.29h-147.62c-2.9,0-8.09,3.76-7.22,6.64-.14-2.41,1.52-4.23,4.07-4.23h147.61c2.91,0,5.91,2.37,6.68,5.28l26.26,100.01c.46,1.74.01,3.29-1.05,4.26,2.43-1.57,4.75-4.61,4.21-6.67l-8.44-32.11Z"/>
      <path class="cls-3" d="M2016.14,1134.04h-147.61c-.54,0-1.09-.08-1.63-.23,2.94,7.61,10.93,6.49,14.04,6.46h175.01c9.48-.4,9.24-7.05,9.36-13.46h-42.05c.14,2.03-2.02,4.76-4.27,6.21-.71.64-1.69,1.02-2.85,1.02Z"/>
      <path class="cls-3" d="M1995.48,1064.58c-81.28,41.12-81.14-1.84-137.47,20.2l10.98,41.81h142.77l-16.28-62.01Z"/>
      <path class="cls-18" d="M2018.5,1140.27c2.52-8.8,3.37-9.21,13.5-9.21,5.56,0,8.39,3.07,12,5.95,3.37,2.67,8.77,3.89,4.69,7.79-4.38,4.2-15.97,5.6-20.94,1.71-2.94-2.32-9.79-4.44-9.26-6.25Z"/>
      <path class="cls-5" d="M912.99,1335.14v-112.22c0-20.66-16.75-37.41-37.4-37.41h-214.05c-20.65,0-37.41,16.75-37.41,37.41v112.22c0,20.66,16.75,37.41,37.41,37.41h128.69l158.28,76.36-93.28-76.36h20.36c20.66,0,37.4-16.75,37.4-37.41Z"/>
      <rect class="cls-34" x="675.03" y="1256.49" width="21.49" height="43.62"/>
      <rect class="cls-34" x="838.12" y="1256.49" width="21.49" height="43.62"/>
      <path class="cls-4" d="M805.61,1278.06c0,21.15-17.15,38.29-38.3,38.29s-38.29-17.14-38.29-38.29,17.14-38.29,38.29-38.29,38.3,17.14,38.3,38.29h0ZM748.04,1228.81v4.29h-32.12c-6.84,0-12.44,5.6-12.44,12.44v68.03c0,6.85,5.6,12.45,12.44,12.45h102.79c6.84,0,12.44-5.6,12.44-12.45v-68.03c0-6.85-5.6-12.44-12.44-12.44h-32.12v-4.29h-38.55Z"/>
      <path class="cls-4" d="M779.88,1276.73c-6.73,0-12.17-5.45-12.17-12.17,0-4.01,1.96-7.53,4.95-9.75-1.72-.4-3.5-.64-5.34-.64-13.2,0-23.89,10.7-23.89,23.89s10.69,23.89,23.89,23.89,23.9-10.7,23.9-23.89c0-2.42-.47-4.71-1.14-6.91-2.17,3.35-5.92,5.58-10.2,5.58Z"/>
      <path class="cls-5" d="M767.32,1239.77c-21.15,0-38.29,17.14-38.29,38.29s17.15,38.29,38.29,38.29,38.3-17.14,38.3-38.29-17.15-38.29-38.3-38.29h0ZM767.32,1301.95c-13.21,0-23.9-10.7-23.9-23.89s10.69-23.89,23.9-23.89c1.83,0,3.6.25,5.33.64-2.99,2.22-4.95,5.75-4.95,9.75,0,6.72,5.45,12.17,12.17,12.17,4.28,0,8.03-2.23,10.19-5.58.69,2.2,1.14,4.49,1.14,6.91,0,13.19-10.7,23.89-23.89,23.89Z"/>
      <path class="cls-5" d="M699.37,636.62c23.15,10.58,46.75,15.35,71.52,15.35,85.01,0,153.97-60.05,153.97-134.1s-68.96-134.09-153.97-134.09-153.97,60.05-153.97,134.09c0,32.77,13.29,62.46,35.72,85.88-37.57,17.78-75.13,35.56-112.7,53.34,159.44-20.47,106.29-13.65,159.44-20.47Z"/>
      <path class="cls-4" d="M846.36,487.56c-17.59,0-31.84,14.25-31.84,31.84s14.25,31.84,31.84,31.84,31.84-14.25,31.84-31.84-14.25-31.84-31.84-31.84h0ZM693.28,487.56c-17.59,0-31.84,14.25-31.84,31.84s14.25,31.84,31.84,31.84,31.84-14.25,31.84-31.84-14.25-31.84-31.84-31.84h0ZM769.82,487.56c-17.59,0-31.84,14.25-31.84,31.84s14.25,31.84,31.84,31.84,31.84-14.25,31.84-31.84-14.25-31.84-31.84-31.84Z"/>
      <path class="cls-1" d="M1579.41,233.32h130.48c14.99,0,27.26,12.27,27.26,27.26v102.5c0,13.58-10.06,24.92-23.1,26.94l-25.61,34.11,3.91-33.79h-112.94c-15,0-27.26-12.27-27.26-27.26v-102.5c0-14.99,12.26-27.26,27.26-27.26Z"/>
      <path class="cls-5" d="M1751.61,265.27h-130.48c-14.99,0-27.27,12.27-27.27,27.26v102.51c0,13.57,10.06,24.92,23.1,26.94l25.6,34.11-3.91-33.79h112.95c14.99,0,27.26-12.27,27.26-27.26v-102.51c0-14.99-12.27-27.26-27.26-27.26Z"/>
      <path class="cls-4" d="M1641.95,325.76c7.84,0,14.2,6.35,14.2,14.2s-6.35,14.2-14.2,14.2-14.2-6.35-14.2-14.2,6.36-14.2,14.2-14.2h0ZM1728.97,325.76c7.85,0,14.2,6.35,14.2,14.2s-6.35,14.2-14.2,14.2-14.2-6.35-14.2-14.2,6.35-14.2,14.2-14.2h0ZM1685.46,325.76c7.84,0,14.19,6.35,14.19,14.2s-6.35,14.2-14.19,14.2-14.2-6.35-14.2-14.2,6.35-14.2,14.2-14.2Z"/>
    </g>
  </g>
</svg>